%TF.GenerationSoftware,KiCad,Pcbnew,5.1.12-84ad8e8a86~92~ubuntu20.04.1*%
%TF.CreationDate,2022-07-02T20:29:17-03:00*%
%TF.ProjectId,ppl-01,70706c2d-3031-42e6-9b69-6361645f7063,01.1.1*%
%TF.SameCoordinates,Original*%
%TF.FileFunction,Legend,Bot*%
%TF.FilePolarity,Positive*%
%FSLAX46Y46*%
G04 Gerber Fmt 4.6, Leading zero omitted, Abs format (unit mm)*
G04 Created by KiCad (PCBNEW 5.1.12-84ad8e8a86~92~ubuntu20.04.1) date 2022-07-02 20:29:17*
%MOMM*%
%LPD*%
G01*
G04 APERTURE LIST*
%TA.AperFunction,Profile*%
%ADD10C,0.100000*%
%TD*%
%ADD11C,0.120000*%
%ADD12C,0.150000*%
G04 APERTURE END LIST*
D10*
X173736000Y-72390000D02*
G75*
G02*
X175260000Y-73914000I0J-1524000D01*
G01*
X175260000Y-116586000D02*
G75*
G02*
X173736000Y-118110000I-1524000J0D01*
G01*
X175260000Y-116586000D02*
X175260000Y-73914000D01*
X125730000Y-73914000D02*
G75*
G02*
X127254000Y-72390000I1524000J0D01*
G01*
X127254000Y-118110000D02*
G75*
G02*
X125730000Y-116586000I0J1524000D01*
G01*
X125730000Y-116586000D02*
X125730000Y-73914000D01*
X173736000Y-118110000D02*
X127254000Y-118110000D01*
X127254000Y-72390000D02*
X173736000Y-72390000D01*
D11*
%TO.C,R3*%
X154840000Y-88307936D02*
X154840000Y-88762064D01*
X156310000Y-88307936D02*
X156310000Y-88762064D01*
%TO.C,R1*%
X149960000Y-97017064D02*
X149960000Y-96562936D01*
X148490000Y-97017064D02*
X148490000Y-96562936D01*
%TO.C,R5*%
X149960000Y-92937064D02*
X149960000Y-92482936D01*
X148490000Y-92937064D02*
X148490000Y-92482936D01*
%TO.C,U1*%
X142680000Y-90180000D02*
X144630000Y-90180000D01*
X142680000Y-90180000D02*
X140730000Y-90180000D01*
X142680000Y-99050000D02*
X144630000Y-99050000D01*
X142680000Y-99050000D02*
X139230000Y-99050000D01*
%TO.C,R21*%
X172820000Y-76427064D02*
X172820000Y-75972936D01*
X171350000Y-76427064D02*
X171350000Y-75972936D01*
%TO.C,R20*%
X149325000Y-107558064D02*
X149325000Y-107103936D01*
X147855000Y-107558064D02*
X147855000Y-107103936D01*
%TO.C,R19*%
X172820000Y-81237064D02*
X172820000Y-80782936D01*
X171350000Y-81237064D02*
X171350000Y-80782936D01*
%TO.C,R18*%
X167917936Y-84809000D02*
X168372064Y-84809000D01*
X167917936Y-83339000D02*
X168372064Y-83339000D01*
%TO.C,R17*%
X157126000Y-76427064D02*
X157126000Y-75972936D01*
X158596000Y-76427064D02*
X158596000Y-75972936D01*
%TO.C,R14*%
X145315000Y-107103936D02*
X145315000Y-107558064D01*
X146785000Y-107103936D02*
X146785000Y-107558064D01*
%TO.C,R13*%
X157126000Y-81237064D02*
X157126000Y-80782936D01*
X158596000Y-81237064D02*
X158596000Y-80782936D01*
%TO.C,R12*%
X170407064Y-107850000D02*
X169952936Y-107850000D01*
X170407064Y-109320000D02*
X169952936Y-109320000D01*
%TO.C,R10*%
X152500000Y-97763064D02*
X152500000Y-97308936D01*
X151030000Y-97763064D02*
X151030000Y-97308936D01*
%TO.C,R9*%
X162067936Y-92810000D02*
X162522064Y-92810000D01*
X162067936Y-91340000D02*
X162522064Y-91340000D01*
%TO.C,R8*%
X158850000Y-88762064D02*
X158850000Y-88307936D01*
X157380000Y-88762064D02*
X157380000Y-88307936D01*
%TO.C,R7*%
X159920000Y-88307936D02*
X159920000Y-88762064D01*
X161390000Y-88307936D02*
X161390000Y-88762064D01*
%TO.C,R6*%
X151030000Y-91657936D02*
X151030000Y-92112064D01*
X152500000Y-91657936D02*
X152500000Y-92112064D01*
%TO.C,R4*%
X147282064Y-99595000D02*
X146827936Y-99595000D01*
X147282064Y-101065000D02*
X146827936Y-101065000D01*
%TO.C,R2*%
X162460000Y-88307936D02*
X162460000Y-88762064D01*
X163930000Y-88307936D02*
X163930000Y-88762064D01*
%TO.C,Q1*%
X134249000Y-105920000D02*
X135179000Y-105920000D01*
X137409000Y-105920000D02*
X136479000Y-105920000D01*
X137409000Y-105920000D02*
X137409000Y-108080000D01*
X134249000Y-105920000D02*
X134249000Y-107380000D01*
%TD*%
%TO.C,R3*%
D12*
X154503380Y-85812333D02*
X154027190Y-85479000D01*
X154503380Y-85240904D02*
X153503380Y-85240904D01*
X153503380Y-85621857D01*
X153551000Y-85717095D01*
X153598619Y-85764714D01*
X153693857Y-85812333D01*
X153836714Y-85812333D01*
X153931952Y-85764714D01*
X153979571Y-85717095D01*
X154027190Y-85621857D01*
X154027190Y-85240904D01*
X153503380Y-86145666D02*
X153503380Y-86764714D01*
X153884333Y-86431380D01*
X153884333Y-86574238D01*
X153931952Y-86669476D01*
X153979571Y-86717095D01*
X154074809Y-86764714D01*
X154312904Y-86764714D01*
X154408142Y-86717095D01*
X154455761Y-86669476D01*
X154503380Y-86574238D01*
X154503380Y-86288523D01*
X154455761Y-86193285D01*
X154408142Y-86145666D01*
%TO.C,R1*%
X148153380Y-96623333D02*
X147677190Y-96290000D01*
X148153380Y-96051904D02*
X147153380Y-96051904D01*
X147153380Y-96432857D01*
X147201000Y-96528095D01*
X147248619Y-96575714D01*
X147343857Y-96623333D01*
X147486714Y-96623333D01*
X147581952Y-96575714D01*
X147629571Y-96528095D01*
X147677190Y-96432857D01*
X147677190Y-96051904D01*
X148153380Y-97575714D02*
X148153380Y-97004285D01*
X148153380Y-97290000D02*
X147153380Y-97290000D01*
X147296238Y-97194761D01*
X147391476Y-97099523D01*
X147439095Y-97004285D01*
%TO.C,R5*%
X148153380Y-92416333D02*
X147677190Y-92083000D01*
X148153380Y-91844904D02*
X147153380Y-91844904D01*
X147153380Y-92225857D01*
X147201000Y-92321095D01*
X147248619Y-92368714D01*
X147343857Y-92416333D01*
X147486714Y-92416333D01*
X147581952Y-92368714D01*
X147629571Y-92321095D01*
X147677190Y-92225857D01*
X147677190Y-91844904D01*
X147153380Y-93321095D02*
X147153380Y-92844904D01*
X147629571Y-92797285D01*
X147581952Y-92844904D01*
X147534333Y-92940142D01*
X147534333Y-93178238D01*
X147581952Y-93273476D01*
X147629571Y-93321095D01*
X147724809Y-93368714D01*
X147962904Y-93368714D01*
X148058142Y-93321095D01*
X148105761Y-93273476D01*
X148153380Y-93178238D01*
X148153380Y-92940142D01*
X148105761Y-92844904D01*
X148058142Y-92797285D01*
%TO.C,U1*%
X140901904Y-99401380D02*
X140901904Y-100210904D01*
X140854285Y-100306142D01*
X140806666Y-100353761D01*
X140711428Y-100401380D01*
X140520952Y-100401380D01*
X140425714Y-100353761D01*
X140378095Y-100306142D01*
X140330476Y-100210904D01*
X140330476Y-99401380D01*
X139330476Y-100401380D02*
X139901904Y-100401380D01*
X139616190Y-100401380D02*
X139616190Y-99401380D01*
X139711428Y-99544238D01*
X139806666Y-99639476D01*
X139901904Y-99687095D01*
%TO.C,R21*%
X174187380Y-75557142D02*
X173711190Y-75223809D01*
X174187380Y-74985714D02*
X173187380Y-74985714D01*
X173187380Y-75366666D01*
X173235000Y-75461904D01*
X173282619Y-75509523D01*
X173377857Y-75557142D01*
X173520714Y-75557142D01*
X173615952Y-75509523D01*
X173663571Y-75461904D01*
X173711190Y-75366666D01*
X173711190Y-74985714D01*
X173282619Y-75938095D02*
X173235000Y-75985714D01*
X173187380Y-76080952D01*
X173187380Y-76319047D01*
X173235000Y-76414285D01*
X173282619Y-76461904D01*
X173377857Y-76509523D01*
X173473095Y-76509523D01*
X173615952Y-76461904D01*
X174187380Y-75890476D01*
X174187380Y-76509523D01*
X174187380Y-77461904D02*
X174187380Y-76890476D01*
X174187380Y-77176190D02*
X173187380Y-77176190D01*
X173330238Y-77080952D01*
X173425476Y-76985714D01*
X173473095Y-76890476D01*
%TO.C,R20*%
X150947380Y-106545142D02*
X150471190Y-106211809D01*
X150947380Y-105973714D02*
X149947380Y-105973714D01*
X149947380Y-106354666D01*
X149995000Y-106449904D01*
X150042619Y-106497523D01*
X150137857Y-106545142D01*
X150280714Y-106545142D01*
X150375952Y-106497523D01*
X150423571Y-106449904D01*
X150471190Y-106354666D01*
X150471190Y-105973714D01*
X150042619Y-106926095D02*
X149995000Y-106973714D01*
X149947380Y-107068952D01*
X149947380Y-107307047D01*
X149995000Y-107402285D01*
X150042619Y-107449904D01*
X150137857Y-107497523D01*
X150233095Y-107497523D01*
X150375952Y-107449904D01*
X150947380Y-106878476D01*
X150947380Y-107497523D01*
X149947380Y-108116571D02*
X149947380Y-108211809D01*
X149995000Y-108307047D01*
X150042619Y-108354666D01*
X150137857Y-108402285D01*
X150328333Y-108449904D01*
X150566428Y-108449904D01*
X150756904Y-108402285D01*
X150852142Y-108354666D01*
X150899761Y-108307047D01*
X150947380Y-108211809D01*
X150947380Y-108116571D01*
X150899761Y-108021333D01*
X150852142Y-107973714D01*
X150756904Y-107926095D01*
X150566428Y-107878476D01*
X150328333Y-107878476D01*
X150137857Y-107926095D01*
X150042619Y-107973714D01*
X149995000Y-108021333D01*
X149947380Y-108116571D01*
%TO.C,R19*%
X174187380Y-80367142D02*
X173711190Y-80033809D01*
X174187380Y-79795714D02*
X173187380Y-79795714D01*
X173187380Y-80176666D01*
X173235000Y-80271904D01*
X173282619Y-80319523D01*
X173377857Y-80367142D01*
X173520714Y-80367142D01*
X173615952Y-80319523D01*
X173663571Y-80271904D01*
X173711190Y-80176666D01*
X173711190Y-79795714D01*
X174187380Y-81319523D02*
X174187380Y-80748095D01*
X174187380Y-81033809D02*
X173187380Y-81033809D01*
X173330238Y-80938571D01*
X173425476Y-80843333D01*
X173473095Y-80748095D01*
X174187380Y-81795714D02*
X174187380Y-81986190D01*
X174139761Y-82081428D01*
X174092142Y-82129047D01*
X173949285Y-82224285D01*
X173758809Y-82271904D01*
X173377857Y-82271904D01*
X173282619Y-82224285D01*
X173235000Y-82176666D01*
X173187380Y-82081428D01*
X173187380Y-81890952D01*
X173235000Y-81795714D01*
X173282619Y-81748095D01*
X173377857Y-81700476D01*
X173615952Y-81700476D01*
X173711190Y-81748095D01*
X173758809Y-81795714D01*
X173806428Y-81890952D01*
X173806428Y-82081428D01*
X173758809Y-82176666D01*
X173711190Y-82224285D01*
X173615952Y-82271904D01*
%TO.C,R18*%
X168787857Y-86176380D02*
X169121190Y-85700190D01*
X169359285Y-86176380D02*
X169359285Y-85176380D01*
X168978333Y-85176380D01*
X168883095Y-85224000D01*
X168835476Y-85271619D01*
X168787857Y-85366857D01*
X168787857Y-85509714D01*
X168835476Y-85604952D01*
X168883095Y-85652571D01*
X168978333Y-85700190D01*
X169359285Y-85700190D01*
X167835476Y-86176380D02*
X168406904Y-86176380D01*
X168121190Y-86176380D02*
X168121190Y-85176380D01*
X168216428Y-85319238D01*
X168311666Y-85414476D01*
X168406904Y-85462095D01*
X167264047Y-85604952D02*
X167359285Y-85557333D01*
X167406904Y-85509714D01*
X167454523Y-85414476D01*
X167454523Y-85366857D01*
X167406904Y-85271619D01*
X167359285Y-85224000D01*
X167264047Y-85176380D01*
X167073571Y-85176380D01*
X166978333Y-85224000D01*
X166930714Y-85271619D01*
X166883095Y-85366857D01*
X166883095Y-85414476D01*
X166930714Y-85509714D01*
X166978333Y-85557333D01*
X167073571Y-85604952D01*
X167264047Y-85604952D01*
X167359285Y-85652571D01*
X167406904Y-85700190D01*
X167454523Y-85795428D01*
X167454523Y-85985904D01*
X167406904Y-86081142D01*
X167359285Y-86128761D01*
X167264047Y-86176380D01*
X167073571Y-86176380D01*
X166978333Y-86128761D01*
X166930714Y-86081142D01*
X166883095Y-85985904D01*
X166883095Y-85795428D01*
X166930714Y-85700190D01*
X166978333Y-85652571D01*
X167073571Y-85604952D01*
%TO.C,R17*%
X159963380Y-75557142D02*
X159487190Y-75223809D01*
X159963380Y-74985714D02*
X158963380Y-74985714D01*
X158963380Y-75366666D01*
X159011000Y-75461904D01*
X159058619Y-75509523D01*
X159153857Y-75557142D01*
X159296714Y-75557142D01*
X159391952Y-75509523D01*
X159439571Y-75461904D01*
X159487190Y-75366666D01*
X159487190Y-74985714D01*
X159963380Y-76509523D02*
X159963380Y-75938095D01*
X159963380Y-76223809D02*
X158963380Y-76223809D01*
X159106238Y-76128571D01*
X159201476Y-76033333D01*
X159249095Y-75938095D01*
X158963380Y-76842857D02*
X158963380Y-77509523D01*
X159963380Y-77080952D01*
%TO.C,R14*%
X144724380Y-106545142D02*
X144248190Y-106211809D01*
X144724380Y-105973714D02*
X143724380Y-105973714D01*
X143724380Y-106354666D01*
X143772000Y-106449904D01*
X143819619Y-106497523D01*
X143914857Y-106545142D01*
X144057714Y-106545142D01*
X144152952Y-106497523D01*
X144200571Y-106449904D01*
X144248190Y-106354666D01*
X144248190Y-105973714D01*
X144724380Y-107497523D02*
X144724380Y-106926095D01*
X144724380Y-107211809D02*
X143724380Y-107211809D01*
X143867238Y-107116571D01*
X143962476Y-107021333D01*
X144010095Y-106926095D01*
X144057714Y-108354666D02*
X144724380Y-108354666D01*
X143676761Y-108116571D02*
X144391047Y-107878476D01*
X144391047Y-108497523D01*
%TO.C,R13*%
X159963380Y-80367142D02*
X159487190Y-80033809D01*
X159963380Y-79795714D02*
X158963380Y-79795714D01*
X158963380Y-80176666D01*
X159011000Y-80271904D01*
X159058619Y-80319523D01*
X159153857Y-80367142D01*
X159296714Y-80367142D01*
X159391952Y-80319523D01*
X159439571Y-80271904D01*
X159487190Y-80176666D01*
X159487190Y-79795714D01*
X159963380Y-81319523D02*
X159963380Y-80748095D01*
X159963380Y-81033809D02*
X158963380Y-81033809D01*
X159106238Y-80938571D01*
X159201476Y-80843333D01*
X159249095Y-80748095D01*
X158963380Y-81652857D02*
X158963380Y-82271904D01*
X159344333Y-81938571D01*
X159344333Y-82081428D01*
X159391952Y-82176666D01*
X159439571Y-82224285D01*
X159534809Y-82271904D01*
X159772904Y-82271904D01*
X159868142Y-82224285D01*
X159915761Y-82176666D01*
X159963380Y-82081428D01*
X159963380Y-81795714D01*
X159915761Y-81700476D01*
X159868142Y-81652857D01*
%TO.C,R12*%
X170822857Y-107387380D02*
X171156190Y-106911190D01*
X171394285Y-107387380D02*
X171394285Y-106387380D01*
X171013333Y-106387380D01*
X170918095Y-106435000D01*
X170870476Y-106482619D01*
X170822857Y-106577857D01*
X170822857Y-106720714D01*
X170870476Y-106815952D01*
X170918095Y-106863571D01*
X171013333Y-106911190D01*
X171394285Y-106911190D01*
X169870476Y-107387380D02*
X170441904Y-107387380D01*
X170156190Y-107387380D02*
X170156190Y-106387380D01*
X170251428Y-106530238D01*
X170346666Y-106625476D01*
X170441904Y-106673095D01*
X169489523Y-106482619D02*
X169441904Y-106435000D01*
X169346666Y-106387380D01*
X169108571Y-106387380D01*
X169013333Y-106435000D01*
X168965714Y-106482619D01*
X168918095Y-106577857D01*
X168918095Y-106673095D01*
X168965714Y-106815952D01*
X169537142Y-107387380D01*
X168918095Y-107387380D01*
%TO.C,R10*%
X153868380Y-98544142D02*
X153392190Y-98210809D01*
X153868380Y-97972714D02*
X152868380Y-97972714D01*
X152868380Y-98353666D01*
X152916000Y-98448904D01*
X152963619Y-98496523D01*
X153058857Y-98544142D01*
X153201714Y-98544142D01*
X153296952Y-98496523D01*
X153344571Y-98448904D01*
X153392190Y-98353666D01*
X153392190Y-97972714D01*
X153868380Y-99496523D02*
X153868380Y-98925095D01*
X153868380Y-99210809D02*
X152868380Y-99210809D01*
X153011238Y-99115571D01*
X153106476Y-99020333D01*
X153154095Y-98925095D01*
X152868380Y-100115571D02*
X152868380Y-100210809D01*
X152916000Y-100306047D01*
X152963619Y-100353666D01*
X153058857Y-100401285D01*
X153249333Y-100448904D01*
X153487428Y-100448904D01*
X153677904Y-100401285D01*
X153773142Y-100353666D01*
X153820761Y-100306047D01*
X153868380Y-100210809D01*
X153868380Y-100115571D01*
X153820761Y-100020333D01*
X153773142Y-99972714D01*
X153677904Y-99925095D01*
X153487428Y-99877476D01*
X153249333Y-99877476D01*
X153058857Y-99925095D01*
X152963619Y-99972714D01*
X152916000Y-100020333D01*
X152868380Y-100115571D01*
%TO.C,R9*%
X162461666Y-94177380D02*
X162795000Y-93701190D01*
X163033095Y-94177380D02*
X163033095Y-93177380D01*
X162652142Y-93177380D01*
X162556904Y-93225000D01*
X162509285Y-93272619D01*
X162461666Y-93367857D01*
X162461666Y-93510714D01*
X162509285Y-93605952D01*
X162556904Y-93653571D01*
X162652142Y-93701190D01*
X163033095Y-93701190D01*
X161985476Y-94177380D02*
X161795000Y-94177380D01*
X161699761Y-94129761D01*
X161652142Y-94082142D01*
X161556904Y-93939285D01*
X161509285Y-93748809D01*
X161509285Y-93367857D01*
X161556904Y-93272619D01*
X161604523Y-93225000D01*
X161699761Y-93177380D01*
X161890238Y-93177380D01*
X161985476Y-93225000D01*
X162033095Y-93272619D01*
X162080714Y-93367857D01*
X162080714Y-93605952D01*
X162033095Y-93701190D01*
X161985476Y-93748809D01*
X161890238Y-93796428D01*
X161699761Y-93796428D01*
X161604523Y-93748809D01*
X161556904Y-93701190D01*
X161509285Y-93605952D01*
%TO.C,R8*%
X158567380Y-85558333D02*
X158091190Y-85225000D01*
X158567380Y-84986904D02*
X157567380Y-84986904D01*
X157567380Y-85367857D01*
X157615000Y-85463095D01*
X157662619Y-85510714D01*
X157757857Y-85558333D01*
X157900714Y-85558333D01*
X157995952Y-85510714D01*
X158043571Y-85463095D01*
X158091190Y-85367857D01*
X158091190Y-84986904D01*
X157995952Y-86129761D02*
X157948333Y-86034523D01*
X157900714Y-85986904D01*
X157805476Y-85939285D01*
X157757857Y-85939285D01*
X157662619Y-85986904D01*
X157615000Y-86034523D01*
X157567380Y-86129761D01*
X157567380Y-86320238D01*
X157615000Y-86415476D01*
X157662619Y-86463095D01*
X157757857Y-86510714D01*
X157805476Y-86510714D01*
X157900714Y-86463095D01*
X157948333Y-86415476D01*
X157995952Y-86320238D01*
X157995952Y-86129761D01*
X158043571Y-86034523D01*
X158091190Y-85986904D01*
X158186428Y-85939285D01*
X158376904Y-85939285D01*
X158472142Y-85986904D01*
X158519761Y-86034523D01*
X158567380Y-86129761D01*
X158567380Y-86320238D01*
X158519761Y-86415476D01*
X158472142Y-86463095D01*
X158376904Y-86510714D01*
X158186428Y-86510714D01*
X158091190Y-86463095D01*
X158043571Y-86415476D01*
X157995952Y-86320238D01*
%TO.C,R7*%
X162123380Y-85558333D02*
X161647190Y-85225000D01*
X162123380Y-84986904D02*
X161123380Y-84986904D01*
X161123380Y-85367857D01*
X161171000Y-85463095D01*
X161218619Y-85510714D01*
X161313857Y-85558333D01*
X161456714Y-85558333D01*
X161551952Y-85510714D01*
X161599571Y-85463095D01*
X161647190Y-85367857D01*
X161647190Y-84986904D01*
X161123380Y-85891666D02*
X161123380Y-86558333D01*
X162123380Y-86129761D01*
%TO.C,R6*%
X153868380Y-91718333D02*
X153392190Y-91385000D01*
X153868380Y-91146904D02*
X152868380Y-91146904D01*
X152868380Y-91527857D01*
X152916000Y-91623095D01*
X152963619Y-91670714D01*
X153058857Y-91718333D01*
X153201714Y-91718333D01*
X153296952Y-91670714D01*
X153344571Y-91623095D01*
X153392190Y-91527857D01*
X153392190Y-91146904D01*
X152868380Y-92575476D02*
X152868380Y-92385000D01*
X152916000Y-92289761D01*
X152963619Y-92242142D01*
X153106476Y-92146904D01*
X153296952Y-92099285D01*
X153677904Y-92099285D01*
X153773142Y-92146904D01*
X153820761Y-92194523D01*
X153868380Y-92289761D01*
X153868380Y-92480238D01*
X153820761Y-92575476D01*
X153773142Y-92623095D01*
X153677904Y-92670714D01*
X153439809Y-92670714D01*
X153344571Y-92623095D01*
X153296952Y-92575476D01*
X153249333Y-92480238D01*
X153249333Y-92289761D01*
X153296952Y-92194523D01*
X153344571Y-92146904D01*
X153439809Y-92099285D01*
%TO.C,R4*%
X150026666Y-102052380D02*
X150360000Y-101576190D01*
X150598095Y-102052380D02*
X150598095Y-101052380D01*
X150217142Y-101052380D01*
X150121904Y-101100000D01*
X150074285Y-101147619D01*
X150026666Y-101242857D01*
X150026666Y-101385714D01*
X150074285Y-101480952D01*
X150121904Y-101528571D01*
X150217142Y-101576190D01*
X150598095Y-101576190D01*
X149169523Y-101385714D02*
X149169523Y-102052380D01*
X149407619Y-101004761D02*
X149645714Y-101719047D01*
X149026666Y-101719047D01*
%TO.C,R2*%
X164155380Y-85558333D02*
X163679190Y-85225000D01*
X164155380Y-84986904D02*
X163155380Y-84986904D01*
X163155380Y-85367857D01*
X163203000Y-85463095D01*
X163250619Y-85510714D01*
X163345857Y-85558333D01*
X163488714Y-85558333D01*
X163583952Y-85510714D01*
X163631571Y-85463095D01*
X163679190Y-85367857D01*
X163679190Y-84986904D01*
X163250619Y-85939285D02*
X163203000Y-85986904D01*
X163155380Y-86082142D01*
X163155380Y-86320238D01*
X163203000Y-86415476D01*
X163250619Y-86463095D01*
X163345857Y-86510714D01*
X163441095Y-86510714D01*
X163583952Y-86463095D01*
X164155380Y-85891666D01*
X164155380Y-86510714D01*
%TO.C,Q1*%
X138876619Y-106584761D02*
X138829000Y-106489523D01*
X138733761Y-106394285D01*
X138590904Y-106251428D01*
X138543285Y-106156190D01*
X138543285Y-106060952D01*
X138781380Y-106108571D02*
X138733761Y-106013333D01*
X138638523Y-105918095D01*
X138448047Y-105870476D01*
X138114714Y-105870476D01*
X137924238Y-105918095D01*
X137829000Y-106013333D01*
X137781380Y-106108571D01*
X137781380Y-106299047D01*
X137829000Y-106394285D01*
X137924238Y-106489523D01*
X138114714Y-106537142D01*
X138448047Y-106537142D01*
X138638523Y-106489523D01*
X138733761Y-106394285D01*
X138781380Y-106299047D01*
X138781380Y-106108571D01*
X138781380Y-107489523D02*
X138781380Y-106918095D01*
X138781380Y-107203809D02*
X137781380Y-107203809D01*
X137924238Y-107108571D01*
X138019476Y-107013333D01*
X138067095Y-106918095D01*
%TD*%
M02*
