%TF.GenerationSoftware,KiCad,Pcbnew,5.1.12-84ad8e8a86~92~ubuntu20.04.1*%
%TF.CreationDate,2022-07-04T18:17:34-03:00*%
%TF.ProjectId,ppl-01,70706c2d-3031-42e6-9b69-6361645f7063,01.1.1*%
%TF.SameCoordinates,Original*%
%TF.FileFunction,Copper,L2,Bot*%
%TF.FilePolarity,Positive*%
%FSLAX46Y46*%
G04 Gerber Fmt 4.6, Leading zero omitted, Abs format (unit mm)*
G04 Created by KiCad (PCBNEW 5.1.12-84ad8e8a86~92~ubuntu20.04.1) date 2022-07-04 18:17:34*
%MOMM*%
%LPD*%
G01*
G04 APERTURE LIST*
%TA.AperFunction,Profile*%
%ADD10C,0.100000*%
%TD*%
%TA.AperFunction,ComponentPad*%
%ADD11C,6.200000*%
%TD*%
%TA.AperFunction,ComponentPad*%
%ADD12O,1.600000X2.200000*%
%TD*%
%TA.AperFunction,ComponentPad*%
%ADD13O,2.200000X1.400000*%
%TD*%
%TA.AperFunction,ComponentPad*%
%ADD14O,2.300000X1.800000*%
%TD*%
%TA.AperFunction,ComponentPad*%
%ADD15R,2.300000X1.800000*%
%TD*%
%TA.AperFunction,ComponentPad*%
%ADD16R,2.600000X2.600000*%
%TD*%
%TA.AperFunction,ComponentPad*%
%ADD17C,2.600000*%
%TD*%
%TA.AperFunction,ComponentPad*%
%ADD18O,3.000000X1.500000*%
%TD*%
%TA.AperFunction,ComponentPad*%
%ADD19R,3.000000X1.500000*%
%TD*%
%TA.AperFunction,ComponentPad*%
%ADD20O,2.300000X1.600000*%
%TD*%
%TA.AperFunction,SMDPad,CuDef*%
%ADD21O,2.300000X0.600000*%
%TD*%
%TA.AperFunction,ComponentPad*%
%ADD22R,2.200000X1.600000*%
%TD*%
%TA.AperFunction,ComponentPad*%
%ADD23O,2.200000X1.600000*%
%TD*%
%TA.AperFunction,ViaPad*%
%ADD24C,1.500000*%
%TD*%
%TA.AperFunction,Conductor*%
%ADD25C,0.500000*%
%TD*%
%TA.AperFunction,Conductor*%
%ADD26C,0.300000*%
%TD*%
%TA.AperFunction,Conductor*%
%ADD27C,0.200000*%
%TD*%
%TA.AperFunction,Conductor*%
%ADD28C,0.100000*%
%TD*%
G04 APERTURE END LIST*
D10*
X173736000Y-72390000D02*
G75*
G02*
X175260000Y-73914000I0J-1524000D01*
G01*
X175260000Y-116586000D02*
G75*
G02*
X173736000Y-118110000I-1524000J0D01*
G01*
X175260000Y-116586000D02*
X175260000Y-73914000D01*
X125730000Y-73914000D02*
G75*
G02*
X127254000Y-72390000I1524000J0D01*
G01*
X127254000Y-118110000D02*
G75*
G02*
X125730000Y-116586000I0J1524000D01*
G01*
X125730000Y-116586000D02*
X125730000Y-73914000D01*
X173736000Y-118110000D02*
X127254000Y-118110000D01*
X127254000Y-72390000D02*
X173736000Y-72390000D01*
D11*
%TO.P,PP1,1*%
%TO.N,Net-(PP1-Pad1)*%
X156210000Y-95250000D03*
%TO.P,PP1,2*%
%TO.N,Net-(PP1-Pad2)*%
X170180000Y-95250000D03*
%TD*%
D12*
%TO.P,C2,1*%
%TO.N,Net-(C2-Pad1)*%
X165862000Y-87630000D03*
%TO.P,C2,2*%
%TO.N,vprova*%
X170862000Y-87630000D03*
%TD*%
%TO.P,C6,1*%
%TO.N,VCC*%
X146059000Y-103505000D03*
%TO.P,C6,2*%
%TO.N,GND*%
X148559000Y-103505000D03*
%TD*%
%TO.P,C3,1*%
%TO.N,GND*%
X169866000Y-103505000D03*
%TO.P,C3,2*%
%TO.N,Net-(C3-Pad2)*%
X167366000Y-103505000D03*
%TD*%
%TO.P,C1,1*%
%TO.N,Net-(C1-Pad1)*%
X133370000Y-84963000D03*
%TO.P,C1,2*%
%TO.N,GND*%
X135870000Y-84963000D03*
%TD*%
D13*
%TO.P,C7,1*%
%TO.N,Net-(C7-Pad1)*%
X154305000Y-79121000D03*
%TO.P,C7,2*%
%TO.N,GND*%
X154305000Y-76621000D03*
%TD*%
D12*
%TO.P,C8,1*%
%TO.N,vprova*%
X146059000Y-111125000D03*
%TO.P,C8,2*%
%TO.N,GND*%
X148559000Y-111125000D03*
%TD*%
%TO.P,C5,1*%
%TO.N,vprova*%
X169866000Y-111125000D03*
%TO.P,C5,2*%
%TO.N,Net-(C5-Pad2)*%
X167366000Y-111125000D03*
%TD*%
D14*
%TO.P,D7,2*%
%TO.N,VCC*%
X131318000Y-114935000D03*
D15*
%TO.P,D7,1*%
%TO.N,Net-(D7-Pad1)*%
X131318000Y-112395000D03*
%TD*%
%TO.P,R3,1*%
%TO.N,VCC*%
%TA.AperFunction,SMDPad,CuDef*%
G36*
G01*
X155124999Y-86935000D02*
X156025001Y-86935000D01*
G75*
G02*
X156275000Y-87184999I0J-249999D01*
G01*
X156275000Y-87885001D01*
G75*
G02*
X156025001Y-88135000I-249999J0D01*
G01*
X155124999Y-88135000D01*
G75*
G02*
X154875000Y-87885001I0J249999D01*
G01*
X154875000Y-87184999D01*
G75*
G02*
X155124999Y-86935000I249999J0D01*
G01*
G37*
%TD.AperFunction*%
%TO.P,R3,2*%
%TO.N,Net-(R3-Pad2)*%
%TA.AperFunction,SMDPad,CuDef*%
G36*
G01*
X155124999Y-88935000D02*
X156025001Y-88935000D01*
G75*
G02*
X156275000Y-89184999I0J-249999D01*
G01*
X156275000Y-89885001D01*
G75*
G02*
X156025001Y-90135000I-249999J0D01*
G01*
X155124999Y-90135000D01*
G75*
G02*
X154875000Y-89885001I0J249999D01*
G01*
X154875000Y-89184999D01*
G75*
G02*
X155124999Y-88935000I249999J0D01*
G01*
G37*
%TD.AperFunction*%
%TD*%
%TO.P,R1,1*%
%TO.N,VCC*%
%TA.AperFunction,SMDPad,CuDef*%
G36*
G01*
X149675001Y-98390000D02*
X148774999Y-98390000D01*
G75*
G02*
X148525000Y-98140001I0J249999D01*
G01*
X148525000Y-97439999D01*
G75*
G02*
X148774999Y-97190000I249999J0D01*
G01*
X149675001Y-97190000D01*
G75*
G02*
X149925000Y-97439999I0J-249999D01*
G01*
X149925000Y-98140001D01*
G75*
G02*
X149675001Y-98390000I-249999J0D01*
G01*
G37*
%TD.AperFunction*%
%TO.P,R1,2*%
%TO.N,Net-(Q1-Pad1)*%
%TA.AperFunction,SMDPad,CuDef*%
G36*
G01*
X149675001Y-96390000D02*
X148774999Y-96390000D01*
G75*
G02*
X148525000Y-96140001I0J249999D01*
G01*
X148525000Y-95439999D01*
G75*
G02*
X148774999Y-95190000I249999J0D01*
G01*
X149675001Y-95190000D01*
G75*
G02*
X149925000Y-95439999I0J-249999D01*
G01*
X149925000Y-96140001D01*
G75*
G02*
X149675001Y-96390000I-249999J0D01*
G01*
G37*
%TD.AperFunction*%
%TD*%
%TO.P,R5,1*%
%TO.N,Net-(Q1-Pad1)*%
%TA.AperFunction,SMDPad,CuDef*%
G36*
G01*
X149675001Y-94310000D02*
X148774999Y-94310000D01*
G75*
G02*
X148525000Y-94060001I0J249999D01*
G01*
X148525000Y-93359999D01*
G75*
G02*
X148774999Y-93110000I249999J0D01*
G01*
X149675001Y-93110000D01*
G75*
G02*
X149925000Y-93359999I0J-249999D01*
G01*
X149925000Y-94060001D01*
G75*
G02*
X149675001Y-94310000I-249999J0D01*
G01*
G37*
%TD.AperFunction*%
%TO.P,R5,2*%
%TO.N,Net-(R5-Pad2)*%
%TA.AperFunction,SMDPad,CuDef*%
G36*
G01*
X149675001Y-92310000D02*
X148774999Y-92310000D01*
G75*
G02*
X148525000Y-92060001I0J249999D01*
G01*
X148525000Y-91359999D01*
G75*
G02*
X148774999Y-91110000I249999J0D01*
G01*
X149675001Y-91110000D01*
G75*
G02*
X149925000Y-91359999I0J-249999D01*
G01*
X149925000Y-92060001D01*
G75*
G02*
X149675001Y-92310000I-249999J0D01*
G01*
G37*
%TD.AperFunction*%
%TD*%
D16*
%TO.P,J1,1*%
%TO.N,Net-(C1-Pad1)*%
X134620000Y-92710000D03*
D17*
%TO.P,J1,2*%
%TO.N,GND*%
X134620000Y-97710000D03*
%TD*%
D18*
%TO.P,SW1,4*%
%TO.N,Net-(SW1-Pad4)*%
X137464800Y-81280000D03*
%TO.P,SW1,5*%
%TO.N,Net-(D3-Pad1)*%
X137464800Y-78740000D03*
%TO.P,SW1,6*%
%TO.N,Net-(C4-Pad1)*%
X137464800Y-76200000D03*
%TO.P,SW1,3*%
%TO.N,Net-(SW1-Pad3)*%
X132080000Y-76200000D03*
%TO.P,SW1,2*%
%TO.N,Net-(SW1-Pad2)*%
X132080000Y-78740000D03*
D19*
%TO.P,SW1,1*%
%TO.N,Net-(SW1-Pad1)*%
X132080000Y-81280000D03*
%TD*%
D20*
%TO.P,R16,1*%
%TO.N,Net-(D8-Pad1)*%
X140462000Y-109855000D03*
%TO.P,R16,2*%
%TO.N,Net-(R16-Pad2)*%
X140462000Y-102235000D03*
%TD*%
%TO.P,R15,1*%
%TO.N,Net-(D7-Pad1)*%
X131318000Y-109855000D03*
%TO.P,R15,2*%
%TO.N,Net-(R15-Pad2)*%
X131318000Y-102235000D03*
%TD*%
D18*
%TO.P,SW2,4*%
%TO.N,Net-(R18-Pad2)*%
X168783000Y-81280000D03*
%TO.P,SW2,5*%
%TO.N,Net-(SW2-Pad5)*%
X168783000Y-78740000D03*
%TO.P,SW2,6*%
%TO.N,Net-(R19-Pad2)*%
X168783000Y-76200000D03*
%TO.P,SW2,3*%
%TO.N,Net-(R17-Pad2)*%
X163398200Y-76200000D03*
%TO.P,SW2,2*%
%TO.N,Net-(C7-Pad1)*%
X163398200Y-78740000D03*
D19*
%TO.P,SW2,1*%
%TO.N,Net-(R13-Pad2)*%
X163398200Y-81280000D03*
%TD*%
D21*
%TO.P,U1,1*%
%TO.N,Net-(R15-Pad2)*%
X140030000Y-98425000D03*
%TO.P,U1,2*%
%TO.N,Net-(R16-Pad2)*%
%TA.AperFunction,SMDPad,CuDef*%
G36*
G01*
X138880000Y-97305000D02*
X138880000Y-97005000D01*
G75*
G02*
X139030000Y-96855000I150000J0D01*
G01*
X141030000Y-96855000D01*
G75*
G02*
X141180000Y-97005000I0J-150000D01*
G01*
X141180000Y-97305000D01*
G75*
G02*
X141030000Y-97455000I-150000J0D01*
G01*
X139030000Y-97455000D01*
G75*
G02*
X138880000Y-97305000I0J150000D01*
G01*
G37*
%TD.AperFunction*%
%TO.P,U1,3*%
%TO.N,VCC*%
%TA.AperFunction,SMDPad,CuDef*%
G36*
G01*
X138880000Y-96035000D02*
X138880000Y-95735000D01*
G75*
G02*
X139030000Y-95585000I150000J0D01*
G01*
X141030000Y-95585000D01*
G75*
G02*
X141180000Y-95735000I0J-150000D01*
G01*
X141180000Y-96035000D01*
G75*
G02*
X141030000Y-96185000I-150000J0D01*
G01*
X139030000Y-96185000D01*
G75*
G02*
X138880000Y-96035000I0J150000D01*
G01*
G37*
%TD.AperFunction*%
%TO.P,U1,4*%
%TO.N,Net-(SW2-Pad5)*%
%TA.AperFunction,SMDPad,CuDef*%
G36*
G01*
X138880000Y-94765000D02*
X138880000Y-94465000D01*
G75*
G02*
X139030000Y-94315000I150000J0D01*
G01*
X141030000Y-94315000D01*
G75*
G02*
X141180000Y-94465000I0J-150000D01*
G01*
X141180000Y-94765000D01*
G75*
G02*
X141030000Y-94915000I-150000J0D01*
G01*
X139030000Y-94915000D01*
G75*
G02*
X138880000Y-94765000I0J150000D01*
G01*
G37*
%TD.AperFunction*%
%TO.P,U1,5*%
%TO.N,vprova*%
%TA.AperFunction,SMDPad,CuDef*%
G36*
G01*
X138880000Y-93495000D02*
X138880000Y-93195000D01*
G75*
G02*
X139030000Y-93045000I150000J0D01*
G01*
X141030000Y-93045000D01*
G75*
G02*
X141180000Y-93195000I0J-150000D01*
G01*
X141180000Y-93495000D01*
G75*
G02*
X141030000Y-93645000I-150000J0D01*
G01*
X139030000Y-93645000D01*
G75*
G02*
X138880000Y-93495000I0J150000D01*
G01*
G37*
%TD.AperFunction*%
%TO.P,U1,6*%
%TA.AperFunction,SMDPad,CuDef*%
G36*
G01*
X138880000Y-92225000D02*
X138880000Y-91925000D01*
G75*
G02*
X139030000Y-91775000I150000J0D01*
G01*
X141030000Y-91775000D01*
G75*
G02*
X141180000Y-91925000I0J-150000D01*
G01*
X141180000Y-92225000D01*
G75*
G02*
X141030000Y-92375000I-150000J0D01*
G01*
X139030000Y-92375000D01*
G75*
G02*
X138880000Y-92225000I0J150000D01*
G01*
G37*
%TD.AperFunction*%
%TO.P,U1,7*%
%TO.N,Net-(C7-Pad1)*%
%TA.AperFunction,SMDPad,CuDef*%
G36*
G01*
X138880000Y-90955000D02*
X138880000Y-90655000D01*
G75*
G02*
X139030000Y-90505000I150000J0D01*
G01*
X141030000Y-90505000D01*
G75*
G02*
X141180000Y-90655000I0J-150000D01*
G01*
X141180000Y-90955000D01*
G75*
G02*
X141030000Y-91105000I-150000J0D01*
G01*
X139030000Y-91105000D01*
G75*
G02*
X138880000Y-90955000I0J150000D01*
G01*
G37*
%TD.AperFunction*%
%TO.P,U1,8*%
%TO.N,Net-(C2-Pad1)*%
%TA.AperFunction,SMDPad,CuDef*%
G36*
G01*
X144180000Y-90955000D02*
X144180000Y-90655000D01*
G75*
G02*
X144330000Y-90505000I150000J0D01*
G01*
X146330000Y-90505000D01*
G75*
G02*
X146480000Y-90655000I0J-150000D01*
G01*
X146480000Y-90955000D01*
G75*
G02*
X146330000Y-91105000I-150000J0D01*
G01*
X144330000Y-91105000D01*
G75*
G02*
X144180000Y-90955000I0J150000D01*
G01*
G37*
%TD.AperFunction*%
%TO.P,U1,9*%
%TO.N,Net-(R3-Pad2)*%
%TA.AperFunction,SMDPad,CuDef*%
G36*
G01*
X144180000Y-92225000D02*
X144180000Y-91925000D01*
G75*
G02*
X144330000Y-91775000I150000J0D01*
G01*
X146330000Y-91775000D01*
G75*
G02*
X146480000Y-91925000I0J-150000D01*
G01*
X146480000Y-92225000D01*
G75*
G02*
X146330000Y-92375000I-150000J0D01*
G01*
X144330000Y-92375000D01*
G75*
G02*
X144180000Y-92225000I0J150000D01*
G01*
G37*
%TD.AperFunction*%
%TO.P,U1,10*%
%TO.N,Net-(C4-Pad1)*%
%TA.AperFunction,SMDPad,CuDef*%
G36*
G01*
X144180000Y-93495000D02*
X144180000Y-93195000D01*
G75*
G02*
X144330000Y-93045000I150000J0D01*
G01*
X146330000Y-93045000D01*
G75*
G02*
X146480000Y-93195000I0J-150000D01*
G01*
X146480000Y-93495000D01*
G75*
G02*
X146330000Y-93645000I-150000J0D01*
G01*
X144330000Y-93645000D01*
G75*
G02*
X144180000Y-93495000I0J150000D01*
G01*
G37*
%TD.AperFunction*%
%TO.P,U1,11*%
%TO.N,Net-(R5-Pad2)*%
%TA.AperFunction,SMDPad,CuDef*%
G36*
G01*
X144180000Y-94765000D02*
X144180000Y-94465000D01*
G75*
G02*
X144330000Y-94315000I150000J0D01*
G01*
X146330000Y-94315000D01*
G75*
G02*
X146480000Y-94465000I0J-150000D01*
G01*
X146480000Y-94765000D01*
G75*
G02*
X146330000Y-94915000I-150000J0D01*
G01*
X144330000Y-94915000D01*
G75*
G02*
X144180000Y-94765000I0J150000D01*
G01*
G37*
%TD.AperFunction*%
%TO.P,U1,12*%
%TO.N,GND*%
%TA.AperFunction,SMDPad,CuDef*%
G36*
G01*
X144180000Y-96035000D02*
X144180000Y-95735000D01*
G75*
G02*
X144330000Y-95585000I150000J0D01*
G01*
X146330000Y-95585000D01*
G75*
G02*
X146480000Y-95735000I0J-150000D01*
G01*
X146480000Y-96035000D01*
G75*
G02*
X146330000Y-96185000I-150000J0D01*
G01*
X144330000Y-96185000D01*
G75*
G02*
X144180000Y-96035000I0J150000D01*
G01*
G37*
%TD.AperFunction*%
%TO.P,U1,13*%
%TO.N,Net-(Q1-Pad1)*%
%TA.AperFunction,SMDPad,CuDef*%
G36*
G01*
X144180000Y-97305000D02*
X144180000Y-97005000D01*
G75*
G02*
X144330000Y-96855000I150000J0D01*
G01*
X146330000Y-96855000D01*
G75*
G02*
X146480000Y-97005000I0J-150000D01*
G01*
X146480000Y-97305000D01*
G75*
G02*
X146330000Y-97455000I-150000J0D01*
G01*
X144330000Y-97455000D01*
G75*
G02*
X144180000Y-97305000I0J150000D01*
G01*
G37*
%TD.AperFunction*%
%TO.P,U1,14*%
%TO.N,Net-(D2-Pad2)*%
%TA.AperFunction,SMDPad,CuDef*%
G36*
G01*
X144180000Y-98575000D02*
X144180000Y-98275000D01*
G75*
G02*
X144330000Y-98125000I150000J0D01*
G01*
X146330000Y-98125000D01*
G75*
G02*
X146480000Y-98275000I0J-150000D01*
G01*
X146480000Y-98575000D01*
G75*
G02*
X146330000Y-98725000I-150000J0D01*
G01*
X144330000Y-98725000D01*
G75*
G02*
X144180000Y-98575000I0J150000D01*
G01*
G37*
%TD.AperFunction*%
%TD*%
%TO.P,TP1,1*%
%TO.N,Net-(C5-Pad2)*%
%TA.AperFunction,ComponentPad*%
G36*
G01*
X153255000Y-107175300D02*
X153255000Y-105575100D01*
G75*
G02*
X153504900Y-105325200I249900J0D01*
G01*
X155105100Y-105325200D01*
G75*
G02*
X155355000Y-105575100I0J-249900D01*
G01*
X155355000Y-107175300D01*
G75*
G02*
X155105100Y-107425200I-249900J0D01*
G01*
X153504900Y-107425200D01*
G75*
G02*
X153255000Y-107175300I0J249900D01*
G01*
G37*
%TD.AperFunction*%
%TD*%
%TO.P,R21,1*%
%TO.N,Net-(R19-Pad2)*%
%TA.AperFunction,SMDPad,CuDef*%
G36*
G01*
X172535001Y-77800000D02*
X171634999Y-77800000D01*
G75*
G02*
X171385000Y-77550001I0J249999D01*
G01*
X171385000Y-76849999D01*
G75*
G02*
X171634999Y-76600000I249999J0D01*
G01*
X172535001Y-76600000D01*
G75*
G02*
X172785000Y-76849999I0J-249999D01*
G01*
X172785000Y-77550001D01*
G75*
G02*
X172535001Y-77800000I-249999J0D01*
G01*
G37*
%TD.AperFunction*%
%TO.P,R21,2*%
%TO.N,GND*%
%TA.AperFunction,SMDPad,CuDef*%
G36*
G01*
X172535001Y-75800000D02*
X171634999Y-75800000D01*
G75*
G02*
X171385000Y-75550001I0J249999D01*
G01*
X171385000Y-74849999D01*
G75*
G02*
X171634999Y-74600000I249999J0D01*
G01*
X172535001Y-74600000D01*
G75*
G02*
X172785000Y-74849999I0J-249999D01*
G01*
X172785000Y-75550001D01*
G75*
G02*
X172535001Y-75800000I-249999J0D01*
G01*
G37*
%TD.AperFunction*%
%TD*%
%TO.P,R20,1*%
%TO.N,vprova*%
%TA.AperFunction,SMDPad,CuDef*%
G36*
G01*
X149040001Y-108931000D02*
X148139999Y-108931000D01*
G75*
G02*
X147890000Y-108681001I0J249999D01*
G01*
X147890000Y-107980999D01*
G75*
G02*
X148139999Y-107731000I249999J0D01*
G01*
X149040001Y-107731000D01*
G75*
G02*
X149290000Y-107980999I0J-249999D01*
G01*
X149290000Y-108681001D01*
G75*
G02*
X149040001Y-108931000I-249999J0D01*
G01*
G37*
%TD.AperFunction*%
%TO.P,R20,2*%
%TO.N,GND*%
%TA.AperFunction,SMDPad,CuDef*%
G36*
G01*
X149040001Y-106931000D02*
X148139999Y-106931000D01*
G75*
G02*
X147890000Y-106681001I0J249999D01*
G01*
X147890000Y-105980999D01*
G75*
G02*
X148139999Y-105731000I249999J0D01*
G01*
X149040001Y-105731000D01*
G75*
G02*
X149290000Y-105980999I0J-249999D01*
G01*
X149290000Y-106681001D01*
G75*
G02*
X149040001Y-106931000I-249999J0D01*
G01*
G37*
%TD.AperFunction*%
%TD*%
%TO.P,R19,1*%
%TO.N,Net-(R18-Pad2)*%
%TA.AperFunction,SMDPad,CuDef*%
G36*
G01*
X172535001Y-82610000D02*
X171634999Y-82610000D01*
G75*
G02*
X171385000Y-82360001I0J249999D01*
G01*
X171385000Y-81659999D01*
G75*
G02*
X171634999Y-81410000I249999J0D01*
G01*
X172535001Y-81410000D01*
G75*
G02*
X172785000Y-81659999I0J-249999D01*
G01*
X172785000Y-82360001D01*
G75*
G02*
X172535001Y-82610000I-249999J0D01*
G01*
G37*
%TD.AperFunction*%
%TO.P,R19,2*%
%TO.N,Net-(R19-Pad2)*%
%TA.AperFunction,SMDPad,CuDef*%
G36*
G01*
X172535001Y-80610000D02*
X171634999Y-80610000D01*
G75*
G02*
X171385000Y-80360001I0J249999D01*
G01*
X171385000Y-79659999D01*
G75*
G02*
X171634999Y-79410000I249999J0D01*
G01*
X172535001Y-79410000D01*
G75*
G02*
X172785000Y-79659999I0J-249999D01*
G01*
X172785000Y-80360001D01*
G75*
G02*
X172535001Y-80610000I-249999J0D01*
G01*
G37*
%TD.AperFunction*%
%TD*%
%TO.P,R18,1*%
%TO.N,Net-(R17-Pad2)*%
%TA.AperFunction,SMDPad,CuDef*%
G36*
G01*
X166545000Y-84524001D02*
X166545000Y-83623999D01*
G75*
G02*
X166794999Y-83374000I249999J0D01*
G01*
X167495001Y-83374000D01*
G75*
G02*
X167745000Y-83623999I0J-249999D01*
G01*
X167745000Y-84524001D01*
G75*
G02*
X167495001Y-84774000I-249999J0D01*
G01*
X166794999Y-84774000D01*
G75*
G02*
X166545000Y-84524001I0J249999D01*
G01*
G37*
%TD.AperFunction*%
%TO.P,R18,2*%
%TO.N,Net-(R18-Pad2)*%
%TA.AperFunction,SMDPad,CuDef*%
G36*
G01*
X168545000Y-84524001D02*
X168545000Y-83623999D01*
G75*
G02*
X168794999Y-83374000I249999J0D01*
G01*
X169495001Y-83374000D01*
G75*
G02*
X169745000Y-83623999I0J-249999D01*
G01*
X169745000Y-84524001D01*
G75*
G02*
X169495001Y-84774000I-249999J0D01*
G01*
X168794999Y-84774000D01*
G75*
G02*
X168545000Y-84524001I0J249999D01*
G01*
G37*
%TD.AperFunction*%
%TD*%
%TO.P,R17,2*%
%TO.N,Net-(R17-Pad2)*%
%TA.AperFunction,SMDPad,CuDef*%
G36*
G01*
X158311001Y-75800000D02*
X157410999Y-75800000D01*
G75*
G02*
X157161000Y-75550001I0J249999D01*
G01*
X157161000Y-74849999D01*
G75*
G02*
X157410999Y-74600000I249999J0D01*
G01*
X158311001Y-74600000D01*
G75*
G02*
X158561000Y-74849999I0J-249999D01*
G01*
X158561000Y-75550001D01*
G75*
G02*
X158311001Y-75800000I-249999J0D01*
G01*
G37*
%TD.AperFunction*%
%TO.P,R17,1*%
%TO.N,Net-(R13-Pad2)*%
%TA.AperFunction,SMDPad,CuDef*%
G36*
G01*
X158311001Y-77800000D02*
X157410999Y-77800000D01*
G75*
G02*
X157161000Y-77550001I0J249999D01*
G01*
X157161000Y-76849999D01*
G75*
G02*
X157410999Y-76600000I249999J0D01*
G01*
X158311001Y-76600000D01*
G75*
G02*
X158561000Y-76849999I0J-249999D01*
G01*
X158561000Y-77550001D01*
G75*
G02*
X158311001Y-77800000I-249999J0D01*
G01*
G37*
%TD.AperFunction*%
%TD*%
%TO.P,R14,1*%
%TO.N,VCC*%
%TA.AperFunction,SMDPad,CuDef*%
G36*
G01*
X145599999Y-105731000D02*
X146500001Y-105731000D01*
G75*
G02*
X146750000Y-105980999I0J-249999D01*
G01*
X146750000Y-106681001D01*
G75*
G02*
X146500001Y-106931000I-249999J0D01*
G01*
X145599999Y-106931000D01*
G75*
G02*
X145350000Y-106681001I0J249999D01*
G01*
X145350000Y-105980999D01*
G75*
G02*
X145599999Y-105731000I249999J0D01*
G01*
G37*
%TD.AperFunction*%
%TO.P,R14,2*%
%TO.N,vprova*%
%TA.AperFunction,SMDPad,CuDef*%
G36*
G01*
X145599999Y-107731000D02*
X146500001Y-107731000D01*
G75*
G02*
X146750000Y-107980999I0J-249999D01*
G01*
X146750000Y-108681001D01*
G75*
G02*
X146500001Y-108931000I-249999J0D01*
G01*
X145599999Y-108931000D01*
G75*
G02*
X145350000Y-108681001I0J249999D01*
G01*
X145350000Y-107980999D01*
G75*
G02*
X145599999Y-107731000I249999J0D01*
G01*
G37*
%TD.AperFunction*%
%TD*%
%TO.P,R13,2*%
%TO.N,Net-(R13-Pad2)*%
%TA.AperFunction,SMDPad,CuDef*%
G36*
G01*
X158311001Y-80610000D02*
X157410999Y-80610000D01*
G75*
G02*
X157161000Y-80360001I0J249999D01*
G01*
X157161000Y-79659999D01*
G75*
G02*
X157410999Y-79410000I249999J0D01*
G01*
X158311001Y-79410000D01*
G75*
G02*
X158561000Y-79659999I0J-249999D01*
G01*
X158561000Y-80360001D01*
G75*
G02*
X158311001Y-80610000I-249999J0D01*
G01*
G37*
%TD.AperFunction*%
%TO.P,R13,1*%
%TO.N,VCC*%
%TA.AperFunction,SMDPad,CuDef*%
G36*
G01*
X158311001Y-82610000D02*
X157410999Y-82610000D01*
G75*
G02*
X157161000Y-82360001I0J249999D01*
G01*
X157161000Y-81659999D01*
G75*
G02*
X157410999Y-81410000I249999J0D01*
G01*
X158311001Y-81410000D01*
G75*
G02*
X158561000Y-81659999I0J-249999D01*
G01*
X158561000Y-82360001D01*
G75*
G02*
X158311001Y-82610000I-249999J0D01*
G01*
G37*
%TD.AperFunction*%
%TD*%
%TO.P,R12,1*%
%TO.N,vprova*%
%TA.AperFunction,SMDPad,CuDef*%
G36*
G01*
X171780000Y-108134999D02*
X171780000Y-109035001D01*
G75*
G02*
X171530001Y-109285000I-249999J0D01*
G01*
X170829999Y-109285000D01*
G75*
G02*
X170580000Y-109035001I0J249999D01*
G01*
X170580000Y-108134999D01*
G75*
G02*
X170829999Y-107885000I249999J0D01*
G01*
X171530001Y-107885000D01*
G75*
G02*
X171780000Y-108134999I0J-249999D01*
G01*
G37*
%TD.AperFunction*%
%TO.P,R12,2*%
%TO.N,Net-(C5-Pad2)*%
%TA.AperFunction,SMDPad,CuDef*%
G36*
G01*
X169780000Y-108134999D02*
X169780000Y-109035001D01*
G75*
G02*
X169530001Y-109285000I-249999J0D01*
G01*
X168829999Y-109285000D01*
G75*
G02*
X168580000Y-109035001I0J249999D01*
G01*
X168580000Y-108134999D01*
G75*
G02*
X168829999Y-107885000I249999J0D01*
G01*
X169530001Y-107885000D01*
G75*
G02*
X169780000Y-108134999I0J-249999D01*
G01*
G37*
%TD.AperFunction*%
%TD*%
D20*
%TO.P,R11,1*%
%TO.N,GND*%
X135890000Y-102235000D03*
%TO.P,R11,2*%
%TO.N,Net-(D4-Pad1)*%
X135890000Y-109855000D03*
%TD*%
%TO.P,R10,1*%
%TO.N,Net-(Q1-Pad1)*%
%TA.AperFunction,SMDPad,CuDef*%
G36*
G01*
X152215001Y-99136000D02*
X151314999Y-99136000D01*
G75*
G02*
X151065000Y-98886001I0J249999D01*
G01*
X151065000Y-98185999D01*
G75*
G02*
X151314999Y-97936000I249999J0D01*
G01*
X152215001Y-97936000D01*
G75*
G02*
X152465000Y-98185999I0J-249999D01*
G01*
X152465000Y-98886001D01*
G75*
G02*
X152215001Y-99136000I-249999J0D01*
G01*
G37*
%TD.AperFunction*%
%TO.P,R10,2*%
%TO.N,Net-(D3-Pad1)*%
%TA.AperFunction,SMDPad,CuDef*%
G36*
G01*
X152215001Y-97136000D02*
X151314999Y-97136000D01*
G75*
G02*
X151065000Y-96886001I0J249999D01*
G01*
X151065000Y-96185999D01*
G75*
G02*
X151314999Y-95936000I249999J0D01*
G01*
X152215001Y-95936000D01*
G75*
G02*
X152465000Y-96185999I0J-249999D01*
G01*
X152465000Y-96886001D01*
G75*
G02*
X152215001Y-97136000I-249999J0D01*
G01*
G37*
%TD.AperFunction*%
%TD*%
%TO.P,R9,1*%
%TO.N,Net-(R5-Pad2)*%
%TA.AperFunction,SMDPad,CuDef*%
G36*
G01*
X160695000Y-92525001D02*
X160695000Y-91624999D01*
G75*
G02*
X160944999Y-91375000I249999J0D01*
G01*
X161645001Y-91375000D01*
G75*
G02*
X161895000Y-91624999I0J-249999D01*
G01*
X161895000Y-92525001D01*
G75*
G02*
X161645001Y-92775000I-249999J0D01*
G01*
X160944999Y-92775000D01*
G75*
G02*
X160695000Y-92525001I0J249999D01*
G01*
G37*
%TD.AperFunction*%
%TO.P,R9,2*%
%TO.N,GND*%
%TA.AperFunction,SMDPad,CuDef*%
G36*
G01*
X162695000Y-92525001D02*
X162695000Y-91624999D01*
G75*
G02*
X162944999Y-91375000I249999J0D01*
G01*
X163645001Y-91375000D01*
G75*
G02*
X163895000Y-91624999I0J-249999D01*
G01*
X163895000Y-92525001D01*
G75*
G02*
X163645001Y-92775000I-249999J0D01*
G01*
X162944999Y-92775000D01*
G75*
G02*
X162695000Y-92525001I0J249999D01*
G01*
G37*
%TD.AperFunction*%
%TD*%
%TO.P,R8,1*%
%TO.N,Net-(R3-Pad2)*%
%TA.AperFunction,SMDPad,CuDef*%
G36*
G01*
X158565001Y-90135000D02*
X157664999Y-90135000D01*
G75*
G02*
X157415000Y-89885001I0J249999D01*
G01*
X157415000Y-89184999D01*
G75*
G02*
X157664999Y-88935000I249999J0D01*
G01*
X158565001Y-88935000D01*
G75*
G02*
X158815000Y-89184999I0J-249999D01*
G01*
X158815000Y-89885001D01*
G75*
G02*
X158565001Y-90135000I-249999J0D01*
G01*
G37*
%TD.AperFunction*%
%TO.P,R8,2*%
%TO.N,GND*%
%TA.AperFunction,SMDPad,CuDef*%
G36*
G01*
X158565001Y-88135000D02*
X157664999Y-88135000D01*
G75*
G02*
X157415000Y-87885001I0J249999D01*
G01*
X157415000Y-87184999D01*
G75*
G02*
X157664999Y-86935000I249999J0D01*
G01*
X158565001Y-86935000D01*
G75*
G02*
X158815000Y-87184999I0J-249999D01*
G01*
X158815000Y-87885001D01*
G75*
G02*
X158565001Y-88135000I-249999J0D01*
G01*
G37*
%TD.AperFunction*%
%TD*%
%TO.P,R7,1*%
%TO.N,Net-(C2-Pad1)*%
%TA.AperFunction,SMDPad,CuDef*%
G36*
G01*
X160204999Y-86935000D02*
X161105001Y-86935000D01*
G75*
G02*
X161355000Y-87184999I0J-249999D01*
G01*
X161355000Y-87885001D01*
G75*
G02*
X161105001Y-88135000I-249999J0D01*
G01*
X160204999Y-88135000D01*
G75*
G02*
X159955000Y-87885001I0J249999D01*
G01*
X159955000Y-87184999D01*
G75*
G02*
X160204999Y-86935000I249999J0D01*
G01*
G37*
%TD.AperFunction*%
%TO.P,R7,2*%
%TO.N,GND*%
%TA.AperFunction,SMDPad,CuDef*%
G36*
G01*
X160204999Y-88935000D02*
X161105001Y-88935000D01*
G75*
G02*
X161355000Y-89184999I0J-249999D01*
G01*
X161355000Y-89885001D01*
G75*
G02*
X161105001Y-90135000I-249999J0D01*
G01*
X160204999Y-90135000D01*
G75*
G02*
X159955000Y-89885001I0J249999D01*
G01*
X159955000Y-89184999D01*
G75*
G02*
X160204999Y-88935000I249999J0D01*
G01*
G37*
%TD.AperFunction*%
%TD*%
%TO.P,R6,1*%
%TO.N,Net-(R5-Pad2)*%
%TA.AperFunction,SMDPad,CuDef*%
G36*
G01*
X151314999Y-90285000D02*
X152215001Y-90285000D01*
G75*
G02*
X152465000Y-90534999I0J-249999D01*
G01*
X152465000Y-91235001D01*
G75*
G02*
X152215001Y-91485000I-249999J0D01*
G01*
X151314999Y-91485000D01*
G75*
G02*
X151065000Y-91235001I0J249999D01*
G01*
X151065000Y-90534999D01*
G75*
G02*
X151314999Y-90285000I249999J0D01*
G01*
G37*
%TD.AperFunction*%
%TO.P,R6,2*%
%TO.N,Net-(C3-Pad2)*%
%TA.AperFunction,SMDPad,CuDef*%
G36*
G01*
X151314999Y-92285000D02*
X152215001Y-92285000D01*
G75*
G02*
X152465000Y-92534999I0J-249999D01*
G01*
X152465000Y-93235001D01*
G75*
G02*
X152215001Y-93485000I-249999J0D01*
G01*
X151314999Y-93485000D01*
G75*
G02*
X151065000Y-93235001I0J249999D01*
G01*
X151065000Y-92534999D01*
G75*
G02*
X151314999Y-92285000I249999J0D01*
G01*
G37*
%TD.AperFunction*%
%TD*%
%TO.P,R4,1*%
%TO.N,VCC*%
%TA.AperFunction,SMDPad,CuDef*%
G36*
G01*
X148655000Y-99879999D02*
X148655000Y-100780001D01*
G75*
G02*
X148405001Y-101030000I-249999J0D01*
G01*
X147704999Y-101030000D01*
G75*
G02*
X147455000Y-100780001I0J249999D01*
G01*
X147455000Y-99879999D01*
G75*
G02*
X147704999Y-99630000I249999J0D01*
G01*
X148405001Y-99630000D01*
G75*
G02*
X148655000Y-99879999I0J-249999D01*
G01*
G37*
%TD.AperFunction*%
%TO.P,R4,2*%
%TO.N,Net-(D2-Pad2)*%
%TA.AperFunction,SMDPad,CuDef*%
G36*
G01*
X146655000Y-99879999D02*
X146655000Y-100780001D01*
G75*
G02*
X146405001Y-101030000I-249999J0D01*
G01*
X145704999Y-101030000D01*
G75*
G02*
X145455000Y-100780001I0J249999D01*
G01*
X145455000Y-99879999D01*
G75*
G02*
X145704999Y-99630000I249999J0D01*
G01*
X146405001Y-99630000D01*
G75*
G02*
X146655000Y-99879999I0J-249999D01*
G01*
G37*
%TD.AperFunction*%
%TD*%
%TO.P,R2,1*%
%TO.N,VCC*%
%TA.AperFunction,SMDPad,CuDef*%
G36*
G01*
X162744999Y-86935000D02*
X163645001Y-86935000D01*
G75*
G02*
X163895000Y-87184999I0J-249999D01*
G01*
X163895000Y-87885001D01*
G75*
G02*
X163645001Y-88135000I-249999J0D01*
G01*
X162744999Y-88135000D01*
G75*
G02*
X162495000Y-87885001I0J249999D01*
G01*
X162495000Y-87184999D01*
G75*
G02*
X162744999Y-86935000I249999J0D01*
G01*
G37*
%TD.AperFunction*%
%TO.P,R2,2*%
%TO.N,Net-(C2-Pad1)*%
%TA.AperFunction,SMDPad,CuDef*%
G36*
G01*
X162744999Y-88935000D02*
X163645001Y-88935000D01*
G75*
G02*
X163895000Y-89184999I0J-249999D01*
G01*
X163895000Y-89885001D01*
G75*
G02*
X163645001Y-90135000I-249999J0D01*
G01*
X162744999Y-90135000D01*
G75*
G02*
X162495000Y-89885001I0J249999D01*
G01*
X162495000Y-89184999D01*
G75*
G02*
X162744999Y-88935000I249999J0D01*
G01*
G37*
%TD.AperFunction*%
%TD*%
%TO.P,Q1,1*%
%TO.N,Net-(Q1-Pad1)*%
%TA.AperFunction,SMDPad,CuDef*%
G36*
G01*
X137229001Y-108280000D02*
X136328999Y-108280000D01*
G75*
G02*
X136079000Y-108030001I0J249999D01*
G01*
X136079000Y-107329999D01*
G75*
G02*
X136328999Y-107080000I249999J0D01*
G01*
X137229001Y-107080000D01*
G75*
G02*
X137479000Y-107329999I0J-249999D01*
G01*
X137479000Y-108030001D01*
G75*
G02*
X137229001Y-108280000I-249999J0D01*
G01*
G37*
%TD.AperFunction*%
%TO.P,Q1,2*%
%TO.N,Net-(D4-Pad2)*%
%TA.AperFunction,SMDPad,CuDef*%
G36*
G01*
X135329001Y-108280000D02*
X134428999Y-108280000D01*
G75*
G02*
X134179000Y-108030001I0J249999D01*
G01*
X134179000Y-107329999D01*
G75*
G02*
X134428999Y-107080000I249999J0D01*
G01*
X135329001Y-107080000D01*
G75*
G02*
X135579000Y-107329999I0J-249999D01*
G01*
X135579000Y-108030001D01*
G75*
G02*
X135329001Y-108280000I-249999J0D01*
G01*
G37*
%TD.AperFunction*%
%TO.P,Q1,3*%
%TO.N,VCC*%
%TA.AperFunction,SMDPad,CuDef*%
G36*
G01*
X136279001Y-106280000D02*
X135378999Y-106280000D01*
G75*
G02*
X135129000Y-106030001I0J249999D01*
G01*
X135129000Y-105329999D01*
G75*
G02*
X135378999Y-105080000I249999J0D01*
G01*
X136279001Y-105080000D01*
G75*
G02*
X136529000Y-105329999I0J-249999D01*
G01*
X136529000Y-106030001D01*
G75*
G02*
X136279001Y-106280000I-249999J0D01*
G01*
G37*
%TD.AperFunction*%
%TD*%
D14*
%TO.P,D8,2*%
%TO.N,VCC*%
X140462000Y-114935000D03*
D15*
%TO.P,D8,1*%
%TO.N,Net-(D8-Pad1)*%
X140462000Y-112395000D03*
%TD*%
D22*
%TO.P,D6,1*%
%TO.N,vprova*%
X163195000Y-114935000D03*
D23*
%TO.P,D6,2*%
%TO.N,GND*%
X155575000Y-114935000D03*
%TD*%
D22*
%TO.P,D5,1*%
%TO.N,VCC*%
X163195000Y-109220000D03*
D23*
%TO.P,D5,2*%
%TO.N,vprova*%
X155575000Y-109220000D03*
%TD*%
D15*
%TO.P,D4,1*%
%TO.N,Net-(D4-Pad1)*%
X135890000Y-112395000D03*
D14*
%TO.P,D4,2*%
%TO.N,Net-(D4-Pad2)*%
X135890000Y-114935000D03*
%TD*%
D22*
%TO.P,D3,1*%
%TO.N,Net-(D3-Pad1)*%
X153543000Y-84074000D03*
D23*
%TO.P,D3,2*%
%TO.N,Net-(C4-Pad1)*%
X145923000Y-84074000D03*
%TD*%
D22*
%TO.P,D2,1*%
%TO.N,Net-(C3-Pad2)*%
X163195000Y-103505000D03*
D23*
%TO.P,D2,2*%
%TO.N,Net-(D2-Pad2)*%
X155575000Y-103505000D03*
%TD*%
D22*
%TO.P,D1,1*%
%TO.N,VCC*%
X138430000Y-88138000D03*
D23*
%TO.P,D1,2*%
%TO.N,Net-(C1-Pad1)*%
X130810000Y-88138000D03*
%TD*%
D22*
%TO.P,C4,1*%
%TO.N,Net-(C4-Pad1)*%
X147701000Y-79121000D03*
D23*
%TO.P,C4,2*%
%TO.N,GND*%
X147701000Y-76621000D03*
%TD*%
D24*
%TO.N,Net-(C2-Pad1)*%
X156083000Y-85090000D03*
X160020000Y-85090000D03*
%TO.N,VCC*%
X172720000Y-89281000D03*
X172515730Y-113707843D03*
X172720000Y-84201000D03*
X166031847Y-113707847D03*
%TO.N,Net-(C7-Pad1)*%
X140995868Y-86505021D03*
X140970000Y-80645000D03*
%TO.N,Net-(D3-Pad1)*%
X151765000Y-94869000D03*
X151765000Y-86487000D03*
%TO.N,Net-(Q1-Pad1)*%
X151765000Y-100304970D03*
X151706609Y-112834391D03*
%TO.N,Net-(R15-Pad2)*%
X142875000Y-105200947D03*
X142875000Y-101092000D03*
%TO.N,Net-(SW2-Pad5)*%
X145415000Y-88900000D03*
X141351000Y-88900000D03*
%TD*%
D25*
%TO.N,Net-(C1-Pad1)*%
X133477000Y-88138000D02*
X130810000Y-88138000D01*
X133477000Y-85070000D02*
X133370000Y-84963000D01*
X133477000Y-88138000D02*
X133477000Y-85070000D01*
X134620000Y-89281000D02*
X133477000Y-88138000D01*
X134620000Y-92710000D02*
X134620000Y-89281000D01*
D26*
%TO.N,vprova*%
X159120453Y-114935000D02*
X155575000Y-111389547D01*
X155575000Y-111389547D02*
X155575000Y-109220000D01*
X163195000Y-114935000D02*
X159120453Y-114935000D01*
X140205000Y-92075000D02*
X140205000Y-93345000D01*
X173959971Y-105805029D02*
X173959971Y-88615971D01*
X171180000Y-108585000D02*
X173959971Y-105805029D01*
X172974000Y-87630000D02*
X171116000Y-87630000D01*
X173959971Y-88615971D02*
X172974000Y-87630000D01*
X138925946Y-104000946D02*
X143451001Y-104000946D01*
X138290018Y-103365018D02*
X138925946Y-104000946D01*
X137225010Y-99467954D02*
X137225010Y-100320846D01*
X138290018Y-101385854D02*
X138290018Y-103365018D01*
X137805011Y-98887954D02*
X137225010Y-99467954D01*
X137225010Y-100320846D02*
X138290018Y-101385854D01*
X137805011Y-94415989D02*
X137805011Y-98887954D01*
X140205000Y-93345000D02*
X138876000Y-93345000D01*
X138876000Y-93345000D02*
X137805011Y-94415989D01*
X171180000Y-109811000D02*
X169866000Y-111125000D01*
X171180000Y-108585000D02*
X171180000Y-109811000D01*
X167253532Y-115535011D02*
X169866000Y-112922543D01*
X163195000Y-114935000D02*
X163795011Y-115535011D01*
X163795011Y-115535011D02*
X167253532Y-115535011D01*
X169866000Y-112922543D02*
X169866000Y-111125000D01*
X149479000Y-109220000D02*
X148590000Y-108331000D01*
X155575000Y-109220000D02*
X149479000Y-109220000D01*
X148590000Y-108331000D02*
X146050000Y-108331000D01*
X146059000Y-108340000D02*
X146050000Y-108331000D01*
X146059000Y-111125000D02*
X146059000Y-108340000D01*
X146050000Y-108331000D02*
X145161000Y-108331000D01*
X143451001Y-104000946D02*
X144780000Y-105329945D01*
X144780000Y-107950000D02*
X145161000Y-108331000D01*
X144780000Y-105329945D02*
X144780000Y-107950000D01*
%TO.N,Net-(C2-Pad1)*%
X160020000Y-86900000D02*
X160655000Y-87535000D01*
X160020000Y-85090000D02*
X160020000Y-86900000D01*
X161195000Y-87535000D02*
X163195000Y-89535000D01*
X160655000Y-87535000D02*
X161195000Y-87535000D01*
X149361502Y-88934989D02*
X152365011Y-88934989D01*
X152365011Y-88934989D02*
X156210000Y-85090000D01*
X147491491Y-90805000D02*
X149361502Y-88934989D01*
X145096000Y-90805000D02*
X147491491Y-90805000D01*
X164211000Y-89535000D02*
X166116000Y-87630000D01*
X163195000Y-89535000D02*
X164211000Y-89535000D01*
%TO.N,Net-(C3-Pad2)*%
X163195000Y-103505000D02*
X167366000Y-103505000D01*
X152465000Y-92885000D02*
X153650001Y-91699999D01*
X153650001Y-91699999D02*
X157914001Y-91699999D01*
X151765000Y-92885000D02*
X152465000Y-92885000D01*
X157914001Y-91699999D02*
X160782000Y-94567998D01*
X160782000Y-101092000D02*
X163195000Y-103505000D01*
X160782000Y-94567998D02*
X160782000Y-101092000D01*
%TO.N,Net-(C4-Pad1)*%
X147701000Y-79121000D02*
X147066000Y-79121000D01*
X144145000Y-76200000D02*
X137464800Y-76200000D01*
X147066000Y-79121000D02*
X144145000Y-76200000D01*
X134908989Y-76955811D02*
X134908989Y-82019802D01*
X135664800Y-76200000D02*
X134908989Y-76955811D01*
X137464800Y-76200000D02*
X135664800Y-76200000D01*
X144542456Y-93345000D02*
X143670990Y-92473534D01*
X145096000Y-93345000D02*
X144542456Y-93345000D01*
X143670990Y-92473534D02*
X143670990Y-90406467D01*
X144161035Y-89916422D02*
X144161035Y-85073965D01*
X143670990Y-90406467D02*
X144161035Y-89916422D01*
X145161000Y-84074000D02*
X144161035Y-85073965D01*
X145923000Y-84074000D02*
X145161000Y-84074000D01*
X145261990Y-83412990D02*
X145923000Y-84074000D01*
X134914779Y-82025592D02*
X136302177Y-83412990D01*
X134914779Y-82019802D02*
X134914779Y-82025592D01*
X134908989Y-82019802D02*
X134914779Y-82019802D01*
X136302177Y-83412990D02*
X145261990Y-83412990D01*
%TO.N,Net-(C5-Pad2)*%
X168950000Y-108815000D02*
X169180000Y-108585000D01*
X169180000Y-109311000D02*
X169180000Y-108585000D01*
X167366000Y-111125000D02*
X169180000Y-109311000D01*
X154305000Y-106375200D02*
X157345202Y-106375200D01*
X164745001Y-113774999D02*
X164745001Y-114580001D01*
X157345202Y-106375200D02*
X164745001Y-113774999D01*
X164745001Y-114580001D02*
X165100000Y-114935000D01*
X167366000Y-111125000D02*
X167366000Y-114574000D01*
X167366000Y-114574000D02*
X167005000Y-114935000D01*
X167005000Y-114935000D02*
X165100000Y-114935000D01*
D25*
%TO.N,VCC*%
X135829000Y-105680000D02*
X129937000Y-105680000D01*
D26*
X138430000Y-86838000D02*
X138430000Y-88138000D01*
X140012989Y-85255011D02*
X138430000Y-86838000D01*
D25*
X129795000Y-114935000D02*
X129286000Y-114426000D01*
X131318000Y-114935000D02*
X129795000Y-114935000D01*
X140462000Y-116078000D02*
X139700000Y-116840000D01*
X140462000Y-114935000D02*
X140462000Y-116078000D01*
X172169157Y-113707843D02*
X172515730Y-113707843D01*
D26*
X142761013Y-86568164D02*
X141447860Y-85255011D01*
X142761013Y-89336514D02*
X142761013Y-86568164D01*
X142270968Y-89826558D02*
X142761013Y-89336514D01*
X142270968Y-94735032D02*
X142270968Y-89826558D01*
X141447860Y-85255011D02*
X140012989Y-85255011D01*
X141121000Y-95885000D02*
X142270968Y-94735032D01*
X140146000Y-95885000D02*
X141121000Y-95885000D01*
D25*
X139686427Y-116910000D02*
X169370000Y-116910000D01*
X129937000Y-105680000D02*
X129318000Y-106299000D01*
X129318000Y-106299000D02*
X129286000Y-106299000D01*
X129286000Y-114426000D02*
X129286000Y-106299000D01*
X129937000Y-105680000D02*
X129286000Y-105029000D01*
X129286000Y-105029000D02*
X129286000Y-101981000D01*
X130382010Y-100884990D02*
X132354192Y-100884990D01*
X133145010Y-102792010D02*
X133985000Y-103632000D01*
X137590010Y-101675808D02*
X137420968Y-101506766D01*
X129286000Y-101981000D02*
X130382010Y-100884990D01*
X132354192Y-100884990D02*
X133145010Y-101675808D01*
X133145010Y-101675808D02*
X133145010Y-102792010D01*
X133985000Y-103632000D02*
X136752202Y-103632000D01*
X136752202Y-103632000D02*
X137590010Y-102794192D01*
X137590010Y-102794192D02*
X137590010Y-101675808D01*
X172515730Y-113764270D02*
X172515730Y-113707843D01*
X169370000Y-116910000D02*
X172515730Y-113764270D01*
X139680000Y-116910000D02*
X130155000Y-116910000D01*
X163195000Y-107920000D02*
X163195000Y-109220000D01*
X169917021Y-85479979D02*
X165250021Y-85479979D01*
X172847000Y-84201000D02*
X171196000Y-84201000D01*
X171196000Y-84201000D02*
X169917021Y-85479979D01*
X172466001Y-102856999D02*
X172466001Y-104153001D01*
X166529999Y-96920997D02*
X172466001Y-102856999D01*
X166529999Y-93497999D02*
X166529999Y-96920997D01*
X170746998Y-89281000D02*
X166529999Y-93497999D01*
X172809970Y-89281000D02*
X170746998Y-89281000D01*
X164219979Y-85479979D02*
X165250021Y-85479979D01*
X163195000Y-86504958D02*
X163195000Y-87535000D01*
X164219979Y-85479979D02*
X163195000Y-86504958D01*
X161925000Y-83185000D02*
X164219979Y-85479979D01*
X158750000Y-83185000D02*
X161925000Y-83185000D01*
X157480000Y-84455000D02*
X158750000Y-83185000D01*
X157480000Y-85630000D02*
X157480000Y-84455000D01*
X155575000Y-87535000D02*
X157480000Y-85630000D01*
X158750000Y-82899000D02*
X157861000Y-82010000D01*
X158750000Y-83185000D02*
X158750000Y-82899000D01*
X137105001Y-89462999D02*
X137129968Y-89438032D01*
X137105001Y-98598001D02*
X137105001Y-89462999D01*
X137129968Y-89438032D02*
X138430000Y-88138000D01*
X136525000Y-99178002D02*
X137105001Y-98598001D01*
X136525000Y-100610798D02*
X136525000Y-99178002D01*
X137590010Y-101675808D02*
X136525000Y-100610798D01*
D26*
X142270968Y-98696320D02*
X142270968Y-94735032D01*
D25*
X148055000Y-100330000D02*
X148055000Y-98960000D01*
X148055000Y-98960000D02*
X149225000Y-97790000D01*
D26*
X144104979Y-100530331D02*
X142270968Y-98696320D01*
X144104979Y-101550979D02*
X146059000Y-103505000D01*
X144104979Y-101550979D02*
X144104979Y-100530331D01*
D25*
X163195000Y-110871000D02*
X166031847Y-113707847D01*
X163195000Y-109220000D02*
X163195000Y-110871000D01*
X151691018Y-102154990D02*
X157429990Y-102154990D01*
X149866028Y-100330000D02*
X151691018Y-102154990D01*
X157429990Y-102154990D02*
X163195000Y-107920000D01*
X148055000Y-100330000D02*
X149866028Y-100330000D01*
X146050000Y-103514000D02*
X146059000Y-103505000D01*
X146050000Y-106331000D02*
X146050000Y-103514000D01*
X169334003Y-107284999D02*
X172466001Y-104153001D01*
X165130001Y-107284999D02*
X169334003Y-107284999D01*
X163195000Y-109220000D02*
X165130001Y-107284999D01*
X129795000Y-116550000D02*
X129795000Y-114935000D01*
X130155000Y-116910000D02*
X129795000Y-116550000D01*
D26*
%TO.N,Net-(C7-Pad1)*%
X140146000Y-90805000D02*
X139980001Y-90639001D01*
X139980001Y-87520888D02*
X140995868Y-86505021D01*
X139980001Y-90639001D02*
X139980001Y-87520888D01*
X154686000Y-78740000D02*
X154305000Y-79121000D01*
X163398200Y-78740000D02*
X154686000Y-78740000D01*
X152454989Y-80971011D02*
X154305000Y-79121000D01*
X145992467Y-80971011D02*
X152454989Y-80971011D01*
X145666456Y-80645000D02*
X145992467Y-80971011D01*
X140970000Y-80645000D02*
X145666456Y-80645000D01*
%TO.N,Net-(D2-Pad2)*%
X150626781Y-103505000D02*
X155575000Y-103505000D01*
X149076771Y-101954990D02*
X150626781Y-103505000D01*
X147679990Y-101954990D02*
X149076771Y-101954990D01*
X145096000Y-98425000D02*
X145096000Y-99371000D01*
X146055000Y-100330000D02*
X147679990Y-101954990D01*
X145096000Y-99371000D02*
X146055000Y-100330000D01*
%TO.N,Net-(D3-Pad1)*%
X151765000Y-96536000D02*
X151765000Y-94869000D01*
X153543000Y-84709000D02*
X153543000Y-84074000D01*
X151765000Y-86487000D02*
X153543000Y-84709000D01*
X137464800Y-78740000D02*
X137464800Y-78832930D01*
X151681968Y-82212968D02*
X153543000Y-84074000D01*
X140761966Y-82212968D02*
X151681968Y-82212968D01*
X139769999Y-79245199D02*
X139769999Y-81221001D01*
X139264800Y-78740000D02*
X139769999Y-79245199D01*
X139769999Y-81221001D02*
X140761966Y-82212968D01*
X137464800Y-78740000D02*
X139264800Y-78740000D01*
%TO.N,Net-(D4-Pad2)*%
X135569998Y-114935000D02*
X135890000Y-114935000D01*
X134879000Y-107680000D02*
X134289999Y-108269001D01*
X134289999Y-108269001D02*
X134289999Y-113655001D01*
X134289999Y-113655001D02*
X135569998Y-114935000D01*
%TO.N,Net-(D4-Pad1)*%
X135890000Y-112395000D02*
X135890000Y-109855000D01*
%TO.N,Net-(D7-Pad1)*%
X131318000Y-112395000D02*
X131318000Y-109855000D01*
%TO.N,Net-(D8-Pad1)*%
X140462000Y-112395000D02*
X140462000Y-109855000D01*
%TO.N,Net-(Q1-Pad1)*%
X149225000Y-95790000D02*
X149225000Y-93710000D01*
X149225000Y-95790000D02*
X149765000Y-95790000D01*
X147860000Y-97155000D02*
X149225000Y-95790000D01*
X144715000Y-97155000D02*
X147860000Y-97155000D01*
X149225000Y-95996000D02*
X151765000Y-98536000D01*
X149225000Y-95790000D02*
X149225000Y-95996000D01*
X151765000Y-100304970D02*
X151765000Y-98536000D01*
X141970000Y-107680000D02*
X136779000Y-107680000D01*
X142875000Y-108585000D02*
X141970000Y-107680000D01*
X142875000Y-111541781D02*
X142875000Y-108585000D01*
X144998219Y-113665000D02*
X142875000Y-111541781D01*
X150876000Y-113665000D02*
X144998219Y-113665000D01*
X151706609Y-112834391D02*
X150876000Y-113665000D01*
%TO.N,Net-(R3-Pad2)*%
X158115000Y-89535000D02*
X155575000Y-89535000D01*
X149610034Y-89535000D02*
X155575000Y-89535000D01*
X147070034Y-92075000D02*
X149610034Y-89535000D01*
X145096000Y-92075000D02*
X147070034Y-92075000D01*
%TO.N,Net-(R5-Pad2)*%
X150940000Y-91710000D02*
X151765000Y-90885000D01*
X149225000Y-91710000D02*
X150940000Y-91710000D01*
X158115000Y-90885000D02*
X151765000Y-90885000D01*
X161295000Y-92075000D02*
X159385000Y-92075000D01*
X158195000Y-90885000D02*
X158115000Y-90885000D01*
X159385000Y-92075000D02*
X158195000Y-90885000D01*
X146930010Y-93743534D02*
X146058544Y-94615000D01*
X146058544Y-94615000D02*
X145155000Y-94615000D01*
X146930010Y-93099990D02*
X146930010Y-93743534D01*
X148320000Y-91710000D02*
X146930010Y-93099990D01*
X149225000Y-91710000D02*
X148320000Y-91710000D01*
%TO.N,Net-(R13-Pad2)*%
X158061010Y-77400010D02*
X157861000Y-77200000D01*
X164505280Y-77400010D02*
X158061010Y-77400010D01*
X165348210Y-78242940D02*
X164505280Y-77400010D01*
X163398200Y-81187070D02*
X165348210Y-79237060D01*
X163398200Y-81280000D02*
X163398200Y-81187070D01*
X165348210Y-79237060D02*
X165348210Y-78242940D01*
X162128200Y-80010000D02*
X163398200Y-81280000D01*
X157861000Y-80010000D02*
X162128200Y-80010000D01*
%TO.N,Net-(R15-Pad2)*%
X140273825Y-98425000D02*
X140146000Y-98425000D01*
X142970638Y-101136923D02*
X140273825Y-98425000D01*
X133542010Y-104332010D02*
X131445000Y-102235000D01*
X142875000Y-105200947D02*
X139277404Y-105200947D01*
X138408467Y-104332010D02*
X133542010Y-104332010D01*
X139277404Y-105200947D02*
X138408467Y-104332010D01*
%TO.N,Net-(R16-Pad2)*%
X139389326Y-97155000D02*
X140205000Y-97155000D01*
X140462000Y-102235000D02*
X140462000Y-99822000D01*
X138869336Y-99175010D02*
X138429990Y-98735664D01*
X138429990Y-98114336D02*
X139389326Y-97155000D01*
X139815010Y-99175010D02*
X138869336Y-99175010D01*
X138429990Y-98735664D02*
X138429990Y-98114336D01*
X140462000Y-99822000D02*
X139815010Y-99175010D01*
%TO.N,Net-(R17-Pad2)*%
X162398200Y-75200000D02*
X163398200Y-76200000D01*
X157861000Y-75200000D02*
X162398200Y-75200000D01*
X166832990Y-83761990D02*
X167145000Y-84074000D01*
X166832990Y-78879177D02*
X166832990Y-83761990D01*
X164153813Y-76200000D02*
X166832990Y-78879177D01*
X163398200Y-76200000D02*
X164153813Y-76200000D01*
%TO.N,Net-(R18-Pad2)*%
X169145000Y-81642000D02*
X168783000Y-81280000D01*
X169145000Y-84074000D02*
X169145000Y-81642000D01*
X171355000Y-81280000D02*
X172085000Y-82010000D01*
X168783000Y-81280000D02*
X171355000Y-81280000D01*
%TO.N,Net-(R19-Pad2)*%
X172085000Y-77200000D02*
X172085000Y-80010000D01*
X171085000Y-76200000D02*
X172085000Y-77200000D01*
X168783000Y-76200000D02*
X171085000Y-76200000D01*
%TO.N,Net-(SW2-Pad5)*%
X157121044Y-74149990D02*
X156710990Y-74560044D01*
X156710990Y-74560044D02*
X156710990Y-76241369D01*
X136550709Y-82812979D02*
X146729760Y-82812979D01*
X155181349Y-77771010D02*
X151760992Y-77771010D01*
X149161001Y-80371001D02*
X146240999Y-80371001D01*
X147473010Y-86841990D02*
X145415000Y-88900000D01*
X135514790Y-78242940D02*
X135514790Y-81777060D01*
X168783000Y-78740000D02*
X164192990Y-74149990D01*
X156710990Y-76241369D02*
X155181349Y-77771010D01*
X147473010Y-83556229D02*
X147473010Y-86841990D01*
X136217740Y-77539990D02*
X135514790Y-78242940D01*
X151760992Y-77771010D02*
X149161001Y-80371001D01*
X146729760Y-82812979D02*
X147473010Y-83556229D01*
X143409988Y-77539990D02*
X136217740Y-77539990D01*
X135514790Y-81777060D02*
X136550709Y-82812979D01*
X164192990Y-74149990D02*
X157121044Y-74149990D01*
X146240999Y-80371001D02*
X143409988Y-77539990D01*
X141630010Y-93743534D02*
X140758544Y-94615000D01*
X140758544Y-94615000D02*
X140205000Y-94615000D01*
X141630010Y-89369036D02*
X141630010Y-93743534D01*
X141351000Y-88900000D02*
X141630010Y-89369036D01*
X141130013Y-88869041D02*
X141351000Y-88900000D01*
%TD*%
D27*
%TO.N,GND*%
X173944184Y-72862570D02*
X174084952Y-72905070D01*
X174252461Y-73007708D01*
X174419491Y-73150351D01*
X174562146Y-73317367D01*
X174676919Y-73504648D01*
X174760977Y-73707569D01*
X174807094Y-73899648D01*
X174810001Y-73927306D01*
X174810000Y-116563996D01*
X174806624Y-116598429D01*
X174760985Y-116788529D01*
X174676934Y-116991446D01*
X174562174Y-117178716D01*
X174419530Y-117345730D01*
X174252516Y-117488374D01*
X174073119Y-117598310D01*
X173951524Y-117635950D01*
X173722703Y-117660000D01*
X127276004Y-117660000D01*
X127045812Y-117637430D01*
X126845554Y-117576967D01*
X126660849Y-117478758D01*
X126498742Y-117346547D01*
X126365403Y-117185367D01*
X126265909Y-117001355D01*
X126204050Y-116801524D01*
X126180000Y-116572703D01*
X126180000Y-115837735D01*
X127120000Y-115837735D01*
X127120000Y-116064265D01*
X127164194Y-116286443D01*
X127250884Y-116495729D01*
X127376737Y-116684082D01*
X127536918Y-116844263D01*
X127725271Y-116970116D01*
X127934557Y-117056806D01*
X128156735Y-117101000D01*
X128383265Y-117101000D01*
X128605443Y-117056806D01*
X128814729Y-116970116D01*
X129003082Y-116844263D01*
X129158017Y-116689328D01*
X129183239Y-116772473D01*
X129191573Y-116799947D01*
X129251930Y-116912868D01*
X129273771Y-116939481D01*
X129333157Y-117011843D01*
X129357963Y-117032201D01*
X129672796Y-117347033D01*
X129693157Y-117371843D01*
X129792132Y-117453070D01*
X129905052Y-117513427D01*
X130027578Y-117550595D01*
X130123068Y-117560000D01*
X130123079Y-117560000D01*
X130155000Y-117563144D01*
X130186921Y-117560000D01*
X169338079Y-117560000D01*
X169370000Y-117563144D01*
X169401921Y-117560000D01*
X169401932Y-117560000D01*
X169497422Y-117550595D01*
X169619948Y-117513427D01*
X169732868Y-117453070D01*
X169831843Y-117371843D01*
X169852200Y-117347038D01*
X172351528Y-114847711D01*
X172402465Y-114857843D01*
X172628995Y-114857843D01*
X172851173Y-114813649D01*
X173060459Y-114726959D01*
X173248812Y-114601106D01*
X173408993Y-114440925D01*
X173534846Y-114252572D01*
X173621536Y-114043286D01*
X173665730Y-113821108D01*
X173665730Y-113594578D01*
X173621536Y-113372400D01*
X173534846Y-113163114D01*
X173408993Y-112974761D01*
X173248812Y-112814580D01*
X173060459Y-112688727D01*
X172851173Y-112602037D01*
X172628995Y-112557843D01*
X172402465Y-112557843D01*
X172180287Y-112602037D01*
X171971001Y-112688727D01*
X171782648Y-112814580D01*
X171622467Y-112974761D01*
X171496614Y-113163114D01*
X171409924Y-113372400D01*
X171365730Y-113594578D01*
X171365730Y-113821108D01*
X171394586Y-113966175D01*
X169100762Y-116260000D01*
X141086039Y-116260000D01*
X141102595Y-116205422D01*
X141105682Y-116174074D01*
X141211896Y-116141855D01*
X141437736Y-116021140D01*
X141635687Y-115858687D01*
X141798140Y-115660736D01*
X141918855Y-115434896D01*
X141993190Y-115189845D01*
X141995662Y-115164740D01*
X154144100Y-115164740D01*
X154189709Y-115330424D01*
X154287706Y-115534556D01*
X154423644Y-115715647D01*
X154592299Y-115866738D01*
X154787190Y-115982023D01*
X155000827Y-116057072D01*
X155225000Y-116089000D01*
X155525000Y-116089000D01*
X155525000Y-114985000D01*
X155625000Y-114985000D01*
X155625000Y-116089000D01*
X155925000Y-116089000D01*
X156149173Y-116057072D01*
X156362810Y-115982023D01*
X156557701Y-115866738D01*
X156726356Y-115715647D01*
X156862294Y-115534556D01*
X156960291Y-115330424D01*
X157005900Y-115164740D01*
X156939326Y-114985000D01*
X155625000Y-114985000D01*
X155525000Y-114985000D01*
X154210674Y-114985000D01*
X154144100Y-115164740D01*
X141995662Y-115164740D01*
X142018290Y-114935000D01*
X141995663Y-114705260D01*
X154144100Y-114705260D01*
X154210674Y-114885000D01*
X155525000Y-114885000D01*
X155525000Y-113781000D01*
X155625000Y-113781000D01*
X155625000Y-114885000D01*
X156939326Y-114885000D01*
X157005900Y-114705260D01*
X156960291Y-114539576D01*
X156862294Y-114335444D01*
X156726356Y-114154353D01*
X156557701Y-114003262D01*
X156362810Y-113887977D01*
X156149173Y-113812928D01*
X155925000Y-113781000D01*
X155625000Y-113781000D01*
X155525000Y-113781000D01*
X155225000Y-113781000D01*
X155000827Y-113812928D01*
X154787190Y-113887977D01*
X154592299Y-114003262D01*
X154423644Y-114154353D01*
X154287706Y-114335444D01*
X154189709Y-114539576D01*
X154144100Y-114705260D01*
X141995663Y-114705260D01*
X141993190Y-114680155D01*
X141918855Y-114435104D01*
X141798140Y-114209264D01*
X141635687Y-114011313D01*
X141437736Y-113848860D01*
X141211896Y-113728145D01*
X141109010Y-113696935D01*
X141612000Y-113696935D01*
X141690414Y-113689212D01*
X141765814Y-113666340D01*
X141835303Y-113629197D01*
X141896211Y-113579211D01*
X141946197Y-113518303D01*
X141983340Y-113448814D01*
X142006212Y-113373414D01*
X142013935Y-113295000D01*
X142013935Y-111495000D01*
X142006212Y-111416586D01*
X141983340Y-111341186D01*
X141946197Y-111271697D01*
X141896211Y-111210789D01*
X141835303Y-111160803D01*
X141765814Y-111123660D01*
X141690414Y-111100788D01*
X141612000Y-111093065D01*
X141012000Y-111093065D01*
X141012000Y-111041108D01*
X141047241Y-111037637D01*
X141273442Y-110969019D01*
X141481910Y-110857591D01*
X141664634Y-110707634D01*
X141814591Y-110524910D01*
X141926019Y-110316442D01*
X141994637Y-110090241D01*
X142017806Y-109855000D01*
X141994637Y-109619759D01*
X141926019Y-109393558D01*
X141814591Y-109185090D01*
X141664634Y-109002366D01*
X141481910Y-108852409D01*
X141273442Y-108740981D01*
X141047241Y-108672363D01*
X140870950Y-108655000D01*
X140053050Y-108655000D01*
X139876759Y-108672363D01*
X139650558Y-108740981D01*
X139442090Y-108852409D01*
X139259366Y-109002366D01*
X139109409Y-109185090D01*
X138997981Y-109393558D01*
X138929363Y-109619759D01*
X138906194Y-109855000D01*
X138929363Y-110090241D01*
X138997981Y-110316442D01*
X139109409Y-110524910D01*
X139259366Y-110707634D01*
X139442090Y-110857591D01*
X139650558Y-110969019D01*
X139876759Y-111037637D01*
X139912001Y-111041108D01*
X139912001Y-111093065D01*
X139312000Y-111093065D01*
X139233586Y-111100788D01*
X139158186Y-111123660D01*
X139088697Y-111160803D01*
X139027789Y-111210789D01*
X138977803Y-111271697D01*
X138940660Y-111341186D01*
X138917788Y-111416586D01*
X138910065Y-111495000D01*
X138910065Y-113295000D01*
X138917788Y-113373414D01*
X138940660Y-113448814D01*
X138977803Y-113518303D01*
X139027789Y-113579211D01*
X139088697Y-113629197D01*
X139158186Y-113666340D01*
X139233586Y-113689212D01*
X139312000Y-113696935D01*
X139814990Y-113696935D01*
X139712104Y-113728145D01*
X139486264Y-113848860D01*
X139288313Y-114011313D01*
X139125860Y-114209264D01*
X139005145Y-114435104D01*
X138930810Y-114680155D01*
X138905710Y-114935000D01*
X138930810Y-115189845D01*
X139005145Y-115434896D01*
X139125860Y-115660736D01*
X139288313Y-115858687D01*
X139486264Y-116021140D01*
X139560136Y-116060626D01*
X139360762Y-116260000D01*
X130445000Y-116260000D01*
X130445000Y-116076054D01*
X130568104Y-116141855D01*
X130813155Y-116216190D01*
X131004136Y-116235000D01*
X131631864Y-116235000D01*
X131822845Y-116216190D01*
X132067896Y-116141855D01*
X132293736Y-116021140D01*
X132491687Y-115858687D01*
X132654140Y-115660736D01*
X132774855Y-115434896D01*
X132849190Y-115189845D01*
X132874290Y-114935000D01*
X132849190Y-114680155D01*
X132774855Y-114435104D01*
X132654140Y-114209264D01*
X132491687Y-114011313D01*
X132293736Y-113848860D01*
X132067896Y-113728145D01*
X131965010Y-113696935D01*
X132468000Y-113696935D01*
X132546414Y-113689212D01*
X132621814Y-113666340D01*
X132691303Y-113629197D01*
X132752211Y-113579211D01*
X132802197Y-113518303D01*
X132839340Y-113448814D01*
X132862212Y-113373414D01*
X132869935Y-113295000D01*
X132869935Y-111495000D01*
X132862212Y-111416586D01*
X132839340Y-111341186D01*
X132802197Y-111271697D01*
X132752211Y-111210789D01*
X132691303Y-111160803D01*
X132621814Y-111123660D01*
X132546414Y-111100788D01*
X132468000Y-111093065D01*
X131868000Y-111093065D01*
X131868000Y-111041108D01*
X131903241Y-111037637D01*
X132129442Y-110969019D01*
X132337910Y-110857591D01*
X132520634Y-110707634D01*
X132670591Y-110524910D01*
X132782019Y-110316442D01*
X132850637Y-110090241D01*
X132873806Y-109855000D01*
X132850637Y-109619759D01*
X132782019Y-109393558D01*
X132670591Y-109185090D01*
X132520634Y-109002366D01*
X132337910Y-108852409D01*
X132129442Y-108740981D01*
X131903241Y-108672363D01*
X131726950Y-108655000D01*
X130909050Y-108655000D01*
X130732759Y-108672363D01*
X130506558Y-108740981D01*
X130298090Y-108852409D01*
X130115366Y-109002366D01*
X129965409Y-109185090D01*
X129936000Y-109240111D01*
X129936000Y-108269001D01*
X133737339Y-108269001D01*
X133739999Y-108296009D01*
X133740000Y-113627983D01*
X133737339Y-113655001D01*
X133740000Y-113682019D01*
X133747958Y-113762820D01*
X133765640Y-113821108D01*
X133779408Y-113866495D01*
X133830478Y-113962043D01*
X133881986Y-114024805D01*
X133881992Y-114024811D01*
X133899210Y-114045791D01*
X133920190Y-114063009D01*
X134400361Y-114543180D01*
X134358810Y-114680155D01*
X134333710Y-114935000D01*
X134358810Y-115189845D01*
X134433145Y-115434896D01*
X134553860Y-115660736D01*
X134716313Y-115858687D01*
X134914264Y-116021140D01*
X135140104Y-116141855D01*
X135385155Y-116216190D01*
X135576136Y-116235000D01*
X136203864Y-116235000D01*
X136394845Y-116216190D01*
X136639896Y-116141855D01*
X136865736Y-116021140D01*
X137063687Y-115858687D01*
X137226140Y-115660736D01*
X137346855Y-115434896D01*
X137421190Y-115189845D01*
X137446290Y-114935000D01*
X137421190Y-114680155D01*
X137346855Y-114435104D01*
X137226140Y-114209264D01*
X137063687Y-114011313D01*
X136865736Y-113848860D01*
X136639896Y-113728145D01*
X136537010Y-113696935D01*
X137040000Y-113696935D01*
X137118414Y-113689212D01*
X137193814Y-113666340D01*
X137263303Y-113629197D01*
X137324211Y-113579211D01*
X137374197Y-113518303D01*
X137411340Y-113448814D01*
X137434212Y-113373414D01*
X137441935Y-113295000D01*
X137441935Y-111495000D01*
X137434212Y-111416586D01*
X137411340Y-111341186D01*
X137374197Y-111271697D01*
X137324211Y-111210789D01*
X137263303Y-111160803D01*
X137193814Y-111123660D01*
X137118414Y-111100788D01*
X137040000Y-111093065D01*
X136440000Y-111093065D01*
X136440000Y-111041108D01*
X136475241Y-111037637D01*
X136701442Y-110969019D01*
X136909910Y-110857591D01*
X137092634Y-110707634D01*
X137242591Y-110524910D01*
X137354019Y-110316442D01*
X137422637Y-110090241D01*
X137445806Y-109855000D01*
X137422637Y-109619759D01*
X137354019Y-109393558D01*
X137242591Y-109185090D01*
X137092634Y-109002366D01*
X136909910Y-108852409D01*
X136701442Y-108740981D01*
X136506795Y-108681935D01*
X137229001Y-108681935D01*
X137356187Y-108669408D01*
X137478485Y-108632309D01*
X137591196Y-108572064D01*
X137689988Y-108490988D01*
X137771064Y-108392196D01*
X137831309Y-108279485D01*
X137846320Y-108230000D01*
X141742183Y-108230000D01*
X142325001Y-108812819D01*
X142325000Y-111514773D01*
X142322340Y-111541781D01*
X142325000Y-111568789D01*
X142325000Y-111568798D01*
X142332958Y-111649599D01*
X142364408Y-111753274D01*
X142415479Y-111848823D01*
X142484210Y-111932571D01*
X142505196Y-111949794D01*
X144590211Y-114034810D01*
X144607429Y-114055790D01*
X144628409Y-114073008D01*
X144628414Y-114073013D01*
X144691176Y-114124521D01*
X144742247Y-114151818D01*
X144786725Y-114175592D01*
X144890400Y-114207042D01*
X144971201Y-114215000D01*
X144971210Y-114215000D01*
X144998218Y-114217660D01*
X145025226Y-114215000D01*
X150848992Y-114215000D01*
X150876000Y-114217660D01*
X150903008Y-114215000D01*
X150903018Y-114215000D01*
X150983819Y-114207042D01*
X151087494Y-114175592D01*
X151183042Y-114124521D01*
X151266790Y-114055790D01*
X151284013Y-114034804D01*
X151377383Y-113941434D01*
X151593344Y-113984391D01*
X151819874Y-113984391D01*
X152042052Y-113940197D01*
X152251338Y-113853507D01*
X152439691Y-113727654D01*
X152599872Y-113567473D01*
X152725725Y-113379120D01*
X152812415Y-113169834D01*
X152856609Y-112947656D01*
X152856609Y-112721126D01*
X152812415Y-112498948D01*
X152725725Y-112289662D01*
X152599872Y-112101309D01*
X152439691Y-111941128D01*
X152251338Y-111815275D01*
X152042052Y-111728585D01*
X151819874Y-111684391D01*
X151593344Y-111684391D01*
X151371166Y-111728585D01*
X151161880Y-111815275D01*
X150973527Y-111941128D01*
X150813346Y-112101309D01*
X150687493Y-112289662D01*
X150600803Y-112498948D01*
X150556609Y-112721126D01*
X150556609Y-112947656D01*
X150589896Y-113115000D01*
X145226037Y-113115000D01*
X143425000Y-111313964D01*
X143425000Y-108612007D01*
X143427660Y-108584999D01*
X143425000Y-108557991D01*
X143425000Y-108557982D01*
X143417042Y-108477181D01*
X143385592Y-108373506D01*
X143334521Y-108277958D01*
X143324860Y-108266186D01*
X143283013Y-108215195D01*
X143283008Y-108215190D01*
X143265790Y-108194210D01*
X143244810Y-108176992D01*
X142378013Y-107310196D01*
X142360790Y-107289210D01*
X142277042Y-107220479D01*
X142181494Y-107169408D01*
X142077819Y-107137958D01*
X141997018Y-107130000D01*
X141997008Y-107130000D01*
X141970000Y-107127340D01*
X141942992Y-107130000D01*
X137846320Y-107130000D01*
X137831309Y-107080515D01*
X137771064Y-106967804D01*
X137689988Y-106869012D01*
X137591196Y-106787936D01*
X137478485Y-106727691D01*
X137356187Y-106690592D01*
X137229001Y-106678065D01*
X136328999Y-106678065D01*
X136201813Y-106690592D01*
X136079515Y-106727691D01*
X135966804Y-106787936D01*
X135868012Y-106869012D01*
X135829000Y-106916549D01*
X135789988Y-106869012D01*
X135691196Y-106787936D01*
X135578485Y-106727691D01*
X135456187Y-106690592D01*
X135329001Y-106678065D01*
X134428999Y-106678065D01*
X134301813Y-106690592D01*
X134179515Y-106727691D01*
X134066804Y-106787936D01*
X133968012Y-106869012D01*
X133886936Y-106967804D01*
X133826691Y-107080515D01*
X133789592Y-107202813D01*
X133777065Y-107329999D01*
X133777065Y-108030001D01*
X133779717Y-108056928D01*
X133779407Y-108057508D01*
X133747957Y-108161183D01*
X133739999Y-108241984D01*
X133739999Y-108241993D01*
X133737339Y-108269001D01*
X129936000Y-108269001D01*
X129936000Y-106600238D01*
X130206239Y-106330000D01*
X134803692Y-106330000D01*
X134836936Y-106392196D01*
X134918012Y-106490988D01*
X135016804Y-106572064D01*
X135129515Y-106632309D01*
X135251813Y-106669408D01*
X135378999Y-106681935D01*
X136279001Y-106681935D01*
X136406187Y-106669408D01*
X136528485Y-106632309D01*
X136641196Y-106572064D01*
X136739988Y-106490988D01*
X136821064Y-106392196D01*
X136881309Y-106279485D01*
X136918408Y-106157187D01*
X136930935Y-106030001D01*
X136930935Y-105329999D01*
X136918408Y-105202813D01*
X136881309Y-105080515D01*
X136821064Y-104967804D01*
X136750655Y-104882010D01*
X138180650Y-104882010D01*
X138869391Y-105570751D01*
X138886614Y-105591737D01*
X138970362Y-105660468D01*
X139065910Y-105711539D01*
X139169585Y-105742989D01*
X139250386Y-105750947D01*
X139250395Y-105750947D01*
X139277403Y-105753607D01*
X139304411Y-105750947D01*
X141859406Y-105750947D01*
X141981737Y-105934029D01*
X142141918Y-106094210D01*
X142330271Y-106220063D01*
X142539557Y-106306753D01*
X142761735Y-106350947D01*
X142988265Y-106350947D01*
X143210443Y-106306753D01*
X143419729Y-106220063D01*
X143608082Y-106094210D01*
X143768263Y-105934029D01*
X143894116Y-105745676D01*
X143980806Y-105536390D01*
X144018604Y-105346367D01*
X144230000Y-105557763D01*
X144230001Y-107922982D01*
X144227340Y-107950000D01*
X144230001Y-107977018D01*
X144237959Y-108057819D01*
X144268102Y-108157187D01*
X144269409Y-108161494D01*
X144320479Y-108257042D01*
X144371987Y-108319804D01*
X144371993Y-108319810D01*
X144389211Y-108340790D01*
X144410191Y-108358008D01*
X144752991Y-108700809D01*
X144770210Y-108721790D01*
X144791190Y-108739008D01*
X144791195Y-108739013D01*
X144815011Y-108758558D01*
X144853958Y-108790521D01*
X144949506Y-108841592D01*
X144972876Y-108848681D01*
X144997691Y-108930485D01*
X145057936Y-109043196D01*
X145139012Y-109141988D01*
X145237804Y-109223064D01*
X145350515Y-109283309D01*
X145472813Y-109320408D01*
X145509001Y-109323972D01*
X145509000Y-109758316D01*
X145389090Y-109822409D01*
X145206366Y-109972366D01*
X145056409Y-110155091D01*
X144944981Y-110363559D01*
X144876363Y-110589760D01*
X144859000Y-110766051D01*
X144859000Y-111483950D01*
X144876363Y-111660241D01*
X144944981Y-111886442D01*
X145056410Y-112094910D01*
X145206367Y-112277634D01*
X145389091Y-112427591D01*
X145597559Y-112539019D01*
X145823760Y-112607637D01*
X146059000Y-112630806D01*
X146294241Y-112607637D01*
X146520442Y-112539019D01*
X146728910Y-112427591D01*
X146911634Y-112277634D01*
X147061591Y-112094910D01*
X147173019Y-111886442D01*
X147241637Y-111660240D01*
X147259000Y-111483949D01*
X147259000Y-111175000D01*
X147405000Y-111175000D01*
X147405000Y-111475000D01*
X147436928Y-111699173D01*
X147511977Y-111912810D01*
X147627262Y-112107701D01*
X147778353Y-112276356D01*
X147959444Y-112412294D01*
X148163576Y-112510291D01*
X148329260Y-112555900D01*
X148509000Y-112489326D01*
X148509000Y-111175000D01*
X148609000Y-111175000D01*
X148609000Y-112489326D01*
X148788740Y-112555900D01*
X148954424Y-112510291D01*
X149158556Y-112412294D01*
X149339647Y-112276356D01*
X149490738Y-112107701D01*
X149606023Y-111912810D01*
X149681072Y-111699173D01*
X149713000Y-111475000D01*
X149713000Y-111175000D01*
X148609000Y-111175000D01*
X148509000Y-111175000D01*
X147405000Y-111175000D01*
X147259000Y-111175000D01*
X147259000Y-110775000D01*
X147405000Y-110775000D01*
X147405000Y-111075000D01*
X148509000Y-111075000D01*
X148509000Y-109760674D01*
X148609000Y-109760674D01*
X148609000Y-111075000D01*
X149713000Y-111075000D01*
X149713000Y-110775000D01*
X149681072Y-110550827D01*
X149606023Y-110337190D01*
X149490738Y-110142299D01*
X149339647Y-109973644D01*
X149158556Y-109837706D01*
X148954424Y-109739709D01*
X148788740Y-109694100D01*
X148609000Y-109760674D01*
X148509000Y-109760674D01*
X148329260Y-109694100D01*
X148163576Y-109739709D01*
X147959444Y-109837706D01*
X147778353Y-109973644D01*
X147627262Y-110142299D01*
X147511977Y-110337190D01*
X147436928Y-110550827D01*
X147405000Y-110775000D01*
X147259000Y-110775000D01*
X147259000Y-110766050D01*
X147241637Y-110589759D01*
X147173019Y-110363558D01*
X147061591Y-110155090D01*
X146911634Y-109972366D01*
X146728909Y-109822409D01*
X146609000Y-109758317D01*
X146609000Y-109322199D01*
X146627187Y-109320408D01*
X146749485Y-109283309D01*
X146862196Y-109223064D01*
X146960988Y-109141988D01*
X147042064Y-109043196D01*
X147102309Y-108930485D01*
X147117320Y-108881000D01*
X147522680Y-108881000D01*
X147537691Y-108930485D01*
X147597936Y-109043196D01*
X147679012Y-109141988D01*
X147777804Y-109223064D01*
X147890515Y-109283309D01*
X148012813Y-109320408D01*
X148139999Y-109332935D01*
X148814117Y-109332935D01*
X149070992Y-109589810D01*
X149088210Y-109610790D01*
X149109190Y-109628008D01*
X149109195Y-109628013D01*
X149171958Y-109679521D01*
X149267505Y-109730592D01*
X149291635Y-109737912D01*
X149371181Y-109762042D01*
X149451982Y-109770000D01*
X149451992Y-109770000D01*
X149479000Y-109772660D01*
X149506008Y-109770000D01*
X154208316Y-109770000D01*
X154272409Y-109889910D01*
X154422366Y-110072634D01*
X154605090Y-110222591D01*
X154813558Y-110334019D01*
X155025000Y-110398160D01*
X155025000Y-111362539D01*
X155022340Y-111389547D01*
X155025000Y-111416555D01*
X155025000Y-111416564D01*
X155032958Y-111497365D01*
X155064408Y-111601040D01*
X155115479Y-111696589D01*
X155184210Y-111780337D01*
X155205196Y-111797560D01*
X158712440Y-115304804D01*
X158729663Y-115325790D01*
X158750649Y-115343013D01*
X158813411Y-115394521D01*
X158908958Y-115445592D01*
X159004495Y-115474573D01*
X159012634Y-115477042D01*
X159093435Y-115485000D01*
X159093442Y-115485000D01*
X159120453Y-115487660D01*
X159147464Y-115485000D01*
X161693065Y-115485000D01*
X161693065Y-115735000D01*
X161700788Y-115813414D01*
X161723660Y-115888814D01*
X161760803Y-115958303D01*
X161810789Y-116019211D01*
X161871697Y-116069197D01*
X161941186Y-116106340D01*
X162016586Y-116129212D01*
X162095000Y-116136935D01*
X164295000Y-116136935D01*
X164373414Y-116129212D01*
X164448814Y-116106340D01*
X164488717Y-116085011D01*
X167226524Y-116085011D01*
X167253532Y-116087671D01*
X167280540Y-116085011D01*
X167280550Y-116085011D01*
X167361351Y-116077053D01*
X167465026Y-116045603D01*
X167560574Y-115994532D01*
X167604719Y-115958303D01*
X167623336Y-115943024D01*
X167644322Y-115925801D01*
X167661545Y-115904815D01*
X170235804Y-113330556D01*
X170256790Y-113313333D01*
X170325521Y-113229585D01*
X170376592Y-113134037D01*
X170408042Y-113030362D01*
X170416000Y-112949561D01*
X170416000Y-112949554D01*
X170418660Y-112922543D01*
X170416000Y-112895532D01*
X170416000Y-112491683D01*
X170535909Y-112427591D01*
X170718634Y-112277634D01*
X170868591Y-112094910D01*
X170980019Y-111886442D01*
X171048637Y-111660241D01*
X171066000Y-111483950D01*
X171066000Y-111258374D01*
X171106194Y-111460443D01*
X171192884Y-111669729D01*
X171318737Y-111858082D01*
X171478918Y-112018263D01*
X171667271Y-112144116D01*
X171876557Y-112230806D01*
X172098735Y-112275000D01*
X172325265Y-112275000D01*
X172547443Y-112230806D01*
X172756729Y-112144116D01*
X172945082Y-112018263D01*
X173105263Y-111858082D01*
X173231116Y-111669729D01*
X173317806Y-111460443D01*
X173362000Y-111238265D01*
X173362000Y-111011735D01*
X173317806Y-110789557D01*
X173231116Y-110580271D01*
X173105263Y-110391918D01*
X172945082Y-110231737D01*
X172756729Y-110105884D01*
X172547443Y-110019194D01*
X172325265Y-109975000D01*
X172098735Y-109975000D01*
X171876557Y-110019194D01*
X171667271Y-110105884D01*
X171627921Y-110132177D01*
X171639521Y-110118042D01*
X171690592Y-110022494D01*
X171722042Y-109918819D01*
X171730000Y-109838018D01*
X171730000Y-109838011D01*
X171732660Y-109811000D01*
X171730000Y-109783989D01*
X171730000Y-109652320D01*
X171779485Y-109637309D01*
X171892196Y-109577064D01*
X171990988Y-109495988D01*
X172072064Y-109397196D01*
X172132309Y-109284485D01*
X172169408Y-109162187D01*
X172181935Y-109035001D01*
X172181935Y-108360882D01*
X174329775Y-106213042D01*
X174350761Y-106195819D01*
X174419492Y-106112071D01*
X174456481Y-106042869D01*
X174470563Y-106016524D01*
X174502013Y-105912848D01*
X174502013Y-105912847D01*
X174509971Y-105832047D01*
X174509971Y-105832040D01*
X174512631Y-105805029D01*
X174509971Y-105778018D01*
X174509971Y-88642982D01*
X174512631Y-88615971D01*
X174509971Y-88588960D01*
X174509971Y-88588953D01*
X174502013Y-88508152D01*
X174470563Y-88404477D01*
X174419492Y-88308929D01*
X174383786Y-88265422D01*
X174367984Y-88246167D01*
X174350761Y-88225181D01*
X174329775Y-88207958D01*
X173382013Y-87260196D01*
X173364790Y-87239210D01*
X173281042Y-87170479D01*
X173185494Y-87119408D01*
X173081819Y-87087958D01*
X173001018Y-87080000D01*
X173001008Y-87080000D01*
X172974000Y-87077340D01*
X172946992Y-87080000D01*
X172040160Y-87080000D01*
X171976019Y-86868558D01*
X171864591Y-86660090D01*
X171714634Y-86477366D01*
X171531909Y-86327409D01*
X171323441Y-86215981D01*
X171097240Y-86147363D01*
X170862000Y-86124194D01*
X170626759Y-86147363D01*
X170400558Y-86215981D01*
X170192090Y-86327409D01*
X170009366Y-86477366D01*
X169859409Y-86660091D01*
X169747981Y-86868559D01*
X169679363Y-87094760D01*
X169662000Y-87271051D01*
X169662000Y-87988950D01*
X169679363Y-88165241D01*
X169747981Y-88391442D01*
X169859410Y-88599910D01*
X170009367Y-88782634D01*
X170183345Y-88925414D01*
X166092961Y-93015799D01*
X166068156Y-93036156D01*
X166047801Y-93060959D01*
X165986929Y-93135131D01*
X165957134Y-93190874D01*
X165926572Y-93248052D01*
X165889404Y-93370578D01*
X165879999Y-93466068D01*
X165879999Y-93466078D01*
X165876855Y-93497999D01*
X165879999Y-93529921D01*
X165880000Y-96889066D01*
X165876855Y-96920997D01*
X165889405Y-97048419D01*
X165926572Y-97170944D01*
X165986929Y-97283865D01*
X166047801Y-97358037D01*
X166047804Y-97358040D01*
X166068157Y-97382840D01*
X166092956Y-97403192D01*
X171816001Y-103126238D01*
X171816002Y-103883761D01*
X169064765Y-106634999D01*
X165161925Y-106634999D01*
X165130001Y-106631855D01*
X165098077Y-106634999D01*
X165098069Y-106634999D01*
X165002579Y-106644404D01*
X164880053Y-106681572D01*
X164767133Y-106741929D01*
X164668158Y-106823156D01*
X164647803Y-106847959D01*
X163804777Y-107690985D01*
X163798427Y-107670052D01*
X163738070Y-107557132D01*
X163707606Y-107520012D01*
X163677198Y-107482959D01*
X163677196Y-107482957D01*
X163656843Y-107458157D01*
X163632045Y-107437806D01*
X157912188Y-101717950D01*
X157891833Y-101693147D01*
X157792858Y-101611920D01*
X157679938Y-101551563D01*
X157557412Y-101514395D01*
X157461922Y-101504990D01*
X157461911Y-101504990D01*
X157429990Y-101501846D01*
X157398069Y-101504990D01*
X151960257Y-101504990D01*
X151904932Y-101449666D01*
X152100443Y-101410776D01*
X152309729Y-101324086D01*
X152498082Y-101198233D01*
X152658263Y-101038052D01*
X152784116Y-100849699D01*
X152870806Y-100640413D01*
X152915000Y-100418235D01*
X152915000Y-100191705D01*
X152870806Y-99969527D01*
X152784116Y-99760241D01*
X152658263Y-99571888D01*
X152536299Y-99449924D01*
X152577196Y-99428064D01*
X152675988Y-99346988D01*
X152757064Y-99248196D01*
X152817309Y-99135485D01*
X152854408Y-99013187D01*
X152866935Y-98886001D01*
X152866935Y-98185999D01*
X152854408Y-98058813D01*
X152817309Y-97936515D01*
X152757064Y-97823804D01*
X152675988Y-97725012D01*
X152577196Y-97643936D01*
X152464485Y-97583691D01*
X152342187Y-97546592D01*
X152234647Y-97536000D01*
X152342187Y-97525408D01*
X152464485Y-97488309D01*
X152577196Y-97428064D01*
X152675988Y-97346988D01*
X152757064Y-97248196D01*
X152817309Y-97135485D01*
X152854408Y-97013187D01*
X152866935Y-96886001D01*
X152866935Y-96325068D01*
X153108340Y-96907872D01*
X153491372Y-97481120D01*
X153978880Y-97968628D01*
X154552128Y-98351660D01*
X155189088Y-98615497D01*
X155865280Y-98750000D01*
X156554720Y-98750000D01*
X157230912Y-98615497D01*
X157867872Y-98351660D01*
X158441120Y-97968628D01*
X158928628Y-97481120D01*
X159311660Y-96907872D01*
X159575497Y-96270912D01*
X159710000Y-95594720D01*
X159710000Y-94905280D01*
X159575497Y-94229088D01*
X159512016Y-94075832D01*
X160232000Y-94795816D01*
X160232001Y-101064982D01*
X160229340Y-101092000D01*
X160232001Y-101119018D01*
X160239959Y-101199819D01*
X160254532Y-101247858D01*
X160271409Y-101303494D01*
X160322479Y-101399042D01*
X160373987Y-101461804D01*
X160373993Y-101461810D01*
X160391211Y-101482790D01*
X160412191Y-101500008D01*
X161693065Y-102780883D01*
X161693065Y-104305000D01*
X161700788Y-104383414D01*
X161723660Y-104458814D01*
X161760803Y-104528303D01*
X161810789Y-104589211D01*
X161871697Y-104639197D01*
X161941186Y-104676340D01*
X162016586Y-104699212D01*
X162095000Y-104706935D01*
X164295000Y-104706935D01*
X164373414Y-104699212D01*
X164448814Y-104676340D01*
X164518303Y-104639197D01*
X164579211Y-104589211D01*
X164629197Y-104528303D01*
X164666340Y-104458814D01*
X164689212Y-104383414D01*
X164696935Y-104305000D01*
X164696935Y-104055000D01*
X166187840Y-104055000D01*
X166251981Y-104266441D01*
X166363409Y-104474909D01*
X166513366Y-104657634D01*
X166696090Y-104807591D01*
X166904558Y-104919019D01*
X167130759Y-104987637D01*
X167366000Y-105010806D01*
X167601240Y-104987637D01*
X167827441Y-104919019D01*
X168035909Y-104807591D01*
X168218634Y-104657634D01*
X168368591Y-104474910D01*
X168480019Y-104266442D01*
X168548637Y-104040241D01*
X168566000Y-103863950D01*
X168566000Y-103555000D01*
X168712000Y-103555000D01*
X168712000Y-103855000D01*
X168743928Y-104079173D01*
X168818977Y-104292810D01*
X168934262Y-104487701D01*
X169085353Y-104656356D01*
X169266444Y-104792294D01*
X169470576Y-104890291D01*
X169636260Y-104935900D01*
X169816000Y-104869326D01*
X169816000Y-103555000D01*
X169916000Y-103555000D01*
X169916000Y-104869326D01*
X170095740Y-104935900D01*
X170261424Y-104890291D01*
X170465556Y-104792294D01*
X170646647Y-104656356D01*
X170797738Y-104487701D01*
X170913023Y-104292810D01*
X170988072Y-104079173D01*
X171020000Y-103855000D01*
X171020000Y-103555000D01*
X169916000Y-103555000D01*
X169816000Y-103555000D01*
X168712000Y-103555000D01*
X168566000Y-103555000D01*
X168566000Y-103155000D01*
X168712000Y-103155000D01*
X168712000Y-103455000D01*
X169816000Y-103455000D01*
X169816000Y-102140674D01*
X169916000Y-102140674D01*
X169916000Y-103455000D01*
X171020000Y-103455000D01*
X171020000Y-103155000D01*
X170988072Y-102930827D01*
X170913023Y-102717190D01*
X170797738Y-102522299D01*
X170646647Y-102353644D01*
X170465556Y-102217706D01*
X170261424Y-102119709D01*
X170095740Y-102074100D01*
X169916000Y-102140674D01*
X169816000Y-102140674D01*
X169636260Y-102074100D01*
X169470576Y-102119709D01*
X169266444Y-102217706D01*
X169085353Y-102353644D01*
X168934262Y-102522299D01*
X168818977Y-102717190D01*
X168743928Y-102930827D01*
X168712000Y-103155000D01*
X168566000Y-103155000D01*
X168566000Y-103146051D01*
X168548637Y-102969760D01*
X168480019Y-102743558D01*
X168368591Y-102535090D01*
X168218634Y-102352366D01*
X168035910Y-102202409D01*
X167827442Y-102090981D01*
X167601241Y-102022363D01*
X167366000Y-101999194D01*
X167130760Y-102022363D01*
X166904559Y-102090981D01*
X166696091Y-102202409D01*
X166513367Y-102352366D01*
X166363410Y-102535090D01*
X166251981Y-102743558D01*
X166187840Y-102955000D01*
X164696935Y-102955000D01*
X164696935Y-102705000D01*
X164689212Y-102626586D01*
X164666340Y-102551186D01*
X164629197Y-102481697D01*
X164579211Y-102420789D01*
X164518303Y-102370803D01*
X164448814Y-102333660D01*
X164373414Y-102310788D01*
X164295000Y-102303065D01*
X162770883Y-102303065D01*
X161332000Y-100864183D01*
X161332000Y-94595005D01*
X161334660Y-94567997D01*
X161332000Y-94540989D01*
X161332000Y-94540980D01*
X161324042Y-94460179D01*
X161292592Y-94356504D01*
X161266644Y-94307958D01*
X161241521Y-94260955D01*
X161190013Y-94198193D01*
X161190008Y-94198188D01*
X161172790Y-94177208D01*
X161151810Y-94159990D01*
X159616819Y-92625000D01*
X160302914Y-92625000D01*
X160305592Y-92652187D01*
X160342691Y-92774485D01*
X160402936Y-92887196D01*
X160484012Y-92985988D01*
X160582804Y-93067064D01*
X160695515Y-93127309D01*
X160817813Y-93164408D01*
X160944999Y-93176935D01*
X161645001Y-93176935D01*
X161772187Y-93164408D01*
X161894485Y-93127309D01*
X162007196Y-93067064D01*
X162105988Y-92985988D01*
X162187064Y-92887196D01*
X162247033Y-92775000D01*
X162339287Y-92775000D01*
X162346122Y-92844396D01*
X162366364Y-92911125D01*
X162399235Y-92972624D01*
X162443473Y-93026527D01*
X162497376Y-93070765D01*
X162558875Y-93103636D01*
X162625604Y-93123878D01*
X162695000Y-93130713D01*
X163156500Y-93129000D01*
X163245000Y-93040500D01*
X163245000Y-92125000D01*
X163345000Y-92125000D01*
X163345000Y-93040500D01*
X163433500Y-93129000D01*
X163895000Y-93130713D01*
X163964396Y-93123878D01*
X164031125Y-93103636D01*
X164092624Y-93070765D01*
X164146527Y-93026527D01*
X164190765Y-92972624D01*
X164223636Y-92911125D01*
X164243878Y-92844396D01*
X164250713Y-92775000D01*
X164249000Y-92213500D01*
X164160500Y-92125000D01*
X163345000Y-92125000D01*
X163245000Y-92125000D01*
X162429500Y-92125000D01*
X162341000Y-92213500D01*
X162339287Y-92775000D01*
X162247033Y-92775000D01*
X162247309Y-92774485D01*
X162284408Y-92652187D01*
X162296935Y-92525001D01*
X162296935Y-91624999D01*
X162284408Y-91497813D01*
X162247309Y-91375515D01*
X162247034Y-91375000D01*
X162339287Y-91375000D01*
X162341000Y-91936500D01*
X162429500Y-92025000D01*
X163245000Y-92025000D01*
X163245000Y-91109500D01*
X163345000Y-91109500D01*
X163345000Y-92025000D01*
X164160500Y-92025000D01*
X164249000Y-91936500D01*
X164250713Y-91375000D01*
X164243878Y-91305604D01*
X164223636Y-91238875D01*
X164190765Y-91177376D01*
X164146527Y-91123473D01*
X164092624Y-91079235D01*
X164031125Y-91046364D01*
X163964396Y-91026122D01*
X163895000Y-91019287D01*
X163433500Y-91021000D01*
X163345000Y-91109500D01*
X163245000Y-91109500D01*
X163156500Y-91021000D01*
X162695000Y-91019287D01*
X162625604Y-91026122D01*
X162558875Y-91046364D01*
X162497376Y-91079235D01*
X162443473Y-91123473D01*
X162399235Y-91177376D01*
X162366364Y-91238875D01*
X162346122Y-91305604D01*
X162339287Y-91375000D01*
X162247034Y-91375000D01*
X162187064Y-91262804D01*
X162105988Y-91164012D01*
X162007196Y-91082936D01*
X161894485Y-91022691D01*
X161772187Y-90985592D01*
X161645001Y-90973065D01*
X160944999Y-90973065D01*
X160817813Y-90985592D01*
X160695515Y-91022691D01*
X160582804Y-91082936D01*
X160484012Y-91164012D01*
X160402936Y-91262804D01*
X160342691Y-91375515D01*
X160305592Y-91497813D01*
X160302914Y-91525000D01*
X159612818Y-91525000D01*
X158619395Y-90531578D01*
X158692187Y-90524408D01*
X158814485Y-90487309D01*
X158927196Y-90427064D01*
X159025988Y-90345988D01*
X159107064Y-90247196D01*
X159167033Y-90135000D01*
X159599287Y-90135000D01*
X159606122Y-90204396D01*
X159626364Y-90271125D01*
X159659235Y-90332624D01*
X159703473Y-90386527D01*
X159757376Y-90430765D01*
X159818875Y-90463636D01*
X159885604Y-90483878D01*
X159955000Y-90490713D01*
X160516500Y-90489000D01*
X160605000Y-90400500D01*
X160605000Y-89585000D01*
X160705000Y-89585000D01*
X160705000Y-90400500D01*
X160793500Y-90489000D01*
X161355000Y-90490713D01*
X161424396Y-90483878D01*
X161491125Y-90463636D01*
X161552624Y-90430765D01*
X161606527Y-90386527D01*
X161650765Y-90332624D01*
X161683636Y-90271125D01*
X161703878Y-90204396D01*
X161710713Y-90135000D01*
X161709000Y-89673500D01*
X161620500Y-89585000D01*
X160705000Y-89585000D01*
X160605000Y-89585000D01*
X159689500Y-89585000D01*
X159601000Y-89673500D01*
X159599287Y-90135000D01*
X159167033Y-90135000D01*
X159167309Y-90134485D01*
X159204408Y-90012187D01*
X159216935Y-89885001D01*
X159216935Y-89184999D01*
X159204408Y-89057813D01*
X159167309Y-88935515D01*
X159167034Y-88935000D01*
X159599287Y-88935000D01*
X159601000Y-89396500D01*
X159689500Y-89485000D01*
X160605000Y-89485000D01*
X160605000Y-88669500D01*
X160516500Y-88581000D01*
X159955000Y-88579287D01*
X159885604Y-88586122D01*
X159818875Y-88606364D01*
X159757376Y-88639235D01*
X159703473Y-88683473D01*
X159659235Y-88737376D01*
X159626364Y-88798875D01*
X159606122Y-88865604D01*
X159599287Y-88935000D01*
X159167034Y-88935000D01*
X159107064Y-88822804D01*
X159025988Y-88724012D01*
X158927196Y-88642936D01*
X158814485Y-88582691D01*
X158692187Y-88545592D01*
X158565001Y-88533065D01*
X157664999Y-88533065D01*
X157537813Y-88545592D01*
X157415515Y-88582691D01*
X157302804Y-88642936D01*
X157204012Y-88724012D01*
X157122936Y-88822804D01*
X157062691Y-88935515D01*
X157047680Y-88985000D01*
X156642320Y-88985000D01*
X156627309Y-88935515D01*
X156567064Y-88822804D01*
X156485988Y-88724012D01*
X156387196Y-88642936D01*
X156274485Y-88582691D01*
X156152187Y-88545592D01*
X156044647Y-88535000D01*
X156152187Y-88524408D01*
X156274485Y-88487309D01*
X156387196Y-88427064D01*
X156485988Y-88345988D01*
X156567064Y-88247196D01*
X156627033Y-88135000D01*
X157059287Y-88135000D01*
X157066122Y-88204396D01*
X157086364Y-88271125D01*
X157119235Y-88332624D01*
X157163473Y-88386527D01*
X157217376Y-88430765D01*
X157278875Y-88463636D01*
X157345604Y-88483878D01*
X157415000Y-88490713D01*
X157976500Y-88489000D01*
X158065000Y-88400500D01*
X158065000Y-87585000D01*
X158165000Y-87585000D01*
X158165000Y-88400500D01*
X158253500Y-88489000D01*
X158815000Y-88490713D01*
X158884396Y-88483878D01*
X158951125Y-88463636D01*
X159012624Y-88430765D01*
X159066527Y-88386527D01*
X159110765Y-88332624D01*
X159143636Y-88271125D01*
X159163878Y-88204396D01*
X159170713Y-88135000D01*
X159169000Y-87673500D01*
X159080500Y-87585000D01*
X158165000Y-87585000D01*
X158065000Y-87585000D01*
X157149500Y-87585000D01*
X157061000Y-87673500D01*
X157059287Y-88135000D01*
X156627033Y-88135000D01*
X156627309Y-88134485D01*
X156664408Y-88012187D01*
X156676935Y-87885001D01*
X156676935Y-87352303D01*
X157059416Y-86969822D01*
X157061000Y-87396500D01*
X157149500Y-87485000D01*
X158065000Y-87485000D01*
X158065000Y-86669500D01*
X158165000Y-86669500D01*
X158165000Y-87485000D01*
X159080500Y-87485000D01*
X159169000Y-87396500D01*
X159170713Y-86935000D01*
X159163878Y-86865604D01*
X159143636Y-86798875D01*
X159110765Y-86737376D01*
X159066527Y-86683473D01*
X159012624Y-86639235D01*
X158951125Y-86606364D01*
X158884396Y-86586122D01*
X158815000Y-86579287D01*
X158253500Y-86581000D01*
X158165000Y-86669500D01*
X158065000Y-86669500D01*
X157976500Y-86581000D01*
X157449845Y-86579393D01*
X157917039Y-86112199D01*
X157941843Y-86091843D01*
X158023070Y-85992868D01*
X158083427Y-85879948D01*
X158120595Y-85757422D01*
X158130000Y-85661932D01*
X158130000Y-85661924D01*
X158133144Y-85630000D01*
X158130000Y-85598076D01*
X158130000Y-84724238D01*
X159019239Y-83835000D01*
X161655762Y-83835000D01*
X163300740Y-85479979D01*
X162757962Y-86022758D01*
X162733157Y-86043115D01*
X162712802Y-86067918D01*
X162651930Y-86142090D01*
X162594094Y-86250294D01*
X162591573Y-86255011D01*
X162554405Y-86377537D01*
X162545000Y-86473027D01*
X162545000Y-86473037D01*
X162541856Y-86504958D01*
X162545000Y-86536880D01*
X162545000Y-86567680D01*
X162495515Y-86582691D01*
X162382804Y-86642936D01*
X162284012Y-86724012D01*
X162202936Y-86822804D01*
X162142691Y-86935515D01*
X162105592Y-87057813D01*
X162093065Y-87184999D01*
X162093065Y-87655248D01*
X161756935Y-87319118D01*
X161756935Y-87184999D01*
X161744408Y-87057813D01*
X161707309Y-86935515D01*
X161647064Y-86822804D01*
X161565988Y-86724012D01*
X161467196Y-86642936D01*
X161354485Y-86582691D01*
X161232187Y-86545592D01*
X161105001Y-86533065D01*
X160570000Y-86533065D01*
X160570000Y-86105594D01*
X160753082Y-85983263D01*
X160913263Y-85823082D01*
X161039116Y-85634729D01*
X161125806Y-85425443D01*
X161170000Y-85203265D01*
X161170000Y-84976735D01*
X161125806Y-84754557D01*
X161039116Y-84545271D01*
X160913263Y-84356918D01*
X160753082Y-84196737D01*
X160564729Y-84070884D01*
X160355443Y-83984194D01*
X160133265Y-83940000D01*
X159906735Y-83940000D01*
X159684557Y-83984194D01*
X159475271Y-84070884D01*
X159286918Y-84196737D01*
X159126737Y-84356918D01*
X159000884Y-84545271D01*
X158914194Y-84754557D01*
X158870000Y-84976735D01*
X158870000Y-85203265D01*
X158914194Y-85425443D01*
X159000884Y-85634729D01*
X159126737Y-85823082D01*
X159286918Y-85983263D01*
X159470001Y-86105594D01*
X159470001Y-86872982D01*
X159467340Y-86900000D01*
X159470001Y-86927018D01*
X159477959Y-87007819D01*
X159490601Y-87049494D01*
X159509409Y-87111494D01*
X159553065Y-87193171D01*
X159553065Y-87885001D01*
X159565592Y-88012187D01*
X159602691Y-88134485D01*
X159662936Y-88247196D01*
X159744012Y-88345988D01*
X159842804Y-88427064D01*
X159955515Y-88487309D01*
X160077813Y-88524408D01*
X160204999Y-88536935D01*
X161105001Y-88536935D01*
X161232187Y-88524408D01*
X161354485Y-88487309D01*
X161364264Y-88482082D01*
X161487424Y-88605241D01*
X161424396Y-88586122D01*
X161355000Y-88579287D01*
X160793500Y-88581000D01*
X160705000Y-88669500D01*
X160705000Y-89485000D01*
X161620500Y-89485000D01*
X161709000Y-89396500D01*
X161710713Y-88935000D01*
X161703878Y-88865604D01*
X161684759Y-88802576D01*
X162093065Y-89210883D01*
X162093065Y-89885001D01*
X162105592Y-90012187D01*
X162142691Y-90134485D01*
X162202936Y-90247196D01*
X162284012Y-90345988D01*
X162382804Y-90427064D01*
X162495515Y-90487309D01*
X162617813Y-90524408D01*
X162744999Y-90536935D01*
X163645001Y-90536935D01*
X163772187Y-90524408D01*
X163894485Y-90487309D01*
X164007196Y-90427064D01*
X164105988Y-90345988D01*
X164187064Y-90247196D01*
X164247309Y-90134485D01*
X164263069Y-90082533D01*
X164318819Y-90077042D01*
X164422494Y-90045592D01*
X164518042Y-89994521D01*
X164601790Y-89925790D01*
X164619013Y-89904804D01*
X165461356Y-89062462D01*
X165626760Y-89112637D01*
X165862000Y-89135806D01*
X166097241Y-89112637D01*
X166323442Y-89044019D01*
X166531910Y-88932591D01*
X166714634Y-88782634D01*
X166864591Y-88599910D01*
X166976019Y-88391442D01*
X167044637Y-88165240D01*
X167062000Y-87988949D01*
X167062000Y-87271050D01*
X167044637Y-87094759D01*
X166976019Y-86868558D01*
X166864591Y-86660090D01*
X166714634Y-86477366D01*
X166531909Y-86327409D01*
X166323441Y-86215981D01*
X166097240Y-86147363D01*
X165920736Y-86129979D01*
X169885100Y-86129979D01*
X169917021Y-86133123D01*
X169948942Y-86129979D01*
X169948953Y-86129979D01*
X170044443Y-86120574D01*
X170166969Y-86083406D01*
X170279889Y-86023049D01*
X170378864Y-85941822D01*
X170399221Y-85917017D01*
X171465239Y-84851000D01*
X171771224Y-84851000D01*
X171826737Y-84934082D01*
X171986918Y-85094263D01*
X172175271Y-85220116D01*
X172384557Y-85306806D01*
X172606735Y-85351000D01*
X172833265Y-85351000D01*
X173055443Y-85306806D01*
X173264729Y-85220116D01*
X173453082Y-85094263D01*
X173613263Y-84934082D01*
X173739116Y-84745729D01*
X173825806Y-84536443D01*
X173870000Y-84314265D01*
X173870000Y-84087735D01*
X173825806Y-83865557D01*
X173739116Y-83656271D01*
X173613263Y-83467918D01*
X173453082Y-83307737D01*
X173264729Y-83181884D01*
X173055443Y-83095194D01*
X172833265Y-83051000D01*
X172606735Y-83051000D01*
X172384557Y-83095194D01*
X172175271Y-83181884D01*
X171986918Y-83307737D01*
X171826737Y-83467918D01*
X171771224Y-83551000D01*
X171227920Y-83551000D01*
X171195999Y-83547856D01*
X171164078Y-83551000D01*
X171164068Y-83551000D01*
X171068578Y-83560405D01*
X170946052Y-83597573D01*
X170833132Y-83657930D01*
X170823315Y-83665987D01*
X170758959Y-83718802D01*
X170758957Y-83718804D01*
X170734157Y-83739157D01*
X170713804Y-83763957D01*
X170146935Y-84330826D01*
X170146935Y-83623999D01*
X170134408Y-83496813D01*
X170097309Y-83374515D01*
X170037064Y-83261804D01*
X169955988Y-83163012D01*
X169857196Y-83081936D01*
X169744485Y-83021691D01*
X169695000Y-83006680D01*
X169695000Y-82419608D01*
X169758439Y-82413360D01*
X169975215Y-82347602D01*
X170174997Y-82240816D01*
X170350107Y-82097107D01*
X170493816Y-81921997D01*
X170542990Y-81830000D01*
X170983065Y-81830000D01*
X170983065Y-82360001D01*
X170995592Y-82487187D01*
X171032691Y-82609485D01*
X171092936Y-82722196D01*
X171174012Y-82820988D01*
X171272804Y-82902064D01*
X171385515Y-82962309D01*
X171507813Y-82999408D01*
X171634999Y-83011935D01*
X172535001Y-83011935D01*
X172662187Y-82999408D01*
X172784485Y-82962309D01*
X172897196Y-82902064D01*
X172995988Y-82820988D01*
X173077064Y-82722196D01*
X173137309Y-82609485D01*
X173174408Y-82487187D01*
X173186935Y-82360001D01*
X173186935Y-81659999D01*
X173174408Y-81532813D01*
X173137309Y-81410515D01*
X173077064Y-81297804D01*
X172995988Y-81199012D01*
X172897196Y-81117936D01*
X172784485Y-81057691D01*
X172662187Y-81020592D01*
X172554647Y-81010000D01*
X172662187Y-80999408D01*
X172784485Y-80962309D01*
X172897196Y-80902064D01*
X172995988Y-80820988D01*
X173077064Y-80722196D01*
X173137309Y-80609485D01*
X173174408Y-80487187D01*
X173186935Y-80360001D01*
X173186935Y-79659999D01*
X173174408Y-79532813D01*
X173137309Y-79410515D01*
X173077064Y-79297804D01*
X172995988Y-79199012D01*
X172897196Y-79117936D01*
X172784485Y-79057691D01*
X172662187Y-79020592D01*
X172635000Y-79017914D01*
X172635000Y-78192086D01*
X172662187Y-78189408D01*
X172784485Y-78152309D01*
X172897196Y-78092064D01*
X172995988Y-78010988D01*
X173077064Y-77912196D01*
X173137309Y-77799485D01*
X173174408Y-77677187D01*
X173186935Y-77550001D01*
X173186935Y-76849999D01*
X173174408Y-76722813D01*
X173137309Y-76600515D01*
X173077064Y-76487804D01*
X172995988Y-76389012D01*
X172897196Y-76307936D01*
X172784485Y-76247691D01*
X172662187Y-76210592D01*
X172535001Y-76198065D01*
X171860882Y-76198065D01*
X171817211Y-76154394D01*
X171946500Y-76154000D01*
X172035000Y-76065500D01*
X172035000Y-75250000D01*
X172135000Y-75250000D01*
X172135000Y-76065500D01*
X172223500Y-76154000D01*
X172785000Y-76155713D01*
X172854396Y-76148878D01*
X172921125Y-76128636D01*
X172982624Y-76095765D01*
X173036527Y-76051527D01*
X173080765Y-75997624D01*
X173113636Y-75936125D01*
X173133878Y-75869396D01*
X173140713Y-75800000D01*
X173139000Y-75338500D01*
X173050500Y-75250000D01*
X172135000Y-75250000D01*
X172035000Y-75250000D01*
X171119500Y-75250000D01*
X171031000Y-75338500D01*
X171029844Y-75650000D01*
X170542990Y-75650000D01*
X170493816Y-75558003D01*
X170350107Y-75382893D01*
X170174997Y-75239184D01*
X169975215Y-75132398D01*
X169758439Y-75066640D01*
X169589492Y-75050000D01*
X167976508Y-75050000D01*
X167807561Y-75066640D01*
X167590785Y-75132398D01*
X167391003Y-75239184D01*
X167215893Y-75382893D01*
X167072184Y-75558003D01*
X166965398Y-75757785D01*
X166899640Y-75974561D01*
X166890292Y-76069474D01*
X165420818Y-74600000D01*
X171029287Y-74600000D01*
X171031000Y-75061500D01*
X171119500Y-75150000D01*
X172035000Y-75150000D01*
X172035000Y-74334500D01*
X172135000Y-74334500D01*
X172135000Y-75150000D01*
X173050500Y-75150000D01*
X173139000Y-75061500D01*
X173140713Y-74600000D01*
X173133878Y-74530604D01*
X173113636Y-74463875D01*
X173080765Y-74402376D01*
X173036527Y-74348473D01*
X172982624Y-74304235D01*
X172921125Y-74271364D01*
X172854396Y-74251122D01*
X172785000Y-74244287D01*
X172223500Y-74246000D01*
X172135000Y-74334500D01*
X172035000Y-74334500D01*
X171946500Y-74246000D01*
X171385000Y-74244287D01*
X171315604Y-74251122D01*
X171248875Y-74271364D01*
X171187376Y-74304235D01*
X171133473Y-74348473D01*
X171089235Y-74402376D01*
X171056364Y-74463875D01*
X171036122Y-74530604D01*
X171029287Y-74600000D01*
X165420818Y-74600000D01*
X164601003Y-73780186D01*
X164583780Y-73759200D01*
X164500032Y-73690469D01*
X164404484Y-73639398D01*
X164300809Y-73607948D01*
X164220008Y-73599990D01*
X164219998Y-73599990D01*
X164192990Y-73597330D01*
X164165982Y-73599990D01*
X157148052Y-73599990D01*
X157121044Y-73597330D01*
X157094036Y-73599990D01*
X157094026Y-73599990D01*
X157013225Y-73607948D01*
X156909550Y-73639398D01*
X156814002Y-73690469D01*
X156751239Y-73741977D01*
X156751234Y-73741982D01*
X156730254Y-73759200D01*
X156713035Y-73780181D01*
X156341185Y-74152032D01*
X156320200Y-74169254D01*
X156251469Y-74253002D01*
X156200398Y-74348551D01*
X156168948Y-74452226D01*
X156160990Y-74533027D01*
X156160990Y-74533036D01*
X156158330Y-74560044D01*
X156160990Y-74587052D01*
X156160991Y-76013550D01*
X155715472Y-76459069D01*
X155737029Y-76406919D01*
X155697903Y-76263845D01*
X155609147Y-76077002D01*
X155485645Y-75911064D01*
X155332144Y-75772409D01*
X155154542Y-75666365D01*
X154959664Y-75597007D01*
X154755000Y-75567000D01*
X154355000Y-75567000D01*
X154355000Y-76571000D01*
X154375000Y-76571000D01*
X154375000Y-76671000D01*
X154355000Y-76671000D01*
X154355000Y-76691000D01*
X154255000Y-76691000D01*
X154255000Y-76671000D01*
X152940796Y-76671000D01*
X152872971Y-76835081D01*
X152912097Y-76978155D01*
X153000853Y-77164998D01*
X153042541Y-77221010D01*
X151788003Y-77221010D01*
X151760992Y-77218350D01*
X151733981Y-77221010D01*
X151733974Y-77221010D01*
X151653173Y-77228968D01*
X151549498Y-77260418D01*
X151453950Y-77311489D01*
X151370202Y-77380220D01*
X151352979Y-77401206D01*
X149202935Y-79551250D01*
X149202935Y-78321000D01*
X149195212Y-78242586D01*
X149172340Y-78167186D01*
X149135197Y-78097697D01*
X149085211Y-78036789D01*
X149024303Y-77986803D01*
X148954814Y-77949660D01*
X148879414Y-77926788D01*
X148801000Y-77919065D01*
X146641882Y-77919065D01*
X145573557Y-76850740D01*
X146270100Y-76850740D01*
X146315709Y-77016424D01*
X146413706Y-77220556D01*
X146549644Y-77401647D01*
X146718299Y-77552738D01*
X146913190Y-77668023D01*
X147126827Y-77743072D01*
X147351000Y-77775000D01*
X147651000Y-77775000D01*
X147651000Y-76671000D01*
X147751000Y-76671000D01*
X147751000Y-77775000D01*
X148051000Y-77775000D01*
X148275173Y-77743072D01*
X148488810Y-77668023D01*
X148683701Y-77552738D01*
X148852356Y-77401647D01*
X148988294Y-77220556D01*
X149086291Y-77016424D01*
X149131900Y-76850740D01*
X149065326Y-76671000D01*
X147751000Y-76671000D01*
X147651000Y-76671000D01*
X146336674Y-76671000D01*
X146270100Y-76850740D01*
X145573557Y-76850740D01*
X145114077Y-76391260D01*
X146270100Y-76391260D01*
X146336674Y-76571000D01*
X147651000Y-76571000D01*
X147651000Y-75467000D01*
X147751000Y-75467000D01*
X147751000Y-76571000D01*
X149065326Y-76571000D01*
X149126100Y-76406919D01*
X152872971Y-76406919D01*
X152940796Y-76571000D01*
X154255000Y-76571000D01*
X154255000Y-75567000D01*
X153855000Y-75567000D01*
X153650336Y-75597007D01*
X153455458Y-75666365D01*
X153277856Y-75772409D01*
X153124355Y-75911064D01*
X153000853Y-76077002D01*
X152912097Y-76263845D01*
X152872971Y-76406919D01*
X149126100Y-76406919D01*
X149131900Y-76391260D01*
X149086291Y-76225576D01*
X148988294Y-76021444D01*
X148852356Y-75840353D01*
X148683701Y-75689262D01*
X148488810Y-75573977D01*
X148275173Y-75498928D01*
X148051000Y-75467000D01*
X147751000Y-75467000D01*
X147651000Y-75467000D01*
X147351000Y-75467000D01*
X147126827Y-75498928D01*
X146913190Y-75573977D01*
X146718299Y-75689262D01*
X146549644Y-75840353D01*
X146413706Y-76021444D01*
X146315709Y-76225576D01*
X146270100Y-76391260D01*
X145114077Y-76391260D01*
X144553013Y-75830196D01*
X144535790Y-75809210D01*
X144453947Y-75742042D01*
X144452042Y-75740479D01*
X144356494Y-75689408D01*
X144252819Y-75657958D01*
X144172018Y-75650000D01*
X144172008Y-75650000D01*
X144145000Y-75647340D01*
X144117992Y-75650000D01*
X139224790Y-75650000D01*
X139175616Y-75558003D01*
X139031907Y-75382893D01*
X138856797Y-75239184D01*
X138657015Y-75132398D01*
X138440239Y-75066640D01*
X138271292Y-75050000D01*
X136658308Y-75050000D01*
X136489361Y-75066640D01*
X136272585Y-75132398D01*
X136072803Y-75239184D01*
X135897693Y-75382893D01*
X135753984Y-75558003D01*
X135704810Y-75650000D01*
X135691807Y-75650000D01*
X135664799Y-75647340D01*
X135637791Y-75650000D01*
X135637782Y-75650000D01*
X135556981Y-75657958D01*
X135453306Y-75689408D01*
X135434747Y-75699328D01*
X135357757Y-75740479D01*
X135294995Y-75791987D01*
X135294990Y-75791992D01*
X135274010Y-75809210D01*
X135256792Y-75830190D01*
X134539185Y-76547798D01*
X134518199Y-76565021D01*
X134449468Y-76648769D01*
X134398397Y-76744318D01*
X134366947Y-76847993D01*
X134358989Y-76928794D01*
X134358989Y-76928803D01*
X134356329Y-76955811D01*
X134358989Y-76982819D01*
X134358990Y-81992774D01*
X134356328Y-82019802D01*
X134366947Y-82127621D01*
X134398397Y-82231296D01*
X134449468Y-82326844D01*
X134518199Y-82410592D01*
X134521379Y-82413202D01*
X134523989Y-82416382D01*
X134544975Y-82433605D01*
X135645357Y-83533988D01*
X135640260Y-83532100D01*
X135474576Y-83577709D01*
X135270444Y-83675706D01*
X135089353Y-83811644D01*
X134938262Y-83980299D01*
X134822977Y-84175190D01*
X134747928Y-84388827D01*
X134716000Y-84613000D01*
X134716000Y-84913000D01*
X135820000Y-84913000D01*
X135820000Y-84893000D01*
X135920000Y-84893000D01*
X135920000Y-84913000D01*
X137024000Y-84913000D01*
X137024000Y-84613000D01*
X136992072Y-84388827D01*
X136917023Y-84175190D01*
X136801738Y-83980299D01*
X136786232Y-83962990D01*
X144428127Y-83962990D01*
X144420910Y-84036273D01*
X143791226Y-84665957D01*
X143770246Y-84683175D01*
X143753028Y-84704155D01*
X143753022Y-84704161D01*
X143701514Y-84766923D01*
X143661602Y-84841595D01*
X143650444Y-84862471D01*
X143618994Y-84966146D01*
X143617951Y-84976735D01*
X143608375Y-85073965D01*
X143611036Y-85100983D01*
X143611035Y-89688604D01*
X143301181Y-89998459D01*
X143280201Y-90015677D01*
X143262983Y-90036657D01*
X143262977Y-90036663D01*
X143211469Y-90099425D01*
X143168680Y-90179480D01*
X143160399Y-90194973D01*
X143128949Y-90298648D01*
X143128106Y-90307212D01*
X143118330Y-90406467D01*
X143120991Y-90433485D01*
X143120990Y-92446526D01*
X143118330Y-92473534D01*
X143120990Y-92500542D01*
X143120990Y-92500551D01*
X143128948Y-92581352D01*
X143160398Y-92685027D01*
X143211469Y-92780576D01*
X143280200Y-92864324D01*
X143301186Y-92881547D01*
X143778065Y-93358427D01*
X143778065Y-93495000D01*
X143788670Y-93602677D01*
X143820079Y-93706216D01*
X143871083Y-93801639D01*
X143939723Y-93885277D01*
X144023361Y-93953917D01*
X144072159Y-93980000D01*
X144023361Y-94006083D01*
X143939723Y-94074723D01*
X143871083Y-94158361D01*
X143820079Y-94253784D01*
X143788670Y-94357323D01*
X143778065Y-94465000D01*
X143778065Y-94765000D01*
X143788670Y-94872677D01*
X143820079Y-94976216D01*
X143871083Y-95071639D01*
X143939723Y-95155277D01*
X144023361Y-95223917D01*
X144069515Y-95248586D01*
X144043875Y-95256364D01*
X143982376Y-95289235D01*
X143928473Y-95333473D01*
X143884235Y-95387376D01*
X143851364Y-95448875D01*
X143831122Y-95515604D01*
X143824287Y-95585000D01*
X143826000Y-95746500D01*
X143914500Y-95835000D01*
X145280000Y-95835000D01*
X145280000Y-95815000D01*
X145380000Y-95815000D01*
X145380000Y-95835000D01*
X146745500Y-95835000D01*
X146834000Y-95746500D01*
X146835713Y-95585000D01*
X146828878Y-95515604D01*
X146808636Y-95448875D01*
X146775765Y-95387376D01*
X146731527Y-95333473D01*
X146677624Y-95289235D01*
X146616125Y-95256364D01*
X146590485Y-95248586D01*
X146636639Y-95223917D01*
X146720277Y-95155277D01*
X146788917Y-95071639D01*
X146839921Y-94976216D01*
X146871330Y-94872677D01*
X146881935Y-94765000D01*
X146881935Y-94569426D01*
X147299820Y-94151542D01*
X147320800Y-94134324D01*
X147338018Y-94113344D01*
X147338023Y-94113339D01*
X147389531Y-94050577D01*
X147429533Y-93975737D01*
X147440602Y-93955028D01*
X147472052Y-93851353D01*
X147480010Y-93770552D01*
X147480010Y-93770543D01*
X147482670Y-93743535D01*
X147480010Y-93716527D01*
X147480010Y-93327807D01*
X148301759Y-92506058D01*
X148314012Y-92520988D01*
X148412804Y-92602064D01*
X148525515Y-92662309D01*
X148647813Y-92699408D01*
X148755353Y-92710000D01*
X148647813Y-92720592D01*
X148525515Y-92757691D01*
X148412804Y-92817936D01*
X148314012Y-92899012D01*
X148232936Y-92997804D01*
X148172691Y-93110515D01*
X148135592Y-93232813D01*
X148123065Y-93359999D01*
X148123065Y-94060001D01*
X148135592Y-94187187D01*
X148172691Y-94309485D01*
X148232936Y-94422196D01*
X148314012Y-94520988D01*
X148412804Y-94602064D01*
X148525515Y-94662309D01*
X148647813Y-94699408D01*
X148675001Y-94702086D01*
X148675000Y-94797914D01*
X148647813Y-94800592D01*
X148525515Y-94837691D01*
X148412804Y-94897936D01*
X148314012Y-94979012D01*
X148232936Y-95077804D01*
X148172691Y-95190515D01*
X148135592Y-95312813D01*
X148123065Y-95439999D01*
X148123065Y-96114118D01*
X147632183Y-96605000D01*
X146708430Y-96605000D01*
X146636639Y-96546083D01*
X146590485Y-96521414D01*
X146616125Y-96513636D01*
X146677624Y-96480765D01*
X146731527Y-96436527D01*
X146775765Y-96382624D01*
X146808636Y-96321125D01*
X146828878Y-96254396D01*
X146835713Y-96185000D01*
X146834000Y-96023500D01*
X146745500Y-95935000D01*
X145380000Y-95935000D01*
X145380000Y-95955000D01*
X145280000Y-95955000D01*
X145280000Y-95935000D01*
X143914500Y-95935000D01*
X143826000Y-96023500D01*
X143824287Y-96185000D01*
X143831122Y-96254396D01*
X143851364Y-96321125D01*
X143884235Y-96382624D01*
X143928473Y-96436527D01*
X143982376Y-96480765D01*
X144043875Y-96513636D01*
X144069515Y-96521414D01*
X144023361Y-96546083D01*
X143939723Y-96614723D01*
X143871083Y-96698361D01*
X143820079Y-96793784D01*
X143788670Y-96897323D01*
X143778065Y-97005000D01*
X143778065Y-97305000D01*
X143788670Y-97412677D01*
X143820079Y-97516216D01*
X143871083Y-97611639D01*
X143939723Y-97695277D01*
X144023361Y-97763917D01*
X144072159Y-97790000D01*
X144023361Y-97816083D01*
X143939723Y-97884723D01*
X143871083Y-97968361D01*
X143820079Y-98063784D01*
X143788670Y-98167323D01*
X143778065Y-98275000D01*
X143778065Y-98575000D01*
X143788670Y-98682677D01*
X143820079Y-98786216D01*
X143871083Y-98881639D01*
X143939723Y-98965277D01*
X144023361Y-99033917D01*
X144118784Y-99084921D01*
X144222323Y-99116330D01*
X144330000Y-99126935D01*
X144546001Y-99126935D01*
X144546001Y-99343983D01*
X144543340Y-99371000D01*
X144546001Y-99398018D01*
X144553959Y-99478819D01*
X144554940Y-99482052D01*
X144585409Y-99582494D01*
X144636479Y-99678042D01*
X144687987Y-99740804D01*
X144687993Y-99740810D01*
X144705211Y-99761790D01*
X144726191Y-99779008D01*
X145053065Y-100105882D01*
X145053065Y-100780001D01*
X145065592Y-100907187D01*
X145102691Y-101029485D01*
X145162936Y-101142196D01*
X145244012Y-101240988D01*
X145342804Y-101322064D01*
X145455515Y-101382309D01*
X145577813Y-101419408D01*
X145704999Y-101431935D01*
X146379118Y-101431935D01*
X147271982Y-102324800D01*
X147289200Y-102345780D01*
X147310180Y-102362998D01*
X147310185Y-102363003D01*
X147349364Y-102395156D01*
X147372948Y-102414511D01*
X147468496Y-102465582D01*
X147572171Y-102497032D01*
X147643596Y-102504067D01*
X147627262Y-102522299D01*
X147511977Y-102717190D01*
X147436928Y-102930827D01*
X147405000Y-103155000D01*
X147405000Y-103455000D01*
X148509000Y-103455000D01*
X148509000Y-103435000D01*
X148609000Y-103435000D01*
X148609000Y-103455000D01*
X149713000Y-103455000D01*
X149713000Y-103369037D01*
X150218773Y-103874810D01*
X150235991Y-103895790D01*
X150256971Y-103913008D01*
X150256976Y-103913013D01*
X150319738Y-103964521D01*
X150340921Y-103975843D01*
X150415287Y-104015592D01*
X150518962Y-104047042D01*
X150599763Y-104055000D01*
X150599772Y-104055000D01*
X150626780Y-104057660D01*
X150653788Y-104055000D01*
X154208316Y-104055000D01*
X154272409Y-104174910D01*
X154422366Y-104357634D01*
X154605090Y-104507591D01*
X154813558Y-104619019D01*
X155039759Y-104687637D01*
X155216050Y-104705000D01*
X155933950Y-104705000D01*
X156110241Y-104687637D01*
X156336442Y-104619019D01*
X156544910Y-104507591D01*
X156727634Y-104357634D01*
X156877591Y-104174910D01*
X156989019Y-103966442D01*
X157057637Y-103740241D01*
X157080806Y-103505000D01*
X157057637Y-103269759D01*
X156989019Y-103043558D01*
X156877591Y-102835090D01*
X156852889Y-102804990D01*
X157160752Y-102804990D01*
X162373826Y-108018065D01*
X162095000Y-108018065D01*
X162016586Y-108025788D01*
X161941186Y-108048660D01*
X161871697Y-108085803D01*
X161810789Y-108135789D01*
X161760803Y-108196697D01*
X161723660Y-108266186D01*
X161700788Y-108341586D01*
X161693065Y-108420000D01*
X161693065Y-109945245D01*
X157753215Y-106005396D01*
X157735992Y-105984410D01*
X157652244Y-105915679D01*
X157556696Y-105864608D01*
X157453021Y-105833158D01*
X157372220Y-105825200D01*
X157372210Y-105825200D01*
X157345202Y-105822540D01*
X157318194Y-105825200D01*
X155756935Y-105825200D01*
X155756935Y-105575100D01*
X155744410Y-105447933D01*
X155707317Y-105325654D01*
X155647081Y-105212960D01*
X155566017Y-105114183D01*
X155467240Y-105033119D01*
X155354546Y-104972883D01*
X155232267Y-104935790D01*
X155105100Y-104923265D01*
X153504900Y-104923265D01*
X153377733Y-104935790D01*
X153255454Y-104972883D01*
X153142760Y-105033119D01*
X153043983Y-105114183D01*
X152962919Y-105212960D01*
X152902683Y-105325654D01*
X152865590Y-105447933D01*
X152853065Y-105575100D01*
X152853065Y-107175300D01*
X152865590Y-107302467D01*
X152902683Y-107424746D01*
X152962919Y-107537440D01*
X153043983Y-107636217D01*
X153142760Y-107717281D01*
X153255454Y-107777517D01*
X153377733Y-107814610D01*
X153504900Y-107827135D01*
X155105100Y-107827135D01*
X155232267Y-107814610D01*
X155354546Y-107777517D01*
X155467240Y-107717281D01*
X155566017Y-107636217D01*
X155647081Y-107537440D01*
X155707317Y-107424746D01*
X155744410Y-107302467D01*
X155756935Y-107175300D01*
X155756935Y-106925200D01*
X157117385Y-106925200D01*
X163925249Y-113733065D01*
X162095000Y-113733065D01*
X162016586Y-113740788D01*
X161941186Y-113763660D01*
X161871697Y-113800803D01*
X161810789Y-113850789D01*
X161760803Y-113911697D01*
X161723660Y-113981186D01*
X161700788Y-114056586D01*
X161693065Y-114135000D01*
X161693065Y-114385000D01*
X159348270Y-114385000D01*
X156125000Y-111161730D01*
X156125000Y-110398160D01*
X156336442Y-110334019D01*
X156544910Y-110222591D01*
X156727634Y-110072634D01*
X156877591Y-109889910D01*
X156989019Y-109681442D01*
X157057637Y-109455241D01*
X157080806Y-109220000D01*
X157057637Y-108984759D01*
X156989019Y-108758558D01*
X156877591Y-108550090D01*
X156727634Y-108367366D01*
X156544910Y-108217409D01*
X156336442Y-108105981D01*
X156110241Y-108037363D01*
X155933950Y-108020000D01*
X155216050Y-108020000D01*
X155039759Y-108037363D01*
X154813558Y-108105981D01*
X154605090Y-108217409D01*
X154422366Y-108367366D01*
X154272409Y-108550090D01*
X154208316Y-108670000D01*
X149706818Y-108670000D01*
X149691935Y-108655117D01*
X149691935Y-107980999D01*
X149679408Y-107853813D01*
X149642309Y-107731515D01*
X149582064Y-107618804D01*
X149500988Y-107520012D01*
X149402196Y-107438936D01*
X149289485Y-107378691D01*
X149167187Y-107341592D01*
X149040001Y-107329065D01*
X148139999Y-107329065D01*
X148012813Y-107341592D01*
X147890515Y-107378691D01*
X147777804Y-107438936D01*
X147679012Y-107520012D01*
X147597936Y-107618804D01*
X147537691Y-107731515D01*
X147522680Y-107781000D01*
X147117320Y-107781000D01*
X147102309Y-107731515D01*
X147042064Y-107618804D01*
X146960988Y-107520012D01*
X146862196Y-107438936D01*
X146749485Y-107378691D01*
X146627187Y-107341592D01*
X146519647Y-107331000D01*
X146627187Y-107320408D01*
X146749485Y-107283309D01*
X146862196Y-107223064D01*
X146960988Y-107141988D01*
X147042064Y-107043196D01*
X147102033Y-106931000D01*
X147534287Y-106931000D01*
X147541122Y-107000396D01*
X147561364Y-107067125D01*
X147594235Y-107128624D01*
X147638473Y-107182527D01*
X147692376Y-107226765D01*
X147753875Y-107259636D01*
X147820604Y-107279878D01*
X147890000Y-107286713D01*
X148451500Y-107285000D01*
X148540000Y-107196500D01*
X148540000Y-106381000D01*
X148640000Y-106381000D01*
X148640000Y-107196500D01*
X148728500Y-107285000D01*
X149290000Y-107286713D01*
X149359396Y-107279878D01*
X149426125Y-107259636D01*
X149487624Y-107226765D01*
X149541527Y-107182527D01*
X149585765Y-107128624D01*
X149618636Y-107067125D01*
X149638878Y-107000396D01*
X149645713Y-106931000D01*
X149644000Y-106469500D01*
X149555500Y-106381000D01*
X148640000Y-106381000D01*
X148540000Y-106381000D01*
X147624500Y-106381000D01*
X147536000Y-106469500D01*
X147534287Y-106931000D01*
X147102033Y-106931000D01*
X147102309Y-106930485D01*
X147139408Y-106808187D01*
X147151935Y-106681001D01*
X147151935Y-105980999D01*
X147139408Y-105853813D01*
X147102309Y-105731515D01*
X147102034Y-105731000D01*
X147534287Y-105731000D01*
X147536000Y-106192500D01*
X147624500Y-106281000D01*
X148540000Y-106281000D01*
X148540000Y-105465500D01*
X148640000Y-105465500D01*
X148640000Y-106281000D01*
X149555500Y-106281000D01*
X149644000Y-106192500D01*
X149645713Y-105731000D01*
X149638878Y-105661604D01*
X149618636Y-105594875D01*
X149585765Y-105533376D01*
X149541527Y-105479473D01*
X149487624Y-105435235D01*
X149426125Y-105402364D01*
X149359396Y-105382122D01*
X149290000Y-105375287D01*
X148728500Y-105377000D01*
X148640000Y-105465500D01*
X148540000Y-105465500D01*
X148451500Y-105377000D01*
X147890000Y-105375287D01*
X147820604Y-105382122D01*
X147753875Y-105402364D01*
X147692376Y-105435235D01*
X147638473Y-105479473D01*
X147594235Y-105533376D01*
X147561364Y-105594875D01*
X147541122Y-105661604D01*
X147534287Y-105731000D01*
X147102034Y-105731000D01*
X147042064Y-105618804D01*
X146960988Y-105520012D01*
X146862196Y-105438936D01*
X146749485Y-105378691D01*
X146700000Y-105363680D01*
X146700000Y-104823044D01*
X146728910Y-104807591D01*
X146911634Y-104657634D01*
X147061591Y-104474910D01*
X147173019Y-104266442D01*
X147241637Y-104040240D01*
X147259000Y-103863949D01*
X147259000Y-103555000D01*
X147405000Y-103555000D01*
X147405000Y-103855000D01*
X147436928Y-104079173D01*
X147511977Y-104292810D01*
X147627262Y-104487701D01*
X147778353Y-104656356D01*
X147959444Y-104792294D01*
X148163576Y-104890291D01*
X148329260Y-104935900D01*
X148509000Y-104869326D01*
X148509000Y-103555000D01*
X148609000Y-103555000D01*
X148609000Y-104869326D01*
X148788740Y-104935900D01*
X148954424Y-104890291D01*
X149158556Y-104792294D01*
X149339647Y-104656356D01*
X149490738Y-104487701D01*
X149606023Y-104292810D01*
X149681072Y-104079173D01*
X149713000Y-103855000D01*
X149713000Y-103555000D01*
X148609000Y-103555000D01*
X148509000Y-103555000D01*
X147405000Y-103555000D01*
X147259000Y-103555000D01*
X147259000Y-103146050D01*
X147241637Y-102969759D01*
X147173019Y-102743558D01*
X147061591Y-102535090D01*
X146911634Y-102352366D01*
X146728909Y-102202409D01*
X146520441Y-102090981D01*
X146294240Y-102022363D01*
X146059000Y-101999194D01*
X145823759Y-102022363D01*
X145597558Y-102090981D01*
X145483672Y-102151854D01*
X144654979Y-101323162D01*
X144654979Y-100557338D01*
X144657639Y-100530330D01*
X144654979Y-100503322D01*
X144654979Y-100503313D01*
X144647021Y-100422512D01*
X144615571Y-100318837D01*
X144564500Y-100223289D01*
X144547503Y-100202578D01*
X144512992Y-100160526D01*
X144512987Y-100160521D01*
X144495769Y-100139541D01*
X144474789Y-100122323D01*
X142820968Y-98468503D01*
X142820968Y-94762041D01*
X142823628Y-94735033D01*
X142820968Y-94708025D01*
X142820968Y-90054375D01*
X143130822Y-89744523D01*
X143151803Y-89727304D01*
X143169021Y-89706324D01*
X143169026Y-89706319D01*
X143220534Y-89643557D01*
X143248935Y-89590421D01*
X143271605Y-89548008D01*
X143300803Y-89451758D01*
X143303055Y-89444334D01*
X143309944Y-89374381D01*
X143311013Y-89363532D01*
X143311013Y-89363526D01*
X143313673Y-89336515D01*
X143311013Y-89309504D01*
X143311013Y-86595175D01*
X143313673Y-86568164D01*
X143311013Y-86541153D01*
X143311013Y-86541146D01*
X143303055Y-86460345D01*
X143300281Y-86451200D01*
X143271605Y-86356669D01*
X143220534Y-86261122D01*
X143169026Y-86198360D01*
X143151803Y-86177374D01*
X143130817Y-86160151D01*
X141855873Y-84885207D01*
X141838650Y-84864221D01*
X141796927Y-84829979D01*
X141754902Y-84795490D01*
X141731456Y-84782958D01*
X141659354Y-84744419D01*
X141555679Y-84712969D01*
X141474878Y-84705011D01*
X141474868Y-84705011D01*
X141447860Y-84702351D01*
X141420852Y-84705011D01*
X140040000Y-84705011D01*
X140012989Y-84702351D01*
X139985978Y-84705011D01*
X139985971Y-84705011D01*
X139905170Y-84712969D01*
X139801495Y-84744419D01*
X139705947Y-84795490D01*
X139663923Y-84829979D01*
X139622199Y-84864221D01*
X139604976Y-84885207D01*
X138060196Y-86429987D01*
X138039210Y-86447210D01*
X137970479Y-86530958D01*
X137919408Y-86626507D01*
X137887958Y-86730182D01*
X137880000Y-86810983D01*
X137880000Y-86810992D01*
X137877340Y-86838000D01*
X137880000Y-86865008D01*
X137880000Y-86936065D01*
X137330000Y-86936065D01*
X137251586Y-86943788D01*
X137176186Y-86966660D01*
X137106697Y-87003803D01*
X137045789Y-87053789D01*
X136995803Y-87114697D01*
X136958660Y-87184186D01*
X136935788Y-87259586D01*
X136928065Y-87338000D01*
X136928065Y-88720697D01*
X136667959Y-88980803D01*
X136643159Y-89001156D01*
X136622806Y-89025956D01*
X136622803Y-89025959D01*
X136561931Y-89100131D01*
X136501574Y-89213052D01*
X136464407Y-89335577D01*
X136451857Y-89462999D01*
X136455002Y-89494931D01*
X136455001Y-98328762D01*
X136087957Y-98695807D01*
X136063158Y-98716159D01*
X136042805Y-98740959D01*
X136042802Y-98740962D01*
X135981930Y-98815134D01*
X135921573Y-98928055D01*
X135884406Y-99050580D01*
X135871856Y-99178002D01*
X135875001Y-99209933D01*
X135875000Y-100578876D01*
X135871856Y-100610798D01*
X135875000Y-100642719D01*
X135875000Y-100642729D01*
X135884405Y-100738219D01*
X135917407Y-100847012D01*
X135921573Y-100860745D01*
X135981930Y-100973666D01*
X136013729Y-101012413D01*
X136063157Y-101072641D01*
X136073342Y-101081000D01*
X135940000Y-101081000D01*
X135940000Y-102185000D01*
X135960000Y-102185000D01*
X135960000Y-102285000D01*
X135940000Y-102285000D01*
X135940000Y-102305000D01*
X135840000Y-102305000D01*
X135840000Y-102285000D01*
X134475674Y-102285000D01*
X134409100Y-102464740D01*
X134454709Y-102630424D01*
X134552706Y-102834556D01*
X134663387Y-102982000D01*
X134254239Y-102982000D01*
X133795010Y-102522772D01*
X133795010Y-102005260D01*
X134409100Y-102005260D01*
X134475674Y-102185000D01*
X135840000Y-102185000D01*
X135840000Y-101081000D01*
X135490000Y-101081000D01*
X135265827Y-101112928D01*
X135052190Y-101187977D01*
X134857299Y-101303262D01*
X134688644Y-101454353D01*
X134552706Y-101635444D01*
X134454709Y-101839576D01*
X134409100Y-102005260D01*
X133795010Y-102005260D01*
X133795010Y-101707732D01*
X133798154Y-101675808D01*
X133795010Y-101643884D01*
X133795010Y-101643876D01*
X133785605Y-101548386D01*
X133748437Y-101425860D01*
X133688080Y-101312940D01*
X133680328Y-101303494D01*
X133627209Y-101238768D01*
X133627206Y-101238765D01*
X133606853Y-101213965D01*
X133582054Y-101193613D01*
X132836392Y-100447952D01*
X132816035Y-100423147D01*
X132717060Y-100341920D01*
X132604140Y-100281563D01*
X132481614Y-100244395D01*
X132386124Y-100234990D01*
X132386113Y-100234990D01*
X132354192Y-100231846D01*
X132322271Y-100234990D01*
X130413930Y-100234990D01*
X130382009Y-100231846D01*
X130350088Y-100234990D01*
X130350078Y-100234990D01*
X130254588Y-100244395D01*
X130132062Y-100281563D01*
X130019142Y-100341920D01*
X130019140Y-100341921D01*
X130019141Y-100341921D01*
X129944969Y-100402792D01*
X129944967Y-100402794D01*
X129920167Y-100423147D01*
X129899814Y-100447947D01*
X128848957Y-101498805D01*
X128824158Y-101519157D01*
X128803805Y-101543957D01*
X128803802Y-101543960D01*
X128742930Y-101618132D01*
X128682573Y-101731053D01*
X128663519Y-101793867D01*
X128645406Y-101853578D01*
X128637041Y-101938514D01*
X128632856Y-101981000D01*
X128636001Y-102012931D01*
X128636000Y-104997078D01*
X128632856Y-105029000D01*
X128636000Y-105060921D01*
X128636000Y-105060931D01*
X128645405Y-105156421D01*
X128665337Y-105222127D01*
X128682573Y-105278947D01*
X128742930Y-105391868D01*
X128781558Y-105438936D01*
X128824157Y-105490843D01*
X128848962Y-105511200D01*
X129017762Y-105680000D01*
X128963304Y-105734457D01*
X128923132Y-105755930D01*
X128824157Y-105837157D01*
X128742930Y-105936132D01*
X128682573Y-106049052D01*
X128645405Y-106171578D01*
X128632855Y-106299000D01*
X128636001Y-106330942D01*
X128636000Y-114394078D01*
X128632856Y-114426000D01*
X128636000Y-114457921D01*
X128636000Y-114457931D01*
X128645405Y-114553421D01*
X128668016Y-114627958D01*
X128682573Y-114675947D01*
X128742930Y-114788868D01*
X128763271Y-114813653D01*
X128824157Y-114887843D01*
X128848962Y-114908200D01*
X128989270Y-115048508D01*
X128814729Y-114931884D01*
X128605443Y-114845194D01*
X128383265Y-114801000D01*
X128156735Y-114801000D01*
X127934557Y-114845194D01*
X127725271Y-114931884D01*
X127536918Y-115057737D01*
X127376737Y-115217918D01*
X127250884Y-115406271D01*
X127164194Y-115615557D01*
X127120000Y-115837735D01*
X126180000Y-115837735D01*
X126180000Y-98857428D01*
X133543283Y-98857428D01*
X133683991Y-99083370D01*
X133969908Y-99239587D01*
X134280807Y-99337024D01*
X134604741Y-99371934D01*
X134929262Y-99342977D01*
X135241897Y-99251266D01*
X135530633Y-99100325D01*
X135556009Y-99083370D01*
X135696717Y-98857428D01*
X134620000Y-97780711D01*
X133543283Y-98857428D01*
X126180000Y-98857428D01*
X126180000Y-97694741D01*
X132958066Y-97694741D01*
X132987023Y-98019262D01*
X133078734Y-98331897D01*
X133229675Y-98620633D01*
X133246630Y-98646009D01*
X133472572Y-98786717D01*
X134549289Y-97710000D01*
X134690711Y-97710000D01*
X135767428Y-98786717D01*
X135993370Y-98646009D01*
X136149587Y-98360092D01*
X136247024Y-98049193D01*
X136281934Y-97725259D01*
X136252977Y-97400738D01*
X136161266Y-97088103D01*
X136010325Y-96799367D01*
X135993370Y-96773991D01*
X135767428Y-96633283D01*
X134690711Y-97710000D01*
X134549289Y-97710000D01*
X133472572Y-96633283D01*
X133246630Y-96773991D01*
X133090413Y-97059908D01*
X132992976Y-97370807D01*
X132958066Y-97694741D01*
X126180000Y-97694741D01*
X126180000Y-96562572D01*
X133543283Y-96562572D01*
X134620000Y-97639289D01*
X135696717Y-96562572D01*
X135556009Y-96336630D01*
X135270092Y-96180413D01*
X134959193Y-96082976D01*
X134635259Y-96048066D01*
X134310738Y-96077023D01*
X133998103Y-96168734D01*
X133709367Y-96319675D01*
X133683991Y-96336630D01*
X133543283Y-96562572D01*
X126180000Y-96562572D01*
X126180000Y-88138000D01*
X129304194Y-88138000D01*
X129327363Y-88373241D01*
X129395981Y-88599442D01*
X129507409Y-88807910D01*
X129657366Y-88990634D01*
X129840090Y-89140591D01*
X130048558Y-89252019D01*
X130274759Y-89320637D01*
X130451050Y-89338000D01*
X131168950Y-89338000D01*
X131345241Y-89320637D01*
X131571442Y-89252019D01*
X131779910Y-89140591D01*
X131962634Y-88990634D01*
X132112591Y-88807910D01*
X132123233Y-88788000D01*
X133207762Y-88788000D01*
X133970001Y-89550240D01*
X133970000Y-91008065D01*
X133320000Y-91008065D01*
X133241586Y-91015788D01*
X133166186Y-91038660D01*
X133096697Y-91075803D01*
X133035789Y-91125789D01*
X132985803Y-91186697D01*
X132948660Y-91256186D01*
X132925788Y-91331586D01*
X132918065Y-91410000D01*
X132918065Y-94010000D01*
X132925788Y-94088414D01*
X132948660Y-94163814D01*
X132985803Y-94233303D01*
X133035789Y-94294211D01*
X133096697Y-94344197D01*
X133166186Y-94381340D01*
X133241586Y-94404212D01*
X133320000Y-94411935D01*
X135920000Y-94411935D01*
X135998414Y-94404212D01*
X136073814Y-94381340D01*
X136143303Y-94344197D01*
X136204211Y-94294211D01*
X136254197Y-94233303D01*
X136291340Y-94163814D01*
X136314212Y-94088414D01*
X136321935Y-94010000D01*
X136321935Y-91410000D01*
X136314212Y-91331586D01*
X136291340Y-91256186D01*
X136254197Y-91186697D01*
X136204211Y-91125789D01*
X136143303Y-91075803D01*
X136073814Y-91038660D01*
X135998414Y-91015788D01*
X135920000Y-91008065D01*
X135270000Y-91008065D01*
X135270000Y-89312920D01*
X135273144Y-89280999D01*
X135270000Y-89249078D01*
X135270000Y-89249068D01*
X135260595Y-89153578D01*
X135223427Y-89031052D01*
X135163070Y-88918132D01*
X135081843Y-88819157D01*
X135057043Y-88798804D01*
X134127000Y-87868762D01*
X134127000Y-86194118D01*
X134222634Y-86115634D01*
X134372591Y-85932910D01*
X134484019Y-85724442D01*
X134552637Y-85498240D01*
X134570000Y-85321949D01*
X134570000Y-85013000D01*
X134716000Y-85013000D01*
X134716000Y-85313000D01*
X134747928Y-85537173D01*
X134822977Y-85750810D01*
X134938262Y-85945701D01*
X135089353Y-86114356D01*
X135270444Y-86250294D01*
X135474576Y-86348291D01*
X135640260Y-86393900D01*
X135820000Y-86327326D01*
X135820000Y-85013000D01*
X135920000Y-85013000D01*
X135920000Y-86327326D01*
X136099740Y-86393900D01*
X136265424Y-86348291D01*
X136469556Y-86250294D01*
X136650647Y-86114356D01*
X136801738Y-85945701D01*
X136917023Y-85750810D01*
X136992072Y-85537173D01*
X137024000Y-85313000D01*
X137024000Y-85013000D01*
X135920000Y-85013000D01*
X135820000Y-85013000D01*
X134716000Y-85013000D01*
X134570000Y-85013000D01*
X134570000Y-84604050D01*
X134552637Y-84427759D01*
X134484019Y-84201558D01*
X134372591Y-83993090D01*
X134222634Y-83810366D01*
X134039909Y-83660409D01*
X133831441Y-83548981D01*
X133605240Y-83480363D01*
X133370000Y-83457194D01*
X133134759Y-83480363D01*
X132908558Y-83548981D01*
X132700090Y-83660409D01*
X132517366Y-83810366D01*
X132367409Y-83993091D01*
X132255981Y-84201559D01*
X132187363Y-84427760D01*
X132170000Y-84604051D01*
X132170000Y-85321950D01*
X132187363Y-85498241D01*
X132255981Y-85724442D01*
X132367410Y-85932910D01*
X132517367Y-86115634D01*
X132700091Y-86265591D01*
X132827001Y-86333425D01*
X132827000Y-87488000D01*
X132123233Y-87488000D01*
X132112591Y-87468090D01*
X131962634Y-87285366D01*
X131779910Y-87135409D01*
X131571442Y-87023981D01*
X131345241Y-86955363D01*
X131168950Y-86938000D01*
X130451050Y-86938000D01*
X130274759Y-86955363D01*
X130048558Y-87023981D01*
X129840090Y-87135409D01*
X129657366Y-87285366D01*
X129507409Y-87468090D01*
X129395981Y-87676558D01*
X129327363Y-87902759D01*
X129304194Y-88138000D01*
X126180000Y-88138000D01*
X126180000Y-80530000D01*
X130178065Y-80530000D01*
X130178065Y-82030000D01*
X130185788Y-82108414D01*
X130208660Y-82183814D01*
X130245803Y-82253303D01*
X130295789Y-82314211D01*
X130356697Y-82364197D01*
X130426186Y-82401340D01*
X130501586Y-82424212D01*
X130580000Y-82431935D01*
X133580000Y-82431935D01*
X133658414Y-82424212D01*
X133733814Y-82401340D01*
X133803303Y-82364197D01*
X133864211Y-82314211D01*
X133914197Y-82253303D01*
X133951340Y-82183814D01*
X133974212Y-82108414D01*
X133981935Y-82030000D01*
X133981935Y-80530000D01*
X133974212Y-80451586D01*
X133951340Y-80376186D01*
X133914197Y-80306697D01*
X133864211Y-80245789D01*
X133803303Y-80195803D01*
X133733814Y-80158660D01*
X133658414Y-80135788D01*
X133580000Y-80128065D01*
X130580000Y-80128065D01*
X130501586Y-80135788D01*
X130426186Y-80158660D01*
X130356697Y-80195803D01*
X130295789Y-80245789D01*
X130245803Y-80306697D01*
X130208660Y-80376186D01*
X130185788Y-80451586D01*
X130178065Y-80530000D01*
X126180000Y-80530000D01*
X126180000Y-78740000D01*
X130174436Y-78740000D01*
X130196640Y-78965439D01*
X130262398Y-79182215D01*
X130369184Y-79381997D01*
X130512893Y-79557107D01*
X130688003Y-79700816D01*
X130887785Y-79807602D01*
X131104561Y-79873360D01*
X131273508Y-79890000D01*
X132886492Y-79890000D01*
X133055439Y-79873360D01*
X133272215Y-79807602D01*
X133471997Y-79700816D01*
X133647107Y-79557107D01*
X133790816Y-79381997D01*
X133897602Y-79182215D01*
X133963360Y-78965439D01*
X133985564Y-78740000D01*
X133963360Y-78514561D01*
X133897602Y-78297785D01*
X133790816Y-78098003D01*
X133647107Y-77922893D01*
X133471997Y-77779184D01*
X133272215Y-77672398D01*
X133055439Y-77606640D01*
X132886492Y-77590000D01*
X131273508Y-77590000D01*
X131104561Y-77606640D01*
X130887785Y-77672398D01*
X130688003Y-77779184D01*
X130512893Y-77922893D01*
X130369184Y-78098003D01*
X130262398Y-78297785D01*
X130196640Y-78514561D01*
X130174436Y-78740000D01*
X126180000Y-78740000D01*
X126180000Y-76200000D01*
X130174436Y-76200000D01*
X130196640Y-76425439D01*
X130262398Y-76642215D01*
X130369184Y-76841997D01*
X130512893Y-77017107D01*
X130688003Y-77160816D01*
X130887785Y-77267602D01*
X131104561Y-77333360D01*
X131273508Y-77350000D01*
X132886492Y-77350000D01*
X133055439Y-77333360D01*
X133272215Y-77267602D01*
X133471997Y-77160816D01*
X133647107Y-77017107D01*
X133790816Y-76841997D01*
X133897602Y-76642215D01*
X133963360Y-76425439D01*
X133985564Y-76200000D01*
X133963360Y-75974561D01*
X133897602Y-75757785D01*
X133790816Y-75558003D01*
X133647107Y-75382893D01*
X133471997Y-75239184D01*
X133272215Y-75132398D01*
X133055439Y-75066640D01*
X132886492Y-75050000D01*
X131273508Y-75050000D01*
X131104561Y-75066640D01*
X130887785Y-75132398D01*
X130688003Y-75239184D01*
X130512893Y-75382893D01*
X130369184Y-75558003D01*
X130262398Y-75757785D01*
X130196640Y-75974561D01*
X130174436Y-76200000D01*
X126180000Y-76200000D01*
X126180000Y-74562735D01*
X127120000Y-74562735D01*
X127120000Y-74789265D01*
X127164194Y-75011443D01*
X127250884Y-75220729D01*
X127376737Y-75409082D01*
X127536918Y-75569263D01*
X127725271Y-75695116D01*
X127934557Y-75781806D01*
X128156735Y-75826000D01*
X128383265Y-75826000D01*
X128605443Y-75781806D01*
X128814729Y-75695116D01*
X129003082Y-75569263D01*
X129163263Y-75409082D01*
X129289116Y-75220729D01*
X129375806Y-75011443D01*
X129420000Y-74789265D01*
X129420000Y-74562735D01*
X129375806Y-74340557D01*
X129289116Y-74131271D01*
X129163263Y-73942918D01*
X129003082Y-73782737D01*
X128814729Y-73656884D01*
X128605443Y-73570194D01*
X128383265Y-73526000D01*
X128156735Y-73526000D01*
X127934557Y-73570194D01*
X127725271Y-73656884D01*
X127536918Y-73782737D01*
X127376737Y-73942918D01*
X127250884Y-74131271D01*
X127164194Y-74340557D01*
X127120000Y-74562735D01*
X126180000Y-74562735D01*
X126180000Y-73936005D01*
X126202570Y-73705816D01*
X126263033Y-73505553D01*
X126361242Y-73320849D01*
X126493450Y-73158745D01*
X126654634Y-73025403D01*
X126838643Y-72925909D01*
X127038477Y-72864050D01*
X127267297Y-72840000D01*
X173713995Y-72840000D01*
X173944184Y-72862570D01*
%TA.AperFunction,Conductor*%
D28*
G36*
X173944184Y-72862570D02*
G01*
X174084952Y-72905070D01*
X174252461Y-73007708D01*
X174419491Y-73150351D01*
X174562146Y-73317367D01*
X174676919Y-73504648D01*
X174760977Y-73707569D01*
X174807094Y-73899648D01*
X174810001Y-73927306D01*
X174810000Y-116563996D01*
X174806624Y-116598429D01*
X174760985Y-116788529D01*
X174676934Y-116991446D01*
X174562174Y-117178716D01*
X174419530Y-117345730D01*
X174252516Y-117488374D01*
X174073119Y-117598310D01*
X173951524Y-117635950D01*
X173722703Y-117660000D01*
X127276004Y-117660000D01*
X127045812Y-117637430D01*
X126845554Y-117576967D01*
X126660849Y-117478758D01*
X126498742Y-117346547D01*
X126365403Y-117185367D01*
X126265909Y-117001355D01*
X126204050Y-116801524D01*
X126180000Y-116572703D01*
X126180000Y-115837735D01*
X127120000Y-115837735D01*
X127120000Y-116064265D01*
X127164194Y-116286443D01*
X127250884Y-116495729D01*
X127376737Y-116684082D01*
X127536918Y-116844263D01*
X127725271Y-116970116D01*
X127934557Y-117056806D01*
X128156735Y-117101000D01*
X128383265Y-117101000D01*
X128605443Y-117056806D01*
X128814729Y-116970116D01*
X129003082Y-116844263D01*
X129158017Y-116689328D01*
X129183239Y-116772473D01*
X129191573Y-116799947D01*
X129251930Y-116912868D01*
X129273771Y-116939481D01*
X129333157Y-117011843D01*
X129357963Y-117032201D01*
X129672796Y-117347033D01*
X129693157Y-117371843D01*
X129792132Y-117453070D01*
X129905052Y-117513427D01*
X130027578Y-117550595D01*
X130123068Y-117560000D01*
X130123079Y-117560000D01*
X130155000Y-117563144D01*
X130186921Y-117560000D01*
X169338079Y-117560000D01*
X169370000Y-117563144D01*
X169401921Y-117560000D01*
X169401932Y-117560000D01*
X169497422Y-117550595D01*
X169619948Y-117513427D01*
X169732868Y-117453070D01*
X169831843Y-117371843D01*
X169852200Y-117347038D01*
X172351528Y-114847711D01*
X172402465Y-114857843D01*
X172628995Y-114857843D01*
X172851173Y-114813649D01*
X173060459Y-114726959D01*
X173248812Y-114601106D01*
X173408993Y-114440925D01*
X173534846Y-114252572D01*
X173621536Y-114043286D01*
X173665730Y-113821108D01*
X173665730Y-113594578D01*
X173621536Y-113372400D01*
X173534846Y-113163114D01*
X173408993Y-112974761D01*
X173248812Y-112814580D01*
X173060459Y-112688727D01*
X172851173Y-112602037D01*
X172628995Y-112557843D01*
X172402465Y-112557843D01*
X172180287Y-112602037D01*
X171971001Y-112688727D01*
X171782648Y-112814580D01*
X171622467Y-112974761D01*
X171496614Y-113163114D01*
X171409924Y-113372400D01*
X171365730Y-113594578D01*
X171365730Y-113821108D01*
X171394586Y-113966175D01*
X169100762Y-116260000D01*
X141086039Y-116260000D01*
X141102595Y-116205422D01*
X141105682Y-116174074D01*
X141211896Y-116141855D01*
X141437736Y-116021140D01*
X141635687Y-115858687D01*
X141798140Y-115660736D01*
X141918855Y-115434896D01*
X141993190Y-115189845D01*
X141995662Y-115164740D01*
X154144100Y-115164740D01*
X154189709Y-115330424D01*
X154287706Y-115534556D01*
X154423644Y-115715647D01*
X154592299Y-115866738D01*
X154787190Y-115982023D01*
X155000827Y-116057072D01*
X155225000Y-116089000D01*
X155525000Y-116089000D01*
X155525000Y-114985000D01*
X155625000Y-114985000D01*
X155625000Y-116089000D01*
X155925000Y-116089000D01*
X156149173Y-116057072D01*
X156362810Y-115982023D01*
X156557701Y-115866738D01*
X156726356Y-115715647D01*
X156862294Y-115534556D01*
X156960291Y-115330424D01*
X157005900Y-115164740D01*
X156939326Y-114985000D01*
X155625000Y-114985000D01*
X155525000Y-114985000D01*
X154210674Y-114985000D01*
X154144100Y-115164740D01*
X141995662Y-115164740D01*
X142018290Y-114935000D01*
X141995663Y-114705260D01*
X154144100Y-114705260D01*
X154210674Y-114885000D01*
X155525000Y-114885000D01*
X155525000Y-113781000D01*
X155625000Y-113781000D01*
X155625000Y-114885000D01*
X156939326Y-114885000D01*
X157005900Y-114705260D01*
X156960291Y-114539576D01*
X156862294Y-114335444D01*
X156726356Y-114154353D01*
X156557701Y-114003262D01*
X156362810Y-113887977D01*
X156149173Y-113812928D01*
X155925000Y-113781000D01*
X155625000Y-113781000D01*
X155525000Y-113781000D01*
X155225000Y-113781000D01*
X155000827Y-113812928D01*
X154787190Y-113887977D01*
X154592299Y-114003262D01*
X154423644Y-114154353D01*
X154287706Y-114335444D01*
X154189709Y-114539576D01*
X154144100Y-114705260D01*
X141995663Y-114705260D01*
X141993190Y-114680155D01*
X141918855Y-114435104D01*
X141798140Y-114209264D01*
X141635687Y-114011313D01*
X141437736Y-113848860D01*
X141211896Y-113728145D01*
X141109010Y-113696935D01*
X141612000Y-113696935D01*
X141690414Y-113689212D01*
X141765814Y-113666340D01*
X141835303Y-113629197D01*
X141896211Y-113579211D01*
X141946197Y-113518303D01*
X141983340Y-113448814D01*
X142006212Y-113373414D01*
X142013935Y-113295000D01*
X142013935Y-111495000D01*
X142006212Y-111416586D01*
X141983340Y-111341186D01*
X141946197Y-111271697D01*
X141896211Y-111210789D01*
X141835303Y-111160803D01*
X141765814Y-111123660D01*
X141690414Y-111100788D01*
X141612000Y-111093065D01*
X141012000Y-111093065D01*
X141012000Y-111041108D01*
X141047241Y-111037637D01*
X141273442Y-110969019D01*
X141481910Y-110857591D01*
X141664634Y-110707634D01*
X141814591Y-110524910D01*
X141926019Y-110316442D01*
X141994637Y-110090241D01*
X142017806Y-109855000D01*
X141994637Y-109619759D01*
X141926019Y-109393558D01*
X141814591Y-109185090D01*
X141664634Y-109002366D01*
X141481910Y-108852409D01*
X141273442Y-108740981D01*
X141047241Y-108672363D01*
X140870950Y-108655000D01*
X140053050Y-108655000D01*
X139876759Y-108672363D01*
X139650558Y-108740981D01*
X139442090Y-108852409D01*
X139259366Y-109002366D01*
X139109409Y-109185090D01*
X138997981Y-109393558D01*
X138929363Y-109619759D01*
X138906194Y-109855000D01*
X138929363Y-110090241D01*
X138997981Y-110316442D01*
X139109409Y-110524910D01*
X139259366Y-110707634D01*
X139442090Y-110857591D01*
X139650558Y-110969019D01*
X139876759Y-111037637D01*
X139912001Y-111041108D01*
X139912001Y-111093065D01*
X139312000Y-111093065D01*
X139233586Y-111100788D01*
X139158186Y-111123660D01*
X139088697Y-111160803D01*
X139027789Y-111210789D01*
X138977803Y-111271697D01*
X138940660Y-111341186D01*
X138917788Y-111416586D01*
X138910065Y-111495000D01*
X138910065Y-113295000D01*
X138917788Y-113373414D01*
X138940660Y-113448814D01*
X138977803Y-113518303D01*
X139027789Y-113579211D01*
X139088697Y-113629197D01*
X139158186Y-113666340D01*
X139233586Y-113689212D01*
X139312000Y-113696935D01*
X139814990Y-113696935D01*
X139712104Y-113728145D01*
X139486264Y-113848860D01*
X139288313Y-114011313D01*
X139125860Y-114209264D01*
X139005145Y-114435104D01*
X138930810Y-114680155D01*
X138905710Y-114935000D01*
X138930810Y-115189845D01*
X139005145Y-115434896D01*
X139125860Y-115660736D01*
X139288313Y-115858687D01*
X139486264Y-116021140D01*
X139560136Y-116060626D01*
X139360762Y-116260000D01*
X130445000Y-116260000D01*
X130445000Y-116076054D01*
X130568104Y-116141855D01*
X130813155Y-116216190D01*
X131004136Y-116235000D01*
X131631864Y-116235000D01*
X131822845Y-116216190D01*
X132067896Y-116141855D01*
X132293736Y-116021140D01*
X132491687Y-115858687D01*
X132654140Y-115660736D01*
X132774855Y-115434896D01*
X132849190Y-115189845D01*
X132874290Y-114935000D01*
X132849190Y-114680155D01*
X132774855Y-114435104D01*
X132654140Y-114209264D01*
X132491687Y-114011313D01*
X132293736Y-113848860D01*
X132067896Y-113728145D01*
X131965010Y-113696935D01*
X132468000Y-113696935D01*
X132546414Y-113689212D01*
X132621814Y-113666340D01*
X132691303Y-113629197D01*
X132752211Y-113579211D01*
X132802197Y-113518303D01*
X132839340Y-113448814D01*
X132862212Y-113373414D01*
X132869935Y-113295000D01*
X132869935Y-111495000D01*
X132862212Y-111416586D01*
X132839340Y-111341186D01*
X132802197Y-111271697D01*
X132752211Y-111210789D01*
X132691303Y-111160803D01*
X132621814Y-111123660D01*
X132546414Y-111100788D01*
X132468000Y-111093065D01*
X131868000Y-111093065D01*
X131868000Y-111041108D01*
X131903241Y-111037637D01*
X132129442Y-110969019D01*
X132337910Y-110857591D01*
X132520634Y-110707634D01*
X132670591Y-110524910D01*
X132782019Y-110316442D01*
X132850637Y-110090241D01*
X132873806Y-109855000D01*
X132850637Y-109619759D01*
X132782019Y-109393558D01*
X132670591Y-109185090D01*
X132520634Y-109002366D01*
X132337910Y-108852409D01*
X132129442Y-108740981D01*
X131903241Y-108672363D01*
X131726950Y-108655000D01*
X130909050Y-108655000D01*
X130732759Y-108672363D01*
X130506558Y-108740981D01*
X130298090Y-108852409D01*
X130115366Y-109002366D01*
X129965409Y-109185090D01*
X129936000Y-109240111D01*
X129936000Y-108269001D01*
X133737339Y-108269001D01*
X133739999Y-108296009D01*
X133740000Y-113627983D01*
X133737339Y-113655001D01*
X133740000Y-113682019D01*
X133747958Y-113762820D01*
X133765640Y-113821108D01*
X133779408Y-113866495D01*
X133830478Y-113962043D01*
X133881986Y-114024805D01*
X133881992Y-114024811D01*
X133899210Y-114045791D01*
X133920190Y-114063009D01*
X134400361Y-114543180D01*
X134358810Y-114680155D01*
X134333710Y-114935000D01*
X134358810Y-115189845D01*
X134433145Y-115434896D01*
X134553860Y-115660736D01*
X134716313Y-115858687D01*
X134914264Y-116021140D01*
X135140104Y-116141855D01*
X135385155Y-116216190D01*
X135576136Y-116235000D01*
X136203864Y-116235000D01*
X136394845Y-116216190D01*
X136639896Y-116141855D01*
X136865736Y-116021140D01*
X137063687Y-115858687D01*
X137226140Y-115660736D01*
X137346855Y-115434896D01*
X137421190Y-115189845D01*
X137446290Y-114935000D01*
X137421190Y-114680155D01*
X137346855Y-114435104D01*
X137226140Y-114209264D01*
X137063687Y-114011313D01*
X136865736Y-113848860D01*
X136639896Y-113728145D01*
X136537010Y-113696935D01*
X137040000Y-113696935D01*
X137118414Y-113689212D01*
X137193814Y-113666340D01*
X137263303Y-113629197D01*
X137324211Y-113579211D01*
X137374197Y-113518303D01*
X137411340Y-113448814D01*
X137434212Y-113373414D01*
X137441935Y-113295000D01*
X137441935Y-111495000D01*
X137434212Y-111416586D01*
X137411340Y-111341186D01*
X137374197Y-111271697D01*
X137324211Y-111210789D01*
X137263303Y-111160803D01*
X137193814Y-111123660D01*
X137118414Y-111100788D01*
X137040000Y-111093065D01*
X136440000Y-111093065D01*
X136440000Y-111041108D01*
X136475241Y-111037637D01*
X136701442Y-110969019D01*
X136909910Y-110857591D01*
X137092634Y-110707634D01*
X137242591Y-110524910D01*
X137354019Y-110316442D01*
X137422637Y-110090241D01*
X137445806Y-109855000D01*
X137422637Y-109619759D01*
X137354019Y-109393558D01*
X137242591Y-109185090D01*
X137092634Y-109002366D01*
X136909910Y-108852409D01*
X136701442Y-108740981D01*
X136506795Y-108681935D01*
X137229001Y-108681935D01*
X137356187Y-108669408D01*
X137478485Y-108632309D01*
X137591196Y-108572064D01*
X137689988Y-108490988D01*
X137771064Y-108392196D01*
X137831309Y-108279485D01*
X137846320Y-108230000D01*
X141742183Y-108230000D01*
X142325001Y-108812819D01*
X142325000Y-111514773D01*
X142322340Y-111541781D01*
X142325000Y-111568789D01*
X142325000Y-111568798D01*
X142332958Y-111649599D01*
X142364408Y-111753274D01*
X142415479Y-111848823D01*
X142484210Y-111932571D01*
X142505196Y-111949794D01*
X144590211Y-114034810D01*
X144607429Y-114055790D01*
X144628409Y-114073008D01*
X144628414Y-114073013D01*
X144691176Y-114124521D01*
X144742247Y-114151818D01*
X144786725Y-114175592D01*
X144890400Y-114207042D01*
X144971201Y-114215000D01*
X144971210Y-114215000D01*
X144998218Y-114217660D01*
X145025226Y-114215000D01*
X150848992Y-114215000D01*
X150876000Y-114217660D01*
X150903008Y-114215000D01*
X150903018Y-114215000D01*
X150983819Y-114207042D01*
X151087494Y-114175592D01*
X151183042Y-114124521D01*
X151266790Y-114055790D01*
X151284013Y-114034804D01*
X151377383Y-113941434D01*
X151593344Y-113984391D01*
X151819874Y-113984391D01*
X152042052Y-113940197D01*
X152251338Y-113853507D01*
X152439691Y-113727654D01*
X152599872Y-113567473D01*
X152725725Y-113379120D01*
X152812415Y-113169834D01*
X152856609Y-112947656D01*
X152856609Y-112721126D01*
X152812415Y-112498948D01*
X152725725Y-112289662D01*
X152599872Y-112101309D01*
X152439691Y-111941128D01*
X152251338Y-111815275D01*
X152042052Y-111728585D01*
X151819874Y-111684391D01*
X151593344Y-111684391D01*
X151371166Y-111728585D01*
X151161880Y-111815275D01*
X150973527Y-111941128D01*
X150813346Y-112101309D01*
X150687493Y-112289662D01*
X150600803Y-112498948D01*
X150556609Y-112721126D01*
X150556609Y-112947656D01*
X150589896Y-113115000D01*
X145226037Y-113115000D01*
X143425000Y-111313964D01*
X143425000Y-108612007D01*
X143427660Y-108584999D01*
X143425000Y-108557991D01*
X143425000Y-108557982D01*
X143417042Y-108477181D01*
X143385592Y-108373506D01*
X143334521Y-108277958D01*
X143324860Y-108266186D01*
X143283013Y-108215195D01*
X143283008Y-108215190D01*
X143265790Y-108194210D01*
X143244810Y-108176992D01*
X142378013Y-107310196D01*
X142360790Y-107289210D01*
X142277042Y-107220479D01*
X142181494Y-107169408D01*
X142077819Y-107137958D01*
X141997018Y-107130000D01*
X141997008Y-107130000D01*
X141970000Y-107127340D01*
X141942992Y-107130000D01*
X137846320Y-107130000D01*
X137831309Y-107080515D01*
X137771064Y-106967804D01*
X137689988Y-106869012D01*
X137591196Y-106787936D01*
X137478485Y-106727691D01*
X137356187Y-106690592D01*
X137229001Y-106678065D01*
X136328999Y-106678065D01*
X136201813Y-106690592D01*
X136079515Y-106727691D01*
X135966804Y-106787936D01*
X135868012Y-106869012D01*
X135829000Y-106916549D01*
X135789988Y-106869012D01*
X135691196Y-106787936D01*
X135578485Y-106727691D01*
X135456187Y-106690592D01*
X135329001Y-106678065D01*
X134428999Y-106678065D01*
X134301813Y-106690592D01*
X134179515Y-106727691D01*
X134066804Y-106787936D01*
X133968012Y-106869012D01*
X133886936Y-106967804D01*
X133826691Y-107080515D01*
X133789592Y-107202813D01*
X133777065Y-107329999D01*
X133777065Y-108030001D01*
X133779717Y-108056928D01*
X133779407Y-108057508D01*
X133747957Y-108161183D01*
X133739999Y-108241984D01*
X133739999Y-108241993D01*
X133737339Y-108269001D01*
X129936000Y-108269001D01*
X129936000Y-106600238D01*
X130206239Y-106330000D01*
X134803692Y-106330000D01*
X134836936Y-106392196D01*
X134918012Y-106490988D01*
X135016804Y-106572064D01*
X135129515Y-106632309D01*
X135251813Y-106669408D01*
X135378999Y-106681935D01*
X136279001Y-106681935D01*
X136406187Y-106669408D01*
X136528485Y-106632309D01*
X136641196Y-106572064D01*
X136739988Y-106490988D01*
X136821064Y-106392196D01*
X136881309Y-106279485D01*
X136918408Y-106157187D01*
X136930935Y-106030001D01*
X136930935Y-105329999D01*
X136918408Y-105202813D01*
X136881309Y-105080515D01*
X136821064Y-104967804D01*
X136750655Y-104882010D01*
X138180650Y-104882010D01*
X138869391Y-105570751D01*
X138886614Y-105591737D01*
X138970362Y-105660468D01*
X139065910Y-105711539D01*
X139169585Y-105742989D01*
X139250386Y-105750947D01*
X139250395Y-105750947D01*
X139277403Y-105753607D01*
X139304411Y-105750947D01*
X141859406Y-105750947D01*
X141981737Y-105934029D01*
X142141918Y-106094210D01*
X142330271Y-106220063D01*
X142539557Y-106306753D01*
X142761735Y-106350947D01*
X142988265Y-106350947D01*
X143210443Y-106306753D01*
X143419729Y-106220063D01*
X143608082Y-106094210D01*
X143768263Y-105934029D01*
X143894116Y-105745676D01*
X143980806Y-105536390D01*
X144018604Y-105346367D01*
X144230000Y-105557763D01*
X144230001Y-107922982D01*
X144227340Y-107950000D01*
X144230001Y-107977018D01*
X144237959Y-108057819D01*
X144268102Y-108157187D01*
X144269409Y-108161494D01*
X144320479Y-108257042D01*
X144371987Y-108319804D01*
X144371993Y-108319810D01*
X144389211Y-108340790D01*
X144410191Y-108358008D01*
X144752991Y-108700809D01*
X144770210Y-108721790D01*
X144791190Y-108739008D01*
X144791195Y-108739013D01*
X144815011Y-108758558D01*
X144853958Y-108790521D01*
X144949506Y-108841592D01*
X144972876Y-108848681D01*
X144997691Y-108930485D01*
X145057936Y-109043196D01*
X145139012Y-109141988D01*
X145237804Y-109223064D01*
X145350515Y-109283309D01*
X145472813Y-109320408D01*
X145509001Y-109323972D01*
X145509000Y-109758316D01*
X145389090Y-109822409D01*
X145206366Y-109972366D01*
X145056409Y-110155091D01*
X144944981Y-110363559D01*
X144876363Y-110589760D01*
X144859000Y-110766051D01*
X144859000Y-111483950D01*
X144876363Y-111660241D01*
X144944981Y-111886442D01*
X145056410Y-112094910D01*
X145206367Y-112277634D01*
X145389091Y-112427591D01*
X145597559Y-112539019D01*
X145823760Y-112607637D01*
X146059000Y-112630806D01*
X146294241Y-112607637D01*
X146520442Y-112539019D01*
X146728910Y-112427591D01*
X146911634Y-112277634D01*
X147061591Y-112094910D01*
X147173019Y-111886442D01*
X147241637Y-111660240D01*
X147259000Y-111483949D01*
X147259000Y-111175000D01*
X147405000Y-111175000D01*
X147405000Y-111475000D01*
X147436928Y-111699173D01*
X147511977Y-111912810D01*
X147627262Y-112107701D01*
X147778353Y-112276356D01*
X147959444Y-112412294D01*
X148163576Y-112510291D01*
X148329260Y-112555900D01*
X148509000Y-112489326D01*
X148509000Y-111175000D01*
X148609000Y-111175000D01*
X148609000Y-112489326D01*
X148788740Y-112555900D01*
X148954424Y-112510291D01*
X149158556Y-112412294D01*
X149339647Y-112276356D01*
X149490738Y-112107701D01*
X149606023Y-111912810D01*
X149681072Y-111699173D01*
X149713000Y-111475000D01*
X149713000Y-111175000D01*
X148609000Y-111175000D01*
X148509000Y-111175000D01*
X147405000Y-111175000D01*
X147259000Y-111175000D01*
X147259000Y-110775000D01*
X147405000Y-110775000D01*
X147405000Y-111075000D01*
X148509000Y-111075000D01*
X148509000Y-109760674D01*
X148609000Y-109760674D01*
X148609000Y-111075000D01*
X149713000Y-111075000D01*
X149713000Y-110775000D01*
X149681072Y-110550827D01*
X149606023Y-110337190D01*
X149490738Y-110142299D01*
X149339647Y-109973644D01*
X149158556Y-109837706D01*
X148954424Y-109739709D01*
X148788740Y-109694100D01*
X148609000Y-109760674D01*
X148509000Y-109760674D01*
X148329260Y-109694100D01*
X148163576Y-109739709D01*
X147959444Y-109837706D01*
X147778353Y-109973644D01*
X147627262Y-110142299D01*
X147511977Y-110337190D01*
X147436928Y-110550827D01*
X147405000Y-110775000D01*
X147259000Y-110775000D01*
X147259000Y-110766050D01*
X147241637Y-110589759D01*
X147173019Y-110363558D01*
X147061591Y-110155090D01*
X146911634Y-109972366D01*
X146728909Y-109822409D01*
X146609000Y-109758317D01*
X146609000Y-109322199D01*
X146627187Y-109320408D01*
X146749485Y-109283309D01*
X146862196Y-109223064D01*
X146960988Y-109141988D01*
X147042064Y-109043196D01*
X147102309Y-108930485D01*
X147117320Y-108881000D01*
X147522680Y-108881000D01*
X147537691Y-108930485D01*
X147597936Y-109043196D01*
X147679012Y-109141988D01*
X147777804Y-109223064D01*
X147890515Y-109283309D01*
X148012813Y-109320408D01*
X148139999Y-109332935D01*
X148814117Y-109332935D01*
X149070992Y-109589810D01*
X149088210Y-109610790D01*
X149109190Y-109628008D01*
X149109195Y-109628013D01*
X149171958Y-109679521D01*
X149267505Y-109730592D01*
X149291635Y-109737912D01*
X149371181Y-109762042D01*
X149451982Y-109770000D01*
X149451992Y-109770000D01*
X149479000Y-109772660D01*
X149506008Y-109770000D01*
X154208316Y-109770000D01*
X154272409Y-109889910D01*
X154422366Y-110072634D01*
X154605090Y-110222591D01*
X154813558Y-110334019D01*
X155025000Y-110398160D01*
X155025000Y-111362539D01*
X155022340Y-111389547D01*
X155025000Y-111416555D01*
X155025000Y-111416564D01*
X155032958Y-111497365D01*
X155064408Y-111601040D01*
X155115479Y-111696589D01*
X155184210Y-111780337D01*
X155205196Y-111797560D01*
X158712440Y-115304804D01*
X158729663Y-115325790D01*
X158750649Y-115343013D01*
X158813411Y-115394521D01*
X158908958Y-115445592D01*
X159004495Y-115474573D01*
X159012634Y-115477042D01*
X159093435Y-115485000D01*
X159093442Y-115485000D01*
X159120453Y-115487660D01*
X159147464Y-115485000D01*
X161693065Y-115485000D01*
X161693065Y-115735000D01*
X161700788Y-115813414D01*
X161723660Y-115888814D01*
X161760803Y-115958303D01*
X161810789Y-116019211D01*
X161871697Y-116069197D01*
X161941186Y-116106340D01*
X162016586Y-116129212D01*
X162095000Y-116136935D01*
X164295000Y-116136935D01*
X164373414Y-116129212D01*
X164448814Y-116106340D01*
X164488717Y-116085011D01*
X167226524Y-116085011D01*
X167253532Y-116087671D01*
X167280540Y-116085011D01*
X167280550Y-116085011D01*
X167361351Y-116077053D01*
X167465026Y-116045603D01*
X167560574Y-115994532D01*
X167604719Y-115958303D01*
X167623336Y-115943024D01*
X167644322Y-115925801D01*
X167661545Y-115904815D01*
X170235804Y-113330556D01*
X170256790Y-113313333D01*
X170325521Y-113229585D01*
X170376592Y-113134037D01*
X170408042Y-113030362D01*
X170416000Y-112949561D01*
X170416000Y-112949554D01*
X170418660Y-112922543D01*
X170416000Y-112895532D01*
X170416000Y-112491683D01*
X170535909Y-112427591D01*
X170718634Y-112277634D01*
X170868591Y-112094910D01*
X170980019Y-111886442D01*
X171048637Y-111660241D01*
X171066000Y-111483950D01*
X171066000Y-111258374D01*
X171106194Y-111460443D01*
X171192884Y-111669729D01*
X171318737Y-111858082D01*
X171478918Y-112018263D01*
X171667271Y-112144116D01*
X171876557Y-112230806D01*
X172098735Y-112275000D01*
X172325265Y-112275000D01*
X172547443Y-112230806D01*
X172756729Y-112144116D01*
X172945082Y-112018263D01*
X173105263Y-111858082D01*
X173231116Y-111669729D01*
X173317806Y-111460443D01*
X173362000Y-111238265D01*
X173362000Y-111011735D01*
X173317806Y-110789557D01*
X173231116Y-110580271D01*
X173105263Y-110391918D01*
X172945082Y-110231737D01*
X172756729Y-110105884D01*
X172547443Y-110019194D01*
X172325265Y-109975000D01*
X172098735Y-109975000D01*
X171876557Y-110019194D01*
X171667271Y-110105884D01*
X171627921Y-110132177D01*
X171639521Y-110118042D01*
X171690592Y-110022494D01*
X171722042Y-109918819D01*
X171730000Y-109838018D01*
X171730000Y-109838011D01*
X171732660Y-109811000D01*
X171730000Y-109783989D01*
X171730000Y-109652320D01*
X171779485Y-109637309D01*
X171892196Y-109577064D01*
X171990988Y-109495988D01*
X172072064Y-109397196D01*
X172132309Y-109284485D01*
X172169408Y-109162187D01*
X172181935Y-109035001D01*
X172181935Y-108360882D01*
X174329775Y-106213042D01*
X174350761Y-106195819D01*
X174419492Y-106112071D01*
X174456481Y-106042869D01*
X174470563Y-106016524D01*
X174502013Y-105912848D01*
X174502013Y-105912847D01*
X174509971Y-105832047D01*
X174509971Y-105832040D01*
X174512631Y-105805029D01*
X174509971Y-105778018D01*
X174509971Y-88642982D01*
X174512631Y-88615971D01*
X174509971Y-88588960D01*
X174509971Y-88588953D01*
X174502013Y-88508152D01*
X174470563Y-88404477D01*
X174419492Y-88308929D01*
X174383786Y-88265422D01*
X174367984Y-88246167D01*
X174350761Y-88225181D01*
X174329775Y-88207958D01*
X173382013Y-87260196D01*
X173364790Y-87239210D01*
X173281042Y-87170479D01*
X173185494Y-87119408D01*
X173081819Y-87087958D01*
X173001018Y-87080000D01*
X173001008Y-87080000D01*
X172974000Y-87077340D01*
X172946992Y-87080000D01*
X172040160Y-87080000D01*
X171976019Y-86868558D01*
X171864591Y-86660090D01*
X171714634Y-86477366D01*
X171531909Y-86327409D01*
X171323441Y-86215981D01*
X171097240Y-86147363D01*
X170862000Y-86124194D01*
X170626759Y-86147363D01*
X170400558Y-86215981D01*
X170192090Y-86327409D01*
X170009366Y-86477366D01*
X169859409Y-86660091D01*
X169747981Y-86868559D01*
X169679363Y-87094760D01*
X169662000Y-87271051D01*
X169662000Y-87988950D01*
X169679363Y-88165241D01*
X169747981Y-88391442D01*
X169859410Y-88599910D01*
X170009367Y-88782634D01*
X170183345Y-88925414D01*
X166092961Y-93015799D01*
X166068156Y-93036156D01*
X166047801Y-93060959D01*
X165986929Y-93135131D01*
X165957134Y-93190874D01*
X165926572Y-93248052D01*
X165889404Y-93370578D01*
X165879999Y-93466068D01*
X165879999Y-93466078D01*
X165876855Y-93497999D01*
X165879999Y-93529921D01*
X165880000Y-96889066D01*
X165876855Y-96920997D01*
X165889405Y-97048419D01*
X165926572Y-97170944D01*
X165986929Y-97283865D01*
X166047801Y-97358037D01*
X166047804Y-97358040D01*
X166068157Y-97382840D01*
X166092956Y-97403192D01*
X171816001Y-103126238D01*
X171816002Y-103883761D01*
X169064765Y-106634999D01*
X165161925Y-106634999D01*
X165130001Y-106631855D01*
X165098077Y-106634999D01*
X165098069Y-106634999D01*
X165002579Y-106644404D01*
X164880053Y-106681572D01*
X164767133Y-106741929D01*
X164668158Y-106823156D01*
X164647803Y-106847959D01*
X163804777Y-107690985D01*
X163798427Y-107670052D01*
X163738070Y-107557132D01*
X163707606Y-107520012D01*
X163677198Y-107482959D01*
X163677196Y-107482957D01*
X163656843Y-107458157D01*
X163632045Y-107437806D01*
X157912188Y-101717950D01*
X157891833Y-101693147D01*
X157792858Y-101611920D01*
X157679938Y-101551563D01*
X157557412Y-101514395D01*
X157461922Y-101504990D01*
X157461911Y-101504990D01*
X157429990Y-101501846D01*
X157398069Y-101504990D01*
X151960257Y-101504990D01*
X151904932Y-101449666D01*
X152100443Y-101410776D01*
X152309729Y-101324086D01*
X152498082Y-101198233D01*
X152658263Y-101038052D01*
X152784116Y-100849699D01*
X152870806Y-100640413D01*
X152915000Y-100418235D01*
X152915000Y-100191705D01*
X152870806Y-99969527D01*
X152784116Y-99760241D01*
X152658263Y-99571888D01*
X152536299Y-99449924D01*
X152577196Y-99428064D01*
X152675988Y-99346988D01*
X152757064Y-99248196D01*
X152817309Y-99135485D01*
X152854408Y-99013187D01*
X152866935Y-98886001D01*
X152866935Y-98185999D01*
X152854408Y-98058813D01*
X152817309Y-97936515D01*
X152757064Y-97823804D01*
X152675988Y-97725012D01*
X152577196Y-97643936D01*
X152464485Y-97583691D01*
X152342187Y-97546592D01*
X152234647Y-97536000D01*
X152342187Y-97525408D01*
X152464485Y-97488309D01*
X152577196Y-97428064D01*
X152675988Y-97346988D01*
X152757064Y-97248196D01*
X152817309Y-97135485D01*
X152854408Y-97013187D01*
X152866935Y-96886001D01*
X152866935Y-96325068D01*
X153108340Y-96907872D01*
X153491372Y-97481120D01*
X153978880Y-97968628D01*
X154552128Y-98351660D01*
X155189088Y-98615497D01*
X155865280Y-98750000D01*
X156554720Y-98750000D01*
X157230912Y-98615497D01*
X157867872Y-98351660D01*
X158441120Y-97968628D01*
X158928628Y-97481120D01*
X159311660Y-96907872D01*
X159575497Y-96270912D01*
X159710000Y-95594720D01*
X159710000Y-94905280D01*
X159575497Y-94229088D01*
X159512016Y-94075832D01*
X160232000Y-94795816D01*
X160232001Y-101064982D01*
X160229340Y-101092000D01*
X160232001Y-101119018D01*
X160239959Y-101199819D01*
X160254532Y-101247858D01*
X160271409Y-101303494D01*
X160322479Y-101399042D01*
X160373987Y-101461804D01*
X160373993Y-101461810D01*
X160391211Y-101482790D01*
X160412191Y-101500008D01*
X161693065Y-102780883D01*
X161693065Y-104305000D01*
X161700788Y-104383414D01*
X161723660Y-104458814D01*
X161760803Y-104528303D01*
X161810789Y-104589211D01*
X161871697Y-104639197D01*
X161941186Y-104676340D01*
X162016586Y-104699212D01*
X162095000Y-104706935D01*
X164295000Y-104706935D01*
X164373414Y-104699212D01*
X164448814Y-104676340D01*
X164518303Y-104639197D01*
X164579211Y-104589211D01*
X164629197Y-104528303D01*
X164666340Y-104458814D01*
X164689212Y-104383414D01*
X164696935Y-104305000D01*
X164696935Y-104055000D01*
X166187840Y-104055000D01*
X166251981Y-104266441D01*
X166363409Y-104474909D01*
X166513366Y-104657634D01*
X166696090Y-104807591D01*
X166904558Y-104919019D01*
X167130759Y-104987637D01*
X167366000Y-105010806D01*
X167601240Y-104987637D01*
X167827441Y-104919019D01*
X168035909Y-104807591D01*
X168218634Y-104657634D01*
X168368591Y-104474910D01*
X168480019Y-104266442D01*
X168548637Y-104040241D01*
X168566000Y-103863950D01*
X168566000Y-103555000D01*
X168712000Y-103555000D01*
X168712000Y-103855000D01*
X168743928Y-104079173D01*
X168818977Y-104292810D01*
X168934262Y-104487701D01*
X169085353Y-104656356D01*
X169266444Y-104792294D01*
X169470576Y-104890291D01*
X169636260Y-104935900D01*
X169816000Y-104869326D01*
X169816000Y-103555000D01*
X169916000Y-103555000D01*
X169916000Y-104869326D01*
X170095740Y-104935900D01*
X170261424Y-104890291D01*
X170465556Y-104792294D01*
X170646647Y-104656356D01*
X170797738Y-104487701D01*
X170913023Y-104292810D01*
X170988072Y-104079173D01*
X171020000Y-103855000D01*
X171020000Y-103555000D01*
X169916000Y-103555000D01*
X169816000Y-103555000D01*
X168712000Y-103555000D01*
X168566000Y-103555000D01*
X168566000Y-103155000D01*
X168712000Y-103155000D01*
X168712000Y-103455000D01*
X169816000Y-103455000D01*
X169816000Y-102140674D01*
X169916000Y-102140674D01*
X169916000Y-103455000D01*
X171020000Y-103455000D01*
X171020000Y-103155000D01*
X170988072Y-102930827D01*
X170913023Y-102717190D01*
X170797738Y-102522299D01*
X170646647Y-102353644D01*
X170465556Y-102217706D01*
X170261424Y-102119709D01*
X170095740Y-102074100D01*
X169916000Y-102140674D01*
X169816000Y-102140674D01*
X169636260Y-102074100D01*
X169470576Y-102119709D01*
X169266444Y-102217706D01*
X169085353Y-102353644D01*
X168934262Y-102522299D01*
X168818977Y-102717190D01*
X168743928Y-102930827D01*
X168712000Y-103155000D01*
X168566000Y-103155000D01*
X168566000Y-103146051D01*
X168548637Y-102969760D01*
X168480019Y-102743558D01*
X168368591Y-102535090D01*
X168218634Y-102352366D01*
X168035910Y-102202409D01*
X167827442Y-102090981D01*
X167601241Y-102022363D01*
X167366000Y-101999194D01*
X167130760Y-102022363D01*
X166904559Y-102090981D01*
X166696091Y-102202409D01*
X166513367Y-102352366D01*
X166363410Y-102535090D01*
X166251981Y-102743558D01*
X166187840Y-102955000D01*
X164696935Y-102955000D01*
X164696935Y-102705000D01*
X164689212Y-102626586D01*
X164666340Y-102551186D01*
X164629197Y-102481697D01*
X164579211Y-102420789D01*
X164518303Y-102370803D01*
X164448814Y-102333660D01*
X164373414Y-102310788D01*
X164295000Y-102303065D01*
X162770883Y-102303065D01*
X161332000Y-100864183D01*
X161332000Y-94595005D01*
X161334660Y-94567997D01*
X161332000Y-94540989D01*
X161332000Y-94540980D01*
X161324042Y-94460179D01*
X161292592Y-94356504D01*
X161266644Y-94307958D01*
X161241521Y-94260955D01*
X161190013Y-94198193D01*
X161190008Y-94198188D01*
X161172790Y-94177208D01*
X161151810Y-94159990D01*
X159616819Y-92625000D01*
X160302914Y-92625000D01*
X160305592Y-92652187D01*
X160342691Y-92774485D01*
X160402936Y-92887196D01*
X160484012Y-92985988D01*
X160582804Y-93067064D01*
X160695515Y-93127309D01*
X160817813Y-93164408D01*
X160944999Y-93176935D01*
X161645001Y-93176935D01*
X161772187Y-93164408D01*
X161894485Y-93127309D01*
X162007196Y-93067064D01*
X162105988Y-92985988D01*
X162187064Y-92887196D01*
X162247033Y-92775000D01*
X162339287Y-92775000D01*
X162346122Y-92844396D01*
X162366364Y-92911125D01*
X162399235Y-92972624D01*
X162443473Y-93026527D01*
X162497376Y-93070765D01*
X162558875Y-93103636D01*
X162625604Y-93123878D01*
X162695000Y-93130713D01*
X163156500Y-93129000D01*
X163245000Y-93040500D01*
X163245000Y-92125000D01*
X163345000Y-92125000D01*
X163345000Y-93040500D01*
X163433500Y-93129000D01*
X163895000Y-93130713D01*
X163964396Y-93123878D01*
X164031125Y-93103636D01*
X164092624Y-93070765D01*
X164146527Y-93026527D01*
X164190765Y-92972624D01*
X164223636Y-92911125D01*
X164243878Y-92844396D01*
X164250713Y-92775000D01*
X164249000Y-92213500D01*
X164160500Y-92125000D01*
X163345000Y-92125000D01*
X163245000Y-92125000D01*
X162429500Y-92125000D01*
X162341000Y-92213500D01*
X162339287Y-92775000D01*
X162247033Y-92775000D01*
X162247309Y-92774485D01*
X162284408Y-92652187D01*
X162296935Y-92525001D01*
X162296935Y-91624999D01*
X162284408Y-91497813D01*
X162247309Y-91375515D01*
X162247034Y-91375000D01*
X162339287Y-91375000D01*
X162341000Y-91936500D01*
X162429500Y-92025000D01*
X163245000Y-92025000D01*
X163245000Y-91109500D01*
X163345000Y-91109500D01*
X163345000Y-92025000D01*
X164160500Y-92025000D01*
X164249000Y-91936500D01*
X164250713Y-91375000D01*
X164243878Y-91305604D01*
X164223636Y-91238875D01*
X164190765Y-91177376D01*
X164146527Y-91123473D01*
X164092624Y-91079235D01*
X164031125Y-91046364D01*
X163964396Y-91026122D01*
X163895000Y-91019287D01*
X163433500Y-91021000D01*
X163345000Y-91109500D01*
X163245000Y-91109500D01*
X163156500Y-91021000D01*
X162695000Y-91019287D01*
X162625604Y-91026122D01*
X162558875Y-91046364D01*
X162497376Y-91079235D01*
X162443473Y-91123473D01*
X162399235Y-91177376D01*
X162366364Y-91238875D01*
X162346122Y-91305604D01*
X162339287Y-91375000D01*
X162247034Y-91375000D01*
X162187064Y-91262804D01*
X162105988Y-91164012D01*
X162007196Y-91082936D01*
X161894485Y-91022691D01*
X161772187Y-90985592D01*
X161645001Y-90973065D01*
X160944999Y-90973065D01*
X160817813Y-90985592D01*
X160695515Y-91022691D01*
X160582804Y-91082936D01*
X160484012Y-91164012D01*
X160402936Y-91262804D01*
X160342691Y-91375515D01*
X160305592Y-91497813D01*
X160302914Y-91525000D01*
X159612818Y-91525000D01*
X158619395Y-90531578D01*
X158692187Y-90524408D01*
X158814485Y-90487309D01*
X158927196Y-90427064D01*
X159025988Y-90345988D01*
X159107064Y-90247196D01*
X159167033Y-90135000D01*
X159599287Y-90135000D01*
X159606122Y-90204396D01*
X159626364Y-90271125D01*
X159659235Y-90332624D01*
X159703473Y-90386527D01*
X159757376Y-90430765D01*
X159818875Y-90463636D01*
X159885604Y-90483878D01*
X159955000Y-90490713D01*
X160516500Y-90489000D01*
X160605000Y-90400500D01*
X160605000Y-89585000D01*
X160705000Y-89585000D01*
X160705000Y-90400500D01*
X160793500Y-90489000D01*
X161355000Y-90490713D01*
X161424396Y-90483878D01*
X161491125Y-90463636D01*
X161552624Y-90430765D01*
X161606527Y-90386527D01*
X161650765Y-90332624D01*
X161683636Y-90271125D01*
X161703878Y-90204396D01*
X161710713Y-90135000D01*
X161709000Y-89673500D01*
X161620500Y-89585000D01*
X160705000Y-89585000D01*
X160605000Y-89585000D01*
X159689500Y-89585000D01*
X159601000Y-89673500D01*
X159599287Y-90135000D01*
X159167033Y-90135000D01*
X159167309Y-90134485D01*
X159204408Y-90012187D01*
X159216935Y-89885001D01*
X159216935Y-89184999D01*
X159204408Y-89057813D01*
X159167309Y-88935515D01*
X159167034Y-88935000D01*
X159599287Y-88935000D01*
X159601000Y-89396500D01*
X159689500Y-89485000D01*
X160605000Y-89485000D01*
X160605000Y-88669500D01*
X160516500Y-88581000D01*
X159955000Y-88579287D01*
X159885604Y-88586122D01*
X159818875Y-88606364D01*
X159757376Y-88639235D01*
X159703473Y-88683473D01*
X159659235Y-88737376D01*
X159626364Y-88798875D01*
X159606122Y-88865604D01*
X159599287Y-88935000D01*
X159167034Y-88935000D01*
X159107064Y-88822804D01*
X159025988Y-88724012D01*
X158927196Y-88642936D01*
X158814485Y-88582691D01*
X158692187Y-88545592D01*
X158565001Y-88533065D01*
X157664999Y-88533065D01*
X157537813Y-88545592D01*
X157415515Y-88582691D01*
X157302804Y-88642936D01*
X157204012Y-88724012D01*
X157122936Y-88822804D01*
X157062691Y-88935515D01*
X157047680Y-88985000D01*
X156642320Y-88985000D01*
X156627309Y-88935515D01*
X156567064Y-88822804D01*
X156485988Y-88724012D01*
X156387196Y-88642936D01*
X156274485Y-88582691D01*
X156152187Y-88545592D01*
X156044647Y-88535000D01*
X156152187Y-88524408D01*
X156274485Y-88487309D01*
X156387196Y-88427064D01*
X156485988Y-88345988D01*
X156567064Y-88247196D01*
X156627033Y-88135000D01*
X157059287Y-88135000D01*
X157066122Y-88204396D01*
X157086364Y-88271125D01*
X157119235Y-88332624D01*
X157163473Y-88386527D01*
X157217376Y-88430765D01*
X157278875Y-88463636D01*
X157345604Y-88483878D01*
X157415000Y-88490713D01*
X157976500Y-88489000D01*
X158065000Y-88400500D01*
X158065000Y-87585000D01*
X158165000Y-87585000D01*
X158165000Y-88400500D01*
X158253500Y-88489000D01*
X158815000Y-88490713D01*
X158884396Y-88483878D01*
X158951125Y-88463636D01*
X159012624Y-88430765D01*
X159066527Y-88386527D01*
X159110765Y-88332624D01*
X159143636Y-88271125D01*
X159163878Y-88204396D01*
X159170713Y-88135000D01*
X159169000Y-87673500D01*
X159080500Y-87585000D01*
X158165000Y-87585000D01*
X158065000Y-87585000D01*
X157149500Y-87585000D01*
X157061000Y-87673500D01*
X157059287Y-88135000D01*
X156627033Y-88135000D01*
X156627309Y-88134485D01*
X156664408Y-88012187D01*
X156676935Y-87885001D01*
X156676935Y-87352303D01*
X157059416Y-86969822D01*
X157061000Y-87396500D01*
X157149500Y-87485000D01*
X158065000Y-87485000D01*
X158065000Y-86669500D01*
X158165000Y-86669500D01*
X158165000Y-87485000D01*
X159080500Y-87485000D01*
X159169000Y-87396500D01*
X159170713Y-86935000D01*
X159163878Y-86865604D01*
X159143636Y-86798875D01*
X159110765Y-86737376D01*
X159066527Y-86683473D01*
X159012624Y-86639235D01*
X158951125Y-86606364D01*
X158884396Y-86586122D01*
X158815000Y-86579287D01*
X158253500Y-86581000D01*
X158165000Y-86669500D01*
X158065000Y-86669500D01*
X157976500Y-86581000D01*
X157449845Y-86579393D01*
X157917039Y-86112199D01*
X157941843Y-86091843D01*
X158023070Y-85992868D01*
X158083427Y-85879948D01*
X158120595Y-85757422D01*
X158130000Y-85661932D01*
X158130000Y-85661924D01*
X158133144Y-85630000D01*
X158130000Y-85598076D01*
X158130000Y-84724238D01*
X159019239Y-83835000D01*
X161655762Y-83835000D01*
X163300740Y-85479979D01*
X162757962Y-86022758D01*
X162733157Y-86043115D01*
X162712802Y-86067918D01*
X162651930Y-86142090D01*
X162594094Y-86250294D01*
X162591573Y-86255011D01*
X162554405Y-86377537D01*
X162545000Y-86473027D01*
X162545000Y-86473037D01*
X162541856Y-86504958D01*
X162545000Y-86536880D01*
X162545000Y-86567680D01*
X162495515Y-86582691D01*
X162382804Y-86642936D01*
X162284012Y-86724012D01*
X162202936Y-86822804D01*
X162142691Y-86935515D01*
X162105592Y-87057813D01*
X162093065Y-87184999D01*
X162093065Y-87655248D01*
X161756935Y-87319118D01*
X161756935Y-87184999D01*
X161744408Y-87057813D01*
X161707309Y-86935515D01*
X161647064Y-86822804D01*
X161565988Y-86724012D01*
X161467196Y-86642936D01*
X161354485Y-86582691D01*
X161232187Y-86545592D01*
X161105001Y-86533065D01*
X160570000Y-86533065D01*
X160570000Y-86105594D01*
X160753082Y-85983263D01*
X160913263Y-85823082D01*
X161039116Y-85634729D01*
X161125806Y-85425443D01*
X161170000Y-85203265D01*
X161170000Y-84976735D01*
X161125806Y-84754557D01*
X161039116Y-84545271D01*
X160913263Y-84356918D01*
X160753082Y-84196737D01*
X160564729Y-84070884D01*
X160355443Y-83984194D01*
X160133265Y-83940000D01*
X159906735Y-83940000D01*
X159684557Y-83984194D01*
X159475271Y-84070884D01*
X159286918Y-84196737D01*
X159126737Y-84356918D01*
X159000884Y-84545271D01*
X158914194Y-84754557D01*
X158870000Y-84976735D01*
X158870000Y-85203265D01*
X158914194Y-85425443D01*
X159000884Y-85634729D01*
X159126737Y-85823082D01*
X159286918Y-85983263D01*
X159470001Y-86105594D01*
X159470001Y-86872982D01*
X159467340Y-86900000D01*
X159470001Y-86927018D01*
X159477959Y-87007819D01*
X159490601Y-87049494D01*
X159509409Y-87111494D01*
X159553065Y-87193171D01*
X159553065Y-87885001D01*
X159565592Y-88012187D01*
X159602691Y-88134485D01*
X159662936Y-88247196D01*
X159744012Y-88345988D01*
X159842804Y-88427064D01*
X159955515Y-88487309D01*
X160077813Y-88524408D01*
X160204999Y-88536935D01*
X161105001Y-88536935D01*
X161232187Y-88524408D01*
X161354485Y-88487309D01*
X161364264Y-88482082D01*
X161487424Y-88605241D01*
X161424396Y-88586122D01*
X161355000Y-88579287D01*
X160793500Y-88581000D01*
X160705000Y-88669500D01*
X160705000Y-89485000D01*
X161620500Y-89485000D01*
X161709000Y-89396500D01*
X161710713Y-88935000D01*
X161703878Y-88865604D01*
X161684759Y-88802576D01*
X162093065Y-89210883D01*
X162093065Y-89885001D01*
X162105592Y-90012187D01*
X162142691Y-90134485D01*
X162202936Y-90247196D01*
X162284012Y-90345988D01*
X162382804Y-90427064D01*
X162495515Y-90487309D01*
X162617813Y-90524408D01*
X162744999Y-90536935D01*
X163645001Y-90536935D01*
X163772187Y-90524408D01*
X163894485Y-90487309D01*
X164007196Y-90427064D01*
X164105988Y-90345988D01*
X164187064Y-90247196D01*
X164247309Y-90134485D01*
X164263069Y-90082533D01*
X164318819Y-90077042D01*
X164422494Y-90045592D01*
X164518042Y-89994521D01*
X164601790Y-89925790D01*
X164619013Y-89904804D01*
X165461356Y-89062462D01*
X165626760Y-89112637D01*
X165862000Y-89135806D01*
X166097241Y-89112637D01*
X166323442Y-89044019D01*
X166531910Y-88932591D01*
X166714634Y-88782634D01*
X166864591Y-88599910D01*
X166976019Y-88391442D01*
X167044637Y-88165240D01*
X167062000Y-87988949D01*
X167062000Y-87271050D01*
X167044637Y-87094759D01*
X166976019Y-86868558D01*
X166864591Y-86660090D01*
X166714634Y-86477366D01*
X166531909Y-86327409D01*
X166323441Y-86215981D01*
X166097240Y-86147363D01*
X165920736Y-86129979D01*
X169885100Y-86129979D01*
X169917021Y-86133123D01*
X169948942Y-86129979D01*
X169948953Y-86129979D01*
X170044443Y-86120574D01*
X170166969Y-86083406D01*
X170279889Y-86023049D01*
X170378864Y-85941822D01*
X170399221Y-85917017D01*
X171465239Y-84851000D01*
X171771224Y-84851000D01*
X171826737Y-84934082D01*
X171986918Y-85094263D01*
X172175271Y-85220116D01*
X172384557Y-85306806D01*
X172606735Y-85351000D01*
X172833265Y-85351000D01*
X173055443Y-85306806D01*
X173264729Y-85220116D01*
X173453082Y-85094263D01*
X173613263Y-84934082D01*
X173739116Y-84745729D01*
X173825806Y-84536443D01*
X173870000Y-84314265D01*
X173870000Y-84087735D01*
X173825806Y-83865557D01*
X173739116Y-83656271D01*
X173613263Y-83467918D01*
X173453082Y-83307737D01*
X173264729Y-83181884D01*
X173055443Y-83095194D01*
X172833265Y-83051000D01*
X172606735Y-83051000D01*
X172384557Y-83095194D01*
X172175271Y-83181884D01*
X171986918Y-83307737D01*
X171826737Y-83467918D01*
X171771224Y-83551000D01*
X171227920Y-83551000D01*
X171195999Y-83547856D01*
X171164078Y-83551000D01*
X171164068Y-83551000D01*
X171068578Y-83560405D01*
X170946052Y-83597573D01*
X170833132Y-83657930D01*
X170823315Y-83665987D01*
X170758959Y-83718802D01*
X170758957Y-83718804D01*
X170734157Y-83739157D01*
X170713804Y-83763957D01*
X170146935Y-84330826D01*
X170146935Y-83623999D01*
X170134408Y-83496813D01*
X170097309Y-83374515D01*
X170037064Y-83261804D01*
X169955988Y-83163012D01*
X169857196Y-83081936D01*
X169744485Y-83021691D01*
X169695000Y-83006680D01*
X169695000Y-82419608D01*
X169758439Y-82413360D01*
X169975215Y-82347602D01*
X170174997Y-82240816D01*
X170350107Y-82097107D01*
X170493816Y-81921997D01*
X170542990Y-81830000D01*
X170983065Y-81830000D01*
X170983065Y-82360001D01*
X170995592Y-82487187D01*
X171032691Y-82609485D01*
X171092936Y-82722196D01*
X171174012Y-82820988D01*
X171272804Y-82902064D01*
X171385515Y-82962309D01*
X171507813Y-82999408D01*
X171634999Y-83011935D01*
X172535001Y-83011935D01*
X172662187Y-82999408D01*
X172784485Y-82962309D01*
X172897196Y-82902064D01*
X172995988Y-82820988D01*
X173077064Y-82722196D01*
X173137309Y-82609485D01*
X173174408Y-82487187D01*
X173186935Y-82360001D01*
X173186935Y-81659999D01*
X173174408Y-81532813D01*
X173137309Y-81410515D01*
X173077064Y-81297804D01*
X172995988Y-81199012D01*
X172897196Y-81117936D01*
X172784485Y-81057691D01*
X172662187Y-81020592D01*
X172554647Y-81010000D01*
X172662187Y-80999408D01*
X172784485Y-80962309D01*
X172897196Y-80902064D01*
X172995988Y-80820988D01*
X173077064Y-80722196D01*
X173137309Y-80609485D01*
X173174408Y-80487187D01*
X173186935Y-80360001D01*
X173186935Y-79659999D01*
X173174408Y-79532813D01*
X173137309Y-79410515D01*
X173077064Y-79297804D01*
X172995988Y-79199012D01*
X172897196Y-79117936D01*
X172784485Y-79057691D01*
X172662187Y-79020592D01*
X172635000Y-79017914D01*
X172635000Y-78192086D01*
X172662187Y-78189408D01*
X172784485Y-78152309D01*
X172897196Y-78092064D01*
X172995988Y-78010988D01*
X173077064Y-77912196D01*
X173137309Y-77799485D01*
X173174408Y-77677187D01*
X173186935Y-77550001D01*
X173186935Y-76849999D01*
X173174408Y-76722813D01*
X173137309Y-76600515D01*
X173077064Y-76487804D01*
X172995988Y-76389012D01*
X172897196Y-76307936D01*
X172784485Y-76247691D01*
X172662187Y-76210592D01*
X172535001Y-76198065D01*
X171860882Y-76198065D01*
X171817211Y-76154394D01*
X171946500Y-76154000D01*
X172035000Y-76065500D01*
X172035000Y-75250000D01*
X172135000Y-75250000D01*
X172135000Y-76065500D01*
X172223500Y-76154000D01*
X172785000Y-76155713D01*
X172854396Y-76148878D01*
X172921125Y-76128636D01*
X172982624Y-76095765D01*
X173036527Y-76051527D01*
X173080765Y-75997624D01*
X173113636Y-75936125D01*
X173133878Y-75869396D01*
X173140713Y-75800000D01*
X173139000Y-75338500D01*
X173050500Y-75250000D01*
X172135000Y-75250000D01*
X172035000Y-75250000D01*
X171119500Y-75250000D01*
X171031000Y-75338500D01*
X171029844Y-75650000D01*
X170542990Y-75650000D01*
X170493816Y-75558003D01*
X170350107Y-75382893D01*
X170174997Y-75239184D01*
X169975215Y-75132398D01*
X169758439Y-75066640D01*
X169589492Y-75050000D01*
X167976508Y-75050000D01*
X167807561Y-75066640D01*
X167590785Y-75132398D01*
X167391003Y-75239184D01*
X167215893Y-75382893D01*
X167072184Y-75558003D01*
X166965398Y-75757785D01*
X166899640Y-75974561D01*
X166890292Y-76069474D01*
X165420818Y-74600000D01*
X171029287Y-74600000D01*
X171031000Y-75061500D01*
X171119500Y-75150000D01*
X172035000Y-75150000D01*
X172035000Y-74334500D01*
X172135000Y-74334500D01*
X172135000Y-75150000D01*
X173050500Y-75150000D01*
X173139000Y-75061500D01*
X173140713Y-74600000D01*
X173133878Y-74530604D01*
X173113636Y-74463875D01*
X173080765Y-74402376D01*
X173036527Y-74348473D01*
X172982624Y-74304235D01*
X172921125Y-74271364D01*
X172854396Y-74251122D01*
X172785000Y-74244287D01*
X172223500Y-74246000D01*
X172135000Y-74334500D01*
X172035000Y-74334500D01*
X171946500Y-74246000D01*
X171385000Y-74244287D01*
X171315604Y-74251122D01*
X171248875Y-74271364D01*
X171187376Y-74304235D01*
X171133473Y-74348473D01*
X171089235Y-74402376D01*
X171056364Y-74463875D01*
X171036122Y-74530604D01*
X171029287Y-74600000D01*
X165420818Y-74600000D01*
X164601003Y-73780186D01*
X164583780Y-73759200D01*
X164500032Y-73690469D01*
X164404484Y-73639398D01*
X164300809Y-73607948D01*
X164220008Y-73599990D01*
X164219998Y-73599990D01*
X164192990Y-73597330D01*
X164165982Y-73599990D01*
X157148052Y-73599990D01*
X157121044Y-73597330D01*
X157094036Y-73599990D01*
X157094026Y-73599990D01*
X157013225Y-73607948D01*
X156909550Y-73639398D01*
X156814002Y-73690469D01*
X156751239Y-73741977D01*
X156751234Y-73741982D01*
X156730254Y-73759200D01*
X156713035Y-73780181D01*
X156341185Y-74152032D01*
X156320200Y-74169254D01*
X156251469Y-74253002D01*
X156200398Y-74348551D01*
X156168948Y-74452226D01*
X156160990Y-74533027D01*
X156160990Y-74533036D01*
X156158330Y-74560044D01*
X156160990Y-74587052D01*
X156160991Y-76013550D01*
X155715472Y-76459069D01*
X155737029Y-76406919D01*
X155697903Y-76263845D01*
X155609147Y-76077002D01*
X155485645Y-75911064D01*
X155332144Y-75772409D01*
X155154542Y-75666365D01*
X154959664Y-75597007D01*
X154755000Y-75567000D01*
X154355000Y-75567000D01*
X154355000Y-76571000D01*
X154375000Y-76571000D01*
X154375000Y-76671000D01*
X154355000Y-76671000D01*
X154355000Y-76691000D01*
X154255000Y-76691000D01*
X154255000Y-76671000D01*
X152940796Y-76671000D01*
X152872971Y-76835081D01*
X152912097Y-76978155D01*
X153000853Y-77164998D01*
X153042541Y-77221010D01*
X151788003Y-77221010D01*
X151760992Y-77218350D01*
X151733981Y-77221010D01*
X151733974Y-77221010D01*
X151653173Y-77228968D01*
X151549498Y-77260418D01*
X151453950Y-77311489D01*
X151370202Y-77380220D01*
X151352979Y-77401206D01*
X149202935Y-79551250D01*
X149202935Y-78321000D01*
X149195212Y-78242586D01*
X149172340Y-78167186D01*
X149135197Y-78097697D01*
X149085211Y-78036789D01*
X149024303Y-77986803D01*
X148954814Y-77949660D01*
X148879414Y-77926788D01*
X148801000Y-77919065D01*
X146641882Y-77919065D01*
X145573557Y-76850740D01*
X146270100Y-76850740D01*
X146315709Y-77016424D01*
X146413706Y-77220556D01*
X146549644Y-77401647D01*
X146718299Y-77552738D01*
X146913190Y-77668023D01*
X147126827Y-77743072D01*
X147351000Y-77775000D01*
X147651000Y-77775000D01*
X147651000Y-76671000D01*
X147751000Y-76671000D01*
X147751000Y-77775000D01*
X148051000Y-77775000D01*
X148275173Y-77743072D01*
X148488810Y-77668023D01*
X148683701Y-77552738D01*
X148852356Y-77401647D01*
X148988294Y-77220556D01*
X149086291Y-77016424D01*
X149131900Y-76850740D01*
X149065326Y-76671000D01*
X147751000Y-76671000D01*
X147651000Y-76671000D01*
X146336674Y-76671000D01*
X146270100Y-76850740D01*
X145573557Y-76850740D01*
X145114077Y-76391260D01*
X146270100Y-76391260D01*
X146336674Y-76571000D01*
X147651000Y-76571000D01*
X147651000Y-75467000D01*
X147751000Y-75467000D01*
X147751000Y-76571000D01*
X149065326Y-76571000D01*
X149126100Y-76406919D01*
X152872971Y-76406919D01*
X152940796Y-76571000D01*
X154255000Y-76571000D01*
X154255000Y-75567000D01*
X153855000Y-75567000D01*
X153650336Y-75597007D01*
X153455458Y-75666365D01*
X153277856Y-75772409D01*
X153124355Y-75911064D01*
X153000853Y-76077002D01*
X152912097Y-76263845D01*
X152872971Y-76406919D01*
X149126100Y-76406919D01*
X149131900Y-76391260D01*
X149086291Y-76225576D01*
X148988294Y-76021444D01*
X148852356Y-75840353D01*
X148683701Y-75689262D01*
X148488810Y-75573977D01*
X148275173Y-75498928D01*
X148051000Y-75467000D01*
X147751000Y-75467000D01*
X147651000Y-75467000D01*
X147351000Y-75467000D01*
X147126827Y-75498928D01*
X146913190Y-75573977D01*
X146718299Y-75689262D01*
X146549644Y-75840353D01*
X146413706Y-76021444D01*
X146315709Y-76225576D01*
X146270100Y-76391260D01*
X145114077Y-76391260D01*
X144553013Y-75830196D01*
X144535790Y-75809210D01*
X144453947Y-75742042D01*
X144452042Y-75740479D01*
X144356494Y-75689408D01*
X144252819Y-75657958D01*
X144172018Y-75650000D01*
X144172008Y-75650000D01*
X144145000Y-75647340D01*
X144117992Y-75650000D01*
X139224790Y-75650000D01*
X139175616Y-75558003D01*
X139031907Y-75382893D01*
X138856797Y-75239184D01*
X138657015Y-75132398D01*
X138440239Y-75066640D01*
X138271292Y-75050000D01*
X136658308Y-75050000D01*
X136489361Y-75066640D01*
X136272585Y-75132398D01*
X136072803Y-75239184D01*
X135897693Y-75382893D01*
X135753984Y-75558003D01*
X135704810Y-75650000D01*
X135691807Y-75650000D01*
X135664799Y-75647340D01*
X135637791Y-75650000D01*
X135637782Y-75650000D01*
X135556981Y-75657958D01*
X135453306Y-75689408D01*
X135434747Y-75699328D01*
X135357757Y-75740479D01*
X135294995Y-75791987D01*
X135294990Y-75791992D01*
X135274010Y-75809210D01*
X135256792Y-75830190D01*
X134539185Y-76547798D01*
X134518199Y-76565021D01*
X134449468Y-76648769D01*
X134398397Y-76744318D01*
X134366947Y-76847993D01*
X134358989Y-76928794D01*
X134358989Y-76928803D01*
X134356329Y-76955811D01*
X134358989Y-76982819D01*
X134358990Y-81992774D01*
X134356328Y-82019802D01*
X134366947Y-82127621D01*
X134398397Y-82231296D01*
X134449468Y-82326844D01*
X134518199Y-82410592D01*
X134521379Y-82413202D01*
X134523989Y-82416382D01*
X134544975Y-82433605D01*
X135645357Y-83533988D01*
X135640260Y-83532100D01*
X135474576Y-83577709D01*
X135270444Y-83675706D01*
X135089353Y-83811644D01*
X134938262Y-83980299D01*
X134822977Y-84175190D01*
X134747928Y-84388827D01*
X134716000Y-84613000D01*
X134716000Y-84913000D01*
X135820000Y-84913000D01*
X135820000Y-84893000D01*
X135920000Y-84893000D01*
X135920000Y-84913000D01*
X137024000Y-84913000D01*
X137024000Y-84613000D01*
X136992072Y-84388827D01*
X136917023Y-84175190D01*
X136801738Y-83980299D01*
X136786232Y-83962990D01*
X144428127Y-83962990D01*
X144420910Y-84036273D01*
X143791226Y-84665957D01*
X143770246Y-84683175D01*
X143753028Y-84704155D01*
X143753022Y-84704161D01*
X143701514Y-84766923D01*
X143661602Y-84841595D01*
X143650444Y-84862471D01*
X143618994Y-84966146D01*
X143617951Y-84976735D01*
X143608375Y-85073965D01*
X143611036Y-85100983D01*
X143611035Y-89688604D01*
X143301181Y-89998459D01*
X143280201Y-90015677D01*
X143262983Y-90036657D01*
X143262977Y-90036663D01*
X143211469Y-90099425D01*
X143168680Y-90179480D01*
X143160399Y-90194973D01*
X143128949Y-90298648D01*
X143128106Y-90307212D01*
X143118330Y-90406467D01*
X143120991Y-90433485D01*
X143120990Y-92446526D01*
X143118330Y-92473534D01*
X143120990Y-92500542D01*
X143120990Y-92500551D01*
X143128948Y-92581352D01*
X143160398Y-92685027D01*
X143211469Y-92780576D01*
X143280200Y-92864324D01*
X143301186Y-92881547D01*
X143778065Y-93358427D01*
X143778065Y-93495000D01*
X143788670Y-93602677D01*
X143820079Y-93706216D01*
X143871083Y-93801639D01*
X143939723Y-93885277D01*
X144023361Y-93953917D01*
X144072159Y-93980000D01*
X144023361Y-94006083D01*
X143939723Y-94074723D01*
X143871083Y-94158361D01*
X143820079Y-94253784D01*
X143788670Y-94357323D01*
X143778065Y-94465000D01*
X143778065Y-94765000D01*
X143788670Y-94872677D01*
X143820079Y-94976216D01*
X143871083Y-95071639D01*
X143939723Y-95155277D01*
X144023361Y-95223917D01*
X144069515Y-95248586D01*
X144043875Y-95256364D01*
X143982376Y-95289235D01*
X143928473Y-95333473D01*
X143884235Y-95387376D01*
X143851364Y-95448875D01*
X143831122Y-95515604D01*
X143824287Y-95585000D01*
X143826000Y-95746500D01*
X143914500Y-95835000D01*
X145280000Y-95835000D01*
X145280000Y-95815000D01*
X145380000Y-95815000D01*
X145380000Y-95835000D01*
X146745500Y-95835000D01*
X146834000Y-95746500D01*
X146835713Y-95585000D01*
X146828878Y-95515604D01*
X146808636Y-95448875D01*
X146775765Y-95387376D01*
X146731527Y-95333473D01*
X146677624Y-95289235D01*
X146616125Y-95256364D01*
X146590485Y-95248586D01*
X146636639Y-95223917D01*
X146720277Y-95155277D01*
X146788917Y-95071639D01*
X146839921Y-94976216D01*
X146871330Y-94872677D01*
X146881935Y-94765000D01*
X146881935Y-94569426D01*
X147299820Y-94151542D01*
X147320800Y-94134324D01*
X147338018Y-94113344D01*
X147338023Y-94113339D01*
X147389531Y-94050577D01*
X147429533Y-93975737D01*
X147440602Y-93955028D01*
X147472052Y-93851353D01*
X147480010Y-93770552D01*
X147480010Y-93770543D01*
X147482670Y-93743535D01*
X147480010Y-93716527D01*
X147480010Y-93327807D01*
X148301759Y-92506058D01*
X148314012Y-92520988D01*
X148412804Y-92602064D01*
X148525515Y-92662309D01*
X148647813Y-92699408D01*
X148755353Y-92710000D01*
X148647813Y-92720592D01*
X148525515Y-92757691D01*
X148412804Y-92817936D01*
X148314012Y-92899012D01*
X148232936Y-92997804D01*
X148172691Y-93110515D01*
X148135592Y-93232813D01*
X148123065Y-93359999D01*
X148123065Y-94060001D01*
X148135592Y-94187187D01*
X148172691Y-94309485D01*
X148232936Y-94422196D01*
X148314012Y-94520988D01*
X148412804Y-94602064D01*
X148525515Y-94662309D01*
X148647813Y-94699408D01*
X148675001Y-94702086D01*
X148675000Y-94797914D01*
X148647813Y-94800592D01*
X148525515Y-94837691D01*
X148412804Y-94897936D01*
X148314012Y-94979012D01*
X148232936Y-95077804D01*
X148172691Y-95190515D01*
X148135592Y-95312813D01*
X148123065Y-95439999D01*
X148123065Y-96114118D01*
X147632183Y-96605000D01*
X146708430Y-96605000D01*
X146636639Y-96546083D01*
X146590485Y-96521414D01*
X146616125Y-96513636D01*
X146677624Y-96480765D01*
X146731527Y-96436527D01*
X146775765Y-96382624D01*
X146808636Y-96321125D01*
X146828878Y-96254396D01*
X146835713Y-96185000D01*
X146834000Y-96023500D01*
X146745500Y-95935000D01*
X145380000Y-95935000D01*
X145380000Y-95955000D01*
X145280000Y-95955000D01*
X145280000Y-95935000D01*
X143914500Y-95935000D01*
X143826000Y-96023500D01*
X143824287Y-96185000D01*
X143831122Y-96254396D01*
X143851364Y-96321125D01*
X143884235Y-96382624D01*
X143928473Y-96436527D01*
X143982376Y-96480765D01*
X144043875Y-96513636D01*
X144069515Y-96521414D01*
X144023361Y-96546083D01*
X143939723Y-96614723D01*
X143871083Y-96698361D01*
X143820079Y-96793784D01*
X143788670Y-96897323D01*
X143778065Y-97005000D01*
X143778065Y-97305000D01*
X143788670Y-97412677D01*
X143820079Y-97516216D01*
X143871083Y-97611639D01*
X143939723Y-97695277D01*
X144023361Y-97763917D01*
X144072159Y-97790000D01*
X144023361Y-97816083D01*
X143939723Y-97884723D01*
X143871083Y-97968361D01*
X143820079Y-98063784D01*
X143788670Y-98167323D01*
X143778065Y-98275000D01*
X143778065Y-98575000D01*
X143788670Y-98682677D01*
X143820079Y-98786216D01*
X143871083Y-98881639D01*
X143939723Y-98965277D01*
X144023361Y-99033917D01*
X144118784Y-99084921D01*
X144222323Y-99116330D01*
X144330000Y-99126935D01*
X144546001Y-99126935D01*
X144546001Y-99343983D01*
X144543340Y-99371000D01*
X144546001Y-99398018D01*
X144553959Y-99478819D01*
X144554940Y-99482052D01*
X144585409Y-99582494D01*
X144636479Y-99678042D01*
X144687987Y-99740804D01*
X144687993Y-99740810D01*
X144705211Y-99761790D01*
X144726191Y-99779008D01*
X145053065Y-100105882D01*
X145053065Y-100780001D01*
X145065592Y-100907187D01*
X145102691Y-101029485D01*
X145162936Y-101142196D01*
X145244012Y-101240988D01*
X145342804Y-101322064D01*
X145455515Y-101382309D01*
X145577813Y-101419408D01*
X145704999Y-101431935D01*
X146379118Y-101431935D01*
X147271982Y-102324800D01*
X147289200Y-102345780D01*
X147310180Y-102362998D01*
X147310185Y-102363003D01*
X147349364Y-102395156D01*
X147372948Y-102414511D01*
X147468496Y-102465582D01*
X147572171Y-102497032D01*
X147643596Y-102504067D01*
X147627262Y-102522299D01*
X147511977Y-102717190D01*
X147436928Y-102930827D01*
X147405000Y-103155000D01*
X147405000Y-103455000D01*
X148509000Y-103455000D01*
X148509000Y-103435000D01*
X148609000Y-103435000D01*
X148609000Y-103455000D01*
X149713000Y-103455000D01*
X149713000Y-103369037D01*
X150218773Y-103874810D01*
X150235991Y-103895790D01*
X150256971Y-103913008D01*
X150256976Y-103913013D01*
X150319738Y-103964521D01*
X150340921Y-103975843D01*
X150415287Y-104015592D01*
X150518962Y-104047042D01*
X150599763Y-104055000D01*
X150599772Y-104055000D01*
X150626780Y-104057660D01*
X150653788Y-104055000D01*
X154208316Y-104055000D01*
X154272409Y-104174910D01*
X154422366Y-104357634D01*
X154605090Y-104507591D01*
X154813558Y-104619019D01*
X155039759Y-104687637D01*
X155216050Y-104705000D01*
X155933950Y-104705000D01*
X156110241Y-104687637D01*
X156336442Y-104619019D01*
X156544910Y-104507591D01*
X156727634Y-104357634D01*
X156877591Y-104174910D01*
X156989019Y-103966442D01*
X157057637Y-103740241D01*
X157080806Y-103505000D01*
X157057637Y-103269759D01*
X156989019Y-103043558D01*
X156877591Y-102835090D01*
X156852889Y-102804990D01*
X157160752Y-102804990D01*
X162373826Y-108018065D01*
X162095000Y-108018065D01*
X162016586Y-108025788D01*
X161941186Y-108048660D01*
X161871697Y-108085803D01*
X161810789Y-108135789D01*
X161760803Y-108196697D01*
X161723660Y-108266186D01*
X161700788Y-108341586D01*
X161693065Y-108420000D01*
X161693065Y-109945245D01*
X157753215Y-106005396D01*
X157735992Y-105984410D01*
X157652244Y-105915679D01*
X157556696Y-105864608D01*
X157453021Y-105833158D01*
X157372220Y-105825200D01*
X157372210Y-105825200D01*
X157345202Y-105822540D01*
X157318194Y-105825200D01*
X155756935Y-105825200D01*
X155756935Y-105575100D01*
X155744410Y-105447933D01*
X155707317Y-105325654D01*
X155647081Y-105212960D01*
X155566017Y-105114183D01*
X155467240Y-105033119D01*
X155354546Y-104972883D01*
X155232267Y-104935790D01*
X155105100Y-104923265D01*
X153504900Y-104923265D01*
X153377733Y-104935790D01*
X153255454Y-104972883D01*
X153142760Y-105033119D01*
X153043983Y-105114183D01*
X152962919Y-105212960D01*
X152902683Y-105325654D01*
X152865590Y-105447933D01*
X152853065Y-105575100D01*
X152853065Y-107175300D01*
X152865590Y-107302467D01*
X152902683Y-107424746D01*
X152962919Y-107537440D01*
X153043983Y-107636217D01*
X153142760Y-107717281D01*
X153255454Y-107777517D01*
X153377733Y-107814610D01*
X153504900Y-107827135D01*
X155105100Y-107827135D01*
X155232267Y-107814610D01*
X155354546Y-107777517D01*
X155467240Y-107717281D01*
X155566017Y-107636217D01*
X155647081Y-107537440D01*
X155707317Y-107424746D01*
X155744410Y-107302467D01*
X155756935Y-107175300D01*
X155756935Y-106925200D01*
X157117385Y-106925200D01*
X163925249Y-113733065D01*
X162095000Y-113733065D01*
X162016586Y-113740788D01*
X161941186Y-113763660D01*
X161871697Y-113800803D01*
X161810789Y-113850789D01*
X161760803Y-113911697D01*
X161723660Y-113981186D01*
X161700788Y-114056586D01*
X161693065Y-114135000D01*
X161693065Y-114385000D01*
X159348270Y-114385000D01*
X156125000Y-111161730D01*
X156125000Y-110398160D01*
X156336442Y-110334019D01*
X156544910Y-110222591D01*
X156727634Y-110072634D01*
X156877591Y-109889910D01*
X156989019Y-109681442D01*
X157057637Y-109455241D01*
X157080806Y-109220000D01*
X157057637Y-108984759D01*
X156989019Y-108758558D01*
X156877591Y-108550090D01*
X156727634Y-108367366D01*
X156544910Y-108217409D01*
X156336442Y-108105981D01*
X156110241Y-108037363D01*
X155933950Y-108020000D01*
X155216050Y-108020000D01*
X155039759Y-108037363D01*
X154813558Y-108105981D01*
X154605090Y-108217409D01*
X154422366Y-108367366D01*
X154272409Y-108550090D01*
X154208316Y-108670000D01*
X149706818Y-108670000D01*
X149691935Y-108655117D01*
X149691935Y-107980999D01*
X149679408Y-107853813D01*
X149642309Y-107731515D01*
X149582064Y-107618804D01*
X149500988Y-107520012D01*
X149402196Y-107438936D01*
X149289485Y-107378691D01*
X149167187Y-107341592D01*
X149040001Y-107329065D01*
X148139999Y-107329065D01*
X148012813Y-107341592D01*
X147890515Y-107378691D01*
X147777804Y-107438936D01*
X147679012Y-107520012D01*
X147597936Y-107618804D01*
X147537691Y-107731515D01*
X147522680Y-107781000D01*
X147117320Y-107781000D01*
X147102309Y-107731515D01*
X147042064Y-107618804D01*
X146960988Y-107520012D01*
X146862196Y-107438936D01*
X146749485Y-107378691D01*
X146627187Y-107341592D01*
X146519647Y-107331000D01*
X146627187Y-107320408D01*
X146749485Y-107283309D01*
X146862196Y-107223064D01*
X146960988Y-107141988D01*
X147042064Y-107043196D01*
X147102033Y-106931000D01*
X147534287Y-106931000D01*
X147541122Y-107000396D01*
X147561364Y-107067125D01*
X147594235Y-107128624D01*
X147638473Y-107182527D01*
X147692376Y-107226765D01*
X147753875Y-107259636D01*
X147820604Y-107279878D01*
X147890000Y-107286713D01*
X148451500Y-107285000D01*
X148540000Y-107196500D01*
X148540000Y-106381000D01*
X148640000Y-106381000D01*
X148640000Y-107196500D01*
X148728500Y-107285000D01*
X149290000Y-107286713D01*
X149359396Y-107279878D01*
X149426125Y-107259636D01*
X149487624Y-107226765D01*
X149541527Y-107182527D01*
X149585765Y-107128624D01*
X149618636Y-107067125D01*
X149638878Y-107000396D01*
X149645713Y-106931000D01*
X149644000Y-106469500D01*
X149555500Y-106381000D01*
X148640000Y-106381000D01*
X148540000Y-106381000D01*
X147624500Y-106381000D01*
X147536000Y-106469500D01*
X147534287Y-106931000D01*
X147102033Y-106931000D01*
X147102309Y-106930485D01*
X147139408Y-106808187D01*
X147151935Y-106681001D01*
X147151935Y-105980999D01*
X147139408Y-105853813D01*
X147102309Y-105731515D01*
X147102034Y-105731000D01*
X147534287Y-105731000D01*
X147536000Y-106192500D01*
X147624500Y-106281000D01*
X148540000Y-106281000D01*
X148540000Y-105465500D01*
X148640000Y-105465500D01*
X148640000Y-106281000D01*
X149555500Y-106281000D01*
X149644000Y-106192500D01*
X149645713Y-105731000D01*
X149638878Y-105661604D01*
X149618636Y-105594875D01*
X149585765Y-105533376D01*
X149541527Y-105479473D01*
X149487624Y-105435235D01*
X149426125Y-105402364D01*
X149359396Y-105382122D01*
X149290000Y-105375287D01*
X148728500Y-105377000D01*
X148640000Y-105465500D01*
X148540000Y-105465500D01*
X148451500Y-105377000D01*
X147890000Y-105375287D01*
X147820604Y-105382122D01*
X147753875Y-105402364D01*
X147692376Y-105435235D01*
X147638473Y-105479473D01*
X147594235Y-105533376D01*
X147561364Y-105594875D01*
X147541122Y-105661604D01*
X147534287Y-105731000D01*
X147102034Y-105731000D01*
X147042064Y-105618804D01*
X146960988Y-105520012D01*
X146862196Y-105438936D01*
X146749485Y-105378691D01*
X146700000Y-105363680D01*
X146700000Y-104823044D01*
X146728910Y-104807591D01*
X146911634Y-104657634D01*
X147061591Y-104474910D01*
X147173019Y-104266442D01*
X147241637Y-104040240D01*
X147259000Y-103863949D01*
X147259000Y-103555000D01*
X147405000Y-103555000D01*
X147405000Y-103855000D01*
X147436928Y-104079173D01*
X147511977Y-104292810D01*
X147627262Y-104487701D01*
X147778353Y-104656356D01*
X147959444Y-104792294D01*
X148163576Y-104890291D01*
X148329260Y-104935900D01*
X148509000Y-104869326D01*
X148509000Y-103555000D01*
X148609000Y-103555000D01*
X148609000Y-104869326D01*
X148788740Y-104935900D01*
X148954424Y-104890291D01*
X149158556Y-104792294D01*
X149339647Y-104656356D01*
X149490738Y-104487701D01*
X149606023Y-104292810D01*
X149681072Y-104079173D01*
X149713000Y-103855000D01*
X149713000Y-103555000D01*
X148609000Y-103555000D01*
X148509000Y-103555000D01*
X147405000Y-103555000D01*
X147259000Y-103555000D01*
X147259000Y-103146050D01*
X147241637Y-102969759D01*
X147173019Y-102743558D01*
X147061591Y-102535090D01*
X146911634Y-102352366D01*
X146728909Y-102202409D01*
X146520441Y-102090981D01*
X146294240Y-102022363D01*
X146059000Y-101999194D01*
X145823759Y-102022363D01*
X145597558Y-102090981D01*
X145483672Y-102151854D01*
X144654979Y-101323162D01*
X144654979Y-100557338D01*
X144657639Y-100530330D01*
X144654979Y-100503322D01*
X144654979Y-100503313D01*
X144647021Y-100422512D01*
X144615571Y-100318837D01*
X144564500Y-100223289D01*
X144547503Y-100202578D01*
X144512992Y-100160526D01*
X144512987Y-100160521D01*
X144495769Y-100139541D01*
X144474789Y-100122323D01*
X142820968Y-98468503D01*
X142820968Y-94762041D01*
X142823628Y-94735033D01*
X142820968Y-94708025D01*
X142820968Y-90054375D01*
X143130822Y-89744523D01*
X143151803Y-89727304D01*
X143169021Y-89706324D01*
X143169026Y-89706319D01*
X143220534Y-89643557D01*
X143248935Y-89590421D01*
X143271605Y-89548008D01*
X143300803Y-89451758D01*
X143303055Y-89444334D01*
X143309944Y-89374381D01*
X143311013Y-89363532D01*
X143311013Y-89363526D01*
X143313673Y-89336515D01*
X143311013Y-89309504D01*
X143311013Y-86595175D01*
X143313673Y-86568164D01*
X143311013Y-86541153D01*
X143311013Y-86541146D01*
X143303055Y-86460345D01*
X143300281Y-86451200D01*
X143271605Y-86356669D01*
X143220534Y-86261122D01*
X143169026Y-86198360D01*
X143151803Y-86177374D01*
X143130817Y-86160151D01*
X141855873Y-84885207D01*
X141838650Y-84864221D01*
X141796927Y-84829979D01*
X141754902Y-84795490D01*
X141731456Y-84782958D01*
X141659354Y-84744419D01*
X141555679Y-84712969D01*
X141474878Y-84705011D01*
X141474868Y-84705011D01*
X141447860Y-84702351D01*
X141420852Y-84705011D01*
X140040000Y-84705011D01*
X140012989Y-84702351D01*
X139985978Y-84705011D01*
X139985971Y-84705011D01*
X139905170Y-84712969D01*
X139801495Y-84744419D01*
X139705947Y-84795490D01*
X139663923Y-84829979D01*
X139622199Y-84864221D01*
X139604976Y-84885207D01*
X138060196Y-86429987D01*
X138039210Y-86447210D01*
X137970479Y-86530958D01*
X137919408Y-86626507D01*
X137887958Y-86730182D01*
X137880000Y-86810983D01*
X137880000Y-86810992D01*
X137877340Y-86838000D01*
X137880000Y-86865008D01*
X137880000Y-86936065D01*
X137330000Y-86936065D01*
X137251586Y-86943788D01*
X137176186Y-86966660D01*
X137106697Y-87003803D01*
X137045789Y-87053789D01*
X136995803Y-87114697D01*
X136958660Y-87184186D01*
X136935788Y-87259586D01*
X136928065Y-87338000D01*
X136928065Y-88720697D01*
X136667959Y-88980803D01*
X136643159Y-89001156D01*
X136622806Y-89025956D01*
X136622803Y-89025959D01*
X136561931Y-89100131D01*
X136501574Y-89213052D01*
X136464407Y-89335577D01*
X136451857Y-89462999D01*
X136455002Y-89494931D01*
X136455001Y-98328762D01*
X136087957Y-98695807D01*
X136063158Y-98716159D01*
X136042805Y-98740959D01*
X136042802Y-98740962D01*
X135981930Y-98815134D01*
X135921573Y-98928055D01*
X135884406Y-99050580D01*
X135871856Y-99178002D01*
X135875001Y-99209933D01*
X135875000Y-100578876D01*
X135871856Y-100610798D01*
X135875000Y-100642719D01*
X135875000Y-100642729D01*
X135884405Y-100738219D01*
X135917407Y-100847012D01*
X135921573Y-100860745D01*
X135981930Y-100973666D01*
X136013729Y-101012413D01*
X136063157Y-101072641D01*
X136073342Y-101081000D01*
X135940000Y-101081000D01*
X135940000Y-102185000D01*
X135960000Y-102185000D01*
X135960000Y-102285000D01*
X135940000Y-102285000D01*
X135940000Y-102305000D01*
X135840000Y-102305000D01*
X135840000Y-102285000D01*
X134475674Y-102285000D01*
X134409100Y-102464740D01*
X134454709Y-102630424D01*
X134552706Y-102834556D01*
X134663387Y-102982000D01*
X134254239Y-102982000D01*
X133795010Y-102522772D01*
X133795010Y-102005260D01*
X134409100Y-102005260D01*
X134475674Y-102185000D01*
X135840000Y-102185000D01*
X135840000Y-101081000D01*
X135490000Y-101081000D01*
X135265827Y-101112928D01*
X135052190Y-101187977D01*
X134857299Y-101303262D01*
X134688644Y-101454353D01*
X134552706Y-101635444D01*
X134454709Y-101839576D01*
X134409100Y-102005260D01*
X133795010Y-102005260D01*
X133795010Y-101707732D01*
X133798154Y-101675808D01*
X133795010Y-101643884D01*
X133795010Y-101643876D01*
X133785605Y-101548386D01*
X133748437Y-101425860D01*
X133688080Y-101312940D01*
X133680328Y-101303494D01*
X133627209Y-101238768D01*
X133627206Y-101238765D01*
X133606853Y-101213965D01*
X133582054Y-101193613D01*
X132836392Y-100447952D01*
X132816035Y-100423147D01*
X132717060Y-100341920D01*
X132604140Y-100281563D01*
X132481614Y-100244395D01*
X132386124Y-100234990D01*
X132386113Y-100234990D01*
X132354192Y-100231846D01*
X132322271Y-100234990D01*
X130413930Y-100234990D01*
X130382009Y-100231846D01*
X130350088Y-100234990D01*
X130350078Y-100234990D01*
X130254588Y-100244395D01*
X130132062Y-100281563D01*
X130019142Y-100341920D01*
X130019140Y-100341921D01*
X130019141Y-100341921D01*
X129944969Y-100402792D01*
X129944967Y-100402794D01*
X129920167Y-100423147D01*
X129899814Y-100447947D01*
X128848957Y-101498805D01*
X128824158Y-101519157D01*
X128803805Y-101543957D01*
X128803802Y-101543960D01*
X128742930Y-101618132D01*
X128682573Y-101731053D01*
X128663519Y-101793867D01*
X128645406Y-101853578D01*
X128637041Y-101938514D01*
X128632856Y-101981000D01*
X128636001Y-102012931D01*
X128636000Y-104997078D01*
X128632856Y-105029000D01*
X128636000Y-105060921D01*
X128636000Y-105060931D01*
X128645405Y-105156421D01*
X128665337Y-105222127D01*
X128682573Y-105278947D01*
X128742930Y-105391868D01*
X128781558Y-105438936D01*
X128824157Y-105490843D01*
X128848962Y-105511200D01*
X129017762Y-105680000D01*
X128963304Y-105734457D01*
X128923132Y-105755930D01*
X128824157Y-105837157D01*
X128742930Y-105936132D01*
X128682573Y-106049052D01*
X128645405Y-106171578D01*
X128632855Y-106299000D01*
X128636001Y-106330942D01*
X128636000Y-114394078D01*
X128632856Y-114426000D01*
X128636000Y-114457921D01*
X128636000Y-114457931D01*
X128645405Y-114553421D01*
X128668016Y-114627958D01*
X128682573Y-114675947D01*
X128742930Y-114788868D01*
X128763271Y-114813653D01*
X128824157Y-114887843D01*
X128848962Y-114908200D01*
X128989270Y-115048508D01*
X128814729Y-114931884D01*
X128605443Y-114845194D01*
X128383265Y-114801000D01*
X128156735Y-114801000D01*
X127934557Y-114845194D01*
X127725271Y-114931884D01*
X127536918Y-115057737D01*
X127376737Y-115217918D01*
X127250884Y-115406271D01*
X127164194Y-115615557D01*
X127120000Y-115837735D01*
X126180000Y-115837735D01*
X126180000Y-98857428D01*
X133543283Y-98857428D01*
X133683991Y-99083370D01*
X133969908Y-99239587D01*
X134280807Y-99337024D01*
X134604741Y-99371934D01*
X134929262Y-99342977D01*
X135241897Y-99251266D01*
X135530633Y-99100325D01*
X135556009Y-99083370D01*
X135696717Y-98857428D01*
X134620000Y-97780711D01*
X133543283Y-98857428D01*
X126180000Y-98857428D01*
X126180000Y-97694741D01*
X132958066Y-97694741D01*
X132987023Y-98019262D01*
X133078734Y-98331897D01*
X133229675Y-98620633D01*
X133246630Y-98646009D01*
X133472572Y-98786717D01*
X134549289Y-97710000D01*
X134690711Y-97710000D01*
X135767428Y-98786717D01*
X135993370Y-98646009D01*
X136149587Y-98360092D01*
X136247024Y-98049193D01*
X136281934Y-97725259D01*
X136252977Y-97400738D01*
X136161266Y-97088103D01*
X136010325Y-96799367D01*
X135993370Y-96773991D01*
X135767428Y-96633283D01*
X134690711Y-97710000D01*
X134549289Y-97710000D01*
X133472572Y-96633283D01*
X133246630Y-96773991D01*
X133090413Y-97059908D01*
X132992976Y-97370807D01*
X132958066Y-97694741D01*
X126180000Y-97694741D01*
X126180000Y-96562572D01*
X133543283Y-96562572D01*
X134620000Y-97639289D01*
X135696717Y-96562572D01*
X135556009Y-96336630D01*
X135270092Y-96180413D01*
X134959193Y-96082976D01*
X134635259Y-96048066D01*
X134310738Y-96077023D01*
X133998103Y-96168734D01*
X133709367Y-96319675D01*
X133683991Y-96336630D01*
X133543283Y-96562572D01*
X126180000Y-96562572D01*
X126180000Y-88138000D01*
X129304194Y-88138000D01*
X129327363Y-88373241D01*
X129395981Y-88599442D01*
X129507409Y-88807910D01*
X129657366Y-88990634D01*
X129840090Y-89140591D01*
X130048558Y-89252019D01*
X130274759Y-89320637D01*
X130451050Y-89338000D01*
X131168950Y-89338000D01*
X131345241Y-89320637D01*
X131571442Y-89252019D01*
X131779910Y-89140591D01*
X131962634Y-88990634D01*
X132112591Y-88807910D01*
X132123233Y-88788000D01*
X133207762Y-88788000D01*
X133970001Y-89550240D01*
X133970000Y-91008065D01*
X133320000Y-91008065D01*
X133241586Y-91015788D01*
X133166186Y-91038660D01*
X133096697Y-91075803D01*
X133035789Y-91125789D01*
X132985803Y-91186697D01*
X132948660Y-91256186D01*
X132925788Y-91331586D01*
X132918065Y-91410000D01*
X132918065Y-94010000D01*
X132925788Y-94088414D01*
X132948660Y-94163814D01*
X132985803Y-94233303D01*
X133035789Y-94294211D01*
X133096697Y-94344197D01*
X133166186Y-94381340D01*
X133241586Y-94404212D01*
X133320000Y-94411935D01*
X135920000Y-94411935D01*
X135998414Y-94404212D01*
X136073814Y-94381340D01*
X136143303Y-94344197D01*
X136204211Y-94294211D01*
X136254197Y-94233303D01*
X136291340Y-94163814D01*
X136314212Y-94088414D01*
X136321935Y-94010000D01*
X136321935Y-91410000D01*
X136314212Y-91331586D01*
X136291340Y-91256186D01*
X136254197Y-91186697D01*
X136204211Y-91125789D01*
X136143303Y-91075803D01*
X136073814Y-91038660D01*
X135998414Y-91015788D01*
X135920000Y-91008065D01*
X135270000Y-91008065D01*
X135270000Y-89312920D01*
X135273144Y-89280999D01*
X135270000Y-89249078D01*
X135270000Y-89249068D01*
X135260595Y-89153578D01*
X135223427Y-89031052D01*
X135163070Y-88918132D01*
X135081843Y-88819157D01*
X135057043Y-88798804D01*
X134127000Y-87868762D01*
X134127000Y-86194118D01*
X134222634Y-86115634D01*
X134372591Y-85932910D01*
X134484019Y-85724442D01*
X134552637Y-85498240D01*
X134570000Y-85321949D01*
X134570000Y-85013000D01*
X134716000Y-85013000D01*
X134716000Y-85313000D01*
X134747928Y-85537173D01*
X134822977Y-85750810D01*
X134938262Y-85945701D01*
X135089353Y-86114356D01*
X135270444Y-86250294D01*
X135474576Y-86348291D01*
X135640260Y-86393900D01*
X135820000Y-86327326D01*
X135820000Y-85013000D01*
X135920000Y-85013000D01*
X135920000Y-86327326D01*
X136099740Y-86393900D01*
X136265424Y-86348291D01*
X136469556Y-86250294D01*
X136650647Y-86114356D01*
X136801738Y-85945701D01*
X136917023Y-85750810D01*
X136992072Y-85537173D01*
X137024000Y-85313000D01*
X137024000Y-85013000D01*
X135920000Y-85013000D01*
X135820000Y-85013000D01*
X134716000Y-85013000D01*
X134570000Y-85013000D01*
X134570000Y-84604050D01*
X134552637Y-84427759D01*
X134484019Y-84201558D01*
X134372591Y-83993090D01*
X134222634Y-83810366D01*
X134039909Y-83660409D01*
X133831441Y-83548981D01*
X133605240Y-83480363D01*
X133370000Y-83457194D01*
X133134759Y-83480363D01*
X132908558Y-83548981D01*
X132700090Y-83660409D01*
X132517366Y-83810366D01*
X132367409Y-83993091D01*
X132255981Y-84201559D01*
X132187363Y-84427760D01*
X132170000Y-84604051D01*
X132170000Y-85321950D01*
X132187363Y-85498241D01*
X132255981Y-85724442D01*
X132367410Y-85932910D01*
X132517367Y-86115634D01*
X132700091Y-86265591D01*
X132827001Y-86333425D01*
X132827000Y-87488000D01*
X132123233Y-87488000D01*
X132112591Y-87468090D01*
X131962634Y-87285366D01*
X131779910Y-87135409D01*
X131571442Y-87023981D01*
X131345241Y-86955363D01*
X131168950Y-86938000D01*
X130451050Y-86938000D01*
X130274759Y-86955363D01*
X130048558Y-87023981D01*
X129840090Y-87135409D01*
X129657366Y-87285366D01*
X129507409Y-87468090D01*
X129395981Y-87676558D01*
X129327363Y-87902759D01*
X129304194Y-88138000D01*
X126180000Y-88138000D01*
X126180000Y-80530000D01*
X130178065Y-80530000D01*
X130178065Y-82030000D01*
X130185788Y-82108414D01*
X130208660Y-82183814D01*
X130245803Y-82253303D01*
X130295789Y-82314211D01*
X130356697Y-82364197D01*
X130426186Y-82401340D01*
X130501586Y-82424212D01*
X130580000Y-82431935D01*
X133580000Y-82431935D01*
X133658414Y-82424212D01*
X133733814Y-82401340D01*
X133803303Y-82364197D01*
X133864211Y-82314211D01*
X133914197Y-82253303D01*
X133951340Y-82183814D01*
X133974212Y-82108414D01*
X133981935Y-82030000D01*
X133981935Y-80530000D01*
X133974212Y-80451586D01*
X133951340Y-80376186D01*
X133914197Y-80306697D01*
X133864211Y-80245789D01*
X133803303Y-80195803D01*
X133733814Y-80158660D01*
X133658414Y-80135788D01*
X133580000Y-80128065D01*
X130580000Y-80128065D01*
X130501586Y-80135788D01*
X130426186Y-80158660D01*
X130356697Y-80195803D01*
X130295789Y-80245789D01*
X130245803Y-80306697D01*
X130208660Y-80376186D01*
X130185788Y-80451586D01*
X130178065Y-80530000D01*
X126180000Y-80530000D01*
X126180000Y-78740000D01*
X130174436Y-78740000D01*
X130196640Y-78965439D01*
X130262398Y-79182215D01*
X130369184Y-79381997D01*
X130512893Y-79557107D01*
X130688003Y-79700816D01*
X130887785Y-79807602D01*
X131104561Y-79873360D01*
X131273508Y-79890000D01*
X132886492Y-79890000D01*
X133055439Y-79873360D01*
X133272215Y-79807602D01*
X133471997Y-79700816D01*
X133647107Y-79557107D01*
X133790816Y-79381997D01*
X133897602Y-79182215D01*
X133963360Y-78965439D01*
X133985564Y-78740000D01*
X133963360Y-78514561D01*
X133897602Y-78297785D01*
X133790816Y-78098003D01*
X133647107Y-77922893D01*
X133471997Y-77779184D01*
X133272215Y-77672398D01*
X133055439Y-77606640D01*
X132886492Y-77590000D01*
X131273508Y-77590000D01*
X131104561Y-77606640D01*
X130887785Y-77672398D01*
X130688003Y-77779184D01*
X130512893Y-77922893D01*
X130369184Y-78098003D01*
X130262398Y-78297785D01*
X130196640Y-78514561D01*
X130174436Y-78740000D01*
X126180000Y-78740000D01*
X126180000Y-76200000D01*
X130174436Y-76200000D01*
X130196640Y-76425439D01*
X130262398Y-76642215D01*
X130369184Y-76841997D01*
X130512893Y-77017107D01*
X130688003Y-77160816D01*
X130887785Y-77267602D01*
X131104561Y-77333360D01*
X131273508Y-77350000D01*
X132886492Y-77350000D01*
X133055439Y-77333360D01*
X133272215Y-77267602D01*
X133471997Y-77160816D01*
X133647107Y-77017107D01*
X133790816Y-76841997D01*
X133897602Y-76642215D01*
X133963360Y-76425439D01*
X133985564Y-76200000D01*
X133963360Y-75974561D01*
X133897602Y-75757785D01*
X133790816Y-75558003D01*
X133647107Y-75382893D01*
X133471997Y-75239184D01*
X133272215Y-75132398D01*
X133055439Y-75066640D01*
X132886492Y-75050000D01*
X131273508Y-75050000D01*
X131104561Y-75066640D01*
X130887785Y-75132398D01*
X130688003Y-75239184D01*
X130512893Y-75382893D01*
X130369184Y-75558003D01*
X130262398Y-75757785D01*
X130196640Y-75974561D01*
X130174436Y-76200000D01*
X126180000Y-76200000D01*
X126180000Y-74562735D01*
X127120000Y-74562735D01*
X127120000Y-74789265D01*
X127164194Y-75011443D01*
X127250884Y-75220729D01*
X127376737Y-75409082D01*
X127536918Y-75569263D01*
X127725271Y-75695116D01*
X127934557Y-75781806D01*
X128156735Y-75826000D01*
X128383265Y-75826000D01*
X128605443Y-75781806D01*
X128814729Y-75695116D01*
X129003082Y-75569263D01*
X129163263Y-75409082D01*
X129289116Y-75220729D01*
X129375806Y-75011443D01*
X129420000Y-74789265D01*
X129420000Y-74562735D01*
X129375806Y-74340557D01*
X129289116Y-74131271D01*
X129163263Y-73942918D01*
X129003082Y-73782737D01*
X128814729Y-73656884D01*
X128605443Y-73570194D01*
X128383265Y-73526000D01*
X128156735Y-73526000D01*
X127934557Y-73570194D01*
X127725271Y-73656884D01*
X127536918Y-73782737D01*
X127376737Y-73942918D01*
X127250884Y-74131271D01*
X127164194Y-74340557D01*
X127120000Y-74562735D01*
X126180000Y-74562735D01*
X126180000Y-73936005D01*
X126202570Y-73705816D01*
X126263033Y-73505553D01*
X126361242Y-73320849D01*
X126493450Y-73158745D01*
X126654634Y-73025403D01*
X126838643Y-72925909D01*
X127038477Y-72864050D01*
X127267297Y-72840000D01*
X173713995Y-72840000D01*
X173944184Y-72862570D01*
G37*
%TD.AperFunction*%
%TD*%
M02*
