%TF.GenerationSoftware,KiCad,Pcbnew,5.1.12-84ad8e8a86~92~ubuntu20.04.1*%
%TF.CreationDate,2022-07-02T20:29:17-03:00*%
%TF.ProjectId,ppl-01,70706c2d-3031-42e6-9b69-6361645f7063,01.1.1*%
%TF.SameCoordinates,Original*%
%TF.FileFunction,Legend,Top*%
%TF.FilePolarity,Positive*%
%FSLAX46Y46*%
G04 Gerber Fmt 4.6, Leading zero omitted, Abs format (unit mm)*
G04 Created by KiCad (PCBNEW 5.1.12-84ad8e8a86~92~ubuntu20.04.1) date 2022-07-02 20:29:17*
%MOMM*%
%LPD*%
G01*
G04 APERTURE LIST*
%ADD10C,0.100000*%
%ADD11C,0.120000*%
%ADD12C,0.150000*%
%TA.AperFunction,Profile*%
%ADD13C,0.100000*%
%TD*%
%ADD14C,0.200000*%
%ADD15C,0.250000*%
%ADD16C,0.002540*%
G04 APERTURE END LIST*
D10*
X127107904Y-77920714D02*
X126307904Y-77920714D01*
X126879333Y-77654047D01*
X126307904Y-77387380D01*
X127107904Y-77387380D01*
X126688857Y-77006428D02*
X126688857Y-76739761D01*
X127107904Y-76625476D02*
X127107904Y-77006428D01*
X126307904Y-77006428D01*
X126307904Y-76625476D01*
X127107904Y-76282619D02*
X126307904Y-76282619D01*
X126879333Y-76015952D01*
X126307904Y-75749285D01*
X127107904Y-75749285D01*
X127107904Y-82397380D02*
X126307904Y-82397380D01*
X126307904Y-82092619D01*
X126346000Y-82016428D01*
X126384095Y-81978333D01*
X126460285Y-81940238D01*
X126574571Y-81940238D01*
X126650761Y-81978333D01*
X126688857Y-82016428D01*
X126726952Y-82092619D01*
X126726952Y-82397380D01*
X126307904Y-81597380D02*
X126955523Y-81597380D01*
X127031714Y-81559285D01*
X127069809Y-81521190D01*
X127107904Y-81445000D01*
X127107904Y-81292619D01*
X127069809Y-81216428D01*
X127031714Y-81178333D01*
X126955523Y-81140238D01*
X126307904Y-81140238D01*
X127107904Y-80378333D02*
X127107904Y-80759285D01*
X126307904Y-80759285D01*
X127069809Y-80149761D02*
X127107904Y-80035476D01*
X127107904Y-79845000D01*
X127069809Y-79768809D01*
X127031714Y-79730714D01*
X126955523Y-79692619D01*
X126879333Y-79692619D01*
X126803142Y-79730714D01*
X126765047Y-79768809D01*
X126726952Y-79845000D01*
X126688857Y-79997380D01*
X126650761Y-80073571D01*
X126612666Y-80111666D01*
X126536476Y-80149761D01*
X126460285Y-80149761D01*
X126384095Y-80111666D01*
X126346000Y-80073571D01*
X126307904Y-79997380D01*
X126307904Y-79806904D01*
X126346000Y-79692619D01*
X126307904Y-79197380D02*
X126307904Y-79045000D01*
X126346000Y-78968809D01*
X126422190Y-78892619D01*
X126574571Y-78854523D01*
X126841238Y-78854523D01*
X126993619Y-78892619D01*
X127069809Y-78968809D01*
X127107904Y-79045000D01*
X127107904Y-79197380D01*
X127069809Y-79273571D01*
X126993619Y-79349761D01*
X126841238Y-79387857D01*
X126574571Y-79387857D01*
X126422190Y-79349761D01*
X126346000Y-79273571D01*
X126307904Y-79197380D01*
D11*
X162926666Y-95773809D02*
X162926666Y-96011904D01*
X162226666Y-96011904D01*
X162926666Y-95535714D02*
X162893333Y-95583333D01*
X162860000Y-95607142D01*
X162793333Y-95630952D01*
X162593333Y-95630952D01*
X162526666Y-95607142D01*
X162493333Y-95583333D01*
X162460000Y-95535714D01*
X162460000Y-95464285D01*
X162493333Y-95416666D01*
X162526666Y-95392857D01*
X162593333Y-95369047D01*
X162793333Y-95369047D01*
X162860000Y-95392857D01*
X162893333Y-95416666D01*
X162926666Y-95464285D01*
X162926666Y-95535714D01*
X162460000Y-94940476D02*
X163026666Y-94940476D01*
X163093333Y-94964285D01*
X163126666Y-94988095D01*
X163160000Y-95035714D01*
X163160000Y-95107142D01*
X163126666Y-95154761D01*
X162893333Y-94940476D02*
X162926666Y-94988095D01*
X162926666Y-95083333D01*
X162893333Y-95130952D01*
X162860000Y-95154761D01*
X162793333Y-95178571D01*
X162593333Y-95178571D01*
X162526666Y-95154761D01*
X162493333Y-95130952D01*
X162460000Y-95083333D01*
X162460000Y-94988095D01*
X162493333Y-94940476D01*
X162926666Y-94630952D02*
X162893333Y-94678571D01*
X162860000Y-94702380D01*
X162793333Y-94726190D01*
X162593333Y-94726190D01*
X162526666Y-94702380D01*
X162493333Y-94678571D01*
X162460000Y-94630952D01*
X162460000Y-94559523D01*
X162493333Y-94511904D01*
X162526666Y-94488095D01*
X162593333Y-94464285D01*
X162793333Y-94464285D01*
X162860000Y-94488095D01*
X162893333Y-94511904D01*
X162926666Y-94559523D01*
X162926666Y-94630952D01*
X163896666Y-96357142D02*
X163896666Y-96119047D01*
X164096666Y-96404761D02*
X163396666Y-96238095D01*
X164096666Y-96071428D01*
X164096666Y-95833333D02*
X164063333Y-95880952D01*
X163996666Y-95904761D01*
X163396666Y-95904761D01*
X163630000Y-95714285D02*
X163630000Y-95523809D01*
X163396666Y-95642857D02*
X163996666Y-95642857D01*
X164063333Y-95619047D01*
X164096666Y-95571428D01*
X164096666Y-95523809D01*
X164063333Y-95166666D02*
X164096666Y-95214285D01*
X164096666Y-95309523D01*
X164063333Y-95357142D01*
X163996666Y-95380952D01*
X163730000Y-95380952D01*
X163663333Y-95357142D01*
X163630000Y-95309523D01*
X163630000Y-95214285D01*
X163663333Y-95166666D01*
X163730000Y-95142857D01*
X163796666Y-95142857D01*
X163863333Y-95380952D01*
X164096666Y-94928571D02*
X163630000Y-94928571D01*
X163763333Y-94928571D02*
X163696666Y-94904761D01*
X163663333Y-94880952D01*
X163630000Y-94833333D01*
X163630000Y-94785714D01*
X163630000Y-94619047D02*
X164096666Y-94619047D01*
X163696666Y-94619047D02*
X163663333Y-94595238D01*
X163630000Y-94547619D01*
X163630000Y-94476190D01*
X163663333Y-94428571D01*
X163730000Y-94404761D01*
X164096666Y-94404761D01*
X164030000Y-94166666D02*
X164063333Y-94142857D01*
X164096666Y-94166666D01*
X164063333Y-94190476D01*
X164030000Y-94166666D01*
X164096666Y-94166666D01*
D12*
X164719000Y-93726000D02*
X161671000Y-93726000D01*
X164719000Y-96774000D02*
X164719000Y-93726000D01*
X161671000Y-96774000D02*
X164719000Y-96774000D01*
X161671000Y-93726000D02*
X161671000Y-96774000D01*
X129413000Y-77470000D02*
X127508000Y-77470000D01*
X129413000Y-78105000D02*
X129413000Y-75565000D01*
X127508000Y-76200000D02*
X129413000Y-76200000D01*
X127508000Y-77470000D02*
X127508000Y-76200000D01*
X129413000Y-81280000D02*
X128778000Y-81280000D01*
X129413000Y-81915000D02*
X129413000Y-79375000D01*
X128778000Y-81280000D02*
X128778000Y-80010000D01*
X128778000Y-80010000D02*
X129413000Y-80010000D01*
X174244000Y-78105000D02*
X174244000Y-75565000D01*
X174244000Y-77470000D02*
X172339000Y-77470000D01*
X172339000Y-77470000D02*
X172339000Y-76200000D01*
X172339000Y-76200000D02*
X174244000Y-76200000D01*
D10*
X171862714Y-77844523D02*
X171900809Y-77882619D01*
X171938904Y-77996904D01*
X171938904Y-78073095D01*
X171900809Y-78187380D01*
X171824619Y-78263571D01*
X171748428Y-78301666D01*
X171596047Y-78339761D01*
X171481761Y-78339761D01*
X171329380Y-78301666D01*
X171253190Y-78263571D01*
X171177000Y-78187380D01*
X171138904Y-78073095D01*
X171138904Y-77996904D01*
X171177000Y-77882619D01*
X171215095Y-77844523D01*
X171938904Y-77501666D02*
X171138904Y-77501666D01*
X171710333Y-77235000D01*
X171138904Y-76968333D01*
X171938904Y-76968333D01*
X171138904Y-76435000D02*
X171138904Y-76282619D01*
X171177000Y-76206428D01*
X171253190Y-76130238D01*
X171405571Y-76092142D01*
X171672238Y-76092142D01*
X171824619Y-76130238D01*
X171900809Y-76206428D01*
X171938904Y-76282619D01*
X171938904Y-76435000D01*
X171900809Y-76511190D01*
X171824619Y-76587380D01*
X171672238Y-76625476D01*
X171405571Y-76625476D01*
X171253190Y-76587380D01*
X171177000Y-76511190D01*
X171138904Y-76435000D01*
X171900809Y-75787380D02*
X171938904Y-75673095D01*
X171938904Y-75482619D01*
X171900809Y-75406428D01*
X171862714Y-75368333D01*
X171786523Y-75330238D01*
X171710333Y-75330238D01*
X171634142Y-75368333D01*
X171596047Y-75406428D01*
X171557952Y-75482619D01*
X171519857Y-75635000D01*
X171481761Y-75711190D01*
X171443666Y-75749285D01*
X171367476Y-75787380D01*
X171291285Y-75787380D01*
X171215095Y-75749285D01*
X171177000Y-75711190D01*
X171138904Y-75635000D01*
X171138904Y-75444523D01*
X171177000Y-75330238D01*
D12*
X174244000Y-81915000D02*
X174244000Y-79375000D01*
X174244000Y-81280000D02*
X173609000Y-81280000D01*
X173609000Y-81280000D02*
X173609000Y-80010000D01*
X173609000Y-80010000D02*
X174244000Y-80010000D01*
D10*
X171138904Y-81502142D02*
X171138904Y-81045000D01*
X171938904Y-81273571D02*
X171138904Y-81273571D01*
X171138904Y-80892619D02*
X171138904Y-80435476D01*
X171938904Y-80664047D02*
X171138904Y-80664047D01*
X171938904Y-79787857D02*
X171938904Y-80168809D01*
X171138904Y-80168809D01*
D12*
X156083000Y-72898000D02*
X161417000Y-72898000D01*
D10*
X156460000Y-76503380D02*
X156493333Y-76541476D01*
X156526666Y-76655761D01*
X156526666Y-76731952D01*
X156493333Y-76846238D01*
X156426666Y-76922428D01*
X156360000Y-76960523D01*
X156226666Y-76998619D01*
X156126666Y-76998619D01*
X155993333Y-76960523D01*
X155926666Y-76922428D01*
X155860000Y-76846238D01*
X155826666Y-76731952D01*
X155826666Y-76655761D01*
X155860000Y-76541476D01*
X155893333Y-76503380D01*
X156526666Y-76160523D02*
X155826666Y-76160523D01*
X156326666Y-75893857D01*
X155826666Y-75627190D01*
X156526666Y-75627190D01*
X155826666Y-75093857D02*
X155826666Y-74941476D01*
X155860000Y-74865285D01*
X155926666Y-74789095D01*
X156060000Y-74751000D01*
X156293333Y-74751000D01*
X156426666Y-74789095D01*
X156493333Y-74865285D01*
X156526666Y-74941476D01*
X156526666Y-75093857D01*
X156493333Y-75170047D01*
X156426666Y-75246238D01*
X156293333Y-75284333D01*
X156060000Y-75284333D01*
X155926666Y-75246238D01*
X155860000Y-75170047D01*
X155826666Y-75093857D01*
X156493333Y-74446238D02*
X156526666Y-74331952D01*
X156526666Y-74141476D01*
X156493333Y-74065285D01*
X156460000Y-74027190D01*
X156393333Y-73989095D01*
X156326666Y-73989095D01*
X156260000Y-74027190D01*
X156226666Y-74065285D01*
X156193333Y-74141476D01*
X156160000Y-74293857D01*
X156126666Y-74370047D01*
X156093333Y-74408142D01*
X156026666Y-74446238D01*
X155960000Y-74446238D01*
X155893333Y-74408142D01*
X155860000Y-74370047D01*
X155826666Y-74293857D01*
X155826666Y-74103380D01*
X155860000Y-73989095D01*
X159549000Y-77584047D02*
X159749000Y-76974523D01*
X159949000Y-77584047D01*
X159749000Y-76593571D02*
X159715666Y-76555476D01*
X159682333Y-76441190D01*
X159715666Y-76326904D01*
X159782333Y-76250714D01*
X159815666Y-76136428D01*
X159782333Y-76022142D01*
X159749000Y-75984047D01*
X159315666Y-75679285D02*
X159315666Y-75145952D01*
X160015666Y-75488809D01*
X159315666Y-74460238D02*
X159315666Y-74841190D01*
X159649000Y-74879285D01*
X159615666Y-74841190D01*
X159582333Y-74765000D01*
X159582333Y-74574523D01*
X159615666Y-74498333D01*
X159649000Y-74460238D01*
X159715666Y-74422142D01*
X159882333Y-74422142D01*
X159949000Y-74460238D01*
X159982333Y-74498333D01*
X160015666Y-74574523D01*
X160015666Y-74765000D01*
X159982333Y-74841190D01*
X159949000Y-74879285D01*
X160015666Y-74117380D02*
X159315666Y-73507857D01*
X159315666Y-74003095D02*
X159349000Y-73926904D01*
X159415666Y-73888809D01*
X159482333Y-73926904D01*
X159515666Y-74003095D01*
X159482333Y-74079285D01*
X159415666Y-74117380D01*
X159349000Y-74079285D01*
X159315666Y-74003095D01*
X159982333Y-73545952D02*
X159915666Y-73507857D01*
X159849000Y-73545952D01*
X159815666Y-73622142D01*
X159849000Y-73698333D01*
X159915666Y-73736428D01*
X159982333Y-73698333D01*
X160015666Y-73622142D01*
X159982333Y-73545952D01*
X161165666Y-77222142D02*
X160699000Y-76803095D01*
X160699000Y-77222142D02*
X161165666Y-76803095D01*
X160465666Y-76003095D02*
X161165666Y-75736428D01*
X160465666Y-75469761D01*
X161099000Y-74745952D02*
X161132333Y-74784047D01*
X161165666Y-74898333D01*
X161165666Y-74974523D01*
X161132333Y-75088809D01*
X161065666Y-75165000D01*
X160999000Y-75203095D01*
X160865666Y-75241190D01*
X160765666Y-75241190D01*
X160632333Y-75203095D01*
X160565666Y-75165000D01*
X160499000Y-75088809D01*
X160465666Y-74974523D01*
X160465666Y-74898333D01*
X160499000Y-74784047D01*
X160532333Y-74745952D01*
X161099000Y-73945952D02*
X161132333Y-73984047D01*
X161165666Y-74098333D01*
X161165666Y-74174523D01*
X161132333Y-74288809D01*
X161065666Y-74365000D01*
X160999000Y-74403095D01*
X160865666Y-74441190D01*
X160765666Y-74441190D01*
X160632333Y-74403095D01*
X160565666Y-74365000D01*
X160499000Y-74288809D01*
X160465666Y-74174523D01*
X160465666Y-74098333D01*
X160499000Y-73984047D01*
X160532333Y-73945952D01*
X157263000Y-76974523D02*
X157463000Y-77584047D01*
X157663000Y-76974523D01*
X157463000Y-76593571D02*
X157429666Y-76555476D01*
X157396333Y-76441190D01*
X157429666Y-76326904D01*
X157496333Y-76250714D01*
X157529666Y-76136428D01*
X157496333Y-76022142D01*
X157463000Y-75984047D01*
X157029666Y-75679285D02*
X157029666Y-75184047D01*
X157296333Y-75450714D01*
X157296333Y-75336428D01*
X157329666Y-75260238D01*
X157363000Y-75222142D01*
X157429666Y-75184047D01*
X157596333Y-75184047D01*
X157663000Y-75222142D01*
X157696333Y-75260238D01*
X157729666Y-75336428D01*
X157729666Y-75565000D01*
X157696333Y-75641190D01*
X157663000Y-75679285D01*
X157029666Y-74688809D02*
X157029666Y-74612619D01*
X157063000Y-74536428D01*
X157096333Y-74498333D01*
X157163000Y-74460238D01*
X157296333Y-74422142D01*
X157463000Y-74422142D01*
X157596333Y-74460238D01*
X157663000Y-74498333D01*
X157696333Y-74536428D01*
X157729666Y-74612619D01*
X157729666Y-74688809D01*
X157696333Y-74765000D01*
X157663000Y-74803095D01*
X157596333Y-74841190D01*
X157463000Y-74879285D01*
X157296333Y-74879285D01*
X157163000Y-74841190D01*
X157096333Y-74803095D01*
X157063000Y-74765000D01*
X157029666Y-74688809D01*
X157729666Y-74117380D02*
X157029666Y-73507857D01*
X157029666Y-74003095D02*
X157063000Y-73926904D01*
X157129666Y-73888809D01*
X157196333Y-73926904D01*
X157229666Y-74003095D01*
X157196333Y-74079285D01*
X157129666Y-74117380D01*
X157063000Y-74079285D01*
X157029666Y-74003095D01*
X157696333Y-73545952D02*
X157629666Y-73507857D01*
X157563000Y-73545952D01*
X157529666Y-73622142D01*
X157563000Y-73698333D01*
X157629666Y-73736428D01*
X157696333Y-73698333D01*
X157729666Y-73622142D01*
X157696333Y-73545952D01*
X158879666Y-77222142D02*
X158413000Y-76803095D01*
X158413000Y-77222142D02*
X158879666Y-76803095D01*
X158179666Y-76003095D02*
X158879666Y-75736428D01*
X158179666Y-75469761D01*
X158813000Y-74745952D02*
X158846333Y-74784047D01*
X158879666Y-74898333D01*
X158879666Y-74974523D01*
X158846333Y-75088809D01*
X158779666Y-75165000D01*
X158713000Y-75203095D01*
X158579666Y-75241190D01*
X158479666Y-75241190D01*
X158346333Y-75203095D01*
X158279666Y-75165000D01*
X158213000Y-75088809D01*
X158179666Y-74974523D01*
X158179666Y-74898333D01*
X158213000Y-74784047D01*
X158246333Y-74745952D01*
X158813000Y-73945952D02*
X158846333Y-73984047D01*
X158879666Y-74098333D01*
X158879666Y-74174523D01*
X158846333Y-74288809D01*
X158779666Y-74365000D01*
X158713000Y-74403095D01*
X158579666Y-74441190D01*
X158479666Y-74441190D01*
X158346333Y-74403095D01*
X158279666Y-74365000D01*
X158213000Y-74288809D01*
X158179666Y-74174523D01*
X158179666Y-74098333D01*
X158213000Y-73984047D01*
X158246333Y-73945952D01*
D12*
X156083000Y-78232000D02*
X161417000Y-78232000D01*
D10*
X160635904Y-83907476D02*
X160635904Y-84364619D01*
X160635904Y-84136047D02*
X159835904Y-84136047D01*
X159950190Y-84212238D01*
X160026380Y-84288428D01*
X160064476Y-84364619D01*
D12*
X161417000Y-84455000D02*
X161417000Y-72898000D01*
D10*
X159549000Y-82410142D02*
X159749000Y-81800619D01*
X159949000Y-82410142D01*
X159382333Y-81457761D02*
X159349000Y-81419666D01*
X159315666Y-81343476D01*
X159315666Y-81153000D01*
X159349000Y-81076809D01*
X159382333Y-81038714D01*
X159449000Y-81000619D01*
X159515666Y-81000619D01*
X159615666Y-81038714D01*
X160015666Y-81495857D01*
X160015666Y-81000619D01*
X159982333Y-80619666D02*
X160015666Y-80619666D01*
X160082333Y-80657761D01*
X160115666Y-80695857D01*
X159315666Y-80124428D02*
X159315666Y-80048238D01*
X159349000Y-79972047D01*
X159382333Y-79933952D01*
X159449000Y-79895857D01*
X159582333Y-79857761D01*
X159749000Y-79857761D01*
X159882333Y-79895857D01*
X159949000Y-79933952D01*
X159982333Y-79972047D01*
X160015666Y-80048238D01*
X160015666Y-80124428D01*
X159982333Y-80200619D01*
X159949000Y-80238714D01*
X159882333Y-80276809D01*
X159749000Y-80314904D01*
X159582333Y-80314904D01*
X159449000Y-80276809D01*
X159382333Y-80238714D01*
X159349000Y-80200619D01*
X159315666Y-80124428D01*
X160832333Y-82010142D02*
X160799000Y-82048238D01*
X160765666Y-82124428D01*
X160765666Y-82200619D01*
X160799000Y-82276809D01*
X160832333Y-82314904D01*
X160899000Y-82353000D01*
X160965666Y-82353000D01*
X161032333Y-82314904D01*
X161065666Y-82276809D01*
X161099000Y-82200619D01*
X161099000Y-82124428D01*
X161065666Y-82048238D01*
X161032333Y-82010142D01*
X160765666Y-82010142D02*
X161032333Y-82010142D01*
X161065666Y-81972047D01*
X161065666Y-81933952D01*
X161032333Y-81857761D01*
X160965666Y-81819666D01*
X160799000Y-81819666D01*
X160699000Y-81895857D01*
X160632333Y-82010142D01*
X160599000Y-82162523D01*
X160632333Y-82314904D01*
X160699000Y-82429190D01*
X160799000Y-82505380D01*
X160932333Y-82543476D01*
X161065666Y-82505380D01*
X161165666Y-82429190D01*
X161232333Y-82314904D01*
X161265666Y-82162523D01*
X161232333Y-82010142D01*
X161165666Y-81895857D01*
X160465666Y-80486333D02*
X160465666Y-80867285D01*
X160799000Y-80905380D01*
X160765666Y-80867285D01*
X160732333Y-80791095D01*
X160732333Y-80600619D01*
X160765666Y-80524428D01*
X160799000Y-80486333D01*
X160865666Y-80448238D01*
X161032333Y-80448238D01*
X161099000Y-80486333D01*
X161132333Y-80524428D01*
X161165666Y-80600619D01*
X161165666Y-80791095D01*
X161132333Y-80867285D01*
X161099000Y-80905380D01*
X160465666Y-80219666D02*
X161165666Y-79953000D01*
X160465666Y-79686333D01*
D12*
X159131000Y-84455000D02*
X159131000Y-72898000D01*
X156845000Y-84455000D02*
X156845000Y-72898000D01*
X156083000Y-83566000D02*
X161417000Y-83566000D01*
D10*
X157263000Y-82143476D02*
X157463000Y-82753000D01*
X157663000Y-82143476D01*
X157029666Y-81610142D02*
X157029666Y-81533952D01*
X157063000Y-81457761D01*
X157096333Y-81419666D01*
X157163000Y-81381571D01*
X157296333Y-81343476D01*
X157463000Y-81343476D01*
X157596333Y-81381571D01*
X157663000Y-81419666D01*
X157696333Y-81457761D01*
X157729666Y-81533952D01*
X157729666Y-81610142D01*
X157696333Y-81686333D01*
X157663000Y-81724428D01*
X157596333Y-81762523D01*
X157463000Y-81800619D01*
X157296333Y-81800619D01*
X157163000Y-81762523D01*
X157096333Y-81724428D01*
X157063000Y-81686333D01*
X157029666Y-81610142D01*
X157696333Y-80962523D02*
X157729666Y-80962523D01*
X157796333Y-81000619D01*
X157829666Y-81038714D01*
X157329666Y-80505380D02*
X157296333Y-80581571D01*
X157263000Y-80619666D01*
X157196333Y-80657761D01*
X157163000Y-80657761D01*
X157096333Y-80619666D01*
X157063000Y-80581571D01*
X157029666Y-80505380D01*
X157029666Y-80353000D01*
X157063000Y-80276809D01*
X157096333Y-80238714D01*
X157163000Y-80200619D01*
X157196333Y-80200619D01*
X157263000Y-80238714D01*
X157296333Y-80276809D01*
X157329666Y-80353000D01*
X157329666Y-80505380D01*
X157363000Y-80581571D01*
X157396333Y-80619666D01*
X157463000Y-80657761D01*
X157596333Y-80657761D01*
X157663000Y-80619666D01*
X157696333Y-80581571D01*
X157729666Y-80505380D01*
X157729666Y-80353000D01*
X157696333Y-80276809D01*
X157663000Y-80238714D01*
X157596333Y-80200619D01*
X157463000Y-80200619D01*
X157396333Y-80238714D01*
X157363000Y-80276809D01*
X157329666Y-80353000D01*
X157029666Y-79972047D02*
X157729666Y-79705380D01*
X157029666Y-79438714D01*
X158546333Y-82010142D02*
X158513000Y-82048238D01*
X158479666Y-82124428D01*
X158479666Y-82200619D01*
X158513000Y-82276809D01*
X158546333Y-82314904D01*
X158613000Y-82353000D01*
X158679666Y-82353000D01*
X158746333Y-82314904D01*
X158779666Y-82276809D01*
X158813000Y-82200619D01*
X158813000Y-82124428D01*
X158779666Y-82048238D01*
X158746333Y-82010142D01*
X158479666Y-82010142D02*
X158746333Y-82010142D01*
X158779666Y-81972047D01*
X158779666Y-81933952D01*
X158746333Y-81857761D01*
X158679666Y-81819666D01*
X158513000Y-81819666D01*
X158413000Y-81895857D01*
X158346333Y-82010142D01*
X158313000Y-82162523D01*
X158346333Y-82314904D01*
X158413000Y-82429190D01*
X158513000Y-82505380D01*
X158646333Y-82543476D01*
X158779666Y-82505380D01*
X158879666Y-82429190D01*
X158946333Y-82314904D01*
X158979666Y-82162523D01*
X158946333Y-82010142D01*
X158879666Y-81895857D01*
X158179666Y-80486333D02*
X158179666Y-80867285D01*
X158513000Y-80905380D01*
X158479666Y-80867285D01*
X158446333Y-80791095D01*
X158446333Y-80600619D01*
X158479666Y-80524428D01*
X158513000Y-80486333D01*
X158579666Y-80448238D01*
X158746333Y-80448238D01*
X158813000Y-80486333D01*
X158846333Y-80524428D01*
X158879666Y-80600619D01*
X158879666Y-80791095D01*
X158846333Y-80867285D01*
X158813000Y-80905380D01*
X158179666Y-80219666D02*
X158879666Y-79953000D01*
X158179666Y-79686333D01*
X157549904Y-84174142D02*
X157549904Y-84097952D01*
X157588000Y-84021761D01*
X157626095Y-83983666D01*
X157702285Y-83945571D01*
X157854666Y-83907476D01*
X158045142Y-83907476D01*
X158197523Y-83945571D01*
X158273714Y-83983666D01*
X158311809Y-84021761D01*
X158349904Y-84097952D01*
X158349904Y-84174142D01*
X158311809Y-84250333D01*
X158273714Y-84288428D01*
X158197523Y-84326523D01*
X158045142Y-84364619D01*
X157854666Y-84364619D01*
X157702285Y-84326523D01*
X157626095Y-84288428D01*
X157588000Y-84250333D01*
X157549904Y-84174142D01*
X155826666Y-81773809D02*
X155826666Y-81316666D01*
X156526666Y-81545238D02*
X155826666Y-81545238D01*
X155826666Y-81164285D02*
X155826666Y-80707142D01*
X156526666Y-80935714D02*
X155826666Y-80935714D01*
X156526666Y-80059523D02*
X156526666Y-80440476D01*
X155826666Y-80440476D01*
D13*
X173736000Y-72390000D02*
G75*
G02*
X175260000Y-73914000I0J-1524000D01*
G01*
X175260000Y-116586000D02*
G75*
G02*
X173736000Y-118110000I-1524000J0D01*
G01*
X175260000Y-116586000D02*
X175260000Y-73914000D01*
D10*
X165366142Y-117402523D02*
X164999476Y-117077761D01*
X164737571Y-117402523D02*
X164737571Y-116720523D01*
X165156619Y-116720523D01*
X165261380Y-116753000D01*
X165313761Y-116785476D01*
X165366142Y-116850428D01*
X165366142Y-116947857D01*
X165313761Y-117012809D01*
X165261380Y-117045285D01*
X165156619Y-117077761D01*
X164737571Y-117077761D01*
X166256619Y-117370047D02*
X166151857Y-117402523D01*
X165942333Y-117402523D01*
X165837571Y-117370047D01*
X165785190Y-117305095D01*
X165785190Y-117045285D01*
X165837571Y-116980333D01*
X165942333Y-116947857D01*
X166151857Y-116947857D01*
X166256619Y-116980333D01*
X166309000Y-117045285D01*
X166309000Y-117110238D01*
X165785190Y-117175190D01*
X166675666Y-116947857D02*
X166937571Y-117402523D01*
X167199476Y-116947857D01*
X167618523Y-117337571D02*
X167670904Y-117370047D01*
X167618523Y-117402523D01*
X167566142Y-117370047D01*
X167618523Y-117337571D01*
X167618523Y-117402523D01*
X169556619Y-117402523D02*
X168928047Y-117402523D01*
X169242333Y-117402523D02*
X169242333Y-116720523D01*
X169137571Y-116817952D01*
X169032809Y-116882904D01*
X168928047Y-116915380D01*
X170028047Y-117337571D02*
X170080428Y-117370047D01*
X170028047Y-117402523D01*
X169975666Y-117370047D01*
X170028047Y-117337571D01*
X170028047Y-117402523D01*
X171128047Y-117402523D02*
X170499476Y-117402523D01*
X170813761Y-117402523D02*
X170813761Y-116720523D01*
X170709000Y-116817952D01*
X170604238Y-116882904D01*
X170499476Y-116915380D01*
X171599476Y-117337571D02*
X171651857Y-117370047D01*
X171599476Y-117402523D01*
X171547095Y-117370047D01*
X171599476Y-117337571D01*
X171599476Y-117402523D01*
X172699476Y-117402523D02*
X172070904Y-117402523D01*
X172385190Y-117402523D02*
X172385190Y-116720523D01*
X172280428Y-116817952D01*
X172175666Y-116882904D01*
X172070904Y-116915380D01*
X174487571Y-115624095D02*
X174520047Y-115571714D01*
X174552523Y-115624095D01*
X174520047Y-115676476D01*
X174487571Y-115624095D01*
X174552523Y-115624095D01*
X174487571Y-115100285D02*
X174520047Y-115047904D01*
X174552523Y-115100285D01*
X174520047Y-115152666D01*
X174487571Y-115100285D01*
X174552523Y-115100285D01*
X174487571Y-114576476D02*
X174520047Y-114524095D01*
X174552523Y-114576476D01*
X174520047Y-114628857D01*
X174487571Y-114576476D01*
X174552523Y-114576476D01*
X174487571Y-114052666D02*
X174520047Y-114000285D01*
X174552523Y-114052666D01*
X174520047Y-114105047D01*
X174487571Y-114052666D01*
X174552523Y-114052666D01*
X174487571Y-113528857D02*
X174520047Y-113476476D01*
X174552523Y-113528857D01*
X174520047Y-113581238D01*
X174487571Y-113528857D01*
X174552523Y-113528857D01*
X174487571Y-113005047D02*
X174520047Y-112952666D01*
X174552523Y-113005047D01*
X174520047Y-113057428D01*
X174487571Y-113005047D01*
X174552523Y-113005047D01*
X174487571Y-112481238D02*
X174520047Y-112428857D01*
X174552523Y-112481238D01*
X174520047Y-112533619D01*
X174487571Y-112481238D01*
X174552523Y-112481238D01*
X174487571Y-111957428D02*
X174520047Y-111905047D01*
X174552523Y-111957428D01*
X174520047Y-112009809D01*
X174487571Y-111957428D01*
X174552523Y-111957428D01*
X174487571Y-111433619D02*
X174520047Y-111381238D01*
X174552523Y-111433619D01*
X174520047Y-111486000D01*
X174487571Y-111433619D01*
X174552523Y-111433619D01*
X174487571Y-110909809D02*
X174520047Y-110857428D01*
X174552523Y-110909809D01*
X174520047Y-110962190D01*
X174487571Y-110909809D01*
X174552523Y-110909809D01*
X174487571Y-110386000D02*
X174520047Y-110333619D01*
X174552523Y-110386000D01*
X174520047Y-110438380D01*
X174487571Y-110386000D01*
X174552523Y-110386000D01*
X174487571Y-109862190D02*
X174520047Y-109809809D01*
X174552523Y-109862190D01*
X174520047Y-109914571D01*
X174487571Y-109862190D01*
X174552523Y-109862190D01*
X174487571Y-109338380D02*
X174520047Y-109286000D01*
X174552523Y-109338380D01*
X174520047Y-109390761D01*
X174487571Y-109338380D01*
X174552523Y-109338380D01*
X174487571Y-108814571D02*
X174520047Y-108762190D01*
X174552523Y-108814571D01*
X174520047Y-108866952D01*
X174487571Y-108814571D01*
X174552523Y-108814571D01*
X174487571Y-108290761D02*
X174520047Y-108238380D01*
X174552523Y-108290761D01*
X174520047Y-108343142D01*
X174487571Y-108290761D01*
X174552523Y-108290761D01*
X174487571Y-107766952D02*
X174520047Y-107714571D01*
X174552523Y-107766952D01*
X174520047Y-107819333D01*
X174487571Y-107766952D01*
X174552523Y-107766952D01*
X174487571Y-107243142D02*
X174520047Y-107190761D01*
X174552523Y-107243142D01*
X174520047Y-107295523D01*
X174487571Y-107243142D01*
X174552523Y-107243142D01*
X174487571Y-106719333D02*
X174520047Y-106666952D01*
X174552523Y-106719333D01*
X174520047Y-106771714D01*
X174487571Y-106719333D01*
X174552523Y-106719333D01*
X174487571Y-106195523D02*
X174520047Y-106143142D01*
X174552523Y-106195523D01*
X174520047Y-106247904D01*
X174487571Y-106195523D01*
X174552523Y-106195523D01*
X174487571Y-105671714D02*
X174520047Y-105619333D01*
X174552523Y-105671714D01*
X174520047Y-105724095D01*
X174487571Y-105671714D01*
X174552523Y-105671714D01*
X174487571Y-105147904D02*
X174520047Y-105095523D01*
X174552523Y-105147904D01*
X174520047Y-105200285D01*
X174487571Y-105147904D01*
X174552523Y-105147904D01*
X174487571Y-104624095D02*
X174520047Y-104571714D01*
X174552523Y-104624095D01*
X174520047Y-104676476D01*
X174487571Y-104624095D01*
X174552523Y-104624095D01*
X174487571Y-104100285D02*
X174520047Y-104047904D01*
X174552523Y-104100285D01*
X174520047Y-104152666D01*
X174487571Y-104100285D01*
X174552523Y-104100285D01*
X174487571Y-103576476D02*
X174520047Y-103524095D01*
X174552523Y-103576476D01*
X174520047Y-103628857D01*
X174487571Y-103576476D01*
X174552523Y-103576476D01*
D12*
X149631380Y-97988095D02*
X148631380Y-97988095D01*
X148631380Y-97607142D01*
X148679000Y-97511904D01*
X148726619Y-97464285D01*
X148821857Y-97416666D01*
X148964714Y-97416666D01*
X149059952Y-97464285D01*
X149107571Y-97511904D01*
X149155190Y-97607142D01*
X149155190Y-97988095D01*
X149631380Y-96988095D02*
X148631380Y-96988095D01*
X148631380Y-96607142D01*
X148679000Y-96511904D01*
X148726619Y-96464285D01*
X148821857Y-96416666D01*
X148964714Y-96416666D01*
X149059952Y-96464285D01*
X149107571Y-96511904D01*
X149155190Y-96607142D01*
X149155190Y-96988095D01*
X149631380Y-95511904D02*
X149631380Y-95988095D01*
X148631380Y-95988095D01*
X149250428Y-95178571D02*
X149250428Y-94416666D01*
X148631380Y-93750000D02*
X148631380Y-93654761D01*
X148679000Y-93559523D01*
X148726619Y-93511904D01*
X148821857Y-93464285D01*
X149012333Y-93416666D01*
X149250428Y-93416666D01*
X149440904Y-93464285D01*
X149536142Y-93511904D01*
X149583761Y-93559523D01*
X149631380Y-93654761D01*
X149631380Y-93750000D01*
X149583761Y-93845238D01*
X149536142Y-93892857D01*
X149440904Y-93940476D01*
X149250428Y-93988095D01*
X149012333Y-93988095D01*
X148821857Y-93940476D01*
X148726619Y-93892857D01*
X148679000Y-93845238D01*
X148631380Y-93750000D01*
X149631380Y-92464285D02*
X149631380Y-93035714D01*
X149631380Y-92750000D02*
X148631380Y-92750000D01*
X148774238Y-92845238D01*
X148869476Y-92940476D01*
X148917095Y-93035714D01*
D14*
X145068619Y-98733333D02*
X143968619Y-98733333D01*
X143968619Y-98314285D01*
X144021000Y-98209523D01*
X144073380Y-98157142D01*
X144178142Y-98104761D01*
X144335285Y-98104761D01*
X144440047Y-98157142D01*
X144492428Y-98209523D01*
X144544809Y-98314285D01*
X144544809Y-98733333D01*
X145068619Y-97476190D02*
X145016238Y-97580952D01*
X144963857Y-97633333D01*
X144859095Y-97685714D01*
X144544809Y-97685714D01*
X144440047Y-97633333D01*
X144387666Y-97580952D01*
X144335285Y-97476190D01*
X144335285Y-97319047D01*
X144387666Y-97214285D01*
X144440047Y-97161904D01*
X144544809Y-97109523D01*
X144859095Y-97109523D01*
X144963857Y-97161904D01*
X145016238Y-97214285D01*
X145068619Y-97319047D01*
X145068619Y-97476190D01*
X144335285Y-96638095D02*
X145068619Y-96638095D01*
X144440047Y-96638095D02*
X144387666Y-96585714D01*
X144335285Y-96480952D01*
X144335285Y-96323809D01*
X144387666Y-96219047D01*
X144492428Y-96166666D01*
X145068619Y-96166666D01*
X144335285Y-95800000D02*
X144335285Y-95380952D01*
X143968619Y-95642857D02*
X144911476Y-95642857D01*
X145016238Y-95590476D01*
X145068619Y-95485714D01*
X145068619Y-95380952D01*
X145068619Y-94542857D02*
X144492428Y-94542857D01*
X144387666Y-94595238D01*
X144335285Y-94700000D01*
X144335285Y-94909523D01*
X144387666Y-95014285D01*
X145016238Y-94542857D02*
X145068619Y-94647619D01*
X145068619Y-94909523D01*
X145016238Y-95014285D01*
X144911476Y-95066666D01*
X144806714Y-95066666D01*
X144701952Y-95014285D01*
X144649571Y-94909523D01*
X144649571Y-94647619D01*
X144597190Y-94542857D01*
X145068619Y-92709523D02*
X143968619Y-92709523D01*
X145016238Y-92709523D02*
X145068619Y-92814285D01*
X145068619Y-93023809D01*
X145016238Y-93128571D01*
X144963857Y-93180952D01*
X144859095Y-93233333D01*
X144544809Y-93233333D01*
X144440047Y-93180952D01*
X144387666Y-93128571D01*
X144335285Y-93023809D01*
X144335285Y-92814285D01*
X144387666Y-92709523D01*
X145016238Y-91766666D02*
X145068619Y-91871428D01*
X145068619Y-92080952D01*
X145016238Y-92185714D01*
X144911476Y-92238095D01*
X144492428Y-92238095D01*
X144387666Y-92185714D01*
X144335285Y-92080952D01*
X144335285Y-91871428D01*
X144387666Y-91766666D01*
X144492428Y-91714285D01*
X144597190Y-91714285D01*
X144701952Y-92238095D01*
X146918619Y-100383333D02*
X145818619Y-100383333D01*
X145818619Y-99964285D01*
X145871000Y-99859523D01*
X145923380Y-99807142D01*
X146028142Y-99754761D01*
X146185285Y-99754761D01*
X146290047Y-99807142D01*
X146342428Y-99859523D01*
X146394809Y-99964285D01*
X146394809Y-100383333D01*
X146918619Y-99283333D02*
X146185285Y-99283333D01*
X146394809Y-99283333D02*
X146290047Y-99230952D01*
X146237666Y-99178571D01*
X146185285Y-99073809D01*
X146185285Y-98969047D01*
X146918619Y-98445238D02*
X146866238Y-98550000D01*
X146813857Y-98602380D01*
X146709095Y-98654761D01*
X146394809Y-98654761D01*
X146290047Y-98602380D01*
X146237666Y-98550000D01*
X146185285Y-98445238D01*
X146185285Y-98288095D01*
X146237666Y-98183333D01*
X146290047Y-98130952D01*
X146394809Y-98078571D01*
X146709095Y-98078571D01*
X146813857Y-98130952D01*
X146866238Y-98183333D01*
X146918619Y-98288095D01*
X146918619Y-98445238D01*
X146185285Y-97711904D02*
X146918619Y-97450000D01*
X146185285Y-97188095D01*
X146918619Y-96297619D02*
X146342428Y-96297619D01*
X146237666Y-96350000D01*
X146185285Y-96454761D01*
X146185285Y-96664285D01*
X146237666Y-96769047D01*
X146866238Y-96297619D02*
X146918619Y-96402380D01*
X146918619Y-96664285D01*
X146866238Y-96769047D01*
X146761476Y-96821428D01*
X146656714Y-96821428D01*
X146551952Y-96769047D01*
X146499571Y-96664285D01*
X146499571Y-96402380D01*
X146447190Y-96297619D01*
X146918619Y-94411904D02*
X146918619Y-94935714D01*
X145818619Y-94935714D01*
X146918619Y-93888095D02*
X146866238Y-93992857D01*
X146813857Y-94045238D01*
X146709095Y-94097619D01*
X146394809Y-94097619D01*
X146290047Y-94045238D01*
X146237666Y-93992857D01*
X146185285Y-93888095D01*
X146185285Y-93730952D01*
X146237666Y-93626190D01*
X146290047Y-93573809D01*
X146394809Y-93521428D01*
X146709095Y-93521428D01*
X146813857Y-93573809D01*
X146866238Y-93626190D01*
X146918619Y-93730952D01*
X146918619Y-93888095D01*
X145766238Y-93678571D02*
X145923380Y-93835714D01*
X146185285Y-92578571D02*
X147075761Y-92578571D01*
X147180523Y-92630952D01*
X147232904Y-92683333D01*
X147285285Y-92788095D01*
X147285285Y-92945238D01*
X147232904Y-93050000D01*
X146866238Y-92578571D02*
X146918619Y-92683333D01*
X146918619Y-92892857D01*
X146866238Y-92997619D01*
X146813857Y-93050000D01*
X146709095Y-93102380D01*
X146394809Y-93102380D01*
X146290047Y-93050000D01*
X146237666Y-92997619D01*
X146185285Y-92892857D01*
X146185285Y-92683333D01*
X146237666Y-92578571D01*
X146918619Y-92054761D02*
X146185285Y-92054761D01*
X145818619Y-92054761D02*
X145871000Y-92107142D01*
X145923380Y-92054761D01*
X145871000Y-92002380D01*
X145818619Y-92054761D01*
X145923380Y-92054761D01*
X146866238Y-91059523D02*
X146918619Y-91164285D01*
X146918619Y-91373809D01*
X146866238Y-91478571D01*
X146813857Y-91530952D01*
X146709095Y-91583333D01*
X146394809Y-91583333D01*
X146290047Y-91530952D01*
X146237666Y-91478571D01*
X146185285Y-91373809D01*
X146185285Y-91164285D01*
X146237666Y-91059523D01*
X146918619Y-90116666D02*
X146342428Y-90116666D01*
X146237666Y-90169047D01*
X146185285Y-90273809D01*
X146185285Y-90483333D01*
X146237666Y-90588095D01*
X146866238Y-90116666D02*
X146918619Y-90221428D01*
X146918619Y-90483333D01*
X146866238Y-90588095D01*
X146761476Y-90640476D01*
X146656714Y-90640476D01*
X146551952Y-90588095D01*
X146499571Y-90483333D01*
X146499571Y-90221428D01*
X146447190Y-90116666D01*
D13*
X125730000Y-73914000D02*
G75*
G02*
X127254000Y-72390000I1524000J0D01*
G01*
X127254000Y-118110000D02*
G75*
G02*
X125730000Y-116586000I0J1524000D01*
G01*
D15*
X136432857Y-117154285D02*
X135232857Y-117154285D01*
X135232857Y-116697142D01*
X135290000Y-116582857D01*
X135347142Y-116525714D01*
X135461428Y-116468571D01*
X135632857Y-116468571D01*
X135747142Y-116525714D01*
X135804285Y-116582857D01*
X135861428Y-116697142D01*
X135861428Y-117154285D01*
X139804857Y-116897142D02*
X139804857Y-116782857D01*
X139862000Y-116668571D01*
X139919142Y-116611428D01*
X140033428Y-116554285D01*
X140262000Y-116497142D01*
X140547714Y-116497142D01*
X140776285Y-116554285D01*
X140890571Y-116611428D01*
X140947714Y-116668571D01*
X141004857Y-116782857D01*
X141004857Y-116897142D01*
X140947714Y-117011428D01*
X140890571Y-117068571D01*
X140776285Y-117125714D01*
X140547714Y-117182857D01*
X140262000Y-117182857D01*
X140033428Y-117125714D01*
X139919142Y-117068571D01*
X139862000Y-117011428D01*
X139804857Y-116897142D01*
X131860857Y-116497142D02*
X131860857Y-117182857D01*
X131860857Y-116840000D02*
X130660857Y-116840000D01*
X130832285Y-116954285D01*
X130946571Y-117068571D01*
X131003714Y-117182857D01*
D10*
X127438095Y-93497619D02*
X127438095Y-93116666D01*
X127057142Y-93078571D01*
X127095238Y-93116666D01*
X127133333Y-93192857D01*
X127133333Y-93383333D01*
X127095238Y-93459523D01*
X127057142Y-93497619D01*
X126980952Y-93535714D01*
X126790476Y-93535714D01*
X126714285Y-93497619D01*
X126676190Y-93459523D01*
X126638095Y-93383333D01*
X126638095Y-93192857D01*
X126676190Y-93116666D01*
X126714285Y-93078571D01*
X127438095Y-93764285D02*
X126638095Y-94030952D01*
X127438095Y-94297619D01*
X126942857Y-94564285D02*
X126942857Y-95173809D01*
X126638095Y-95973809D02*
X126638095Y-95516666D01*
X126638095Y-95745238D02*
X127438095Y-95745238D01*
X127323809Y-95669047D01*
X127247619Y-95592857D01*
X127209523Y-95516666D01*
X127438095Y-96697619D02*
X127438095Y-96316666D01*
X127057142Y-96278571D01*
X127095238Y-96316666D01*
X127133333Y-96392857D01*
X127133333Y-96583333D01*
X127095238Y-96659523D01*
X127057142Y-96697619D01*
X126980952Y-96735714D01*
X126790476Y-96735714D01*
X126714285Y-96697619D01*
X126676190Y-96659523D01*
X126638095Y-96583333D01*
X126638095Y-96392857D01*
X126676190Y-96316666D01*
X126714285Y-96278571D01*
X127438095Y-96964285D02*
X126638095Y-97230952D01*
X127438095Y-97497619D01*
D12*
X129405000Y-97028095D02*
X129452619Y-96932857D01*
X129452619Y-96790000D01*
X129405000Y-96647142D01*
X129309761Y-96551904D01*
X129214523Y-96504285D01*
X129024047Y-96456666D01*
X128881190Y-96456666D01*
X128690714Y-96504285D01*
X128595476Y-96551904D01*
X128500238Y-96647142D01*
X128452619Y-96790000D01*
X128452619Y-96885238D01*
X128500238Y-97028095D01*
X128547857Y-97075714D01*
X128881190Y-97075714D01*
X128881190Y-96885238D01*
X128452619Y-97504285D02*
X129452619Y-97504285D01*
X128452619Y-98075714D01*
X129452619Y-98075714D01*
X128452619Y-98551904D02*
X129452619Y-98551904D01*
X129452619Y-98790000D01*
X129405000Y-98932857D01*
X129309761Y-99028095D01*
X129214523Y-99075714D01*
X129024047Y-99123333D01*
X128881190Y-99123333D01*
X128690714Y-99075714D01*
X128595476Y-99028095D01*
X128500238Y-98932857D01*
X128452619Y-98790000D01*
X128452619Y-98551904D01*
X129452619Y-91376666D02*
X128452619Y-91710000D01*
X129452619Y-92043333D01*
X128547857Y-92948095D02*
X128500238Y-92900476D01*
X128452619Y-92757619D01*
X128452619Y-92662380D01*
X128500238Y-92519523D01*
X128595476Y-92424285D01*
X128690714Y-92376666D01*
X128881190Y-92329047D01*
X129024047Y-92329047D01*
X129214523Y-92376666D01*
X129309761Y-92424285D01*
X129405000Y-92519523D01*
X129452619Y-92662380D01*
X129452619Y-92757619D01*
X129405000Y-92900476D01*
X129357380Y-92948095D01*
X128547857Y-93948095D02*
X128500238Y-93900476D01*
X128452619Y-93757619D01*
X128452619Y-93662380D01*
X128500238Y-93519523D01*
X128595476Y-93424285D01*
X128690714Y-93376666D01*
X128881190Y-93329047D01*
X129024047Y-93329047D01*
X129214523Y-93376666D01*
X129309761Y-93424285D01*
X129405000Y-93519523D01*
X129452619Y-93662380D01*
X129452619Y-93757619D01*
X129405000Y-93900476D01*
X129357380Y-93948095D01*
D13*
X125730000Y-116586000D02*
X125730000Y-73914000D01*
X173736000Y-118110000D02*
X127254000Y-118110000D01*
X127254000Y-72390000D02*
X173736000Y-72390000D01*
D16*
%TO.C,G\u002A\u002A\u002A*%
G36*
X150385780Y-116400580D02*
G01*
X150375620Y-116380260D01*
X150345140Y-116332000D01*
X150301960Y-116265960D01*
X150248620Y-116187220D01*
X150195280Y-116108480D01*
X150152100Y-116042440D01*
X150121620Y-115996720D01*
X150111460Y-115978940D01*
X150114000Y-115968780D01*
X150134320Y-115930680D01*
X150162260Y-115874800D01*
X150177500Y-115844320D01*
X150200360Y-115793520D01*
X150205440Y-115768120D01*
X150197820Y-115765580D01*
X150159720Y-115745260D01*
X150093680Y-115717320D01*
X150007320Y-115679220D01*
X149905720Y-115636040D01*
X149796500Y-115590320D01*
X149684740Y-115544600D01*
X149578060Y-115498880D01*
X149481540Y-115460780D01*
X149405340Y-115427760D01*
X149349460Y-115407440D01*
X149326600Y-115399820D01*
X149321520Y-115402360D01*
X149298660Y-115427760D01*
X149265640Y-115470940D01*
X149186900Y-115567460D01*
X149070060Y-115658900D01*
X148937980Y-115717320D01*
X148790660Y-115735100D01*
X148656040Y-115719860D01*
X148526500Y-115666520D01*
X148407120Y-115575080D01*
X148320760Y-115463320D01*
X148264880Y-115333780D01*
X148247100Y-115189000D01*
X148262340Y-115049300D01*
X148315680Y-114917220D01*
X148404580Y-114797840D01*
X148463000Y-114749580D01*
X148582380Y-114681000D01*
X148709380Y-114640360D01*
X148739860Y-114637820D01*
X148882100Y-114642900D01*
X149016720Y-114683540D01*
X149136100Y-114757200D01*
X149235160Y-114861340D01*
X149245320Y-114874040D01*
X149280880Y-114922300D01*
X149303740Y-114952780D01*
X149324060Y-114978180D01*
X149755860Y-114800380D01*
X149824440Y-114772440D01*
X149941280Y-114721640D01*
X150042880Y-114678460D01*
X150124160Y-114645440D01*
X150177500Y-114620040D01*
X150200360Y-114609880D01*
X150202900Y-114594640D01*
X150190200Y-114561620D01*
X150162260Y-114500660D01*
X150141940Y-114460020D01*
X150119080Y-114414300D01*
X150111460Y-114393980D01*
X150121620Y-114376200D01*
X150149560Y-114333020D01*
X150192740Y-114269520D01*
X150243540Y-114193320D01*
X150294340Y-114119660D01*
X150340060Y-114051080D01*
X150370540Y-114002820D01*
X150383240Y-113977420D01*
X150383240Y-113974880D01*
X150370540Y-113954560D01*
X150340060Y-113913920D01*
X150284180Y-113855500D01*
X150202900Y-113774220D01*
X150190200Y-113761520D01*
X150119080Y-113692940D01*
X150060660Y-113637060D01*
X150020020Y-113598960D01*
X150002240Y-113586260D01*
X149976840Y-113598960D01*
X149928580Y-113629440D01*
X149860000Y-113675160D01*
X149781260Y-113728500D01*
X149572980Y-113870740D01*
X149377400Y-113792000D01*
X149318980Y-113769140D01*
X149245320Y-113738660D01*
X149194520Y-113715800D01*
X149171660Y-113703100D01*
X149164040Y-113682780D01*
X149151340Y-113629440D01*
X149133560Y-113550700D01*
X149118320Y-113459260D01*
X149100540Y-113370360D01*
X149085300Y-113291620D01*
X149075140Y-113233200D01*
X149070060Y-113207800D01*
X149064980Y-113202720D01*
X149052280Y-113197640D01*
X149026880Y-113192560D01*
X148978620Y-113192560D01*
X148902420Y-113190020D01*
X148790660Y-113190020D01*
X148780500Y-113190020D01*
X148673820Y-113192560D01*
X148590000Y-113192560D01*
X148536660Y-113195100D01*
X148516340Y-113200180D01*
X148508720Y-113225580D01*
X148498560Y-113281460D01*
X148480780Y-113360200D01*
X148463000Y-113456720D01*
X148463000Y-113461800D01*
X148445220Y-113555780D01*
X148427440Y-113634520D01*
X148414740Y-113690400D01*
X148407120Y-113713260D01*
X148402040Y-113718340D01*
X148363940Y-113738660D01*
X148305520Y-113766600D01*
X148234400Y-113797080D01*
X148160740Y-113827560D01*
X148092160Y-113855500D01*
X148043900Y-113873280D01*
X148021040Y-113878360D01*
X147998180Y-113863120D01*
X147947380Y-113830100D01*
X147881340Y-113784380D01*
X147800060Y-113728500D01*
X147792440Y-113725960D01*
X147713700Y-113670080D01*
X147645120Y-113626900D01*
X147596860Y-113596420D01*
X147576540Y-113586260D01*
X147574000Y-113586260D01*
X147551140Y-113604040D01*
X147505420Y-113644680D01*
X147444460Y-113703100D01*
X147373340Y-113774220D01*
X147353020Y-113797080D01*
X147276820Y-113873280D01*
X147226020Y-113926620D01*
X147200620Y-113962180D01*
X147193000Y-113977420D01*
X147195540Y-113977420D01*
X147208240Y-114002820D01*
X147241260Y-114053620D01*
X147289520Y-114122200D01*
X147342860Y-114203480D01*
X147347940Y-114208560D01*
X147401280Y-114287300D01*
X147447000Y-114353340D01*
X147477480Y-114401600D01*
X147490180Y-114421920D01*
X147490180Y-114427000D01*
X147480020Y-114457480D01*
X147462240Y-114515900D01*
X147434300Y-114584480D01*
X147403820Y-114658140D01*
X147375880Y-114726720D01*
X147353020Y-114777520D01*
X147340320Y-114800380D01*
X147337780Y-114800380D01*
X147309840Y-114810540D01*
X147248880Y-114823240D01*
X147167600Y-114841020D01*
X147068540Y-114858800D01*
X147053300Y-114861340D01*
X146959320Y-114879120D01*
X146880580Y-114894360D01*
X146824700Y-114907060D01*
X146801840Y-114912140D01*
X146799300Y-114924840D01*
X146796760Y-114973100D01*
X146794220Y-115044220D01*
X146794220Y-115130580D01*
X146794220Y-115219480D01*
X146796760Y-115305840D01*
X146799300Y-115382040D01*
X146801840Y-115435380D01*
X146806920Y-115458240D01*
X146809460Y-115460780D01*
X146837400Y-115468400D01*
X146898360Y-115481100D01*
X146979640Y-115498880D01*
X147078700Y-115516660D01*
X147096480Y-115519200D01*
X147190460Y-115536980D01*
X147269200Y-115554760D01*
X147322540Y-115564920D01*
X147342860Y-115572540D01*
X147347940Y-115580160D01*
X147365720Y-115618260D01*
X147391120Y-115681760D01*
X147424140Y-115763040D01*
X147497800Y-115945920D01*
X147342860Y-116169440D01*
X147330160Y-116189760D01*
X147274280Y-116271040D01*
X147231100Y-116337080D01*
X147200620Y-116382800D01*
X147190460Y-116403120D01*
X147210780Y-116425980D01*
X147251420Y-116471700D01*
X147312380Y-116532660D01*
X147380960Y-116601240D01*
X147434300Y-116654580D01*
X147497800Y-116715540D01*
X147538440Y-116756180D01*
X147566380Y-116776500D01*
X147584160Y-116784120D01*
X147594320Y-116781580D01*
X147617180Y-116768880D01*
X147665440Y-116735860D01*
X147734020Y-116690140D01*
X147812760Y-116634260D01*
X147881340Y-116588540D01*
X147955000Y-116540280D01*
X148008340Y-116509800D01*
X148036280Y-116497100D01*
X148046440Y-116499640D01*
X148089620Y-116517420D01*
X148158200Y-116542820D01*
X148236940Y-116575840D01*
X148414740Y-116654580D01*
X148435060Y-116771420D01*
X148450300Y-116842540D01*
X148468080Y-116941600D01*
X148485860Y-117035580D01*
X148516340Y-117182900D01*
X149054820Y-117187980D01*
X149064980Y-117165120D01*
X149072600Y-117142260D01*
X149082760Y-117088920D01*
X149098000Y-117010180D01*
X149115780Y-116918740D01*
X149131020Y-116840000D01*
X149146260Y-116761260D01*
X149156420Y-116705380D01*
X149161500Y-116679980D01*
X149171660Y-116672360D01*
X149209760Y-116652040D01*
X149270720Y-116624100D01*
X149344380Y-116593620D01*
X149418040Y-116563140D01*
X149489160Y-116535200D01*
X149542500Y-116514880D01*
X149570440Y-116507260D01*
X149590760Y-116517420D01*
X149636480Y-116547900D01*
X149702520Y-116591080D01*
X149781260Y-116644420D01*
X149860000Y-116700300D01*
X149928580Y-116743480D01*
X149976840Y-116776500D01*
X149997160Y-116789200D01*
X150012400Y-116781580D01*
X150050500Y-116751100D01*
X150111460Y-116692680D01*
X150200360Y-116603780D01*
X150213060Y-116588540D01*
X150281640Y-116519960D01*
X150334980Y-116459000D01*
X150373080Y-116418360D01*
X150385780Y-116400580D01*
G37*
X150385780Y-116400580D02*
X150375620Y-116380260D01*
X150345140Y-116332000D01*
X150301960Y-116265960D01*
X150248620Y-116187220D01*
X150195280Y-116108480D01*
X150152100Y-116042440D01*
X150121620Y-115996720D01*
X150111460Y-115978940D01*
X150114000Y-115968780D01*
X150134320Y-115930680D01*
X150162260Y-115874800D01*
X150177500Y-115844320D01*
X150200360Y-115793520D01*
X150205440Y-115768120D01*
X150197820Y-115765580D01*
X150159720Y-115745260D01*
X150093680Y-115717320D01*
X150007320Y-115679220D01*
X149905720Y-115636040D01*
X149796500Y-115590320D01*
X149684740Y-115544600D01*
X149578060Y-115498880D01*
X149481540Y-115460780D01*
X149405340Y-115427760D01*
X149349460Y-115407440D01*
X149326600Y-115399820D01*
X149321520Y-115402360D01*
X149298660Y-115427760D01*
X149265640Y-115470940D01*
X149186900Y-115567460D01*
X149070060Y-115658900D01*
X148937980Y-115717320D01*
X148790660Y-115735100D01*
X148656040Y-115719860D01*
X148526500Y-115666520D01*
X148407120Y-115575080D01*
X148320760Y-115463320D01*
X148264880Y-115333780D01*
X148247100Y-115189000D01*
X148262340Y-115049300D01*
X148315680Y-114917220D01*
X148404580Y-114797840D01*
X148463000Y-114749580D01*
X148582380Y-114681000D01*
X148709380Y-114640360D01*
X148739860Y-114637820D01*
X148882100Y-114642900D01*
X149016720Y-114683540D01*
X149136100Y-114757200D01*
X149235160Y-114861340D01*
X149245320Y-114874040D01*
X149280880Y-114922300D01*
X149303740Y-114952780D01*
X149324060Y-114978180D01*
X149755860Y-114800380D01*
X149824440Y-114772440D01*
X149941280Y-114721640D01*
X150042880Y-114678460D01*
X150124160Y-114645440D01*
X150177500Y-114620040D01*
X150200360Y-114609880D01*
X150202900Y-114594640D01*
X150190200Y-114561620D01*
X150162260Y-114500660D01*
X150141940Y-114460020D01*
X150119080Y-114414300D01*
X150111460Y-114393980D01*
X150121620Y-114376200D01*
X150149560Y-114333020D01*
X150192740Y-114269520D01*
X150243540Y-114193320D01*
X150294340Y-114119660D01*
X150340060Y-114051080D01*
X150370540Y-114002820D01*
X150383240Y-113977420D01*
X150383240Y-113974880D01*
X150370540Y-113954560D01*
X150340060Y-113913920D01*
X150284180Y-113855500D01*
X150202900Y-113774220D01*
X150190200Y-113761520D01*
X150119080Y-113692940D01*
X150060660Y-113637060D01*
X150020020Y-113598960D01*
X150002240Y-113586260D01*
X149976840Y-113598960D01*
X149928580Y-113629440D01*
X149860000Y-113675160D01*
X149781260Y-113728500D01*
X149572980Y-113870740D01*
X149377400Y-113792000D01*
X149318980Y-113769140D01*
X149245320Y-113738660D01*
X149194520Y-113715800D01*
X149171660Y-113703100D01*
X149164040Y-113682780D01*
X149151340Y-113629440D01*
X149133560Y-113550700D01*
X149118320Y-113459260D01*
X149100540Y-113370360D01*
X149085300Y-113291620D01*
X149075140Y-113233200D01*
X149070060Y-113207800D01*
X149064980Y-113202720D01*
X149052280Y-113197640D01*
X149026880Y-113192560D01*
X148978620Y-113192560D01*
X148902420Y-113190020D01*
X148790660Y-113190020D01*
X148780500Y-113190020D01*
X148673820Y-113192560D01*
X148590000Y-113192560D01*
X148536660Y-113195100D01*
X148516340Y-113200180D01*
X148508720Y-113225580D01*
X148498560Y-113281460D01*
X148480780Y-113360200D01*
X148463000Y-113456720D01*
X148463000Y-113461800D01*
X148445220Y-113555780D01*
X148427440Y-113634520D01*
X148414740Y-113690400D01*
X148407120Y-113713260D01*
X148402040Y-113718340D01*
X148363940Y-113738660D01*
X148305520Y-113766600D01*
X148234400Y-113797080D01*
X148160740Y-113827560D01*
X148092160Y-113855500D01*
X148043900Y-113873280D01*
X148021040Y-113878360D01*
X147998180Y-113863120D01*
X147947380Y-113830100D01*
X147881340Y-113784380D01*
X147800060Y-113728500D01*
X147792440Y-113725960D01*
X147713700Y-113670080D01*
X147645120Y-113626900D01*
X147596860Y-113596420D01*
X147576540Y-113586260D01*
X147574000Y-113586260D01*
X147551140Y-113604040D01*
X147505420Y-113644680D01*
X147444460Y-113703100D01*
X147373340Y-113774220D01*
X147353020Y-113797080D01*
X147276820Y-113873280D01*
X147226020Y-113926620D01*
X147200620Y-113962180D01*
X147193000Y-113977420D01*
X147195540Y-113977420D01*
X147208240Y-114002820D01*
X147241260Y-114053620D01*
X147289520Y-114122200D01*
X147342860Y-114203480D01*
X147347940Y-114208560D01*
X147401280Y-114287300D01*
X147447000Y-114353340D01*
X147477480Y-114401600D01*
X147490180Y-114421920D01*
X147490180Y-114427000D01*
X147480020Y-114457480D01*
X147462240Y-114515900D01*
X147434300Y-114584480D01*
X147403820Y-114658140D01*
X147375880Y-114726720D01*
X147353020Y-114777520D01*
X147340320Y-114800380D01*
X147337780Y-114800380D01*
X147309840Y-114810540D01*
X147248880Y-114823240D01*
X147167600Y-114841020D01*
X147068540Y-114858800D01*
X147053300Y-114861340D01*
X146959320Y-114879120D01*
X146880580Y-114894360D01*
X146824700Y-114907060D01*
X146801840Y-114912140D01*
X146799300Y-114924840D01*
X146796760Y-114973100D01*
X146794220Y-115044220D01*
X146794220Y-115130580D01*
X146794220Y-115219480D01*
X146796760Y-115305840D01*
X146799300Y-115382040D01*
X146801840Y-115435380D01*
X146806920Y-115458240D01*
X146809460Y-115460780D01*
X146837400Y-115468400D01*
X146898360Y-115481100D01*
X146979640Y-115498880D01*
X147078700Y-115516660D01*
X147096480Y-115519200D01*
X147190460Y-115536980D01*
X147269200Y-115554760D01*
X147322540Y-115564920D01*
X147342860Y-115572540D01*
X147347940Y-115580160D01*
X147365720Y-115618260D01*
X147391120Y-115681760D01*
X147424140Y-115763040D01*
X147497800Y-115945920D01*
X147342860Y-116169440D01*
X147330160Y-116189760D01*
X147274280Y-116271040D01*
X147231100Y-116337080D01*
X147200620Y-116382800D01*
X147190460Y-116403120D01*
X147210780Y-116425980D01*
X147251420Y-116471700D01*
X147312380Y-116532660D01*
X147380960Y-116601240D01*
X147434300Y-116654580D01*
X147497800Y-116715540D01*
X147538440Y-116756180D01*
X147566380Y-116776500D01*
X147584160Y-116784120D01*
X147594320Y-116781580D01*
X147617180Y-116768880D01*
X147665440Y-116735860D01*
X147734020Y-116690140D01*
X147812760Y-116634260D01*
X147881340Y-116588540D01*
X147955000Y-116540280D01*
X148008340Y-116509800D01*
X148036280Y-116497100D01*
X148046440Y-116499640D01*
X148089620Y-116517420D01*
X148158200Y-116542820D01*
X148236940Y-116575840D01*
X148414740Y-116654580D01*
X148435060Y-116771420D01*
X148450300Y-116842540D01*
X148468080Y-116941600D01*
X148485860Y-117035580D01*
X148516340Y-117182900D01*
X149054820Y-117187980D01*
X149064980Y-117165120D01*
X149072600Y-117142260D01*
X149082760Y-117088920D01*
X149098000Y-117010180D01*
X149115780Y-116918740D01*
X149131020Y-116840000D01*
X149146260Y-116761260D01*
X149156420Y-116705380D01*
X149161500Y-116679980D01*
X149171660Y-116672360D01*
X149209760Y-116652040D01*
X149270720Y-116624100D01*
X149344380Y-116593620D01*
X149418040Y-116563140D01*
X149489160Y-116535200D01*
X149542500Y-116514880D01*
X149570440Y-116507260D01*
X149590760Y-116517420D01*
X149636480Y-116547900D01*
X149702520Y-116591080D01*
X149781260Y-116644420D01*
X149860000Y-116700300D01*
X149928580Y-116743480D01*
X149976840Y-116776500D01*
X149997160Y-116789200D01*
X150012400Y-116781580D01*
X150050500Y-116751100D01*
X150111460Y-116692680D01*
X150200360Y-116603780D01*
X150213060Y-116588540D01*
X150281640Y-116519960D01*
X150334980Y-116459000D01*
X150373080Y-116418360D01*
X150385780Y-116400580D01*
D11*
%TO.C,JP3*%
X159099000Y-85090000D02*
X157099000Y-85090000D01*
D12*
%TO.C,PP1*%
X153035000Y-100330000D02*
X173355000Y-100330000D01*
X173355000Y-100330000D02*
X173355000Y-90170000D01*
X173355000Y-90170000D02*
X153035000Y-90170000D01*
X153035000Y-90170000D02*
X153035000Y-100330000D01*
D11*
%TO.C,C2*%
X170982000Y-88685000D02*
X170982000Y-89000000D01*
X170982000Y-86260000D02*
X170982000Y-86575000D01*
X165742000Y-88685000D02*
X165742000Y-89000000D01*
X165742000Y-86260000D02*
X165742000Y-86575000D01*
X165742000Y-89000000D02*
X170982000Y-89000000D01*
X165742000Y-86260000D02*
X170982000Y-86260000D01*
%TO.C,C6*%
X149929000Y-102135000D02*
X149929000Y-104875000D01*
X144689000Y-102135000D02*
X144689000Y-104875000D01*
X144689000Y-104875000D02*
X149929000Y-104875000D01*
X144689000Y-102135000D02*
X149929000Y-102135000D01*
%TO.C,C3*%
X165996000Y-104875000D02*
X165996000Y-102135000D01*
X171236000Y-104875000D02*
X171236000Y-102135000D01*
X171236000Y-102135000D02*
X165996000Y-102135000D01*
X171236000Y-104875000D02*
X165996000Y-104875000D01*
%TO.C,C1*%
X137240000Y-83593000D02*
X137240000Y-86333000D01*
X132000000Y-83593000D02*
X132000000Y-86333000D01*
X132000000Y-86333000D02*
X137240000Y-86333000D01*
X132000000Y-83593000D02*
X137240000Y-83593000D01*
%TO.C,C7*%
X155230000Y-76051000D02*
X155475000Y-76051000D01*
X153135000Y-76051000D02*
X153380000Y-76051000D01*
X155230000Y-79691000D02*
X155475000Y-79691000D01*
X153135000Y-79691000D02*
X153380000Y-79691000D01*
X155475000Y-79691000D02*
X155475000Y-76051000D01*
X153135000Y-79691000D02*
X153135000Y-76051000D01*
%TO.C,C8*%
X149129000Y-112050000D02*
X149129000Y-112295000D01*
X149129000Y-109955000D02*
X149129000Y-110200000D01*
X145489000Y-112050000D02*
X145489000Y-112295000D01*
X145489000Y-109955000D02*
X145489000Y-110200000D01*
X145489000Y-112295000D02*
X149129000Y-112295000D01*
X145489000Y-109955000D02*
X149129000Y-109955000D01*
%TO.C,C5*%
X169245000Y-110205000D02*
X167987000Y-110205000D01*
X169245000Y-112045000D02*
X167987000Y-112045000D01*
%TO.C,JP4*%
X151765000Y-87416500D02*
X151765000Y-93916500D01*
%TO.C,JP7*%
X151765000Y-101141000D02*
X151765000Y-112141000D01*
%TO.C,JP6*%
X142875000Y-101894000D02*
X142875000Y-104394000D01*
%TO.C,JP5*%
X172720000Y-85019000D02*
X172720000Y-88519000D01*
%TO.C,JP2*%
X144486000Y-88900000D02*
X141986000Y-88900000D01*
%TO.C,JP1*%
X140970000Y-85534000D02*
X140970000Y-81534000D01*
%TO.C,JP8*%
X171751000Y-113665000D02*
X166751000Y-113665000D01*
%TO.C,D7*%
X130238000Y-112105000D02*
X130082000Y-112105000D01*
X132554000Y-112105000D02*
X132398000Y-112105000D01*
X130238163Y-114706130D02*
G75*
G02*
X130238000Y-112624039I1079837J1041130D01*
G01*
X132397837Y-114706130D02*
G75*
G03*
X132398000Y-112624039I-1079837J1041130D01*
G01*
X130239392Y-115337335D02*
G75*
G02*
X130082484Y-112105000I1078608J1672335D01*
G01*
X132396608Y-115337335D02*
G75*
G03*
X132553516Y-112105000I-1078608J1672335D01*
G01*
%TO.C,J1*%
X136300000Y-97710000D02*
G75*
G03*
X136300000Y-97710000I-1680000J0D01*
G01*
X130520000Y-90150000D02*
X130520000Y-100270000D01*
X132020000Y-90150000D02*
X132020000Y-100270000D01*
X136921000Y-90150000D02*
X136921000Y-100270000D01*
X139881000Y-90150000D02*
X139881000Y-100270000D01*
X129960000Y-90150000D02*
X129960000Y-100270000D01*
X139881000Y-90150000D02*
X129960000Y-90150000D01*
X139881000Y-100270000D02*
X129960000Y-100270000D01*
X135689000Y-98985000D02*
X135643000Y-98938000D01*
X133381000Y-96676000D02*
X133346000Y-96641000D01*
X135895000Y-98780000D02*
X135859000Y-98745000D01*
X133597000Y-96483000D02*
X133551000Y-96436000D01*
X130460000Y-89910000D02*
X129720000Y-89910000D01*
X129720000Y-89910000D02*
X129720000Y-90410000D01*
X133085244Y-93393318D02*
G75*
G02*
X132940000Y-92710000I1534756J683318D01*
G01*
X135303042Y-94245426D02*
G75*
G02*
X133936000Y-94245000I-683042J1535426D01*
G01*
X136155426Y-92026958D02*
G75*
G02*
X136155000Y-93394000I-1535426J-683042D01*
G01*
X133936958Y-91174574D02*
G75*
G02*
X135304000Y-91175000I683042J-1535426D01*
G01*
X132939747Y-92738805D02*
G75*
G02*
X133085000Y-92026000I1680253J28805D01*
G01*
D10*
%TO.C,SW1*%
X139077700Y-82931000D02*
X130822700Y-82931000D01*
X139077700Y-74358500D02*
X130505200Y-74358500D01*
X139077700Y-82931000D02*
X139077700Y-74358500D01*
X130822700Y-82931000D02*
X130505200Y-82613500D01*
X130505200Y-82613500D02*
X130505200Y-74358500D01*
D12*
X135458200Y-74422000D02*
X135458200Y-75184000D01*
X135458200Y-75184000D02*
X134188200Y-75184000D01*
X134188200Y-75184000D02*
X134188200Y-74422000D01*
D11*
%TO.C,R16*%
X141832000Y-102775000D02*
X141502000Y-102775000D01*
X141832000Y-109315000D02*
X141832000Y-102775000D01*
X141502000Y-109315000D02*
X141832000Y-109315000D01*
X139092000Y-102775000D02*
X139422000Y-102775000D01*
X139092000Y-109315000D02*
X139092000Y-102775000D01*
X139422000Y-109315000D02*
X139092000Y-109315000D01*
%TO.C,R15*%
X132688000Y-102775000D02*
X132358000Y-102775000D01*
X132688000Y-109315000D02*
X132688000Y-102775000D01*
X132358000Y-109315000D02*
X132688000Y-109315000D01*
X129948000Y-102775000D02*
X130278000Y-102775000D01*
X129948000Y-109315000D02*
X129948000Y-102775000D01*
X130278000Y-109315000D02*
X129948000Y-109315000D01*
D10*
%TO.C,SW2*%
X170395900Y-82931000D02*
X162140900Y-82931000D01*
X170395900Y-74358500D02*
X161823400Y-74358500D01*
X170395900Y-82931000D02*
X170395900Y-74358500D01*
X162140900Y-82931000D02*
X161823400Y-82613500D01*
X161823400Y-82613500D02*
X161823400Y-74358500D01*
D12*
X166776400Y-74422000D02*
X166776400Y-75184000D01*
X166776400Y-75184000D02*
X165506400Y-75184000D01*
X165506400Y-75184000D02*
X165506400Y-74422000D01*
D11*
%TO.C,R11*%
X136930000Y-102775000D02*
X137260000Y-102775000D01*
X137260000Y-102775000D02*
X137260000Y-109315000D01*
X137260000Y-109315000D02*
X136930000Y-109315000D01*
X134850000Y-102775000D02*
X134520000Y-102775000D01*
X134520000Y-102775000D02*
X134520000Y-109315000D01*
X134520000Y-109315000D02*
X134850000Y-109315000D01*
%TO.C,D8*%
X139382000Y-112105000D02*
X139226000Y-112105000D01*
X141698000Y-112105000D02*
X141542000Y-112105000D01*
X139382163Y-114706130D02*
G75*
G02*
X139382000Y-112624039I1079837J1041130D01*
G01*
X141541837Y-114706130D02*
G75*
G03*
X141542000Y-112624039I-1079837J1041130D01*
G01*
X139383392Y-115337335D02*
G75*
G02*
X139226484Y-112105000I1078608J1672335D01*
G01*
X141540608Y-115337335D02*
G75*
G03*
X141697516Y-112105000I-1078608J1672335D01*
G01*
%TO.C,D6*%
X161505000Y-116055000D02*
X161505000Y-113815000D01*
X161505000Y-113815000D02*
X157265000Y-113815000D01*
X157265000Y-113815000D02*
X157265000Y-116055000D01*
X157265000Y-116055000D02*
X161505000Y-116055000D01*
X162155000Y-114935000D02*
X161505000Y-114935000D01*
X156615000Y-114935000D02*
X157265000Y-114935000D01*
X160785000Y-116055000D02*
X160785000Y-113815000D01*
X160665000Y-116055000D02*
X160665000Y-113815000D01*
X160905000Y-116055000D02*
X160905000Y-113815000D01*
%TO.C,D5*%
X161505000Y-110340000D02*
X161505000Y-108100000D01*
X161505000Y-108100000D02*
X157265000Y-108100000D01*
X157265000Y-108100000D02*
X157265000Y-110340000D01*
X157265000Y-110340000D02*
X161505000Y-110340000D01*
X162155000Y-109220000D02*
X161505000Y-109220000D01*
X156615000Y-109220000D02*
X157265000Y-109220000D01*
X160785000Y-110340000D02*
X160785000Y-108100000D01*
X160665000Y-110340000D02*
X160665000Y-108100000D01*
X160905000Y-110340000D02*
X160905000Y-108100000D01*
%TO.C,D4*%
X137126000Y-112105000D02*
X136970000Y-112105000D01*
X134810000Y-112105000D02*
X134654000Y-112105000D01*
X136968608Y-115337335D02*
G75*
G03*
X137125516Y-112105000I-1078608J1672335D01*
G01*
X134811392Y-115337335D02*
G75*
G02*
X134654484Y-112105000I1078608J1672335D01*
G01*
X136969837Y-114706130D02*
G75*
G03*
X136970000Y-112624039I-1079837J1041130D01*
G01*
X134810163Y-114706130D02*
G75*
G02*
X134810000Y-112624039I1079837J1041130D01*
G01*
%TO.C,D3*%
X151853000Y-85194000D02*
X151853000Y-82954000D01*
X151853000Y-82954000D02*
X147613000Y-82954000D01*
X147613000Y-82954000D02*
X147613000Y-85194000D01*
X147613000Y-85194000D02*
X151853000Y-85194000D01*
X152503000Y-84074000D02*
X151853000Y-84074000D01*
X146963000Y-84074000D02*
X147613000Y-84074000D01*
X151133000Y-85194000D02*
X151133000Y-82954000D01*
X151013000Y-85194000D02*
X151013000Y-82954000D01*
X151253000Y-85194000D02*
X151253000Y-82954000D01*
%TO.C,D2*%
X161505000Y-104625000D02*
X161505000Y-102385000D01*
X161505000Y-102385000D02*
X157265000Y-102385000D01*
X157265000Y-102385000D02*
X157265000Y-104625000D01*
X157265000Y-104625000D02*
X161505000Y-104625000D01*
X162155000Y-103505000D02*
X161505000Y-103505000D01*
X156615000Y-103505000D02*
X157265000Y-103505000D01*
X160785000Y-104625000D02*
X160785000Y-102385000D01*
X160665000Y-104625000D02*
X160665000Y-102385000D01*
X160905000Y-104625000D02*
X160905000Y-102385000D01*
%TO.C,D1*%
X136740000Y-89258000D02*
X136740000Y-87018000D01*
X136740000Y-87018000D02*
X132500000Y-87018000D01*
X132500000Y-87018000D02*
X132500000Y-89258000D01*
X132500000Y-89258000D02*
X136740000Y-89258000D01*
X137390000Y-88138000D02*
X136740000Y-88138000D01*
X131850000Y-88138000D02*
X132500000Y-88138000D01*
X136020000Y-89258000D02*
X136020000Y-87018000D01*
X135900000Y-89258000D02*
X135900000Y-87018000D01*
X136140000Y-89258000D02*
X136140000Y-87018000D01*
%TO.C,C4*%
X150321000Y-77871000D02*
G75*
G03*
X150321000Y-77871000I-2620000J0D01*
G01*
X145121000Y-77871000D02*
X150281000Y-77871000D01*
X145121000Y-77831000D02*
X150281000Y-77831000D01*
X145122000Y-77791000D02*
X150280000Y-77791000D01*
X145123000Y-77751000D02*
X150279000Y-77751000D01*
X145125000Y-77711000D02*
X150277000Y-77711000D01*
X145128000Y-77671000D02*
X150274000Y-77671000D01*
X145132000Y-77631000D02*
X146661000Y-77631000D01*
X148741000Y-77631000D02*
X150270000Y-77631000D01*
X145136000Y-77591000D02*
X146661000Y-77591000D01*
X148741000Y-77591000D02*
X150266000Y-77591000D01*
X145140000Y-77551000D02*
X146661000Y-77551000D01*
X148741000Y-77551000D02*
X150262000Y-77551000D01*
X145145000Y-77511000D02*
X146661000Y-77511000D01*
X148741000Y-77511000D02*
X150257000Y-77511000D01*
X145151000Y-77471000D02*
X146661000Y-77471000D01*
X148741000Y-77471000D02*
X150251000Y-77471000D01*
X145158000Y-77431000D02*
X146661000Y-77431000D01*
X148741000Y-77431000D02*
X150244000Y-77431000D01*
X145165000Y-77391000D02*
X146661000Y-77391000D01*
X148741000Y-77391000D02*
X150237000Y-77391000D01*
X145173000Y-77351000D02*
X146661000Y-77351000D01*
X148741000Y-77351000D02*
X150229000Y-77351000D01*
X145181000Y-77311000D02*
X146661000Y-77311000D01*
X148741000Y-77311000D02*
X150221000Y-77311000D01*
X145190000Y-77271000D02*
X146661000Y-77271000D01*
X148741000Y-77271000D02*
X150212000Y-77271000D01*
X145200000Y-77231000D02*
X146661000Y-77231000D01*
X148741000Y-77231000D02*
X150202000Y-77231000D01*
X145210000Y-77191000D02*
X146661000Y-77191000D01*
X148741000Y-77191000D02*
X150192000Y-77191000D01*
X145221000Y-77150000D02*
X146661000Y-77150000D01*
X148741000Y-77150000D02*
X150181000Y-77150000D01*
X145233000Y-77110000D02*
X146661000Y-77110000D01*
X148741000Y-77110000D02*
X150169000Y-77110000D01*
X145246000Y-77070000D02*
X146661000Y-77070000D01*
X148741000Y-77070000D02*
X150156000Y-77070000D01*
X145259000Y-77030000D02*
X146661000Y-77030000D01*
X148741000Y-77030000D02*
X150143000Y-77030000D01*
X145273000Y-76990000D02*
X146661000Y-76990000D01*
X148741000Y-76990000D02*
X150129000Y-76990000D01*
X145287000Y-76950000D02*
X146661000Y-76950000D01*
X148741000Y-76950000D02*
X150115000Y-76950000D01*
X145303000Y-76910000D02*
X146661000Y-76910000D01*
X148741000Y-76910000D02*
X150099000Y-76910000D01*
X145319000Y-76870000D02*
X146661000Y-76870000D01*
X148741000Y-76870000D02*
X150083000Y-76870000D01*
X145336000Y-76830000D02*
X146661000Y-76830000D01*
X148741000Y-76830000D02*
X150066000Y-76830000D01*
X145353000Y-76790000D02*
X146661000Y-76790000D01*
X148741000Y-76790000D02*
X150049000Y-76790000D01*
X145372000Y-76750000D02*
X146661000Y-76750000D01*
X148741000Y-76750000D02*
X150030000Y-76750000D01*
X145391000Y-76710000D02*
X146661000Y-76710000D01*
X148741000Y-76710000D02*
X150011000Y-76710000D01*
X145411000Y-76670000D02*
X146661000Y-76670000D01*
X148741000Y-76670000D02*
X149991000Y-76670000D01*
X145433000Y-76630000D02*
X146661000Y-76630000D01*
X148741000Y-76630000D02*
X149969000Y-76630000D01*
X145454000Y-76590000D02*
X146661000Y-76590000D01*
X148741000Y-76590000D02*
X149948000Y-76590000D01*
X145477000Y-76550000D02*
X146661000Y-76550000D01*
X148741000Y-76550000D02*
X149925000Y-76550000D01*
X145501000Y-76510000D02*
X146661000Y-76510000D01*
X148741000Y-76510000D02*
X149901000Y-76510000D01*
X145526000Y-76470000D02*
X146661000Y-76470000D01*
X148741000Y-76470000D02*
X149876000Y-76470000D01*
X145552000Y-76430000D02*
X146661000Y-76430000D01*
X148741000Y-76430000D02*
X149850000Y-76430000D01*
X145579000Y-76390000D02*
X146661000Y-76390000D01*
X148741000Y-76390000D02*
X149823000Y-76390000D01*
X145606000Y-76350000D02*
X146661000Y-76350000D01*
X148741000Y-76350000D02*
X149796000Y-76350000D01*
X145636000Y-76310000D02*
X146661000Y-76310000D01*
X148741000Y-76310000D02*
X149766000Y-76310000D01*
X145666000Y-76270000D02*
X146661000Y-76270000D01*
X148741000Y-76270000D02*
X149736000Y-76270000D01*
X145697000Y-76230000D02*
X146661000Y-76230000D01*
X148741000Y-76230000D02*
X149705000Y-76230000D01*
X145730000Y-76190000D02*
X146661000Y-76190000D01*
X148741000Y-76190000D02*
X149672000Y-76190000D01*
X145764000Y-76150000D02*
X146661000Y-76150000D01*
X148741000Y-76150000D02*
X149638000Y-76150000D01*
X145800000Y-76110000D02*
X146661000Y-76110000D01*
X148741000Y-76110000D02*
X149602000Y-76110000D01*
X145837000Y-76070000D02*
X146661000Y-76070000D01*
X148741000Y-76070000D02*
X149565000Y-76070000D01*
X145875000Y-76030000D02*
X146661000Y-76030000D01*
X148741000Y-76030000D02*
X149527000Y-76030000D01*
X145916000Y-75990000D02*
X146661000Y-75990000D01*
X148741000Y-75990000D02*
X149486000Y-75990000D01*
X145958000Y-75950000D02*
X146661000Y-75950000D01*
X148741000Y-75950000D02*
X149444000Y-75950000D01*
X146002000Y-75910000D02*
X146661000Y-75910000D01*
X148741000Y-75910000D02*
X149400000Y-75910000D01*
X146048000Y-75870000D02*
X146661000Y-75870000D01*
X148741000Y-75870000D02*
X149354000Y-75870000D01*
X146096000Y-75830000D02*
X146661000Y-75830000D01*
X148741000Y-75830000D02*
X149306000Y-75830000D01*
X146147000Y-75790000D02*
X146661000Y-75790000D01*
X148741000Y-75790000D02*
X149255000Y-75790000D01*
X146201000Y-75750000D02*
X146661000Y-75750000D01*
X148741000Y-75750000D02*
X149201000Y-75750000D01*
X146258000Y-75710000D02*
X146661000Y-75710000D01*
X148741000Y-75710000D02*
X149144000Y-75710000D01*
X146318000Y-75670000D02*
X146661000Y-75670000D01*
X148741000Y-75670000D02*
X149084000Y-75670000D01*
X146382000Y-75630000D02*
X146661000Y-75630000D01*
X148741000Y-75630000D02*
X149020000Y-75630000D01*
X146450000Y-75590000D02*
X146661000Y-75590000D01*
X148741000Y-75590000D02*
X148952000Y-75590000D01*
X146523000Y-75550000D02*
X148879000Y-75550000D01*
X146603000Y-75510000D02*
X148799000Y-75510000D01*
X146690000Y-75470000D02*
X148712000Y-75470000D01*
X146786000Y-75430000D02*
X148616000Y-75430000D01*
X146896000Y-75390000D02*
X148506000Y-75390000D01*
X147024000Y-75350000D02*
X148378000Y-75350000D01*
X147183000Y-75310000D02*
X148219000Y-75310000D01*
X147417000Y-75270000D02*
X147985000Y-75270000D01*
X146226000Y-80675775D02*
X146226000Y-80175775D01*
X145976000Y-80425775D02*
X146476000Y-80425775D01*
%TD*%
%TO.C,Guia2*%
X163896000Y-84994000D02*
X163829333Y-84960666D01*
X163729333Y-84960666D01*
X163629333Y-84994000D01*
X163562666Y-85060666D01*
X163529333Y-85127333D01*
X163496000Y-85260666D01*
X163496000Y-85360666D01*
X163529333Y-85494000D01*
X163562666Y-85560666D01*
X163629333Y-85627333D01*
X163729333Y-85660666D01*
X163796000Y-85660666D01*
X163896000Y-85627333D01*
X163929333Y-85594000D01*
X163929333Y-85360666D01*
X163796000Y-85360666D01*
X164529333Y-85194000D02*
X164529333Y-85660666D01*
X164229333Y-85194000D02*
X164229333Y-85560666D01*
X164262666Y-85627333D01*
X164329333Y-85660666D01*
X164429333Y-85660666D01*
X164496000Y-85627333D01*
X164529333Y-85594000D01*
X164862666Y-85660666D02*
X164862666Y-85194000D01*
X164862666Y-84960666D02*
X164829333Y-84994000D01*
X164862666Y-85027333D01*
X164896000Y-84994000D01*
X164862666Y-84960666D01*
X164862666Y-85027333D01*
X165496000Y-85660666D02*
X165496000Y-85294000D01*
X165462666Y-85227333D01*
X165396000Y-85194000D01*
X165262666Y-85194000D01*
X165196000Y-85227333D01*
X165496000Y-85627333D02*
X165429333Y-85660666D01*
X165262666Y-85660666D01*
X165196000Y-85627333D01*
X165162666Y-85560666D01*
X165162666Y-85494000D01*
X165196000Y-85427333D01*
X165262666Y-85394000D01*
X165429333Y-85394000D01*
X165496000Y-85360666D01*
X165796000Y-85027333D02*
X165829333Y-84994000D01*
X165896000Y-84960666D01*
X166062666Y-84960666D01*
X166129333Y-84994000D01*
X166162666Y-85027333D01*
X166196000Y-85094000D01*
X166196000Y-85160666D01*
X166162666Y-85260666D01*
X165762666Y-85660666D01*
X166196000Y-85660666D01*
%TO.C,Guia3*%
X126396000Y-116520000D02*
X126362666Y-116586666D01*
X126362666Y-116686666D01*
X126396000Y-116786666D01*
X126462666Y-116853333D01*
X126529333Y-116886666D01*
X126662666Y-116920000D01*
X126762666Y-116920000D01*
X126896000Y-116886666D01*
X126962666Y-116853333D01*
X127029333Y-116786666D01*
X127062666Y-116686666D01*
X127062666Y-116620000D01*
X127029333Y-116520000D01*
X126996000Y-116486666D01*
X126762666Y-116486666D01*
X126762666Y-116620000D01*
X126596000Y-115886666D02*
X127062666Y-115886666D01*
X126596000Y-116186666D02*
X126962666Y-116186666D01*
X127029333Y-116153333D01*
X127062666Y-116086666D01*
X127062666Y-115986666D01*
X127029333Y-115920000D01*
X126996000Y-115886666D01*
X127062666Y-115553333D02*
X126596000Y-115553333D01*
X126362666Y-115553333D02*
X126396000Y-115586666D01*
X126429333Y-115553333D01*
X126396000Y-115520000D01*
X126362666Y-115553333D01*
X126429333Y-115553333D01*
X127062666Y-114920000D02*
X126696000Y-114920000D01*
X126629333Y-114953333D01*
X126596000Y-115020000D01*
X126596000Y-115153333D01*
X126629333Y-115220000D01*
X127029333Y-114920000D02*
X127062666Y-114986666D01*
X127062666Y-115153333D01*
X127029333Y-115220000D01*
X126962666Y-115253333D01*
X126896000Y-115253333D01*
X126829333Y-115220000D01*
X126796000Y-115153333D01*
X126796000Y-114986666D01*
X126762666Y-114920000D01*
X126362666Y-114653333D02*
X126362666Y-114220000D01*
X126629333Y-114453333D01*
X126629333Y-114353333D01*
X126662666Y-114286666D01*
X126696000Y-114253333D01*
X126762666Y-114220000D01*
X126929333Y-114220000D01*
X126996000Y-114253333D01*
X127029333Y-114286666D01*
X127062666Y-114353333D01*
X127062666Y-114553333D01*
X127029333Y-114620000D01*
X126996000Y-114653333D01*
%TO.C,Guia1*%
X129352000Y-73183000D02*
X129285333Y-73149666D01*
X129185333Y-73149666D01*
X129085333Y-73183000D01*
X129018666Y-73249666D01*
X128985333Y-73316333D01*
X128952000Y-73449666D01*
X128952000Y-73549666D01*
X128985333Y-73683000D01*
X129018666Y-73749666D01*
X129085333Y-73816333D01*
X129185333Y-73849666D01*
X129252000Y-73849666D01*
X129352000Y-73816333D01*
X129385333Y-73783000D01*
X129385333Y-73549666D01*
X129252000Y-73549666D01*
X129985333Y-73383000D02*
X129985333Y-73849666D01*
X129685333Y-73383000D02*
X129685333Y-73749666D01*
X129718666Y-73816333D01*
X129785333Y-73849666D01*
X129885333Y-73849666D01*
X129952000Y-73816333D01*
X129985333Y-73783000D01*
X130318666Y-73849666D02*
X130318666Y-73383000D01*
X130318666Y-73149666D02*
X130285333Y-73183000D01*
X130318666Y-73216333D01*
X130352000Y-73183000D01*
X130318666Y-73149666D01*
X130318666Y-73216333D01*
X130952000Y-73849666D02*
X130952000Y-73483000D01*
X130918666Y-73416333D01*
X130852000Y-73383000D01*
X130718666Y-73383000D01*
X130652000Y-73416333D01*
X130952000Y-73816333D02*
X130885333Y-73849666D01*
X130718666Y-73849666D01*
X130652000Y-73816333D01*
X130618666Y-73749666D01*
X130618666Y-73683000D01*
X130652000Y-73616333D01*
X130718666Y-73583000D01*
X130885333Y-73583000D01*
X130952000Y-73549666D01*
X131652000Y-73849666D02*
X131252000Y-73849666D01*
X131452000Y-73849666D02*
X131452000Y-73149666D01*
X131385333Y-73249666D01*
X131318666Y-73316333D01*
X131252000Y-73349666D01*
%TO.C,Guia4*%
X171862000Y-109535000D02*
X171828666Y-109601666D01*
X171828666Y-109701666D01*
X171862000Y-109801666D01*
X171928666Y-109868333D01*
X171995333Y-109901666D01*
X172128666Y-109935000D01*
X172228666Y-109935000D01*
X172362000Y-109901666D01*
X172428666Y-109868333D01*
X172495333Y-109801666D01*
X172528666Y-109701666D01*
X172528666Y-109635000D01*
X172495333Y-109535000D01*
X172462000Y-109501666D01*
X172228666Y-109501666D01*
X172228666Y-109635000D01*
X172062000Y-108901666D02*
X172528666Y-108901666D01*
X172062000Y-109201666D02*
X172428666Y-109201666D01*
X172495333Y-109168333D01*
X172528666Y-109101666D01*
X172528666Y-109001666D01*
X172495333Y-108935000D01*
X172462000Y-108901666D01*
X172528666Y-108568333D02*
X172062000Y-108568333D01*
X171828666Y-108568333D02*
X171862000Y-108601666D01*
X171895333Y-108568333D01*
X171862000Y-108535000D01*
X171828666Y-108568333D01*
X171895333Y-108568333D01*
X172528666Y-107935000D02*
X172162000Y-107935000D01*
X172095333Y-107968333D01*
X172062000Y-108035000D01*
X172062000Y-108168333D01*
X172095333Y-108235000D01*
X172495333Y-107935000D02*
X172528666Y-108001666D01*
X172528666Y-108168333D01*
X172495333Y-108235000D01*
X172428666Y-108268333D01*
X172362000Y-108268333D01*
X172295333Y-108235000D01*
X172262000Y-108168333D01*
X172262000Y-108001666D01*
X172228666Y-107935000D01*
X172062000Y-107301666D02*
X172528666Y-107301666D01*
X171795333Y-107468333D02*
X172295333Y-107635000D01*
X172295333Y-107201666D01*
%TO.C,JP3*%
D12*
X157281666Y-85812380D02*
X157281666Y-86526666D01*
X157234047Y-86669523D01*
X157138809Y-86764761D01*
X156995952Y-86812380D01*
X156900714Y-86812380D01*
X157757857Y-86812380D02*
X157757857Y-85812380D01*
X158138809Y-85812380D01*
X158234047Y-85860000D01*
X158281666Y-85907619D01*
X158329285Y-86002857D01*
X158329285Y-86145714D01*
X158281666Y-86240952D01*
X158234047Y-86288571D01*
X158138809Y-86336190D01*
X157757857Y-86336190D01*
X158662619Y-85812380D02*
X159281666Y-85812380D01*
X158948333Y-86193333D01*
X159091190Y-86193333D01*
X159186428Y-86240952D01*
X159234047Y-86288571D01*
X159281666Y-86383809D01*
X159281666Y-86621904D01*
X159234047Y-86717142D01*
X159186428Y-86764761D01*
X159091190Y-86812380D01*
X158805476Y-86812380D01*
X158710238Y-86764761D01*
X158662619Y-86717142D01*
%TO.C,PP1*%
X153066904Y-89352380D02*
X153066904Y-88352380D01*
X153447857Y-88352380D01*
X153543095Y-88400000D01*
X153590714Y-88447619D01*
X153638333Y-88542857D01*
X153638333Y-88685714D01*
X153590714Y-88780952D01*
X153543095Y-88828571D01*
X153447857Y-88876190D01*
X153066904Y-88876190D01*
X154066904Y-89352380D02*
X154066904Y-88352380D01*
X154447857Y-88352380D01*
X154543095Y-88400000D01*
X154590714Y-88447619D01*
X154638333Y-88542857D01*
X154638333Y-88685714D01*
X154590714Y-88780952D01*
X154543095Y-88828571D01*
X154447857Y-88876190D01*
X154066904Y-88876190D01*
X155590714Y-89352380D02*
X155019285Y-89352380D01*
X155305000Y-89352380D02*
X155305000Y-88352380D01*
X155209761Y-88495238D01*
X155114523Y-88590476D01*
X155019285Y-88638095D01*
%TO.C,C2*%
X163536333Y-87987142D02*
X163488714Y-88034761D01*
X163345857Y-88082380D01*
X163250619Y-88082380D01*
X163107761Y-88034761D01*
X163012523Y-87939523D01*
X162964904Y-87844285D01*
X162917285Y-87653809D01*
X162917285Y-87510952D01*
X162964904Y-87320476D01*
X163012523Y-87225238D01*
X163107761Y-87130000D01*
X163250619Y-87082380D01*
X163345857Y-87082380D01*
X163488714Y-87130000D01*
X163536333Y-87177619D01*
X163917285Y-87177619D02*
X163964904Y-87130000D01*
X164060142Y-87082380D01*
X164298238Y-87082380D01*
X164393476Y-87130000D01*
X164441095Y-87177619D01*
X164488714Y-87272857D01*
X164488714Y-87368095D01*
X164441095Y-87510952D01*
X163869666Y-88082380D01*
X164488714Y-88082380D01*
%TO.C,C6*%
X147122333Y-106402142D02*
X147074714Y-106449761D01*
X146931857Y-106497380D01*
X146836619Y-106497380D01*
X146693761Y-106449761D01*
X146598523Y-106354523D01*
X146550904Y-106259285D01*
X146503285Y-106068809D01*
X146503285Y-105925952D01*
X146550904Y-105735476D01*
X146598523Y-105640238D01*
X146693761Y-105545000D01*
X146836619Y-105497380D01*
X146931857Y-105497380D01*
X147074714Y-105545000D01*
X147122333Y-105592619D01*
X147979476Y-105497380D02*
X147789000Y-105497380D01*
X147693761Y-105545000D01*
X147646142Y-105592619D01*
X147550904Y-105735476D01*
X147503285Y-105925952D01*
X147503285Y-106306904D01*
X147550904Y-106402142D01*
X147598523Y-106449761D01*
X147693761Y-106497380D01*
X147884238Y-106497380D01*
X147979476Y-106449761D01*
X148027095Y-106402142D01*
X148074714Y-106306904D01*
X148074714Y-106068809D01*
X148027095Y-105973571D01*
X147979476Y-105925952D01*
X147884238Y-105878333D01*
X147693761Y-105878333D01*
X147598523Y-105925952D01*
X147550904Y-105973571D01*
X147503285Y-106068809D01*
%TO.C,C3*%
X168556333Y-101703142D02*
X168508714Y-101750761D01*
X168365857Y-101798380D01*
X168270619Y-101798380D01*
X168127761Y-101750761D01*
X168032523Y-101655523D01*
X167984904Y-101560285D01*
X167937285Y-101369809D01*
X167937285Y-101226952D01*
X167984904Y-101036476D01*
X168032523Y-100941238D01*
X168127761Y-100846000D01*
X168270619Y-100798380D01*
X168365857Y-100798380D01*
X168508714Y-100846000D01*
X168556333Y-100893619D01*
X168889666Y-100798380D02*
X169508714Y-100798380D01*
X169175380Y-101179333D01*
X169318238Y-101179333D01*
X169413476Y-101226952D01*
X169461095Y-101274571D01*
X169508714Y-101369809D01*
X169508714Y-101607904D01*
X169461095Y-101703142D01*
X169413476Y-101750761D01*
X169318238Y-101798380D01*
X169032523Y-101798380D01*
X168937285Y-101750761D01*
X168889666Y-101703142D01*
%TO.C,C1*%
X130663333Y-85447142D02*
X130615714Y-85494761D01*
X130472857Y-85542380D01*
X130377619Y-85542380D01*
X130234761Y-85494761D01*
X130139523Y-85399523D01*
X130091904Y-85304285D01*
X130044285Y-85113809D01*
X130044285Y-84970952D01*
X130091904Y-84780476D01*
X130139523Y-84685238D01*
X130234761Y-84590000D01*
X130377619Y-84542380D01*
X130472857Y-84542380D01*
X130615714Y-84590000D01*
X130663333Y-84637619D01*
X131615714Y-85542380D02*
X131044285Y-85542380D01*
X131330000Y-85542380D02*
X131330000Y-84542380D01*
X131234761Y-84685238D01*
X131139523Y-84780476D01*
X131044285Y-84828095D01*
%TO.C,C7*%
X152122142Y-78144666D02*
X152169761Y-78192285D01*
X152217380Y-78335142D01*
X152217380Y-78430380D01*
X152169761Y-78573238D01*
X152074523Y-78668476D01*
X151979285Y-78716095D01*
X151788809Y-78763714D01*
X151645952Y-78763714D01*
X151455476Y-78716095D01*
X151360238Y-78668476D01*
X151265000Y-78573238D01*
X151217380Y-78430380D01*
X151217380Y-78335142D01*
X151265000Y-78192285D01*
X151312619Y-78144666D01*
X151217380Y-77811333D02*
X151217380Y-77144666D01*
X152217380Y-77573238D01*
%TO.C,C8*%
X147122333Y-108982142D02*
X147074714Y-109029761D01*
X146931857Y-109077380D01*
X146836619Y-109077380D01*
X146693761Y-109029761D01*
X146598523Y-108934523D01*
X146550904Y-108839285D01*
X146503285Y-108648809D01*
X146503285Y-108505952D01*
X146550904Y-108315476D01*
X146598523Y-108220238D01*
X146693761Y-108125000D01*
X146836619Y-108077380D01*
X146931857Y-108077380D01*
X147074714Y-108125000D01*
X147122333Y-108172619D01*
X147693761Y-108505952D02*
X147598523Y-108458333D01*
X147550904Y-108410714D01*
X147503285Y-108315476D01*
X147503285Y-108267857D01*
X147550904Y-108172619D01*
X147598523Y-108125000D01*
X147693761Y-108077380D01*
X147884238Y-108077380D01*
X147979476Y-108125000D01*
X148027095Y-108172619D01*
X148074714Y-108267857D01*
X148074714Y-108315476D01*
X148027095Y-108410714D01*
X147979476Y-108458333D01*
X147884238Y-108505952D01*
X147693761Y-108505952D01*
X147598523Y-108553571D01*
X147550904Y-108601190D01*
X147503285Y-108696428D01*
X147503285Y-108886904D01*
X147550904Y-108982142D01*
X147598523Y-109029761D01*
X147693761Y-109077380D01*
X147884238Y-109077380D01*
X147979476Y-109029761D01*
X148027095Y-108982142D01*
X148074714Y-108886904D01*
X148074714Y-108696428D01*
X148027095Y-108601190D01*
X147979476Y-108553571D01*
X147884238Y-108505952D01*
%TO.C,C5*%
X168429333Y-109577142D02*
X168381714Y-109624761D01*
X168238857Y-109672380D01*
X168143619Y-109672380D01*
X168000761Y-109624761D01*
X167905523Y-109529523D01*
X167857904Y-109434285D01*
X167810285Y-109243809D01*
X167810285Y-109100952D01*
X167857904Y-108910476D01*
X167905523Y-108815238D01*
X168000761Y-108720000D01*
X168143619Y-108672380D01*
X168238857Y-108672380D01*
X168381714Y-108720000D01*
X168429333Y-108767619D01*
X169334095Y-108672380D02*
X168857904Y-108672380D01*
X168810285Y-109148571D01*
X168857904Y-109100952D01*
X168953142Y-109053333D01*
X169191238Y-109053333D01*
X169286476Y-109100952D01*
X169334095Y-109148571D01*
X169381714Y-109243809D01*
X169381714Y-109481904D01*
X169334095Y-109577142D01*
X169286476Y-109624761D01*
X169191238Y-109672380D01*
X168953142Y-109672380D01*
X168857904Y-109624761D01*
X168810285Y-109577142D01*
%TO.C,JP4*%
X150201380Y-89606333D02*
X150915666Y-89606333D01*
X151058523Y-89653952D01*
X151153761Y-89749190D01*
X151201380Y-89892047D01*
X151201380Y-89987285D01*
X151201380Y-89130142D02*
X150201380Y-89130142D01*
X150201380Y-88749190D01*
X150249000Y-88653952D01*
X150296619Y-88606333D01*
X150391857Y-88558714D01*
X150534714Y-88558714D01*
X150629952Y-88606333D01*
X150677571Y-88653952D01*
X150725190Y-88749190D01*
X150725190Y-89130142D01*
X150534714Y-87701571D02*
X151201380Y-87701571D01*
X150153761Y-87939666D02*
X150868047Y-88177761D01*
X150868047Y-87558714D01*
%TO.C,JP7*%
X152233380Y-110053333D02*
X152947666Y-110053333D01*
X153090523Y-110100952D01*
X153185761Y-110196190D01*
X153233380Y-110339047D01*
X153233380Y-110434285D01*
X153233380Y-109577142D02*
X152233380Y-109577142D01*
X152233380Y-109196190D01*
X152281000Y-109100952D01*
X152328619Y-109053333D01*
X152423857Y-109005714D01*
X152566714Y-109005714D01*
X152661952Y-109053333D01*
X152709571Y-109100952D01*
X152757190Y-109196190D01*
X152757190Y-109577142D01*
X152233380Y-108672380D02*
X152233380Y-108005714D01*
X153233380Y-108434285D01*
%TO.C,JP6*%
X143724380Y-108148333D02*
X144438666Y-108148333D01*
X144581523Y-108195952D01*
X144676761Y-108291190D01*
X144724380Y-108434047D01*
X144724380Y-108529285D01*
X144724380Y-107672142D02*
X143724380Y-107672142D01*
X143724380Y-107291190D01*
X143772000Y-107195952D01*
X143819619Y-107148333D01*
X143914857Y-107100714D01*
X144057714Y-107100714D01*
X144152952Y-107148333D01*
X144200571Y-107195952D01*
X144248190Y-107291190D01*
X144248190Y-107672142D01*
X143724380Y-106243571D02*
X143724380Y-106434047D01*
X143772000Y-106529285D01*
X143819619Y-106576904D01*
X143962476Y-106672142D01*
X144152952Y-106719761D01*
X144533904Y-106719761D01*
X144629142Y-106672142D01*
X144676761Y-106624523D01*
X144724380Y-106529285D01*
X144724380Y-106338809D01*
X144676761Y-106243571D01*
X144629142Y-106195952D01*
X144533904Y-106148333D01*
X144295809Y-106148333D01*
X144200571Y-106195952D01*
X144152952Y-106243571D01*
X144105333Y-106338809D01*
X144105333Y-106529285D01*
X144152952Y-106624523D01*
X144200571Y-106672142D01*
X144295809Y-106719761D01*
%TO.C,JP5*%
X173315380Y-87574333D02*
X174029666Y-87574333D01*
X174172523Y-87621952D01*
X174267761Y-87717190D01*
X174315380Y-87860047D01*
X174315380Y-87955285D01*
X174315380Y-87098142D02*
X173315380Y-87098142D01*
X173315380Y-86717190D01*
X173363000Y-86621952D01*
X173410619Y-86574333D01*
X173505857Y-86526714D01*
X173648714Y-86526714D01*
X173743952Y-86574333D01*
X173791571Y-86621952D01*
X173839190Y-86717190D01*
X173839190Y-87098142D01*
X173315380Y-85621952D02*
X173315380Y-86098142D01*
X173791571Y-86145761D01*
X173743952Y-86098142D01*
X173696333Y-86002904D01*
X173696333Y-85764809D01*
X173743952Y-85669571D01*
X173791571Y-85621952D01*
X173886809Y-85574333D01*
X174124904Y-85574333D01*
X174220142Y-85621952D01*
X174267761Y-85669571D01*
X174315380Y-85764809D01*
X174315380Y-86002904D01*
X174267761Y-86098142D01*
X174220142Y-86145761D01*
%TO.C,JP2*%
X142422666Y-87209380D02*
X142422666Y-87923666D01*
X142375047Y-88066523D01*
X142279809Y-88161761D01*
X142136952Y-88209380D01*
X142041714Y-88209380D01*
X142898857Y-88209380D02*
X142898857Y-87209380D01*
X143279809Y-87209380D01*
X143375047Y-87257000D01*
X143422666Y-87304619D01*
X143470285Y-87399857D01*
X143470285Y-87542714D01*
X143422666Y-87637952D01*
X143375047Y-87685571D01*
X143279809Y-87733190D01*
X142898857Y-87733190D01*
X143851238Y-87304619D02*
X143898857Y-87257000D01*
X143994095Y-87209380D01*
X144232190Y-87209380D01*
X144327428Y-87257000D01*
X144375047Y-87304619D01*
X144422666Y-87399857D01*
X144422666Y-87495095D01*
X144375047Y-87637952D01*
X143803619Y-88209380D01*
X144422666Y-88209380D01*
%TO.C,JP1*%
X141692380Y-84310756D02*
X142406666Y-84310756D01*
X142549523Y-84358375D01*
X142644761Y-84453613D01*
X142692380Y-84596470D01*
X142692380Y-84691708D01*
X142692380Y-83834565D02*
X141692380Y-83834565D01*
X141692380Y-83453613D01*
X141740000Y-83358375D01*
X141787619Y-83310756D01*
X141882857Y-83263137D01*
X142025714Y-83263137D01*
X142120952Y-83310756D01*
X142168571Y-83358375D01*
X142216190Y-83453613D01*
X142216190Y-83834565D01*
X142692380Y-82310756D02*
X142692380Y-82882184D01*
X142692380Y-82596470D02*
X141692380Y-82596470D01*
X141835238Y-82691708D01*
X141930476Y-82786946D01*
X141978095Y-82882184D01*
%TO.C,JP8*%
X168711666Y-114387380D02*
X168711666Y-115101666D01*
X168664047Y-115244523D01*
X168568809Y-115339761D01*
X168425952Y-115387380D01*
X168330714Y-115387380D01*
X169187857Y-115387380D02*
X169187857Y-114387380D01*
X169568809Y-114387380D01*
X169664047Y-114435000D01*
X169711666Y-114482619D01*
X169759285Y-114577857D01*
X169759285Y-114720714D01*
X169711666Y-114815952D01*
X169664047Y-114863571D01*
X169568809Y-114911190D01*
X169187857Y-114911190D01*
X170330714Y-114815952D02*
X170235476Y-114768333D01*
X170187857Y-114720714D01*
X170140238Y-114625476D01*
X170140238Y-114577857D01*
X170187857Y-114482619D01*
X170235476Y-114435000D01*
X170330714Y-114387380D01*
X170521190Y-114387380D01*
X170616428Y-114435000D01*
X170664047Y-114482619D01*
X170711666Y-114577857D01*
X170711666Y-114625476D01*
X170664047Y-114720714D01*
X170616428Y-114768333D01*
X170521190Y-114815952D01*
X170330714Y-114815952D01*
X170235476Y-114863571D01*
X170187857Y-114911190D01*
X170140238Y-115006428D01*
X170140238Y-115196904D01*
X170187857Y-115292142D01*
X170235476Y-115339761D01*
X170330714Y-115387380D01*
X170521190Y-115387380D01*
X170616428Y-115339761D01*
X170664047Y-115292142D01*
X170711666Y-115196904D01*
X170711666Y-115006428D01*
X170664047Y-114911190D01*
X170616428Y-114863571D01*
X170521190Y-114815952D01*
%TO.C,D7*%
X129484380Y-112244095D02*
X128484380Y-112244095D01*
X128484380Y-112006000D01*
X128532000Y-111863142D01*
X128627238Y-111767904D01*
X128722476Y-111720285D01*
X128912952Y-111672666D01*
X129055809Y-111672666D01*
X129246285Y-111720285D01*
X129341523Y-111767904D01*
X129436761Y-111863142D01*
X129484380Y-112006000D01*
X129484380Y-112244095D01*
X128484380Y-111339333D02*
X128484380Y-110672666D01*
X129484380Y-111101238D01*
%TO.C,J1*%
X140332380Y-95543333D02*
X141046666Y-95543333D01*
X141189523Y-95590952D01*
X141284761Y-95686190D01*
X141332380Y-95829047D01*
X141332380Y-95924285D01*
X141332380Y-94543333D02*
X141332380Y-95114761D01*
X141332380Y-94829047D02*
X140332380Y-94829047D01*
X140475238Y-94924285D01*
X140570476Y-95019523D01*
X140618095Y-95114761D01*
%TO.C,SW1*%
X140739761Y-76898333D02*
X140787380Y-76755476D01*
X140787380Y-76517380D01*
X140739761Y-76422142D01*
X140692142Y-76374523D01*
X140596904Y-76326904D01*
X140501666Y-76326904D01*
X140406428Y-76374523D01*
X140358809Y-76422142D01*
X140311190Y-76517380D01*
X140263571Y-76707857D01*
X140215952Y-76803095D01*
X140168333Y-76850714D01*
X140073095Y-76898333D01*
X139977857Y-76898333D01*
X139882619Y-76850714D01*
X139835000Y-76803095D01*
X139787380Y-76707857D01*
X139787380Y-76469761D01*
X139835000Y-76326904D01*
X139787380Y-75993571D02*
X140787380Y-75755476D01*
X140073095Y-75565000D01*
X140787380Y-75374523D01*
X139787380Y-75136428D01*
X140787380Y-74231666D02*
X140787380Y-74803095D01*
X140787380Y-74517380D02*
X139787380Y-74517380D01*
X139930238Y-74612619D01*
X140025476Y-74707857D01*
X140073095Y-74803095D01*
%TO.C,R16*%
X138755380Y-106687857D02*
X138279190Y-107021190D01*
X138755380Y-107259285D02*
X137755380Y-107259285D01*
X137755380Y-106878333D01*
X137803000Y-106783095D01*
X137850619Y-106735476D01*
X137945857Y-106687857D01*
X138088714Y-106687857D01*
X138183952Y-106735476D01*
X138231571Y-106783095D01*
X138279190Y-106878333D01*
X138279190Y-107259285D01*
X138755380Y-105735476D02*
X138755380Y-106306904D01*
X138755380Y-106021190D02*
X137755380Y-106021190D01*
X137898238Y-106116428D01*
X137993476Y-106211666D01*
X138041095Y-106306904D01*
X137755380Y-104878333D02*
X137755380Y-105068809D01*
X137803000Y-105164047D01*
X137850619Y-105211666D01*
X137993476Y-105306904D01*
X138183952Y-105354523D01*
X138564904Y-105354523D01*
X138660142Y-105306904D01*
X138707761Y-105259285D01*
X138755380Y-105164047D01*
X138755380Y-104973571D01*
X138707761Y-104878333D01*
X138660142Y-104830714D01*
X138564904Y-104783095D01*
X138326809Y-104783095D01*
X138231571Y-104830714D01*
X138183952Y-104878333D01*
X138136333Y-104973571D01*
X138136333Y-105164047D01*
X138183952Y-105259285D01*
X138231571Y-105306904D01*
X138326809Y-105354523D01*
%TO.C,R15*%
X129611380Y-106687857D02*
X129135190Y-107021190D01*
X129611380Y-107259285D02*
X128611380Y-107259285D01*
X128611380Y-106878333D01*
X128659000Y-106783095D01*
X128706619Y-106735476D01*
X128801857Y-106687857D01*
X128944714Y-106687857D01*
X129039952Y-106735476D01*
X129087571Y-106783095D01*
X129135190Y-106878333D01*
X129135190Y-107259285D01*
X129611380Y-105735476D02*
X129611380Y-106306904D01*
X129611380Y-106021190D02*
X128611380Y-106021190D01*
X128754238Y-106116428D01*
X128849476Y-106211666D01*
X128897095Y-106306904D01*
X128611380Y-104830714D02*
X128611380Y-105306904D01*
X129087571Y-105354523D01*
X129039952Y-105306904D01*
X128992333Y-105211666D01*
X128992333Y-104973571D01*
X129039952Y-104878333D01*
X129087571Y-104830714D01*
X129182809Y-104783095D01*
X129420904Y-104783095D01*
X129516142Y-104830714D01*
X129563761Y-104878333D01*
X129611380Y-104973571D01*
X129611380Y-105211666D01*
X129563761Y-105306904D01*
X129516142Y-105354523D01*
%TO.C,SW2*%
X167449666Y-84351761D02*
X167592523Y-84399380D01*
X167830619Y-84399380D01*
X167925857Y-84351761D01*
X167973476Y-84304142D01*
X168021095Y-84208904D01*
X168021095Y-84113666D01*
X167973476Y-84018428D01*
X167925857Y-83970809D01*
X167830619Y-83923190D01*
X167640142Y-83875571D01*
X167544904Y-83827952D01*
X167497285Y-83780333D01*
X167449666Y-83685095D01*
X167449666Y-83589857D01*
X167497285Y-83494619D01*
X167544904Y-83447000D01*
X167640142Y-83399380D01*
X167878238Y-83399380D01*
X168021095Y-83447000D01*
X168354428Y-83399380D02*
X168592523Y-84399380D01*
X168783000Y-83685095D01*
X168973476Y-84399380D01*
X169211571Y-83399380D01*
X169544904Y-83494619D02*
X169592523Y-83447000D01*
X169687761Y-83399380D01*
X169925857Y-83399380D01*
X170021095Y-83447000D01*
X170068714Y-83494619D01*
X170116333Y-83589857D01*
X170116333Y-83685095D01*
X170068714Y-83827952D01*
X169497285Y-84399380D01*
X170116333Y-84399380D01*
%TO.C,TP1*%
X155964095Y-105878380D02*
X156535523Y-105878380D01*
X156249809Y-106878380D02*
X156249809Y-105878380D01*
X156868857Y-106878380D02*
X156868857Y-105878380D01*
X157249809Y-105878380D01*
X157345047Y-105926000D01*
X157392666Y-105973619D01*
X157440285Y-106068857D01*
X157440285Y-106211714D01*
X157392666Y-106306952D01*
X157345047Y-106354571D01*
X157249809Y-106402190D01*
X156868857Y-106402190D01*
X158392666Y-106878380D02*
X157821238Y-106878380D01*
X158106952Y-106878380D02*
X158106952Y-105878380D01*
X158011714Y-106021238D01*
X157916476Y-106116476D01*
X157821238Y-106164095D01*
%TO.C,R11*%
X134183380Y-106687857D02*
X133707190Y-107021190D01*
X134183380Y-107259285D02*
X133183380Y-107259285D01*
X133183380Y-106878333D01*
X133231000Y-106783095D01*
X133278619Y-106735476D01*
X133373857Y-106687857D01*
X133516714Y-106687857D01*
X133611952Y-106735476D01*
X133659571Y-106783095D01*
X133707190Y-106878333D01*
X133707190Y-107259285D01*
X134183380Y-105735476D02*
X134183380Y-106306904D01*
X134183380Y-106021190D02*
X133183380Y-106021190D01*
X133326238Y-106116428D01*
X133421476Y-106211666D01*
X133469095Y-106306904D01*
X134183380Y-104783095D02*
X134183380Y-105354523D01*
X134183380Y-105068809D02*
X133183380Y-105068809D01*
X133326238Y-105164047D01*
X133421476Y-105259285D01*
X133469095Y-105354523D01*
%TO.C,D8*%
X138755380Y-112244095D02*
X137755380Y-112244095D01*
X137755380Y-112006000D01*
X137803000Y-111863142D01*
X137898238Y-111767904D01*
X137993476Y-111720285D01*
X138183952Y-111672666D01*
X138326809Y-111672666D01*
X138517285Y-111720285D01*
X138612523Y-111767904D01*
X138707761Y-111863142D01*
X138755380Y-112006000D01*
X138755380Y-112244095D01*
X138183952Y-111101238D02*
X138136333Y-111196476D01*
X138088714Y-111244095D01*
X137993476Y-111291714D01*
X137945857Y-111291714D01*
X137850619Y-111244095D01*
X137803000Y-111196476D01*
X137755380Y-111101238D01*
X137755380Y-110910761D01*
X137803000Y-110815523D01*
X137850619Y-110767904D01*
X137945857Y-110720285D01*
X137993476Y-110720285D01*
X138088714Y-110767904D01*
X138136333Y-110815523D01*
X138183952Y-110910761D01*
X138183952Y-111101238D01*
X138231571Y-111196476D01*
X138279190Y-111244095D01*
X138374428Y-111291714D01*
X138564904Y-111291714D01*
X138660142Y-111244095D01*
X138707761Y-111196476D01*
X138755380Y-111101238D01*
X138755380Y-110910761D01*
X138707761Y-110815523D01*
X138660142Y-110767904D01*
X138564904Y-110720285D01*
X138374428Y-110720285D01*
X138279190Y-110767904D01*
X138231571Y-110815523D01*
X138183952Y-110910761D01*
%TO.C,D6*%
X161821904Y-113482380D02*
X161821904Y-112482380D01*
X162060000Y-112482380D01*
X162202857Y-112530000D01*
X162298095Y-112625238D01*
X162345714Y-112720476D01*
X162393333Y-112910952D01*
X162393333Y-113053809D01*
X162345714Y-113244285D01*
X162298095Y-113339523D01*
X162202857Y-113434761D01*
X162060000Y-113482380D01*
X161821904Y-113482380D01*
X163250476Y-112482380D02*
X163060000Y-112482380D01*
X162964761Y-112530000D01*
X162917142Y-112577619D01*
X162821904Y-112720476D01*
X162774285Y-112910952D01*
X162774285Y-113291904D01*
X162821904Y-113387142D01*
X162869523Y-113434761D01*
X162964761Y-113482380D01*
X163155238Y-113482380D01*
X163250476Y-113434761D01*
X163298095Y-113387142D01*
X163345714Y-113291904D01*
X163345714Y-113053809D01*
X163298095Y-112958571D01*
X163250476Y-112910952D01*
X163155238Y-112863333D01*
X162964761Y-112863333D01*
X162869523Y-112910952D01*
X162821904Y-112958571D01*
X162774285Y-113053809D01*
%TO.C,D5*%
X161821904Y-107767380D02*
X161821904Y-106767380D01*
X162060000Y-106767380D01*
X162202857Y-106815000D01*
X162298095Y-106910238D01*
X162345714Y-107005476D01*
X162393333Y-107195952D01*
X162393333Y-107338809D01*
X162345714Y-107529285D01*
X162298095Y-107624523D01*
X162202857Y-107719761D01*
X162060000Y-107767380D01*
X161821904Y-107767380D01*
X163298095Y-106767380D02*
X162821904Y-106767380D01*
X162774285Y-107243571D01*
X162821904Y-107195952D01*
X162917142Y-107148333D01*
X163155238Y-107148333D01*
X163250476Y-107195952D01*
X163298095Y-107243571D01*
X163345714Y-107338809D01*
X163345714Y-107576904D01*
X163298095Y-107672142D01*
X163250476Y-107719761D01*
X163155238Y-107767380D01*
X162917142Y-107767380D01*
X162821904Y-107719761D01*
X162774285Y-107672142D01*
%TO.C,D4*%
X134056380Y-112244095D02*
X133056380Y-112244095D01*
X133056380Y-112006000D01*
X133104000Y-111863142D01*
X133199238Y-111767904D01*
X133294476Y-111720285D01*
X133484952Y-111672666D01*
X133627809Y-111672666D01*
X133818285Y-111720285D01*
X133913523Y-111767904D01*
X134008761Y-111863142D01*
X134056380Y-112006000D01*
X134056380Y-112244095D01*
X133389714Y-110815523D02*
X134056380Y-110815523D01*
X133008761Y-111053619D02*
X133723047Y-111291714D01*
X133723047Y-110672666D01*
%TO.C,D3*%
X148994904Y-86646380D02*
X148994904Y-85646380D01*
X149233000Y-85646380D01*
X149375857Y-85694000D01*
X149471095Y-85789238D01*
X149518714Y-85884476D01*
X149566333Y-86074952D01*
X149566333Y-86217809D01*
X149518714Y-86408285D01*
X149471095Y-86503523D01*
X149375857Y-86598761D01*
X149233000Y-86646380D01*
X148994904Y-86646380D01*
X149899666Y-85646380D02*
X150518714Y-85646380D01*
X150185380Y-86027333D01*
X150328238Y-86027333D01*
X150423476Y-86074952D01*
X150471095Y-86122571D01*
X150518714Y-86217809D01*
X150518714Y-86455904D01*
X150471095Y-86551142D01*
X150423476Y-86598761D01*
X150328238Y-86646380D01*
X150042523Y-86646380D01*
X149947285Y-86598761D01*
X149899666Y-86551142D01*
%TO.C,D2*%
X161821904Y-102052380D02*
X161821904Y-101052380D01*
X162060000Y-101052380D01*
X162202857Y-101100000D01*
X162298095Y-101195238D01*
X162345714Y-101290476D01*
X162393333Y-101480952D01*
X162393333Y-101623809D01*
X162345714Y-101814285D01*
X162298095Y-101909523D01*
X162202857Y-102004761D01*
X162060000Y-102052380D01*
X161821904Y-102052380D01*
X162774285Y-101147619D02*
X162821904Y-101100000D01*
X162917142Y-101052380D01*
X163155238Y-101052380D01*
X163250476Y-101100000D01*
X163298095Y-101147619D01*
X163345714Y-101242857D01*
X163345714Y-101338095D01*
X163298095Y-101480952D01*
X162726666Y-102052380D01*
X163345714Y-102052380D01*
%TO.C,D1*%
X127531904Y-88717380D02*
X127531904Y-87717380D01*
X127770000Y-87717380D01*
X127912857Y-87765000D01*
X128008095Y-87860238D01*
X128055714Y-87955476D01*
X128103333Y-88145952D01*
X128103333Y-88288809D01*
X128055714Y-88479285D01*
X128008095Y-88574523D01*
X127912857Y-88669761D01*
X127770000Y-88717380D01*
X127531904Y-88717380D01*
X129055714Y-88717380D02*
X128484285Y-88717380D01*
X128770000Y-88717380D02*
X128770000Y-87717380D01*
X128674761Y-87860238D01*
X128579523Y-87955476D01*
X128484285Y-88003095D01*
%TO.C,C4*%
X144308142Y-78037666D02*
X144355761Y-78085285D01*
X144403380Y-78228142D01*
X144403380Y-78323380D01*
X144355761Y-78466238D01*
X144260523Y-78561476D01*
X144165285Y-78609095D01*
X143974809Y-78656714D01*
X143831952Y-78656714D01*
X143641476Y-78609095D01*
X143546238Y-78561476D01*
X143451000Y-78466238D01*
X143403380Y-78323380D01*
X143403380Y-78228142D01*
X143451000Y-78085285D01*
X143498619Y-78037666D01*
X143736714Y-77180523D02*
X144403380Y-77180523D01*
X143355761Y-77418619D02*
X144070047Y-77656714D01*
X144070047Y-77037666D01*
%TD*%
M02*
