%FSLAX45Y45*%
G04 Gerber Fmt 4.5, Leading zero omitted, Abs format (unit mm)*
G04 Created by KiCad (PCBNEW 5.1.12-84ad8e8a86~92~ubuntu20.04.1) date 2022-07-02 20:29:37*
%MOMM*%
%LPD*%
G01*
G04 APERTURE LIST*
%TA.AperFunction,Profile*%
%ADD10C,0.100000*%
%TD*%
%ADD11C,0.200000*%
%ADD12C,0.300000*%
G04 APERTURE END LIST*
D10*
X17373600Y-7239000D02*
G75*
G02*
X17526000Y-7391400I0J-152400D01*
G01*
X17526000Y-11658600D02*
G75*
G02*
X17373600Y-11811000I-152400J0D01*
G01*
X17526000Y-11658600D02*
X17526000Y-7391400D01*
X12573000Y-7391400D02*
G75*
G02*
X12725400Y-7239000I152400J0D01*
G01*
X12725400Y-11811000D02*
G75*
G02*
X12573000Y-11658600I0J152400D01*
G01*
X12573000Y-11658600D02*
X12573000Y-7391400D01*
X17373600Y-11811000D02*
X12725400Y-11811000D01*
X12725400Y-7239000D02*
X17373600Y-7239000D01*
D11*
X13046000Y-8778800D02*
X13116000Y-8848800D01*
X13116000Y-8778800D02*
X13046000Y-8848800D01*
X13096800Y-10188500D02*
X13166800Y-10258500D01*
X13166800Y-10188500D02*
X13096800Y-10258500D01*
X13096800Y-10950500D02*
X13166800Y-11020500D01*
X13166800Y-10950500D02*
X13096800Y-11020500D01*
X13096800Y-11204500D02*
X13166800Y-11274500D01*
X13166800Y-11204500D02*
X13096800Y-11274500D01*
X13096800Y-11458500D02*
X13166800Y-11528500D01*
X13166800Y-11458500D02*
X13096800Y-11528500D01*
X13173000Y-7585000D02*
X13243000Y-7655000D01*
X13243000Y-7585000D02*
X13173000Y-7655000D01*
X13173000Y-7839000D02*
X13243000Y-7909000D01*
X13243000Y-7839000D02*
X13173000Y-7909000D01*
X13173000Y-8093000D02*
X13243000Y-8163000D01*
X13243000Y-8093000D02*
X13173000Y-8163000D01*
X13302000Y-8461300D02*
X13372000Y-8531300D01*
X13372000Y-8461300D02*
X13302000Y-8531300D01*
X13552000Y-8461300D02*
X13622000Y-8531300D01*
X13622000Y-8461300D02*
X13552000Y-8531300D01*
X13554000Y-10188500D02*
X13624000Y-10258500D01*
X13624000Y-10188500D02*
X13554000Y-10258500D01*
X13554000Y-10950500D02*
X13624000Y-11020500D01*
X13624000Y-10950500D02*
X13554000Y-11020500D01*
X13554000Y-11204500D02*
X13624000Y-11274500D01*
X13624000Y-11204500D02*
X13554000Y-11274500D01*
X13554000Y-11458500D02*
X13624000Y-11528500D01*
X13624000Y-11458500D02*
X13554000Y-11528500D01*
X13711480Y-7585000D02*
X13781480Y-7655000D01*
X13781480Y-7585000D02*
X13711480Y-7655000D01*
X13711480Y-7839000D02*
X13781480Y-7909000D01*
X13781480Y-7839000D02*
X13711480Y-7909000D01*
X13711480Y-8093000D02*
X13781480Y-8163000D01*
X13781480Y-8093000D02*
X13711480Y-8163000D01*
X13808000Y-8778800D02*
X13878000Y-8848800D01*
X13878000Y-8778800D02*
X13808000Y-8848800D01*
X14011200Y-10188500D02*
X14081200Y-10258500D01*
X14081200Y-10188500D02*
X14011200Y-10258500D01*
X14011200Y-10950500D02*
X14081200Y-11020500D01*
X14081200Y-10950500D02*
X14011200Y-11020500D01*
X14011200Y-11204500D02*
X14081200Y-11274500D01*
X14081200Y-11204500D02*
X14011200Y-11274500D01*
X14011200Y-11458500D02*
X14081200Y-11528500D01*
X14081200Y-11458500D02*
X14011200Y-11528500D01*
X14062000Y-8029500D02*
X14132000Y-8099500D01*
X14132000Y-8029500D02*
X14062000Y-8099500D01*
X14064587Y-8615502D02*
X14134587Y-8685502D01*
X14134587Y-8615502D02*
X14064587Y-8685502D01*
X14100100Y-8855000D02*
X14170100Y-8925000D01*
X14170100Y-8855000D02*
X14100100Y-8925000D01*
X14252500Y-10074200D02*
X14322500Y-10144200D01*
X14322500Y-10074200D02*
X14252500Y-10144200D01*
X14252500Y-10485095D02*
X14322500Y-10555095D01*
X14322500Y-10485095D02*
X14252500Y-10555095D01*
X14506500Y-8855000D02*
X14576500Y-8925000D01*
X14576500Y-8855000D02*
X14506500Y-8925000D01*
X14557300Y-8372400D02*
X14627300Y-8442400D01*
X14627300Y-8372400D02*
X14557300Y-8442400D01*
X14570900Y-10315500D02*
X14640900Y-10385500D01*
X14640900Y-10315500D02*
X14570900Y-10385500D01*
X14570900Y-11077500D02*
X14640900Y-11147500D01*
X14640900Y-11077500D02*
X14570900Y-11147500D01*
X14735100Y-7627100D02*
X14805100Y-7697100D01*
X14805100Y-7627100D02*
X14735100Y-7697100D01*
X14735100Y-7877100D02*
X14805100Y-7947100D01*
X14805100Y-7877100D02*
X14735100Y-7947100D01*
X14820900Y-10315500D02*
X14890900Y-10385500D01*
X14890900Y-10315500D02*
X14820900Y-10385500D01*
X14820900Y-11077500D02*
X14890900Y-11147500D01*
X14890900Y-11077500D02*
X14820900Y-11147500D01*
X15135661Y-11248439D02*
X15205661Y-11318439D01*
X15205661Y-11248439D02*
X15135661Y-11318439D01*
X15141500Y-8613700D02*
X15211500Y-8683700D01*
X15211500Y-8613700D02*
X15141500Y-8683700D01*
X15141500Y-9451900D02*
X15211500Y-9521900D01*
X15211500Y-9451900D02*
X15141500Y-9521900D01*
X15141500Y-9995497D02*
X15211500Y-10065497D01*
X15211500Y-9995497D02*
X15141500Y-10065497D01*
X15319300Y-8372400D02*
X15389300Y-8442400D01*
X15389300Y-8372400D02*
X15319300Y-8442400D01*
X15395500Y-7627100D02*
X15465500Y-7697100D01*
X15465500Y-7627100D02*
X15395500Y-7697100D01*
X15395500Y-7877100D02*
X15465500Y-7947100D01*
X15465500Y-7877100D02*
X15395500Y-7947100D01*
X15395500Y-10602520D02*
X15465500Y-10672520D01*
X15465500Y-10602520D02*
X15395500Y-10672520D01*
X15522500Y-10315500D02*
X15592500Y-10385500D01*
X15592500Y-10315500D02*
X15522500Y-10385500D01*
X15522500Y-10887000D02*
X15592500Y-10957000D01*
X15592500Y-10887000D02*
X15522500Y-10957000D01*
X15522500Y-11458500D02*
X15592500Y-11528500D01*
X15592500Y-11458500D02*
X15522500Y-11528500D01*
X15573300Y-8474000D02*
X15643300Y-8544000D01*
X15643300Y-8474000D02*
X15573300Y-8544000D01*
X15967000Y-8474000D02*
X16037000Y-8544000D01*
X16037000Y-8474000D02*
X15967000Y-8544000D01*
X16284500Y-10315500D02*
X16354500Y-10385500D01*
X16354500Y-10315500D02*
X16284500Y-10385500D01*
X16284500Y-10887000D02*
X16354500Y-10957000D01*
X16354500Y-10887000D02*
X16284500Y-10957000D01*
X16284500Y-11458500D02*
X16354500Y-11528500D01*
X16354500Y-11458500D02*
X16284500Y-11528500D01*
X16304820Y-7585000D02*
X16374820Y-7655000D01*
X16374820Y-7585000D02*
X16304820Y-7655000D01*
X16304820Y-7839000D02*
X16374820Y-7909000D01*
X16374820Y-7839000D02*
X16304820Y-7909000D01*
X16304820Y-8093000D02*
X16374820Y-8163000D01*
X16374820Y-8093000D02*
X16304820Y-8163000D01*
X16551200Y-8728000D02*
X16621200Y-8798000D01*
X16621200Y-8728000D02*
X16551200Y-8798000D01*
X16568185Y-11335785D02*
X16638185Y-11405785D01*
X16638185Y-11335785D02*
X16568185Y-11405785D01*
X16701600Y-10315500D02*
X16771600Y-10385500D01*
X16771600Y-10315500D02*
X16701600Y-10385500D01*
X16701600Y-11077500D02*
X16771600Y-11147500D01*
X16771600Y-11077500D02*
X16701600Y-11147500D01*
X16843300Y-7585000D02*
X16913300Y-7655000D01*
X16913300Y-7585000D02*
X16843300Y-7655000D01*
X16843300Y-7839000D02*
X16913300Y-7909000D01*
X16913300Y-7839000D02*
X16843300Y-7909000D01*
X16843300Y-8093000D02*
X16913300Y-8163000D01*
X16913300Y-8093000D02*
X16843300Y-8163000D01*
X16951600Y-10315500D02*
X17021600Y-10385500D01*
X17021600Y-10315500D02*
X16951600Y-10385500D01*
X16951600Y-11077500D02*
X17021600Y-11147500D01*
X17021600Y-11077500D02*
X16951600Y-11147500D01*
X17051200Y-8728000D02*
X17121200Y-8798000D01*
X17121200Y-8728000D02*
X17051200Y-8798000D01*
X17216573Y-11335784D02*
X17286573Y-11405784D01*
X17286573Y-11335784D02*
X17216573Y-11405784D01*
X17237000Y-8385100D02*
X17307000Y-8455100D01*
X17307000Y-8385100D02*
X17237000Y-8455100D01*
X17237000Y-8893100D02*
X17307000Y-8963100D01*
X17307000Y-8893100D02*
X17237000Y-8963100D01*
X13522000Y-9271000D02*
G75*
G03*
X13522000Y-9271000I-60000J0D01*
G01*
X13522000Y-9771000D02*
G75*
G03*
X13522000Y-9771000I-60000J0D01*
G01*
X15621000Y-9365000D02*
X15621000Y-9685000D01*
X15461000Y-9525000D02*
X15781000Y-9525000D01*
X17018000Y-9365000D02*
X17018000Y-9685000D01*
X16858000Y-9525000D02*
X17178000Y-9525000D01*
D12*
X12854428Y-12281714D02*
X12854428Y-11981714D01*
X12925857Y-11981714D01*
X12968714Y-11996000D01*
X12997286Y-12024571D01*
X13011571Y-12053143D01*
X13025857Y-12110286D01*
X13025857Y-12153143D01*
X13011571Y-12210286D01*
X12997286Y-12238857D01*
X12968714Y-12267429D01*
X12925857Y-12281714D01*
X12854428Y-12281714D01*
X13154428Y-12281714D02*
X13154428Y-12081714D01*
X13154428Y-12138857D02*
X13168714Y-12110286D01*
X13183000Y-12096000D01*
X13211571Y-12081714D01*
X13240143Y-12081714D01*
X13340143Y-12281714D02*
X13340143Y-12081714D01*
X13340143Y-11981714D02*
X13325857Y-11996000D01*
X13340143Y-12010286D01*
X13354428Y-11996000D01*
X13340143Y-11981714D01*
X13340143Y-12010286D01*
X13525857Y-12281714D02*
X13497286Y-12267429D01*
X13483000Y-12238857D01*
X13483000Y-11981714D01*
X13683000Y-12281714D02*
X13654428Y-12267429D01*
X13640143Y-12238857D01*
X13640143Y-11981714D01*
X14025857Y-12281714D02*
X14025857Y-11981714D01*
X14125857Y-12196000D01*
X14225857Y-11981714D01*
X14225857Y-12281714D01*
X14497286Y-12281714D02*
X14497286Y-12124571D01*
X14483000Y-12096000D01*
X14454428Y-12081714D01*
X14397286Y-12081714D01*
X14368714Y-12096000D01*
X14497286Y-12267429D02*
X14468714Y-12281714D01*
X14397286Y-12281714D01*
X14368714Y-12267429D01*
X14354428Y-12238857D01*
X14354428Y-12210286D01*
X14368714Y-12181714D01*
X14397286Y-12167429D01*
X14468714Y-12167429D01*
X14497286Y-12153143D01*
X14640143Y-12081714D02*
X14640143Y-12381714D01*
X14640143Y-12096000D02*
X14668714Y-12081714D01*
X14725857Y-12081714D01*
X14754428Y-12096000D01*
X14768714Y-12110286D01*
X14783000Y-12138857D01*
X14783000Y-12224571D01*
X14768714Y-12253143D01*
X14754428Y-12267429D01*
X14725857Y-12281714D01*
X14668714Y-12281714D01*
X14640143Y-12267429D01*
X14911571Y-12253143D02*
X14925857Y-12267429D01*
X14911571Y-12281714D01*
X14897286Y-12267429D01*
X14911571Y-12253143D01*
X14911571Y-12281714D01*
X14911571Y-12096000D02*
X14925857Y-12110286D01*
X14911571Y-12124571D01*
X14897286Y-12110286D01*
X14911571Y-12096000D01*
X14911571Y-12124571D01*
X12498000Y-12741000D02*
X12568000Y-12811000D01*
X12568000Y-12741000D02*
X12498000Y-12811000D01*
X12911571Y-12611714D02*
X12940143Y-12611714D01*
X12968714Y-12626000D01*
X12983000Y-12640286D01*
X12997286Y-12668857D01*
X13011571Y-12726000D01*
X13011571Y-12797429D01*
X12997286Y-12854571D01*
X12983000Y-12883143D01*
X12968714Y-12897429D01*
X12940143Y-12911714D01*
X12911571Y-12911714D01*
X12883000Y-12897429D01*
X12868714Y-12883143D01*
X12854428Y-12854571D01*
X12840143Y-12797429D01*
X12840143Y-12726000D01*
X12854428Y-12668857D01*
X12868714Y-12640286D01*
X12883000Y-12626000D01*
X12911571Y-12611714D01*
X13140143Y-12883143D02*
X13154428Y-12897429D01*
X13140143Y-12911714D01*
X13125857Y-12897429D01*
X13140143Y-12883143D01*
X13140143Y-12911714D01*
X13254428Y-12611714D02*
X13454428Y-12611714D01*
X13325857Y-12911714D01*
X13625857Y-12611714D02*
X13654428Y-12611714D01*
X13683000Y-12626000D01*
X13697286Y-12640286D01*
X13711571Y-12668857D01*
X13725857Y-12726000D01*
X13725857Y-12797429D01*
X13711571Y-12854571D01*
X13697286Y-12883143D01*
X13683000Y-12897429D01*
X13654428Y-12911714D01*
X13625857Y-12911714D01*
X13597286Y-12897429D01*
X13583000Y-12883143D01*
X13568714Y-12854571D01*
X13554428Y-12797429D01*
X13554428Y-12726000D01*
X13568714Y-12668857D01*
X13583000Y-12640286D01*
X13597286Y-12626000D01*
X13625857Y-12611714D01*
X13911571Y-12611714D02*
X13940143Y-12611714D01*
X13968714Y-12626000D01*
X13983000Y-12640286D01*
X13997286Y-12668857D01*
X14011571Y-12726000D01*
X14011571Y-12797429D01*
X13997286Y-12854571D01*
X13983000Y-12883143D01*
X13968714Y-12897429D01*
X13940143Y-12911714D01*
X13911571Y-12911714D01*
X13883000Y-12897429D01*
X13868714Y-12883143D01*
X13854428Y-12854571D01*
X13840143Y-12797429D01*
X13840143Y-12726000D01*
X13854428Y-12668857D01*
X13868714Y-12640286D01*
X13883000Y-12626000D01*
X13911571Y-12611714D01*
X14140143Y-12911714D02*
X14140143Y-12711714D01*
X14140143Y-12740286D02*
X14154428Y-12726000D01*
X14183000Y-12711714D01*
X14225857Y-12711714D01*
X14254428Y-12726000D01*
X14268714Y-12754571D01*
X14268714Y-12911714D01*
X14268714Y-12754571D02*
X14283000Y-12726000D01*
X14311571Y-12711714D01*
X14354428Y-12711714D01*
X14383000Y-12726000D01*
X14397286Y-12754571D01*
X14397286Y-12911714D01*
X14540143Y-12911714D02*
X14540143Y-12711714D01*
X14540143Y-12740286D02*
X14554428Y-12726000D01*
X14583000Y-12711714D01*
X14625857Y-12711714D01*
X14654428Y-12726000D01*
X14668714Y-12754571D01*
X14668714Y-12911714D01*
X14668714Y-12754571D02*
X14683000Y-12726000D01*
X14711571Y-12711714D01*
X14754428Y-12711714D01*
X14783000Y-12726000D01*
X14797286Y-12754571D01*
X14797286Y-12911714D01*
X15383000Y-12597429D02*
X15125857Y-12983143D01*
X15768714Y-12611714D02*
X15797286Y-12611714D01*
X15825857Y-12626000D01*
X15840143Y-12640286D01*
X15854428Y-12668857D01*
X15868714Y-12726000D01*
X15868714Y-12797429D01*
X15854428Y-12854571D01*
X15840143Y-12883143D01*
X15825857Y-12897429D01*
X15797286Y-12911714D01*
X15768714Y-12911714D01*
X15740143Y-12897429D01*
X15725857Y-12883143D01*
X15711571Y-12854571D01*
X15697286Y-12797429D01*
X15697286Y-12726000D01*
X15711571Y-12668857D01*
X15725857Y-12640286D01*
X15740143Y-12626000D01*
X15768714Y-12611714D01*
X15997286Y-12883143D02*
X16011571Y-12897429D01*
X15997286Y-12911714D01*
X15983000Y-12897429D01*
X15997286Y-12883143D01*
X15997286Y-12911714D01*
X16197286Y-12611714D02*
X16225857Y-12611714D01*
X16254428Y-12626000D01*
X16268714Y-12640286D01*
X16283000Y-12668857D01*
X16297286Y-12726000D01*
X16297286Y-12797429D01*
X16283000Y-12854571D01*
X16268714Y-12883143D01*
X16254428Y-12897429D01*
X16225857Y-12911714D01*
X16197286Y-12911714D01*
X16168714Y-12897429D01*
X16154428Y-12883143D01*
X16140143Y-12854571D01*
X16125857Y-12797429D01*
X16125857Y-12726000D01*
X16140143Y-12668857D01*
X16154428Y-12640286D01*
X16168714Y-12626000D01*
X16197286Y-12611714D01*
X16411571Y-12640286D02*
X16425857Y-12626000D01*
X16454428Y-12611714D01*
X16525857Y-12611714D01*
X16554428Y-12626000D01*
X16568714Y-12640286D01*
X16583000Y-12668857D01*
X16583000Y-12697429D01*
X16568714Y-12740286D01*
X16397286Y-12911714D01*
X16583000Y-12911714D01*
X16683000Y-12611714D02*
X16883000Y-12611714D01*
X16754428Y-12911714D01*
X17125857Y-12611714D02*
X17068714Y-12611714D01*
X17040143Y-12626000D01*
X17025857Y-12640286D01*
X16997286Y-12683143D01*
X16983000Y-12740286D01*
X16983000Y-12854571D01*
X16997286Y-12883143D01*
X17011571Y-12897429D01*
X17040143Y-12911714D01*
X17097286Y-12911714D01*
X17125857Y-12897429D01*
X17140143Y-12883143D01*
X17154428Y-12854571D01*
X17154428Y-12783143D01*
X17140143Y-12754571D01*
X17125857Y-12740286D01*
X17097286Y-12726000D01*
X17040143Y-12726000D01*
X17011571Y-12740286D01*
X16997286Y-12754571D01*
X16983000Y-12783143D01*
X17268714Y-12611714D02*
X17268714Y-12668857D01*
X17383000Y-12611714D02*
X17383000Y-12668857D01*
X17825857Y-13026000D02*
X17811571Y-13011714D01*
X17783000Y-12968857D01*
X17768714Y-12940286D01*
X17754428Y-12897429D01*
X17740143Y-12826000D01*
X17740143Y-12768857D01*
X17754428Y-12697429D01*
X17768714Y-12654571D01*
X17783000Y-12626000D01*
X17811571Y-12583143D01*
X17825857Y-12568857D01*
X18068714Y-12611714D02*
X18011571Y-12611714D01*
X17983000Y-12626000D01*
X17968714Y-12640286D01*
X17940143Y-12683143D01*
X17925857Y-12740286D01*
X17925857Y-12854571D01*
X17940143Y-12883143D01*
X17954428Y-12897429D01*
X17983000Y-12911714D01*
X18040143Y-12911714D01*
X18068714Y-12897429D01*
X18083000Y-12883143D01*
X18097286Y-12854571D01*
X18097286Y-12783143D01*
X18083000Y-12754571D01*
X18068714Y-12740286D01*
X18040143Y-12726000D01*
X17983000Y-12726000D01*
X17954428Y-12740286D01*
X17940143Y-12754571D01*
X17925857Y-12783143D01*
X18197286Y-12611714D02*
X18397286Y-12611714D01*
X18268714Y-12911714D01*
X18740143Y-12911714D02*
X18740143Y-12611714D01*
X18868714Y-12911714D02*
X18868714Y-12754571D01*
X18854428Y-12726000D01*
X18825857Y-12711714D01*
X18783000Y-12711714D01*
X18754428Y-12726000D01*
X18740143Y-12740286D01*
X19054428Y-12911714D02*
X19025857Y-12897429D01*
X19011571Y-12883143D01*
X18997286Y-12854571D01*
X18997286Y-12768857D01*
X19011571Y-12740286D01*
X19025857Y-12726000D01*
X19054428Y-12711714D01*
X19097286Y-12711714D01*
X19125857Y-12726000D01*
X19140143Y-12740286D01*
X19154428Y-12768857D01*
X19154428Y-12854571D01*
X19140143Y-12883143D01*
X19125857Y-12897429D01*
X19097286Y-12911714D01*
X19054428Y-12911714D01*
X19325857Y-12911714D02*
X19297286Y-12897429D01*
X19283000Y-12868857D01*
X19283000Y-12611714D01*
X19554428Y-12897429D02*
X19525857Y-12911714D01*
X19468714Y-12911714D01*
X19440143Y-12897429D01*
X19425857Y-12868857D01*
X19425857Y-12754571D01*
X19440143Y-12726000D01*
X19468714Y-12711714D01*
X19525857Y-12711714D01*
X19554428Y-12726000D01*
X19568714Y-12754571D01*
X19568714Y-12783143D01*
X19425857Y-12811714D01*
X19683000Y-12897429D02*
X19711571Y-12911714D01*
X19768714Y-12911714D01*
X19797286Y-12897429D01*
X19811571Y-12868857D01*
X19811571Y-12854571D01*
X19797286Y-12826000D01*
X19768714Y-12811714D01*
X19725857Y-12811714D01*
X19697286Y-12797429D01*
X19683000Y-12768857D01*
X19683000Y-12754571D01*
X19697286Y-12726000D01*
X19725857Y-12711714D01*
X19768714Y-12711714D01*
X19797286Y-12726000D01*
X19911571Y-13026000D02*
X19925857Y-13011714D01*
X19954428Y-12968857D01*
X19968714Y-12940286D01*
X19983000Y-12897429D01*
X19997286Y-12826000D01*
X19997286Y-12768857D01*
X19983000Y-12697429D01*
X19968714Y-12654571D01*
X19954428Y-12626000D01*
X19925857Y-12583143D01*
X19911571Y-12568857D01*
X12568000Y-13172000D02*
G75*
G03*
X12568000Y-13172000I-60000J0D01*
G01*
X13011571Y-13307714D02*
X12840143Y-13307714D01*
X12925857Y-13307714D02*
X12925857Y-13007714D01*
X12897286Y-13050571D01*
X12868714Y-13079143D01*
X12840143Y-13093429D01*
X13140143Y-13279143D02*
X13154428Y-13293429D01*
X13140143Y-13307714D01*
X13125857Y-13293429D01*
X13140143Y-13279143D01*
X13140143Y-13307714D01*
X13268714Y-13036286D02*
X13283000Y-13022000D01*
X13311571Y-13007714D01*
X13383000Y-13007714D01*
X13411571Y-13022000D01*
X13425857Y-13036286D01*
X13440143Y-13064857D01*
X13440143Y-13093429D01*
X13425857Y-13136286D01*
X13254428Y-13307714D01*
X13440143Y-13307714D01*
X13625857Y-13007714D02*
X13654428Y-13007714D01*
X13683000Y-13022000D01*
X13697286Y-13036286D01*
X13711571Y-13064857D01*
X13725857Y-13122000D01*
X13725857Y-13193429D01*
X13711571Y-13250571D01*
X13697286Y-13279143D01*
X13683000Y-13293429D01*
X13654428Y-13307714D01*
X13625857Y-13307714D01*
X13597286Y-13293429D01*
X13583000Y-13279143D01*
X13568714Y-13250571D01*
X13554428Y-13193429D01*
X13554428Y-13122000D01*
X13568714Y-13064857D01*
X13583000Y-13036286D01*
X13597286Y-13022000D01*
X13625857Y-13007714D01*
X13911571Y-13007714D02*
X13940143Y-13007714D01*
X13968714Y-13022000D01*
X13983000Y-13036286D01*
X13997286Y-13064857D01*
X14011571Y-13122000D01*
X14011571Y-13193429D01*
X13997286Y-13250571D01*
X13983000Y-13279143D01*
X13968714Y-13293429D01*
X13940143Y-13307714D01*
X13911571Y-13307714D01*
X13883000Y-13293429D01*
X13868714Y-13279143D01*
X13854428Y-13250571D01*
X13840143Y-13193429D01*
X13840143Y-13122000D01*
X13854428Y-13064857D01*
X13868714Y-13036286D01*
X13883000Y-13022000D01*
X13911571Y-13007714D01*
X14140143Y-13307714D02*
X14140143Y-13107714D01*
X14140143Y-13136286D02*
X14154428Y-13122000D01*
X14183000Y-13107714D01*
X14225857Y-13107714D01*
X14254428Y-13122000D01*
X14268714Y-13150571D01*
X14268714Y-13307714D01*
X14268714Y-13150571D02*
X14283000Y-13122000D01*
X14311571Y-13107714D01*
X14354428Y-13107714D01*
X14383000Y-13122000D01*
X14397286Y-13150571D01*
X14397286Y-13307714D01*
X14540143Y-13307714D02*
X14540143Y-13107714D01*
X14540143Y-13136286D02*
X14554428Y-13122000D01*
X14583000Y-13107714D01*
X14625857Y-13107714D01*
X14654428Y-13122000D01*
X14668714Y-13150571D01*
X14668714Y-13307714D01*
X14668714Y-13150571D02*
X14683000Y-13122000D01*
X14711571Y-13107714D01*
X14754428Y-13107714D01*
X14783000Y-13122000D01*
X14797286Y-13150571D01*
X14797286Y-13307714D01*
X15383000Y-12993429D02*
X15125857Y-13379143D01*
X15768714Y-13007714D02*
X15797286Y-13007714D01*
X15825857Y-13022000D01*
X15840143Y-13036286D01*
X15854428Y-13064857D01*
X15868714Y-13122000D01*
X15868714Y-13193429D01*
X15854428Y-13250571D01*
X15840143Y-13279143D01*
X15825857Y-13293429D01*
X15797286Y-13307714D01*
X15768714Y-13307714D01*
X15740143Y-13293429D01*
X15725857Y-13279143D01*
X15711571Y-13250571D01*
X15697286Y-13193429D01*
X15697286Y-13122000D01*
X15711571Y-13064857D01*
X15725857Y-13036286D01*
X15740143Y-13022000D01*
X15768714Y-13007714D01*
X15997286Y-13279143D02*
X16011571Y-13293429D01*
X15997286Y-13307714D01*
X15983000Y-13293429D01*
X15997286Y-13279143D01*
X15997286Y-13307714D01*
X16197286Y-13007714D02*
X16225857Y-13007714D01*
X16254428Y-13022000D01*
X16268714Y-13036286D01*
X16283000Y-13064857D01*
X16297286Y-13122000D01*
X16297286Y-13193429D01*
X16283000Y-13250571D01*
X16268714Y-13279143D01*
X16254428Y-13293429D01*
X16225857Y-13307714D01*
X16197286Y-13307714D01*
X16168714Y-13293429D01*
X16154428Y-13279143D01*
X16140143Y-13250571D01*
X16125857Y-13193429D01*
X16125857Y-13122000D01*
X16140143Y-13064857D01*
X16154428Y-13036286D01*
X16168714Y-13022000D01*
X16197286Y-13007714D01*
X16554428Y-13107714D02*
X16554428Y-13307714D01*
X16483000Y-12993429D02*
X16411571Y-13207714D01*
X16597286Y-13207714D01*
X16683000Y-13007714D02*
X16883000Y-13007714D01*
X16754428Y-13307714D01*
X16983000Y-13036286D02*
X16997286Y-13022000D01*
X17025857Y-13007714D01*
X17097286Y-13007714D01*
X17125857Y-13022000D01*
X17140143Y-13036286D01*
X17154428Y-13064857D01*
X17154428Y-13093429D01*
X17140143Y-13136286D01*
X16968714Y-13307714D01*
X17154428Y-13307714D01*
X17268714Y-13007714D02*
X17268714Y-13064857D01*
X17383000Y-13007714D02*
X17383000Y-13064857D01*
X17825857Y-13422000D02*
X17811571Y-13407714D01*
X17783000Y-13364857D01*
X17768714Y-13336286D01*
X17754428Y-13293429D01*
X17740143Y-13222000D01*
X17740143Y-13164857D01*
X17754428Y-13093429D01*
X17768714Y-13050571D01*
X17783000Y-13022000D01*
X17811571Y-12979143D01*
X17825857Y-12964857D01*
X17925857Y-13036286D02*
X17940143Y-13022000D01*
X17968714Y-13007714D01*
X18040143Y-13007714D01*
X18068714Y-13022000D01*
X18083000Y-13036286D01*
X18097286Y-13064857D01*
X18097286Y-13093429D01*
X18083000Y-13136286D01*
X17911571Y-13307714D01*
X18097286Y-13307714D01*
X18454428Y-13307714D02*
X18454428Y-13007714D01*
X18583000Y-13307714D02*
X18583000Y-13150571D01*
X18568714Y-13122000D01*
X18540143Y-13107714D01*
X18497286Y-13107714D01*
X18468714Y-13122000D01*
X18454428Y-13136286D01*
X18768714Y-13307714D02*
X18740143Y-13293429D01*
X18725857Y-13279143D01*
X18711571Y-13250571D01*
X18711571Y-13164857D01*
X18725857Y-13136286D01*
X18740143Y-13122000D01*
X18768714Y-13107714D01*
X18811571Y-13107714D01*
X18840143Y-13122000D01*
X18854428Y-13136286D01*
X18868714Y-13164857D01*
X18868714Y-13250571D01*
X18854428Y-13279143D01*
X18840143Y-13293429D01*
X18811571Y-13307714D01*
X18768714Y-13307714D01*
X19040143Y-13307714D02*
X19011571Y-13293429D01*
X18997286Y-13264857D01*
X18997286Y-13007714D01*
X19268714Y-13293429D02*
X19240143Y-13307714D01*
X19183000Y-13307714D01*
X19154428Y-13293429D01*
X19140143Y-13264857D01*
X19140143Y-13150571D01*
X19154428Y-13122000D01*
X19183000Y-13107714D01*
X19240143Y-13107714D01*
X19268714Y-13122000D01*
X19283000Y-13150571D01*
X19283000Y-13179143D01*
X19140143Y-13207714D01*
X19397286Y-13293429D02*
X19425857Y-13307714D01*
X19483000Y-13307714D01*
X19511571Y-13293429D01*
X19525857Y-13264857D01*
X19525857Y-13250571D01*
X19511571Y-13222000D01*
X19483000Y-13207714D01*
X19440143Y-13207714D01*
X19411571Y-13193429D01*
X19397286Y-13164857D01*
X19397286Y-13150571D01*
X19411571Y-13122000D01*
X19440143Y-13107714D01*
X19483000Y-13107714D01*
X19511571Y-13122000D01*
X19625857Y-13422000D02*
X19640143Y-13407714D01*
X19668714Y-13364857D01*
X19683000Y-13336286D01*
X19697286Y-13293429D01*
X19711571Y-13222000D01*
X19711571Y-13164857D01*
X19697286Y-13093429D01*
X19683000Y-13050571D01*
X19668714Y-13022000D01*
X19640143Y-12979143D01*
X19625857Y-12964857D01*
X12408000Y-13408000D02*
X12408000Y-13728000D01*
X12248000Y-13568000D02*
X12568000Y-13568000D01*
X12825857Y-13403714D02*
X13011571Y-13403714D01*
X12911571Y-13518000D01*
X12954428Y-13518000D01*
X12983000Y-13532286D01*
X12997286Y-13546571D01*
X13011571Y-13575143D01*
X13011571Y-13646571D01*
X12997286Y-13675143D01*
X12983000Y-13689429D01*
X12954428Y-13703714D01*
X12868714Y-13703714D01*
X12840143Y-13689429D01*
X12825857Y-13675143D01*
X13140143Y-13675143D02*
X13154428Y-13689429D01*
X13140143Y-13703714D01*
X13125857Y-13689429D01*
X13140143Y-13675143D01*
X13140143Y-13703714D01*
X13268714Y-13432286D02*
X13283000Y-13418000D01*
X13311571Y-13403714D01*
X13383000Y-13403714D01*
X13411571Y-13418000D01*
X13425857Y-13432286D01*
X13440143Y-13460857D01*
X13440143Y-13489429D01*
X13425857Y-13532286D01*
X13254428Y-13703714D01*
X13440143Y-13703714D01*
X13625857Y-13403714D02*
X13654428Y-13403714D01*
X13683000Y-13418000D01*
X13697286Y-13432286D01*
X13711571Y-13460857D01*
X13725857Y-13518000D01*
X13725857Y-13589429D01*
X13711571Y-13646571D01*
X13697286Y-13675143D01*
X13683000Y-13689429D01*
X13654428Y-13703714D01*
X13625857Y-13703714D01*
X13597286Y-13689429D01*
X13583000Y-13675143D01*
X13568714Y-13646571D01*
X13554428Y-13589429D01*
X13554428Y-13518000D01*
X13568714Y-13460857D01*
X13583000Y-13432286D01*
X13597286Y-13418000D01*
X13625857Y-13403714D01*
X13911571Y-13403714D02*
X13940143Y-13403714D01*
X13968714Y-13418000D01*
X13983000Y-13432286D01*
X13997286Y-13460857D01*
X14011571Y-13518000D01*
X14011571Y-13589429D01*
X13997286Y-13646571D01*
X13983000Y-13675143D01*
X13968714Y-13689429D01*
X13940143Y-13703714D01*
X13911571Y-13703714D01*
X13883000Y-13689429D01*
X13868714Y-13675143D01*
X13854428Y-13646571D01*
X13840143Y-13589429D01*
X13840143Y-13518000D01*
X13854428Y-13460857D01*
X13868714Y-13432286D01*
X13883000Y-13418000D01*
X13911571Y-13403714D01*
X14140143Y-13703714D02*
X14140143Y-13503714D01*
X14140143Y-13532286D02*
X14154428Y-13518000D01*
X14183000Y-13503714D01*
X14225857Y-13503714D01*
X14254428Y-13518000D01*
X14268714Y-13546571D01*
X14268714Y-13703714D01*
X14268714Y-13546571D02*
X14283000Y-13518000D01*
X14311571Y-13503714D01*
X14354428Y-13503714D01*
X14383000Y-13518000D01*
X14397286Y-13546571D01*
X14397286Y-13703714D01*
X14540143Y-13703714D02*
X14540143Y-13503714D01*
X14540143Y-13532286D02*
X14554428Y-13518000D01*
X14583000Y-13503714D01*
X14625857Y-13503714D01*
X14654428Y-13518000D01*
X14668714Y-13546571D01*
X14668714Y-13703714D01*
X14668714Y-13546571D02*
X14683000Y-13518000D01*
X14711571Y-13503714D01*
X14754428Y-13503714D01*
X14783000Y-13518000D01*
X14797286Y-13546571D01*
X14797286Y-13703714D01*
X15383000Y-13389429D02*
X15125857Y-13775143D01*
X15768714Y-13403714D02*
X15797286Y-13403714D01*
X15825857Y-13418000D01*
X15840143Y-13432286D01*
X15854428Y-13460857D01*
X15868714Y-13518000D01*
X15868714Y-13589429D01*
X15854428Y-13646571D01*
X15840143Y-13675143D01*
X15825857Y-13689429D01*
X15797286Y-13703714D01*
X15768714Y-13703714D01*
X15740143Y-13689429D01*
X15725857Y-13675143D01*
X15711571Y-13646571D01*
X15697286Y-13589429D01*
X15697286Y-13518000D01*
X15711571Y-13460857D01*
X15725857Y-13432286D01*
X15740143Y-13418000D01*
X15768714Y-13403714D01*
X15997286Y-13675143D02*
X16011571Y-13689429D01*
X15997286Y-13703714D01*
X15983000Y-13689429D01*
X15997286Y-13675143D01*
X15997286Y-13703714D01*
X16297286Y-13703714D02*
X16125857Y-13703714D01*
X16211571Y-13703714D02*
X16211571Y-13403714D01*
X16183000Y-13446571D01*
X16154428Y-13475143D01*
X16125857Y-13489429D01*
X16411571Y-13432286D02*
X16425857Y-13418000D01*
X16454428Y-13403714D01*
X16525857Y-13403714D01*
X16554428Y-13418000D01*
X16568714Y-13432286D01*
X16583000Y-13460857D01*
X16583000Y-13489429D01*
X16568714Y-13532286D01*
X16397286Y-13703714D01*
X16583000Y-13703714D01*
X16840143Y-13403714D02*
X16783000Y-13403714D01*
X16754428Y-13418000D01*
X16740143Y-13432286D01*
X16711571Y-13475143D01*
X16697286Y-13532286D01*
X16697286Y-13646571D01*
X16711571Y-13675143D01*
X16725857Y-13689429D01*
X16754428Y-13703714D01*
X16811571Y-13703714D01*
X16840143Y-13689429D01*
X16854428Y-13675143D01*
X16868714Y-13646571D01*
X16868714Y-13575143D01*
X16854428Y-13546571D01*
X16840143Y-13532286D01*
X16811571Y-13518000D01*
X16754428Y-13518000D01*
X16725857Y-13532286D01*
X16711571Y-13546571D01*
X16697286Y-13575143D01*
X17054428Y-13403714D02*
X17083000Y-13403714D01*
X17111571Y-13418000D01*
X17125857Y-13432286D01*
X17140143Y-13460857D01*
X17154428Y-13518000D01*
X17154428Y-13589429D01*
X17140143Y-13646571D01*
X17125857Y-13675143D01*
X17111571Y-13689429D01*
X17083000Y-13703714D01*
X17054428Y-13703714D01*
X17025857Y-13689429D01*
X17011571Y-13675143D01*
X16997286Y-13646571D01*
X16983000Y-13589429D01*
X16983000Y-13518000D01*
X16997286Y-13460857D01*
X17011571Y-13432286D01*
X17025857Y-13418000D01*
X17054428Y-13403714D01*
X17268714Y-13403714D02*
X17268714Y-13460857D01*
X17383000Y-13403714D02*
X17383000Y-13460857D01*
X17825857Y-13818000D02*
X17811571Y-13803714D01*
X17783000Y-13760857D01*
X17768714Y-13732286D01*
X17754428Y-13689429D01*
X17740143Y-13618000D01*
X17740143Y-13560857D01*
X17754428Y-13489429D01*
X17768714Y-13446571D01*
X17783000Y-13418000D01*
X17811571Y-13375143D01*
X17825857Y-13360857D01*
X17925857Y-13432286D02*
X17940143Y-13418000D01*
X17968714Y-13403714D01*
X18040143Y-13403714D01*
X18068714Y-13418000D01*
X18083000Y-13432286D01*
X18097286Y-13460857D01*
X18097286Y-13489429D01*
X18083000Y-13532286D01*
X17911571Y-13703714D01*
X18097286Y-13703714D01*
X18454428Y-13703714D02*
X18454428Y-13403714D01*
X18583000Y-13703714D02*
X18583000Y-13546571D01*
X18568714Y-13518000D01*
X18540143Y-13503714D01*
X18497286Y-13503714D01*
X18468714Y-13518000D01*
X18454428Y-13532286D01*
X18768714Y-13703714D02*
X18740143Y-13689429D01*
X18725857Y-13675143D01*
X18711571Y-13646571D01*
X18711571Y-13560857D01*
X18725857Y-13532286D01*
X18740143Y-13518000D01*
X18768714Y-13503714D01*
X18811571Y-13503714D01*
X18840143Y-13518000D01*
X18854428Y-13532286D01*
X18868714Y-13560857D01*
X18868714Y-13646571D01*
X18854428Y-13675143D01*
X18840143Y-13689429D01*
X18811571Y-13703714D01*
X18768714Y-13703714D01*
X19040143Y-13703714D02*
X19011571Y-13689429D01*
X18997286Y-13660857D01*
X18997286Y-13403714D01*
X19268714Y-13689429D02*
X19240143Y-13703714D01*
X19183000Y-13703714D01*
X19154428Y-13689429D01*
X19140143Y-13660857D01*
X19140143Y-13546571D01*
X19154428Y-13518000D01*
X19183000Y-13503714D01*
X19240143Y-13503714D01*
X19268714Y-13518000D01*
X19283000Y-13546571D01*
X19283000Y-13575143D01*
X19140143Y-13603714D01*
X19397286Y-13689429D02*
X19425857Y-13703714D01*
X19483000Y-13703714D01*
X19511571Y-13689429D01*
X19525857Y-13660857D01*
X19525857Y-13646571D01*
X19511571Y-13618000D01*
X19483000Y-13603714D01*
X19440143Y-13603714D01*
X19411571Y-13589429D01*
X19397286Y-13560857D01*
X19397286Y-13546571D01*
X19411571Y-13518000D01*
X19440143Y-13503714D01*
X19483000Y-13503714D01*
X19511571Y-13518000D01*
X19625857Y-13818000D02*
X19640143Y-13803714D01*
X19668714Y-13760857D01*
X19683000Y-13732286D01*
X19697286Y-13689429D01*
X19711571Y-13618000D01*
X19711571Y-13560857D01*
X19697286Y-13489429D01*
X19683000Y-13446571D01*
X19668714Y-13418000D01*
X19640143Y-13375143D01*
X19625857Y-13360857D01*
M02*
