%FSLAX45Y45*%
G04 Gerber Fmt 4.5, Leading zero omitted, Abs format (unit mm)*
G04 Created by KiCad (PCBNEW 5.1.12-84ad8e8a86~92~ubuntu20.04.1) date 2022-07-02 20:29:37*
%MOMM*%
%LPD*%
G01*
G04 APERTURE LIST*
%TA.AperFunction,Profile*%
%ADD10C,0.100000*%
%TD*%
%ADD11C,0.200000*%
%ADD12C,0.300000*%
G04 APERTURE END LIST*
D10*
X17373600Y-7239000D02*
G75*
G02*
X17526000Y-7391400I0J-152400D01*
G01*
X17526000Y-11658600D02*
G75*
G02*
X17373600Y-11811000I-152400J0D01*
G01*
X17526000Y-11658600D02*
X17526000Y-7391400D01*
X12573000Y-7391400D02*
G75*
G02*
X12725400Y-7239000I152400J0D01*
G01*
X12725400Y-11811000D02*
G75*
G02*
X12573000Y-11658600I0J152400D01*
G01*
X12573000Y-11658600D02*
X12573000Y-7391400D01*
X17373600Y-11811000D02*
X12725400Y-11811000D01*
X12725400Y-7239000D02*
X17373600Y-7239000D01*
D11*
X12752000Y-7392600D02*
X12902000Y-7542600D01*
X12902000Y-7392600D02*
X12752000Y-7542600D01*
X12752000Y-11520100D02*
X12902000Y-11670100D01*
X12902000Y-11520100D02*
X12752000Y-11670100D01*
X16409600Y-8307000D02*
X16559600Y-8457000D01*
X16559600Y-8307000D02*
X16409600Y-8457000D01*
X17146200Y-11037500D02*
X17296200Y-11187500D01*
X17296200Y-11037500D02*
X17146200Y-11187500D01*
D12*
X12854428Y-12281714D02*
X12854428Y-11981714D01*
X12925857Y-11981714D01*
X12968714Y-11996000D01*
X12997286Y-12024571D01*
X13011571Y-12053143D01*
X13025857Y-12110286D01*
X13025857Y-12153143D01*
X13011571Y-12210286D01*
X12997286Y-12238857D01*
X12968714Y-12267429D01*
X12925857Y-12281714D01*
X12854428Y-12281714D01*
X13154428Y-12281714D02*
X13154428Y-12081714D01*
X13154428Y-12138857D02*
X13168714Y-12110286D01*
X13183000Y-12096000D01*
X13211571Y-12081714D01*
X13240143Y-12081714D01*
X13340143Y-12281714D02*
X13340143Y-12081714D01*
X13340143Y-11981714D02*
X13325857Y-11996000D01*
X13340143Y-12010286D01*
X13354428Y-11996000D01*
X13340143Y-11981714D01*
X13340143Y-12010286D01*
X13525857Y-12281714D02*
X13497286Y-12267429D01*
X13483000Y-12238857D01*
X13483000Y-11981714D01*
X13683000Y-12281714D02*
X13654428Y-12267429D01*
X13640143Y-12238857D01*
X13640143Y-11981714D01*
X14025857Y-12281714D02*
X14025857Y-11981714D01*
X14125857Y-12196000D01*
X14225857Y-11981714D01*
X14225857Y-12281714D01*
X14497286Y-12281714D02*
X14497286Y-12124571D01*
X14483000Y-12096000D01*
X14454428Y-12081714D01*
X14397286Y-12081714D01*
X14368714Y-12096000D01*
X14497286Y-12267429D02*
X14468714Y-12281714D01*
X14397286Y-12281714D01*
X14368714Y-12267429D01*
X14354428Y-12238857D01*
X14354428Y-12210286D01*
X14368714Y-12181714D01*
X14397286Y-12167429D01*
X14468714Y-12167429D01*
X14497286Y-12153143D01*
X14640143Y-12081714D02*
X14640143Y-12381714D01*
X14640143Y-12096000D02*
X14668714Y-12081714D01*
X14725857Y-12081714D01*
X14754428Y-12096000D01*
X14768714Y-12110286D01*
X14783000Y-12138857D01*
X14783000Y-12224571D01*
X14768714Y-12253143D01*
X14754428Y-12267429D01*
X14725857Y-12281714D01*
X14668714Y-12281714D01*
X14640143Y-12267429D01*
X14911571Y-12253143D02*
X14925857Y-12267429D01*
X14911571Y-12281714D01*
X14897286Y-12267429D01*
X14911571Y-12253143D01*
X14911571Y-12281714D01*
X14911571Y-12096000D02*
X14925857Y-12110286D01*
X14911571Y-12124571D01*
X14897286Y-12110286D01*
X14911571Y-12096000D01*
X14911571Y-12124571D01*
X12418000Y-12701000D02*
X12568000Y-12851000D01*
X12568000Y-12701000D02*
X12418000Y-12851000D01*
X13011571Y-12911714D02*
X12840143Y-12911714D01*
X12925857Y-12911714D02*
X12925857Y-12611714D01*
X12897286Y-12654571D01*
X12868714Y-12683143D01*
X12840143Y-12697429D01*
X13140143Y-12883143D02*
X13154428Y-12897429D01*
X13140143Y-12911714D01*
X13125857Y-12897429D01*
X13140143Y-12883143D01*
X13140143Y-12911714D01*
X13425857Y-12611714D02*
X13283000Y-12611714D01*
X13268714Y-12754571D01*
X13283000Y-12740286D01*
X13311571Y-12726000D01*
X13383000Y-12726000D01*
X13411571Y-12740286D01*
X13425857Y-12754571D01*
X13440143Y-12783143D01*
X13440143Y-12854571D01*
X13425857Y-12883143D01*
X13411571Y-12897429D01*
X13383000Y-12911714D01*
X13311571Y-12911714D01*
X13283000Y-12897429D01*
X13268714Y-12883143D01*
X13625857Y-12611714D02*
X13654428Y-12611714D01*
X13683000Y-12626000D01*
X13697286Y-12640286D01*
X13711571Y-12668857D01*
X13725857Y-12726000D01*
X13725857Y-12797429D01*
X13711571Y-12854571D01*
X13697286Y-12883143D01*
X13683000Y-12897429D01*
X13654428Y-12911714D01*
X13625857Y-12911714D01*
X13597286Y-12897429D01*
X13583000Y-12883143D01*
X13568714Y-12854571D01*
X13554428Y-12797429D01*
X13554428Y-12726000D01*
X13568714Y-12668857D01*
X13583000Y-12640286D01*
X13597286Y-12626000D01*
X13625857Y-12611714D01*
X13911571Y-12611714D02*
X13940143Y-12611714D01*
X13968714Y-12626000D01*
X13983000Y-12640286D01*
X13997286Y-12668857D01*
X14011571Y-12726000D01*
X14011571Y-12797429D01*
X13997286Y-12854571D01*
X13983000Y-12883143D01*
X13968714Y-12897429D01*
X13940143Y-12911714D01*
X13911571Y-12911714D01*
X13883000Y-12897429D01*
X13868714Y-12883143D01*
X13854428Y-12854571D01*
X13840143Y-12797429D01*
X13840143Y-12726000D01*
X13854428Y-12668857D01*
X13868714Y-12640286D01*
X13883000Y-12626000D01*
X13911571Y-12611714D01*
X14140143Y-12911714D02*
X14140143Y-12711714D01*
X14140143Y-12740286D02*
X14154428Y-12726000D01*
X14183000Y-12711714D01*
X14225857Y-12711714D01*
X14254428Y-12726000D01*
X14268714Y-12754571D01*
X14268714Y-12911714D01*
X14268714Y-12754571D02*
X14283000Y-12726000D01*
X14311571Y-12711714D01*
X14354428Y-12711714D01*
X14383000Y-12726000D01*
X14397286Y-12754571D01*
X14397286Y-12911714D01*
X14540143Y-12911714D02*
X14540143Y-12711714D01*
X14540143Y-12740286D02*
X14554428Y-12726000D01*
X14583000Y-12711714D01*
X14625857Y-12711714D01*
X14654428Y-12726000D01*
X14668714Y-12754571D01*
X14668714Y-12911714D01*
X14668714Y-12754571D02*
X14683000Y-12726000D01*
X14711571Y-12711714D01*
X14754428Y-12711714D01*
X14783000Y-12726000D01*
X14797286Y-12754571D01*
X14797286Y-12911714D01*
X15383000Y-12597429D02*
X15125857Y-12983143D01*
X15768714Y-12611714D02*
X15797286Y-12611714D01*
X15825857Y-12626000D01*
X15840143Y-12640286D01*
X15854428Y-12668857D01*
X15868714Y-12726000D01*
X15868714Y-12797429D01*
X15854428Y-12854571D01*
X15840143Y-12883143D01*
X15825857Y-12897429D01*
X15797286Y-12911714D01*
X15768714Y-12911714D01*
X15740143Y-12897429D01*
X15725857Y-12883143D01*
X15711571Y-12854571D01*
X15697286Y-12797429D01*
X15697286Y-12726000D01*
X15711571Y-12668857D01*
X15725857Y-12640286D01*
X15740143Y-12626000D01*
X15768714Y-12611714D01*
X15997286Y-12883143D02*
X16011571Y-12897429D01*
X15997286Y-12911714D01*
X15983000Y-12897429D01*
X15997286Y-12883143D01*
X15997286Y-12911714D01*
X16197286Y-12611714D02*
X16225857Y-12611714D01*
X16254428Y-12626000D01*
X16268714Y-12640286D01*
X16283000Y-12668857D01*
X16297286Y-12726000D01*
X16297286Y-12797429D01*
X16283000Y-12854571D01*
X16268714Y-12883143D01*
X16254428Y-12897429D01*
X16225857Y-12911714D01*
X16197286Y-12911714D01*
X16168714Y-12897429D01*
X16154428Y-12883143D01*
X16140143Y-12854571D01*
X16125857Y-12797429D01*
X16125857Y-12726000D01*
X16140143Y-12668857D01*
X16154428Y-12640286D01*
X16168714Y-12626000D01*
X16197286Y-12611714D01*
X16568714Y-12611714D02*
X16425857Y-12611714D01*
X16411571Y-12754571D01*
X16425857Y-12740286D01*
X16454428Y-12726000D01*
X16525857Y-12726000D01*
X16554428Y-12740286D01*
X16568714Y-12754571D01*
X16583000Y-12783143D01*
X16583000Y-12854571D01*
X16568714Y-12883143D01*
X16554428Y-12897429D01*
X16525857Y-12911714D01*
X16454428Y-12911714D01*
X16425857Y-12897429D01*
X16411571Y-12883143D01*
X16725857Y-12911714D02*
X16783000Y-12911714D01*
X16811571Y-12897429D01*
X16825857Y-12883143D01*
X16854428Y-12840286D01*
X16868714Y-12783143D01*
X16868714Y-12668857D01*
X16854428Y-12640286D01*
X16840143Y-12626000D01*
X16811571Y-12611714D01*
X16754428Y-12611714D01*
X16725857Y-12626000D01*
X16711571Y-12640286D01*
X16697286Y-12668857D01*
X16697286Y-12740286D01*
X16711571Y-12768857D01*
X16725857Y-12783143D01*
X16754428Y-12797429D01*
X16811571Y-12797429D01*
X16840143Y-12783143D01*
X16854428Y-12768857D01*
X16868714Y-12740286D01*
X17154428Y-12911714D02*
X16983000Y-12911714D01*
X17068714Y-12911714D02*
X17068714Y-12611714D01*
X17040143Y-12654571D01*
X17011571Y-12683143D01*
X16983000Y-12697429D01*
X17268714Y-12611714D02*
X17268714Y-12668857D01*
X17383000Y-12611714D02*
X17383000Y-12668857D01*
X17825857Y-13026000D02*
X17811571Y-13011714D01*
X17783000Y-12968857D01*
X17768714Y-12940286D01*
X17754428Y-12897429D01*
X17740143Y-12826000D01*
X17740143Y-12768857D01*
X17754428Y-12697429D01*
X17768714Y-12654571D01*
X17783000Y-12626000D01*
X17811571Y-12583143D01*
X17825857Y-12568857D01*
X18068714Y-12711714D02*
X18068714Y-12911714D01*
X17997286Y-12597429D02*
X17925857Y-12811714D01*
X18111571Y-12811714D01*
X18454428Y-12911714D02*
X18454428Y-12611714D01*
X18583000Y-12911714D02*
X18583000Y-12754571D01*
X18568714Y-12726000D01*
X18540143Y-12711714D01*
X18497286Y-12711714D01*
X18468714Y-12726000D01*
X18454428Y-12740286D01*
X18768714Y-12911714D02*
X18740143Y-12897429D01*
X18725857Y-12883143D01*
X18711571Y-12854571D01*
X18711571Y-12768857D01*
X18725857Y-12740286D01*
X18740143Y-12726000D01*
X18768714Y-12711714D01*
X18811571Y-12711714D01*
X18840143Y-12726000D01*
X18854428Y-12740286D01*
X18868714Y-12768857D01*
X18868714Y-12854571D01*
X18854428Y-12883143D01*
X18840143Y-12897429D01*
X18811571Y-12911714D01*
X18768714Y-12911714D01*
X19040143Y-12911714D02*
X19011571Y-12897429D01*
X18997286Y-12868857D01*
X18997286Y-12611714D01*
X19268714Y-12897429D02*
X19240143Y-12911714D01*
X19183000Y-12911714D01*
X19154428Y-12897429D01*
X19140143Y-12868857D01*
X19140143Y-12754571D01*
X19154428Y-12726000D01*
X19183000Y-12711714D01*
X19240143Y-12711714D01*
X19268714Y-12726000D01*
X19283000Y-12754571D01*
X19283000Y-12783143D01*
X19140143Y-12811714D01*
X19397286Y-12897429D02*
X19425857Y-12911714D01*
X19483000Y-12911714D01*
X19511571Y-12897429D01*
X19525857Y-12868857D01*
X19525857Y-12854571D01*
X19511571Y-12826000D01*
X19483000Y-12811714D01*
X19440143Y-12811714D01*
X19411571Y-12797429D01*
X19397286Y-12768857D01*
X19397286Y-12754571D01*
X19411571Y-12726000D01*
X19440143Y-12711714D01*
X19483000Y-12711714D01*
X19511571Y-12726000D01*
X19625857Y-13026000D02*
X19640143Y-13011714D01*
X19668714Y-12968857D01*
X19683000Y-12940286D01*
X19697286Y-12897429D01*
X19711571Y-12826000D01*
X19711571Y-12768857D01*
X19697286Y-12697429D01*
X19683000Y-12654571D01*
X19668714Y-12626000D01*
X19640143Y-12583143D01*
X19625857Y-12568857D01*
X20168714Y-13026000D02*
X20154428Y-13011714D01*
X20125857Y-12968857D01*
X20111571Y-12940286D01*
X20097286Y-12897429D01*
X20083000Y-12826000D01*
X20083000Y-12768857D01*
X20097286Y-12697429D01*
X20111571Y-12654571D01*
X20125857Y-12626000D01*
X20154428Y-12583143D01*
X20168714Y-12568857D01*
X20283000Y-12711714D02*
X20283000Y-12911714D01*
X20283000Y-12740286D02*
X20297286Y-12726000D01*
X20325857Y-12711714D01*
X20368714Y-12711714D01*
X20397286Y-12726000D01*
X20411571Y-12754571D01*
X20411571Y-12911714D01*
X20597286Y-12911714D02*
X20568714Y-12897429D01*
X20554428Y-12883143D01*
X20540143Y-12854571D01*
X20540143Y-12768857D01*
X20554428Y-12740286D01*
X20568714Y-12726000D01*
X20597286Y-12711714D01*
X20640143Y-12711714D01*
X20668714Y-12726000D01*
X20683000Y-12740286D01*
X20697286Y-12768857D01*
X20697286Y-12854571D01*
X20683000Y-12883143D01*
X20668714Y-12897429D01*
X20640143Y-12911714D01*
X20597286Y-12911714D01*
X20783000Y-12711714D02*
X20897286Y-12711714D01*
X20825857Y-12611714D02*
X20825857Y-12868857D01*
X20840143Y-12897429D01*
X20868714Y-12911714D01*
X20897286Y-12911714D01*
X21225857Y-12711714D02*
X21225857Y-13011714D01*
X21225857Y-12726000D02*
X21254428Y-12711714D01*
X21311571Y-12711714D01*
X21340143Y-12726000D01*
X21354428Y-12740286D01*
X21368714Y-12768857D01*
X21368714Y-12854571D01*
X21354428Y-12883143D01*
X21340143Y-12897429D01*
X21311571Y-12911714D01*
X21254428Y-12911714D01*
X21225857Y-12897429D01*
X21540143Y-12911714D02*
X21511571Y-12897429D01*
X21497286Y-12868857D01*
X21497286Y-12611714D01*
X21783000Y-12911714D02*
X21783000Y-12754571D01*
X21768714Y-12726000D01*
X21740143Y-12711714D01*
X21683000Y-12711714D01*
X21654428Y-12726000D01*
X21783000Y-12897429D02*
X21754428Y-12911714D01*
X21683000Y-12911714D01*
X21654428Y-12897429D01*
X21640143Y-12868857D01*
X21640143Y-12840286D01*
X21654428Y-12811714D01*
X21683000Y-12797429D01*
X21754428Y-12797429D01*
X21783000Y-12783143D01*
X21883000Y-12711714D02*
X21997286Y-12711714D01*
X21925857Y-12611714D02*
X21925857Y-12868857D01*
X21940143Y-12897429D01*
X21968714Y-12911714D01*
X21997286Y-12911714D01*
X22211571Y-12897429D02*
X22183000Y-12911714D01*
X22125857Y-12911714D01*
X22097286Y-12897429D01*
X22083000Y-12868857D01*
X22083000Y-12754571D01*
X22097286Y-12726000D01*
X22125857Y-12711714D01*
X22183000Y-12711714D01*
X22211571Y-12726000D01*
X22225857Y-12754571D01*
X22225857Y-12783143D01*
X22083000Y-12811714D01*
X22483000Y-12911714D02*
X22483000Y-12611714D01*
X22483000Y-12897429D02*
X22454428Y-12911714D01*
X22397286Y-12911714D01*
X22368714Y-12897429D01*
X22354428Y-12883143D01*
X22340143Y-12854571D01*
X22340143Y-12768857D01*
X22354428Y-12740286D01*
X22368714Y-12726000D01*
X22397286Y-12711714D01*
X22454428Y-12711714D01*
X22483000Y-12726000D01*
X22597286Y-13026000D02*
X22611571Y-13011714D01*
X22640143Y-12968857D01*
X22654428Y-12940286D01*
X22668714Y-12897429D01*
X22683000Y-12826000D01*
X22683000Y-12768857D01*
X22668714Y-12697429D01*
X22654428Y-12654571D01*
X22640143Y-12626000D01*
X22611571Y-12583143D01*
X22597286Y-12568857D01*
M02*
