%TF.GenerationSoftware,KiCad,Pcbnew,5.1.12-84ad8e8a86~92~ubuntu20.04.1*%
%TF.CreationDate,2022-07-04T18:17:34-03:00*%
%TF.ProjectId,ppl-01,70706c2d-3031-42e6-9b69-6361645f7063,01.1.1*%
%TF.SameCoordinates,Original*%
%TF.FileFunction,Soldermask,Bot*%
%TF.FilePolarity,Negative*%
%FSLAX46Y46*%
G04 Gerber Fmt 4.6, Leading zero omitted, Abs format (unit mm)*
G04 Created by KiCad (PCBNEW 5.1.12-84ad8e8a86~92~ubuntu20.04.1) date 2022-07-04 18:17:34*
%MOMM*%
%LPD*%
G01*
G04 APERTURE LIST*
%TA.AperFunction,Profile*%
%ADD10C,0.100000*%
%TD*%
%ADD11C,1.500000*%
%ADD12C,6.200000*%
%ADD13O,1.600000X2.200000*%
%ADD14O,2.200000X1.400000*%
%ADD15O,2.300000X1.800000*%
%ADD16R,2.300000X1.800000*%
%ADD17R,2.600000X2.600000*%
%ADD18C,2.600000*%
%ADD19O,3.000000X1.500000*%
%ADD20R,3.000000X1.500000*%
%ADD21O,2.300000X1.600000*%
%ADD22O,2.300000X0.600000*%
%ADD23R,2.200000X1.600000*%
%ADD24O,2.200000X1.600000*%
G04 APERTURE END LIST*
D10*
X173736000Y-72390000D02*
G75*
G02*
X175260000Y-73914000I0J-1524000D01*
G01*
X175260000Y-116586000D02*
G75*
G02*
X173736000Y-118110000I-1524000J0D01*
G01*
X175260000Y-116586000D02*
X175260000Y-73914000D01*
X125730000Y-73914000D02*
G75*
G02*
X127254000Y-72390000I1524000J0D01*
G01*
X127254000Y-118110000D02*
G75*
G02*
X125730000Y-116586000I0J1524000D01*
G01*
X125730000Y-116586000D02*
X125730000Y-73914000D01*
X173736000Y-118110000D02*
X127254000Y-118110000D01*
X127254000Y-72390000D02*
X173736000Y-72390000D01*
D11*
%TO.C,Guia2*%
X164846000Y-83820000D03*
%TD*%
%TO.C,Guia3*%
X128270000Y-115951000D03*
%TD*%
%TO.C,Guia1*%
X128270000Y-74676000D03*
%TD*%
%TO.C,Guia4*%
X172212000Y-111125000D03*
%TD*%
D12*
%TO.C,PP1*%
X156210000Y-95250000D03*
X170180000Y-95250000D03*
%TD*%
D13*
%TO.C,C2*%
X165862000Y-87630000D03*
X170862000Y-87630000D03*
%TD*%
%TO.C,C6*%
X146059000Y-103505000D03*
X148559000Y-103505000D03*
%TD*%
%TO.C,C3*%
X169866000Y-103505000D03*
X167366000Y-103505000D03*
%TD*%
%TO.C,C1*%
X133370000Y-84963000D03*
X135870000Y-84963000D03*
%TD*%
D14*
%TO.C,C7*%
X154305000Y-79121000D03*
X154305000Y-76621000D03*
%TD*%
D13*
%TO.C,C8*%
X146059000Y-111125000D03*
X148559000Y-111125000D03*
%TD*%
%TO.C,C5*%
X169866000Y-111125000D03*
X167366000Y-111125000D03*
%TD*%
D15*
%TO.C,D7*%
X131318000Y-114935000D03*
D16*
X131318000Y-112395000D03*
%TD*%
%TO.C,R3*%
G36*
G01*
X155124999Y-86935000D02*
X156025001Y-86935000D01*
G75*
G02*
X156275000Y-87184999I0J-249999D01*
G01*
X156275000Y-87885001D01*
G75*
G02*
X156025001Y-88135000I-249999J0D01*
G01*
X155124999Y-88135000D01*
G75*
G02*
X154875000Y-87885001I0J249999D01*
G01*
X154875000Y-87184999D01*
G75*
G02*
X155124999Y-86935000I249999J0D01*
G01*
G37*
G36*
G01*
X155124999Y-88935000D02*
X156025001Y-88935000D01*
G75*
G02*
X156275000Y-89184999I0J-249999D01*
G01*
X156275000Y-89885001D01*
G75*
G02*
X156025001Y-90135000I-249999J0D01*
G01*
X155124999Y-90135000D01*
G75*
G02*
X154875000Y-89885001I0J249999D01*
G01*
X154875000Y-89184999D01*
G75*
G02*
X155124999Y-88935000I249999J0D01*
G01*
G37*
%TD*%
%TO.C,R1*%
G36*
G01*
X149675001Y-98390000D02*
X148774999Y-98390000D01*
G75*
G02*
X148525000Y-98140001I0J249999D01*
G01*
X148525000Y-97439999D01*
G75*
G02*
X148774999Y-97190000I249999J0D01*
G01*
X149675001Y-97190000D01*
G75*
G02*
X149925000Y-97439999I0J-249999D01*
G01*
X149925000Y-98140001D01*
G75*
G02*
X149675001Y-98390000I-249999J0D01*
G01*
G37*
G36*
G01*
X149675001Y-96390000D02*
X148774999Y-96390000D01*
G75*
G02*
X148525000Y-96140001I0J249999D01*
G01*
X148525000Y-95439999D01*
G75*
G02*
X148774999Y-95190000I249999J0D01*
G01*
X149675001Y-95190000D01*
G75*
G02*
X149925000Y-95439999I0J-249999D01*
G01*
X149925000Y-96140001D01*
G75*
G02*
X149675001Y-96390000I-249999J0D01*
G01*
G37*
%TD*%
%TO.C,R5*%
G36*
G01*
X149675001Y-94310000D02*
X148774999Y-94310000D01*
G75*
G02*
X148525000Y-94060001I0J249999D01*
G01*
X148525000Y-93359999D01*
G75*
G02*
X148774999Y-93110000I249999J0D01*
G01*
X149675001Y-93110000D01*
G75*
G02*
X149925000Y-93359999I0J-249999D01*
G01*
X149925000Y-94060001D01*
G75*
G02*
X149675001Y-94310000I-249999J0D01*
G01*
G37*
G36*
G01*
X149675001Y-92310000D02*
X148774999Y-92310000D01*
G75*
G02*
X148525000Y-92060001I0J249999D01*
G01*
X148525000Y-91359999D01*
G75*
G02*
X148774999Y-91110000I249999J0D01*
G01*
X149675001Y-91110000D01*
G75*
G02*
X149925000Y-91359999I0J-249999D01*
G01*
X149925000Y-92060001D01*
G75*
G02*
X149675001Y-92310000I-249999J0D01*
G01*
G37*
%TD*%
D17*
%TO.C,J1*%
X134620000Y-92710000D03*
D18*
X134620000Y-97710000D03*
%TD*%
D19*
%TO.C,SW1*%
X137464800Y-81280000D03*
X137464800Y-78740000D03*
X137464800Y-76200000D03*
X132080000Y-76200000D03*
X132080000Y-78740000D03*
D20*
X132080000Y-81280000D03*
%TD*%
D21*
%TO.C,R16*%
X140462000Y-109855000D03*
X140462000Y-102235000D03*
%TD*%
%TO.C,R15*%
X131318000Y-109855000D03*
X131318000Y-102235000D03*
%TD*%
D19*
%TO.C,SW2*%
X168783000Y-81280000D03*
X168783000Y-78740000D03*
X168783000Y-76200000D03*
X163398200Y-76200000D03*
X163398200Y-78740000D03*
D20*
X163398200Y-81280000D03*
%TD*%
D22*
%TO.C,U1*%
X140030000Y-98425000D03*
G36*
G01*
X138880000Y-97305000D02*
X138880000Y-97005000D01*
G75*
G02*
X139030000Y-96855000I150000J0D01*
G01*
X141030000Y-96855000D01*
G75*
G02*
X141180000Y-97005000I0J-150000D01*
G01*
X141180000Y-97305000D01*
G75*
G02*
X141030000Y-97455000I-150000J0D01*
G01*
X139030000Y-97455000D01*
G75*
G02*
X138880000Y-97305000I0J150000D01*
G01*
G37*
G36*
G01*
X138880000Y-96035000D02*
X138880000Y-95735000D01*
G75*
G02*
X139030000Y-95585000I150000J0D01*
G01*
X141030000Y-95585000D01*
G75*
G02*
X141180000Y-95735000I0J-150000D01*
G01*
X141180000Y-96035000D01*
G75*
G02*
X141030000Y-96185000I-150000J0D01*
G01*
X139030000Y-96185000D01*
G75*
G02*
X138880000Y-96035000I0J150000D01*
G01*
G37*
G36*
G01*
X138880000Y-94765000D02*
X138880000Y-94465000D01*
G75*
G02*
X139030000Y-94315000I150000J0D01*
G01*
X141030000Y-94315000D01*
G75*
G02*
X141180000Y-94465000I0J-150000D01*
G01*
X141180000Y-94765000D01*
G75*
G02*
X141030000Y-94915000I-150000J0D01*
G01*
X139030000Y-94915000D01*
G75*
G02*
X138880000Y-94765000I0J150000D01*
G01*
G37*
G36*
G01*
X138880000Y-93495000D02*
X138880000Y-93195000D01*
G75*
G02*
X139030000Y-93045000I150000J0D01*
G01*
X141030000Y-93045000D01*
G75*
G02*
X141180000Y-93195000I0J-150000D01*
G01*
X141180000Y-93495000D01*
G75*
G02*
X141030000Y-93645000I-150000J0D01*
G01*
X139030000Y-93645000D01*
G75*
G02*
X138880000Y-93495000I0J150000D01*
G01*
G37*
G36*
G01*
X138880000Y-92225000D02*
X138880000Y-91925000D01*
G75*
G02*
X139030000Y-91775000I150000J0D01*
G01*
X141030000Y-91775000D01*
G75*
G02*
X141180000Y-91925000I0J-150000D01*
G01*
X141180000Y-92225000D01*
G75*
G02*
X141030000Y-92375000I-150000J0D01*
G01*
X139030000Y-92375000D01*
G75*
G02*
X138880000Y-92225000I0J150000D01*
G01*
G37*
G36*
G01*
X138880000Y-90955000D02*
X138880000Y-90655000D01*
G75*
G02*
X139030000Y-90505000I150000J0D01*
G01*
X141030000Y-90505000D01*
G75*
G02*
X141180000Y-90655000I0J-150000D01*
G01*
X141180000Y-90955000D01*
G75*
G02*
X141030000Y-91105000I-150000J0D01*
G01*
X139030000Y-91105000D01*
G75*
G02*
X138880000Y-90955000I0J150000D01*
G01*
G37*
G36*
G01*
X144180000Y-90955000D02*
X144180000Y-90655000D01*
G75*
G02*
X144330000Y-90505000I150000J0D01*
G01*
X146330000Y-90505000D01*
G75*
G02*
X146480000Y-90655000I0J-150000D01*
G01*
X146480000Y-90955000D01*
G75*
G02*
X146330000Y-91105000I-150000J0D01*
G01*
X144330000Y-91105000D01*
G75*
G02*
X144180000Y-90955000I0J150000D01*
G01*
G37*
G36*
G01*
X144180000Y-92225000D02*
X144180000Y-91925000D01*
G75*
G02*
X144330000Y-91775000I150000J0D01*
G01*
X146330000Y-91775000D01*
G75*
G02*
X146480000Y-91925000I0J-150000D01*
G01*
X146480000Y-92225000D01*
G75*
G02*
X146330000Y-92375000I-150000J0D01*
G01*
X144330000Y-92375000D01*
G75*
G02*
X144180000Y-92225000I0J150000D01*
G01*
G37*
G36*
G01*
X144180000Y-93495000D02*
X144180000Y-93195000D01*
G75*
G02*
X144330000Y-93045000I150000J0D01*
G01*
X146330000Y-93045000D01*
G75*
G02*
X146480000Y-93195000I0J-150000D01*
G01*
X146480000Y-93495000D01*
G75*
G02*
X146330000Y-93645000I-150000J0D01*
G01*
X144330000Y-93645000D01*
G75*
G02*
X144180000Y-93495000I0J150000D01*
G01*
G37*
G36*
G01*
X144180000Y-94765000D02*
X144180000Y-94465000D01*
G75*
G02*
X144330000Y-94315000I150000J0D01*
G01*
X146330000Y-94315000D01*
G75*
G02*
X146480000Y-94465000I0J-150000D01*
G01*
X146480000Y-94765000D01*
G75*
G02*
X146330000Y-94915000I-150000J0D01*
G01*
X144330000Y-94915000D01*
G75*
G02*
X144180000Y-94765000I0J150000D01*
G01*
G37*
G36*
G01*
X144180000Y-96035000D02*
X144180000Y-95735000D01*
G75*
G02*
X144330000Y-95585000I150000J0D01*
G01*
X146330000Y-95585000D01*
G75*
G02*
X146480000Y-95735000I0J-150000D01*
G01*
X146480000Y-96035000D01*
G75*
G02*
X146330000Y-96185000I-150000J0D01*
G01*
X144330000Y-96185000D01*
G75*
G02*
X144180000Y-96035000I0J150000D01*
G01*
G37*
G36*
G01*
X144180000Y-97305000D02*
X144180000Y-97005000D01*
G75*
G02*
X144330000Y-96855000I150000J0D01*
G01*
X146330000Y-96855000D01*
G75*
G02*
X146480000Y-97005000I0J-150000D01*
G01*
X146480000Y-97305000D01*
G75*
G02*
X146330000Y-97455000I-150000J0D01*
G01*
X144330000Y-97455000D01*
G75*
G02*
X144180000Y-97305000I0J150000D01*
G01*
G37*
G36*
G01*
X144180000Y-98575000D02*
X144180000Y-98275000D01*
G75*
G02*
X144330000Y-98125000I150000J0D01*
G01*
X146330000Y-98125000D01*
G75*
G02*
X146480000Y-98275000I0J-150000D01*
G01*
X146480000Y-98575000D01*
G75*
G02*
X146330000Y-98725000I-150000J0D01*
G01*
X144330000Y-98725000D01*
G75*
G02*
X144180000Y-98575000I0J150000D01*
G01*
G37*
%TD*%
%TO.C,TP1*%
G36*
G01*
X153255000Y-107175300D02*
X153255000Y-105575100D01*
G75*
G02*
X153504900Y-105325200I249900J0D01*
G01*
X155105100Y-105325200D01*
G75*
G02*
X155355000Y-105575100I0J-249900D01*
G01*
X155355000Y-107175300D01*
G75*
G02*
X155105100Y-107425200I-249900J0D01*
G01*
X153504900Y-107425200D01*
G75*
G02*
X153255000Y-107175300I0J249900D01*
G01*
G37*
%TD*%
%TO.C,R21*%
G36*
G01*
X172535001Y-77800000D02*
X171634999Y-77800000D01*
G75*
G02*
X171385000Y-77550001I0J249999D01*
G01*
X171385000Y-76849999D01*
G75*
G02*
X171634999Y-76600000I249999J0D01*
G01*
X172535001Y-76600000D01*
G75*
G02*
X172785000Y-76849999I0J-249999D01*
G01*
X172785000Y-77550001D01*
G75*
G02*
X172535001Y-77800000I-249999J0D01*
G01*
G37*
G36*
G01*
X172535001Y-75800000D02*
X171634999Y-75800000D01*
G75*
G02*
X171385000Y-75550001I0J249999D01*
G01*
X171385000Y-74849999D01*
G75*
G02*
X171634999Y-74600000I249999J0D01*
G01*
X172535001Y-74600000D01*
G75*
G02*
X172785000Y-74849999I0J-249999D01*
G01*
X172785000Y-75550001D01*
G75*
G02*
X172535001Y-75800000I-249999J0D01*
G01*
G37*
%TD*%
%TO.C,R20*%
G36*
G01*
X149040001Y-108931000D02*
X148139999Y-108931000D01*
G75*
G02*
X147890000Y-108681001I0J249999D01*
G01*
X147890000Y-107980999D01*
G75*
G02*
X148139999Y-107731000I249999J0D01*
G01*
X149040001Y-107731000D01*
G75*
G02*
X149290000Y-107980999I0J-249999D01*
G01*
X149290000Y-108681001D01*
G75*
G02*
X149040001Y-108931000I-249999J0D01*
G01*
G37*
G36*
G01*
X149040001Y-106931000D02*
X148139999Y-106931000D01*
G75*
G02*
X147890000Y-106681001I0J249999D01*
G01*
X147890000Y-105980999D01*
G75*
G02*
X148139999Y-105731000I249999J0D01*
G01*
X149040001Y-105731000D01*
G75*
G02*
X149290000Y-105980999I0J-249999D01*
G01*
X149290000Y-106681001D01*
G75*
G02*
X149040001Y-106931000I-249999J0D01*
G01*
G37*
%TD*%
%TO.C,R19*%
G36*
G01*
X172535001Y-82610000D02*
X171634999Y-82610000D01*
G75*
G02*
X171385000Y-82360001I0J249999D01*
G01*
X171385000Y-81659999D01*
G75*
G02*
X171634999Y-81410000I249999J0D01*
G01*
X172535001Y-81410000D01*
G75*
G02*
X172785000Y-81659999I0J-249999D01*
G01*
X172785000Y-82360001D01*
G75*
G02*
X172535001Y-82610000I-249999J0D01*
G01*
G37*
G36*
G01*
X172535001Y-80610000D02*
X171634999Y-80610000D01*
G75*
G02*
X171385000Y-80360001I0J249999D01*
G01*
X171385000Y-79659999D01*
G75*
G02*
X171634999Y-79410000I249999J0D01*
G01*
X172535001Y-79410000D01*
G75*
G02*
X172785000Y-79659999I0J-249999D01*
G01*
X172785000Y-80360001D01*
G75*
G02*
X172535001Y-80610000I-249999J0D01*
G01*
G37*
%TD*%
%TO.C,R18*%
G36*
G01*
X166545000Y-84524001D02*
X166545000Y-83623999D01*
G75*
G02*
X166794999Y-83374000I249999J0D01*
G01*
X167495001Y-83374000D01*
G75*
G02*
X167745000Y-83623999I0J-249999D01*
G01*
X167745000Y-84524001D01*
G75*
G02*
X167495001Y-84774000I-249999J0D01*
G01*
X166794999Y-84774000D01*
G75*
G02*
X166545000Y-84524001I0J249999D01*
G01*
G37*
G36*
G01*
X168545000Y-84524001D02*
X168545000Y-83623999D01*
G75*
G02*
X168794999Y-83374000I249999J0D01*
G01*
X169495001Y-83374000D01*
G75*
G02*
X169745000Y-83623999I0J-249999D01*
G01*
X169745000Y-84524001D01*
G75*
G02*
X169495001Y-84774000I-249999J0D01*
G01*
X168794999Y-84774000D01*
G75*
G02*
X168545000Y-84524001I0J249999D01*
G01*
G37*
%TD*%
%TO.C,R17*%
G36*
G01*
X158311001Y-75800000D02*
X157410999Y-75800000D01*
G75*
G02*
X157161000Y-75550001I0J249999D01*
G01*
X157161000Y-74849999D01*
G75*
G02*
X157410999Y-74600000I249999J0D01*
G01*
X158311001Y-74600000D01*
G75*
G02*
X158561000Y-74849999I0J-249999D01*
G01*
X158561000Y-75550001D01*
G75*
G02*
X158311001Y-75800000I-249999J0D01*
G01*
G37*
G36*
G01*
X158311001Y-77800000D02*
X157410999Y-77800000D01*
G75*
G02*
X157161000Y-77550001I0J249999D01*
G01*
X157161000Y-76849999D01*
G75*
G02*
X157410999Y-76600000I249999J0D01*
G01*
X158311001Y-76600000D01*
G75*
G02*
X158561000Y-76849999I0J-249999D01*
G01*
X158561000Y-77550001D01*
G75*
G02*
X158311001Y-77800000I-249999J0D01*
G01*
G37*
%TD*%
%TO.C,R14*%
G36*
G01*
X145599999Y-105731000D02*
X146500001Y-105731000D01*
G75*
G02*
X146750000Y-105980999I0J-249999D01*
G01*
X146750000Y-106681001D01*
G75*
G02*
X146500001Y-106931000I-249999J0D01*
G01*
X145599999Y-106931000D01*
G75*
G02*
X145350000Y-106681001I0J249999D01*
G01*
X145350000Y-105980999D01*
G75*
G02*
X145599999Y-105731000I249999J0D01*
G01*
G37*
G36*
G01*
X145599999Y-107731000D02*
X146500001Y-107731000D01*
G75*
G02*
X146750000Y-107980999I0J-249999D01*
G01*
X146750000Y-108681001D01*
G75*
G02*
X146500001Y-108931000I-249999J0D01*
G01*
X145599999Y-108931000D01*
G75*
G02*
X145350000Y-108681001I0J249999D01*
G01*
X145350000Y-107980999D01*
G75*
G02*
X145599999Y-107731000I249999J0D01*
G01*
G37*
%TD*%
%TO.C,R13*%
G36*
G01*
X158311001Y-80610000D02*
X157410999Y-80610000D01*
G75*
G02*
X157161000Y-80360001I0J249999D01*
G01*
X157161000Y-79659999D01*
G75*
G02*
X157410999Y-79410000I249999J0D01*
G01*
X158311001Y-79410000D01*
G75*
G02*
X158561000Y-79659999I0J-249999D01*
G01*
X158561000Y-80360001D01*
G75*
G02*
X158311001Y-80610000I-249999J0D01*
G01*
G37*
G36*
G01*
X158311001Y-82610000D02*
X157410999Y-82610000D01*
G75*
G02*
X157161000Y-82360001I0J249999D01*
G01*
X157161000Y-81659999D01*
G75*
G02*
X157410999Y-81410000I249999J0D01*
G01*
X158311001Y-81410000D01*
G75*
G02*
X158561000Y-81659999I0J-249999D01*
G01*
X158561000Y-82360001D01*
G75*
G02*
X158311001Y-82610000I-249999J0D01*
G01*
G37*
%TD*%
%TO.C,R12*%
G36*
G01*
X171780000Y-108134999D02*
X171780000Y-109035001D01*
G75*
G02*
X171530001Y-109285000I-249999J0D01*
G01*
X170829999Y-109285000D01*
G75*
G02*
X170580000Y-109035001I0J249999D01*
G01*
X170580000Y-108134999D01*
G75*
G02*
X170829999Y-107885000I249999J0D01*
G01*
X171530001Y-107885000D01*
G75*
G02*
X171780000Y-108134999I0J-249999D01*
G01*
G37*
G36*
G01*
X169780000Y-108134999D02*
X169780000Y-109035001D01*
G75*
G02*
X169530001Y-109285000I-249999J0D01*
G01*
X168829999Y-109285000D01*
G75*
G02*
X168580000Y-109035001I0J249999D01*
G01*
X168580000Y-108134999D01*
G75*
G02*
X168829999Y-107885000I249999J0D01*
G01*
X169530001Y-107885000D01*
G75*
G02*
X169780000Y-108134999I0J-249999D01*
G01*
G37*
%TD*%
D21*
%TO.C,R11*%
X135890000Y-102235000D03*
X135890000Y-109855000D03*
%TD*%
%TO.C,R10*%
G36*
G01*
X152215001Y-99136000D02*
X151314999Y-99136000D01*
G75*
G02*
X151065000Y-98886001I0J249999D01*
G01*
X151065000Y-98185999D01*
G75*
G02*
X151314999Y-97936000I249999J0D01*
G01*
X152215001Y-97936000D01*
G75*
G02*
X152465000Y-98185999I0J-249999D01*
G01*
X152465000Y-98886001D01*
G75*
G02*
X152215001Y-99136000I-249999J0D01*
G01*
G37*
G36*
G01*
X152215001Y-97136000D02*
X151314999Y-97136000D01*
G75*
G02*
X151065000Y-96886001I0J249999D01*
G01*
X151065000Y-96185999D01*
G75*
G02*
X151314999Y-95936000I249999J0D01*
G01*
X152215001Y-95936000D01*
G75*
G02*
X152465000Y-96185999I0J-249999D01*
G01*
X152465000Y-96886001D01*
G75*
G02*
X152215001Y-97136000I-249999J0D01*
G01*
G37*
%TD*%
%TO.C,R9*%
G36*
G01*
X160695000Y-92525001D02*
X160695000Y-91624999D01*
G75*
G02*
X160944999Y-91375000I249999J0D01*
G01*
X161645001Y-91375000D01*
G75*
G02*
X161895000Y-91624999I0J-249999D01*
G01*
X161895000Y-92525001D01*
G75*
G02*
X161645001Y-92775000I-249999J0D01*
G01*
X160944999Y-92775000D01*
G75*
G02*
X160695000Y-92525001I0J249999D01*
G01*
G37*
G36*
G01*
X162695000Y-92525001D02*
X162695000Y-91624999D01*
G75*
G02*
X162944999Y-91375000I249999J0D01*
G01*
X163645001Y-91375000D01*
G75*
G02*
X163895000Y-91624999I0J-249999D01*
G01*
X163895000Y-92525001D01*
G75*
G02*
X163645001Y-92775000I-249999J0D01*
G01*
X162944999Y-92775000D01*
G75*
G02*
X162695000Y-92525001I0J249999D01*
G01*
G37*
%TD*%
%TO.C,R8*%
G36*
G01*
X158565001Y-90135000D02*
X157664999Y-90135000D01*
G75*
G02*
X157415000Y-89885001I0J249999D01*
G01*
X157415000Y-89184999D01*
G75*
G02*
X157664999Y-88935000I249999J0D01*
G01*
X158565001Y-88935000D01*
G75*
G02*
X158815000Y-89184999I0J-249999D01*
G01*
X158815000Y-89885001D01*
G75*
G02*
X158565001Y-90135000I-249999J0D01*
G01*
G37*
G36*
G01*
X158565001Y-88135000D02*
X157664999Y-88135000D01*
G75*
G02*
X157415000Y-87885001I0J249999D01*
G01*
X157415000Y-87184999D01*
G75*
G02*
X157664999Y-86935000I249999J0D01*
G01*
X158565001Y-86935000D01*
G75*
G02*
X158815000Y-87184999I0J-249999D01*
G01*
X158815000Y-87885001D01*
G75*
G02*
X158565001Y-88135000I-249999J0D01*
G01*
G37*
%TD*%
%TO.C,R7*%
G36*
G01*
X160204999Y-86935000D02*
X161105001Y-86935000D01*
G75*
G02*
X161355000Y-87184999I0J-249999D01*
G01*
X161355000Y-87885001D01*
G75*
G02*
X161105001Y-88135000I-249999J0D01*
G01*
X160204999Y-88135000D01*
G75*
G02*
X159955000Y-87885001I0J249999D01*
G01*
X159955000Y-87184999D01*
G75*
G02*
X160204999Y-86935000I249999J0D01*
G01*
G37*
G36*
G01*
X160204999Y-88935000D02*
X161105001Y-88935000D01*
G75*
G02*
X161355000Y-89184999I0J-249999D01*
G01*
X161355000Y-89885001D01*
G75*
G02*
X161105001Y-90135000I-249999J0D01*
G01*
X160204999Y-90135000D01*
G75*
G02*
X159955000Y-89885001I0J249999D01*
G01*
X159955000Y-89184999D01*
G75*
G02*
X160204999Y-88935000I249999J0D01*
G01*
G37*
%TD*%
%TO.C,R6*%
G36*
G01*
X151314999Y-90285000D02*
X152215001Y-90285000D01*
G75*
G02*
X152465000Y-90534999I0J-249999D01*
G01*
X152465000Y-91235001D01*
G75*
G02*
X152215001Y-91485000I-249999J0D01*
G01*
X151314999Y-91485000D01*
G75*
G02*
X151065000Y-91235001I0J249999D01*
G01*
X151065000Y-90534999D01*
G75*
G02*
X151314999Y-90285000I249999J0D01*
G01*
G37*
G36*
G01*
X151314999Y-92285000D02*
X152215001Y-92285000D01*
G75*
G02*
X152465000Y-92534999I0J-249999D01*
G01*
X152465000Y-93235001D01*
G75*
G02*
X152215001Y-93485000I-249999J0D01*
G01*
X151314999Y-93485000D01*
G75*
G02*
X151065000Y-93235001I0J249999D01*
G01*
X151065000Y-92534999D01*
G75*
G02*
X151314999Y-92285000I249999J0D01*
G01*
G37*
%TD*%
%TO.C,R4*%
G36*
G01*
X148655000Y-99879999D02*
X148655000Y-100780001D01*
G75*
G02*
X148405001Y-101030000I-249999J0D01*
G01*
X147704999Y-101030000D01*
G75*
G02*
X147455000Y-100780001I0J249999D01*
G01*
X147455000Y-99879999D01*
G75*
G02*
X147704999Y-99630000I249999J0D01*
G01*
X148405001Y-99630000D01*
G75*
G02*
X148655000Y-99879999I0J-249999D01*
G01*
G37*
G36*
G01*
X146655000Y-99879999D02*
X146655000Y-100780001D01*
G75*
G02*
X146405001Y-101030000I-249999J0D01*
G01*
X145704999Y-101030000D01*
G75*
G02*
X145455000Y-100780001I0J249999D01*
G01*
X145455000Y-99879999D01*
G75*
G02*
X145704999Y-99630000I249999J0D01*
G01*
X146405001Y-99630000D01*
G75*
G02*
X146655000Y-99879999I0J-249999D01*
G01*
G37*
%TD*%
%TO.C,R2*%
G36*
G01*
X162744999Y-86935000D02*
X163645001Y-86935000D01*
G75*
G02*
X163895000Y-87184999I0J-249999D01*
G01*
X163895000Y-87885001D01*
G75*
G02*
X163645001Y-88135000I-249999J0D01*
G01*
X162744999Y-88135000D01*
G75*
G02*
X162495000Y-87885001I0J249999D01*
G01*
X162495000Y-87184999D01*
G75*
G02*
X162744999Y-86935000I249999J0D01*
G01*
G37*
G36*
G01*
X162744999Y-88935000D02*
X163645001Y-88935000D01*
G75*
G02*
X163895000Y-89184999I0J-249999D01*
G01*
X163895000Y-89885001D01*
G75*
G02*
X163645001Y-90135000I-249999J0D01*
G01*
X162744999Y-90135000D01*
G75*
G02*
X162495000Y-89885001I0J249999D01*
G01*
X162495000Y-89184999D01*
G75*
G02*
X162744999Y-88935000I249999J0D01*
G01*
G37*
%TD*%
%TO.C,Q1*%
G36*
G01*
X137229001Y-108280000D02*
X136328999Y-108280000D01*
G75*
G02*
X136079000Y-108030001I0J249999D01*
G01*
X136079000Y-107329999D01*
G75*
G02*
X136328999Y-107080000I249999J0D01*
G01*
X137229001Y-107080000D01*
G75*
G02*
X137479000Y-107329999I0J-249999D01*
G01*
X137479000Y-108030001D01*
G75*
G02*
X137229001Y-108280000I-249999J0D01*
G01*
G37*
G36*
G01*
X135329001Y-108280000D02*
X134428999Y-108280000D01*
G75*
G02*
X134179000Y-108030001I0J249999D01*
G01*
X134179000Y-107329999D01*
G75*
G02*
X134428999Y-107080000I249999J0D01*
G01*
X135329001Y-107080000D01*
G75*
G02*
X135579000Y-107329999I0J-249999D01*
G01*
X135579000Y-108030001D01*
G75*
G02*
X135329001Y-108280000I-249999J0D01*
G01*
G37*
G36*
G01*
X136279001Y-106280000D02*
X135378999Y-106280000D01*
G75*
G02*
X135129000Y-106030001I0J249999D01*
G01*
X135129000Y-105329999D01*
G75*
G02*
X135378999Y-105080000I249999J0D01*
G01*
X136279001Y-105080000D01*
G75*
G02*
X136529000Y-105329999I0J-249999D01*
G01*
X136529000Y-106030001D01*
G75*
G02*
X136279001Y-106280000I-249999J0D01*
G01*
G37*
%TD*%
D15*
%TO.C,D8*%
X140462000Y-114935000D03*
D16*
X140462000Y-112395000D03*
%TD*%
D23*
%TO.C,D6*%
X163195000Y-114935000D03*
D24*
X155575000Y-114935000D03*
%TD*%
D23*
%TO.C,D5*%
X163195000Y-109220000D03*
D24*
X155575000Y-109220000D03*
%TD*%
D16*
%TO.C,D4*%
X135890000Y-112395000D03*
D15*
X135890000Y-114935000D03*
%TD*%
D23*
%TO.C,D3*%
X153543000Y-84074000D03*
D24*
X145923000Y-84074000D03*
%TD*%
D23*
%TO.C,D2*%
X163195000Y-103505000D03*
D24*
X155575000Y-103505000D03*
%TD*%
D23*
%TO.C,D1*%
X138430000Y-88138000D03*
D24*
X130810000Y-88138000D03*
%TD*%
D23*
%TO.C,C4*%
X147701000Y-79121000D03*
D24*
X147701000Y-76621000D03*
%TD*%
D11*
X156083000Y-85090000D03*
X160020000Y-85090000D03*
X172720000Y-89281000D03*
X172515730Y-113707843D03*
X172720000Y-84201000D03*
X166031847Y-113707847D03*
X140995868Y-86505021D03*
X140970000Y-80645000D03*
X151765000Y-94869000D03*
X151765000Y-86487000D03*
X151765000Y-100304970D03*
X151706609Y-112834391D03*
X142875000Y-105200947D03*
X142875000Y-101092000D03*
X145415000Y-88900000D03*
X141351000Y-88900000D03*
M02*
